%TF.GenerationSoftware,KiCad,Pcbnew,9.0.2*%
%TF.CreationDate,2025-07-24T19:17:49+12:00*%
%TF.ProjectId,Delay,44656c61-792e-46b6-9963-61645f706362,rev?*%
%TF.SameCoordinates,Original*%
%TF.FileFunction,Copper,L2,Bot*%
%TF.FilePolarity,Positive*%
%FSLAX46Y46*%
G04 Gerber Fmt 4.6, Leading zero omitted, Abs format (unit mm)*
G04 Created by KiCad (PCBNEW 9.0.2) date 2025-07-24 19:17:49*
%MOMM*%
%LPD*%
G01*
G04 APERTURE LIST*
G04 Aperture macros list*
%AMRoundRect*
0 Rectangle with rounded corners*
0 $1 Rounding radius*
0 $2 $3 $4 $5 $6 $7 $8 $9 X,Y pos of 4 corners*
0 Add a 4 corners polygon primitive as box body*
4,1,4,$2,$3,$4,$5,$6,$7,$8,$9,$2,$3,0*
0 Add four circle primitives for the rounded corners*
1,1,$1+$1,$2,$3*
1,1,$1+$1,$4,$5*
1,1,$1+$1,$6,$7*
1,1,$1+$1,$8,$9*
0 Add four rect primitives between the rounded corners*
20,1,$1+$1,$2,$3,$4,$5,0*
20,1,$1+$1,$4,$5,$6,$7,0*
20,1,$1+$1,$6,$7,$8,$9,0*
20,1,$1+$1,$8,$9,$2,$3,0*%
G04 Aperture macros list end*
%TA.AperFunction,ComponentPad*%
%ADD10RoundRect,0.250000X0.550000X-0.550000X0.550000X0.550000X-0.550000X0.550000X-0.550000X-0.550000X0*%
%TD*%
%TA.AperFunction,ComponentPad*%
%ADD11C,1.600000*%
%TD*%
%TA.AperFunction,ComponentPad*%
%ADD12RoundRect,0.250000X0.550000X0.550000X-0.550000X0.550000X-0.550000X-0.550000X0.550000X-0.550000X0*%
%TD*%
%TA.AperFunction,ComponentPad*%
%ADD13RoundRect,0.250000X-0.550000X0.550000X-0.550000X-0.550000X0.550000X-0.550000X0.550000X0.550000X0*%
%TD*%
%TA.AperFunction,ComponentPad*%
%ADD14C,0.800000*%
%TD*%
%TA.AperFunction,ComponentPad*%
%ADD15C,6.400000*%
%TD*%
%TA.AperFunction,ComponentPad*%
%ADD16R,2.500000X2.500000*%
%TD*%
%TA.AperFunction,ComponentPad*%
%ADD17R,1.800000X1.800000*%
%TD*%
%TA.AperFunction,ComponentPad*%
%ADD18C,1.800000*%
%TD*%
%TA.AperFunction,ComponentPad*%
%ADD19RoundRect,0.750000X0.750000X-1.250000X0.750000X1.250000X-0.750000X1.250000X-0.750000X-1.250000X0*%
%TD*%
%TA.AperFunction,ComponentPad*%
%ADD20O,4.500000X3.000000*%
%TD*%
%TA.AperFunction,ComponentPad*%
%ADD21R,4.600000X2.000000*%
%TD*%
%TA.AperFunction,ComponentPad*%
%ADD22O,4.200000X2.000000*%
%TD*%
%TA.AperFunction,ComponentPad*%
%ADD23O,2.000000X4.200000*%
%TD*%
%TA.AperFunction,ComponentPad*%
%ADD24C,3.000000*%
%TD*%
%TA.AperFunction,ViaPad*%
%ADD25C,0.600000*%
%TD*%
%TA.AperFunction,Conductor*%
%ADD26C,0.500000*%
%TD*%
G04 APERTURE END LIST*
D10*
%TO.P,CF7,1*%
%TO.N,Net-(C15-Pad2)*%
X174500000Y-77750000D03*
D11*
%TO.P,CF7,2*%
%TO.N,Net-(CF7-Pad2)*%
X174500000Y-75250000D03*
%TD*%
D10*
%TO.P,CF6,1*%
%TO.N,Delayed Signal*%
X167750000Y-77750000D03*
D11*
%TO.P,CF6,2*%
%TO.N,Net-(CF6-Pad2)*%
X167750000Y-75250000D03*
%TD*%
D12*
%TO.P,CF5,1*%
%TO.N,Net-(CF5-Pad1)*%
X150000000Y-108000000D03*
D11*
%TO.P,CF5,2*%
%TO.N,Net-(C14-Pad1)*%
X147500000Y-108000000D03*
%TD*%
D10*
%TO.P,CF4,1*%
%TO.N,Buffered Signal*%
X135750000Y-79000000D03*
D11*
%TO.P,CF4,2*%
%TO.N,Net-(CF4-Pad2)*%
X135750000Y-76500000D03*
%TD*%
D13*
%TO.P,CF3,1*%
%TO.N,+5V*%
X154250000Y-68750000D03*
D11*
%TO.P,CF3,2*%
%TO.N,GND*%
X154250000Y-71250000D03*
%TD*%
D13*
%TO.P,CF2,1*%
%TO.N,+9V*%
X146000000Y-68750000D03*
D11*
%TO.P,CF2,2*%
%TO.N,GND*%
X146000000Y-71250000D03*
%TD*%
D10*
%TO.P,CF1,1*%
%TO.N,Net-(U2-REF)*%
X127500000Y-79000000D03*
D11*
%TO.P,CF1,2*%
%TO.N,GND*%
X127500000Y-76500000D03*
%TD*%
D14*
%TO.P,H3,1*%
%TO.N,N/C*%
X132100000Y-44500000D03*
X132802944Y-42802944D03*
X132802944Y-46197056D03*
X134500000Y-42100000D03*
D15*
X134500000Y-44500000D03*
D14*
X134500000Y-46900000D03*
X136197056Y-42802944D03*
X136197056Y-46197056D03*
X136900000Y-44500000D03*
%TD*%
%TO.P,H2,1*%
%TO.N,N/C*%
X163100000Y-44500000D03*
X163802944Y-42802944D03*
X163802944Y-46197056D03*
X165500000Y-42100000D03*
D15*
X165500000Y-44500000D03*
D14*
X165500000Y-46900000D03*
X167197056Y-42802944D03*
X167197056Y-46197056D03*
X167900000Y-44500000D03*
%TD*%
D16*
%TO.P,+9VBATT1,1,1*%
%TO.N,Net-(+9VBATT1-Pad1)*%
X159250000Y-43500000D03*
%TD*%
D17*
%TO.P,LEVEL1,1,1*%
%TO.N,GND*%
X147500000Y-93550000D03*
D18*
%TO.P,LEVEL1,2,2*%
%TO.N,Net-(CF6-Pad2)*%
X150000000Y-93550000D03*
%TO.P,LEVEL1,3,3*%
%TO.N,Net-(CF5-Pad1)*%
X152500000Y-93550000D03*
D19*
%TO.P,LEVEL1,MP*%
%TO.N,N/C*%
X145250000Y-86050000D03*
X154750000Y-86050000D03*
%TD*%
D17*
%TO.P,TIME1,1,1*%
%TO.N,GND*%
X164000000Y-68050000D03*
D18*
%TO.P,TIME1,2,2*%
%TO.N,Net-(R5-Pad1)*%
X166500000Y-68050000D03*
%TO.P,TIME1,3,3*%
X169000000Y-68050000D03*
D19*
%TO.P,TIME1,MP*%
%TO.N,N/C*%
X161750000Y-60550000D03*
X171250000Y-60550000D03*
%TD*%
D20*
%TO.P,S1,1*%
%TO.N,Wet In*%
X144800000Y-134500000D03*
%TO.P,S1,2*%
%TO.N,Guitar In*%
X144800000Y-139200000D03*
%TO.P,S1,3*%
%TO.N,Net-(S1-Pad3)*%
X144800000Y-143900000D03*
%TO.P,S1,4*%
%TO.N,Net-(D1-K)*%
X150000000Y-134500000D03*
%TO.P,S1,5*%
%TO.N,GND*%
X150000000Y-139200000D03*
%TO.P,S1,6*%
%TO.N,Wet In*%
X150000000Y-143900000D03*
%TO.P,S1,7*%
%TO.N,Wet Out*%
X155200000Y-134500000D03*
%TO.P,S1,8*%
%TO.N,Guitar Out*%
X155200000Y-139200000D03*
%TO.P,S1,9*%
%TO.N,Net-(S1-Pad3)*%
X155200000Y-143900000D03*
%TD*%
D16*
%TO.P,-9VBATT1,1,1*%
%TO.N,Net-(-9VBATT1-Pad1)*%
X159250000Y-49000000D03*
%TD*%
D17*
%TO.P,D1,1,K*%
%TO.N,Net-(D1-K)*%
X173770000Y-135000000D03*
D18*
%TO.P,D1,2,A*%
%TO.N,Net-(D1-A)*%
X171230000Y-135000000D03*
%TD*%
D17*
%TO.P,REPEATS1,1,1*%
%TO.N,GND*%
X131000000Y-68050000D03*
D18*
%TO.P,REPEATS1,2,2*%
%TO.N,Net-(C17-Pad1)*%
X133500000Y-68050000D03*
%TO.P,REPEATS1,3,3*%
%TO.N,Net-(C16-Pad2)*%
X136000000Y-68050000D03*
D19*
%TO.P,REPEATS1,MP*%
%TO.N,N/C*%
X128750000Y-60550000D03*
X138250000Y-60550000D03*
%TD*%
D14*
%TO.P,H4,1*%
%TO.N,N/C*%
X132100000Y-145500000D03*
X132802944Y-143802944D03*
X132802944Y-147197056D03*
X134500000Y-143100000D03*
D15*
X134500000Y-145500000D03*
D14*
X134500000Y-147900000D03*
X136197056Y-143802944D03*
X136197056Y-147197056D03*
X136900000Y-145500000D03*
%TD*%
%TO.P,H1,1*%
%TO.N,N/C*%
X163100000Y-145500000D03*
X163802944Y-143802944D03*
X163802944Y-147197056D03*
X165500000Y-143100000D03*
D15*
X165500000Y-145500000D03*
D14*
X165500000Y-147900000D03*
X167197056Y-143802944D03*
X167197056Y-147197056D03*
X167900000Y-145500000D03*
%TD*%
D21*
%TO.P,J2,1*%
%TO.N,GND*%
X150000000Y-51850000D03*
D22*
%TO.P,J2,2*%
%TO.N,+9V*%
X150000000Y-45550000D03*
D23*
%TO.P,J2,3*%
%TO.N,Net-(+9VBATT1-Pad1)*%
X154800000Y-48950000D03*
%TD*%
D24*
%TO.P,J3,R*%
%TO.N,N/C*%
X131650000Y-109885000D03*
%TO.P,J3,RN*%
X131650000Y-126115000D03*
%TO.P,J3,S*%
%TO.N,GND*%
X125300000Y-109885000D03*
%TO.P,J3,SN*%
%TO.N,unconnected-(J3-PadSN)*%
X125300000Y-126115000D03*
%TO.P,J3,T*%
%TO.N,Guitar Out*%
X138000000Y-109885000D03*
%TO.P,J3,TN*%
%TO.N,unconnected-(J3-PadTN)*%
X138000000Y-126115000D03*
%TD*%
%TO.P,J1,R*%
%TO.N,N/C*%
X168375000Y-126115000D03*
%TO.P,J1,RN*%
X168375000Y-109885000D03*
%TO.P,J1,S*%
%TO.N,GND*%
X174725000Y-126115000D03*
%TO.P,J1,SN*%
%TO.N,Net-(-9VBATT1-Pad1)*%
X174725000Y-109885000D03*
%TO.P,J1,T*%
%TO.N,Guitar In*%
X162025000Y-126115000D03*
%TO.P,J1,TN*%
%TO.N,unconnected-(J1-PadTN)*%
X162025000Y-109885000D03*
%TD*%
D25*
%TO.N,+9V*%
X160750000Y-79750000D03*
X152000000Y-76500000D03*
%TO.N,GND*%
X143325000Y-51250000D03*
X124050000Y-97095000D03*
X125950000Y-92095000D03*
X145000000Y-102800000D03*
X137050000Y-97000000D03*
X160500000Y-102925000D03*
X125950000Y-89595000D03*
X162250000Y-104575000D03*
X128925000Y-91460000D03*
X167905000Y-94750000D03*
X155000000Y-102800000D03*
X144150000Y-42250000D03*
X152250000Y-59500000D03*
X164575000Y-136250000D03*
X124050000Y-94595000D03*
X143975000Y-47500000D03*
X128925000Y-90190000D03*
X143975000Y-45000000D03*
%TO.N,+4.5V*%
X158000000Y-82250000D03*
X149500000Y-79000000D03*
%TO.N,Guitar In*%
X142000000Y-131250000D03*
%TO.N,Wet In*%
X162250000Y-103000000D03*
X157750000Y-107250000D03*
%TO.N,+5V*%
X128912500Y-87662500D03*
X137500000Y-82250000D03*
%TO.N,Net-(C12-Pad1)*%
X139500000Y-105500000D03*
X127700000Y-103300000D03*
X130750000Y-104575000D03*
X143000000Y-102925000D03*
%TO.N,Net-(C13-Pad1)*%
X136000000Y-104575000D03*
X136000000Y-101000000D03*
%TO.N,Buffered Signal*%
X172475000Y-91275000D03*
X152750000Y-89500000D03*
X164095000Y-94750000D03*
X147250000Y-89500000D03*
%TO.N,Net-(CF4-Pad2)*%
X131000000Y-97250000D03*
X134250000Y-102925000D03*
%TO.N,Net-(U1A--)*%
X164000000Y-104575000D03*
X164250000Y-99500000D03*
%TO.N,Net-(C16-Pad1)*%
X143000000Y-104575000D03*
X139500000Y-107000000D03*
%TO.N,Net-(R5-Pad1)*%
X147500000Y-104500000D03*
X144000000Y-106250000D03*
%TD*%
D26*
%TO.N,+9V*%
X155250000Y-76500000D02*
X152000000Y-76500000D01*
X158500000Y-79750000D02*
X155250000Y-76500000D01*
X160750000Y-79750000D02*
X158500000Y-79750000D01*
%TO.N,+4.5V*%
X152750000Y-79000000D02*
X149500000Y-79000000D01*
X156000000Y-82250000D02*
X152750000Y-79000000D01*
X158000000Y-82250000D02*
X156000000Y-82250000D01*
%TO.N,Guitar In*%
X140000000Y-133250000D02*
X140000000Y-138000000D01*
X140000000Y-138000000D02*
X141200000Y-139200000D01*
X141200000Y-139200000D02*
X144800000Y-139200000D01*
X142000000Y-131250000D02*
X140000000Y-133250000D01*
%TO.N,Wet In*%
X157750000Y-107250000D02*
X162000000Y-103000000D01*
X162000000Y-103000000D02*
X162250000Y-103000000D01*
%TO.N,Net-(S1-Pad3)*%
X146751000Y-145851000D02*
X144800000Y-143900000D01*
X153249000Y-145851000D02*
X146751000Y-145851000D01*
X155200000Y-143900000D02*
X153249000Y-145851000D01*
%TO.N,+5V*%
X134250000Y-85500000D02*
X131075000Y-85500000D01*
X131075000Y-85500000D02*
X128912500Y-87662500D01*
X137500000Y-82250000D02*
X134250000Y-85500000D01*
%TO.N,Net-(C12-Pad1)*%
X143000000Y-102925000D02*
X142075000Y-102925000D01*
X130750000Y-104575000D02*
X128975000Y-104575000D01*
X142075000Y-102925000D02*
X139500000Y-105500000D01*
X128975000Y-104575000D02*
X127700000Y-103300000D01*
%TO.N,Net-(C13-Pad1)*%
X136000000Y-104575000D02*
X136000000Y-101000000D01*
%TO.N,Buffered Signal*%
X152750000Y-89500000D02*
X147250000Y-89500000D01*
X172475000Y-91275000D02*
X167570000Y-91275000D01*
X167570000Y-91275000D02*
X164095000Y-94750000D01*
%TO.N,Net-(CF4-Pad2)*%
X134250000Y-102925000D02*
X134250000Y-100500000D01*
X134250000Y-100500000D02*
X131000000Y-97250000D01*
%TO.N,Net-(U1A--)*%
X164000000Y-99750000D02*
X164250000Y-99500000D01*
X164000000Y-104575000D02*
X164000000Y-99750000D01*
%TO.N,Net-(C16-Pad1)*%
X139500000Y-107000000D02*
X141925000Y-104575000D01*
X141925000Y-104575000D02*
X143000000Y-104575000D01*
%TO.N,Net-(R5-Pad1)*%
X145750000Y-106250000D02*
X147500000Y-104500000D01*
X144000000Y-106250000D02*
X145750000Y-106250000D01*
%TD*%
%TA.AperFunction,Conductor*%
%TO.N,GND*%
G36*
X169442539Y-40520185D02*
G01*
X169488294Y-40572989D01*
X169499500Y-40624500D01*
X169499500Y-45227512D01*
X169537072Y-45680942D01*
X169537073Y-45680948D01*
X169611337Y-46125992D01*
X169611965Y-46129752D01*
X169723662Y-46570834D01*
X169723664Y-46570841D01*
X169723666Y-46570847D01*
X169871403Y-47001188D01*
X169898765Y-47063566D01*
X170043027Y-47392452D01*
X170054173Y-47417861D01*
X170054174Y-47417865D01*
X170270734Y-47818032D01*
X170519598Y-48198946D01*
X170799068Y-48558010D01*
X171107233Y-48892766D01*
X171308377Y-49077932D01*
X171441991Y-49200933D01*
X171801054Y-49480402D01*
X172181969Y-49729266D01*
X172582134Y-49945825D01*
X172998815Y-50128598D01*
X173429166Y-50276338D01*
X173870248Y-50388035D01*
X174319047Y-50462926D01*
X174319054Y-50462926D01*
X174319057Y-50462927D01*
X174618056Y-50487702D01*
X174772498Y-50500500D01*
X174934108Y-50500500D01*
X179375500Y-50500500D01*
X179442539Y-50520185D01*
X179488294Y-50572989D01*
X179499500Y-50624500D01*
X179499500Y-139375500D01*
X179479815Y-139442539D01*
X179427011Y-139488294D01*
X179375500Y-139499500D01*
X174772487Y-139499500D01*
X174319057Y-139537072D01*
X174319051Y-139537073D01*
X173870251Y-139611964D01*
X173870247Y-139611965D01*
X173712468Y-139651920D01*
X173429166Y-139723662D01*
X173429160Y-139723663D01*
X173429152Y-139723666D01*
X172998811Y-139871403D01*
X172582138Y-140054173D01*
X172582134Y-140054174D01*
X172181967Y-140270734D01*
X171801053Y-140519598D01*
X171441989Y-140799068D01*
X171107233Y-141107233D01*
X170799068Y-141441989D01*
X170519598Y-141801053D01*
X170270734Y-142181967D01*
X170054174Y-142582134D01*
X170054173Y-142582138D01*
X169871403Y-142998811D01*
X169723666Y-143429152D01*
X169723663Y-143429160D01*
X169723662Y-143429166D01*
X169681601Y-143595261D01*
X169611965Y-143870247D01*
X169611964Y-143870251D01*
X169537073Y-144319051D01*
X169537072Y-144319057D01*
X169499500Y-144772487D01*
X169499500Y-149375500D01*
X169479815Y-149442539D01*
X169427011Y-149488294D01*
X169375500Y-149499500D01*
X130624500Y-149499500D01*
X130557461Y-149479815D01*
X130511706Y-149427011D01*
X130500500Y-149375500D01*
X130500500Y-145318206D01*
X130799500Y-145318206D01*
X130799500Y-145681794D01*
X130801101Y-145698046D01*
X130835137Y-146043630D01*
X130906064Y-146400212D01*
X130906067Y-146400223D01*
X131011614Y-146748165D01*
X131150754Y-147084078D01*
X131150756Y-147084083D01*
X131322140Y-147404720D01*
X131322151Y-147404738D01*
X131524140Y-147707035D01*
X131524150Y-147707049D01*
X131754807Y-147988106D01*
X132011893Y-148245192D01*
X132011898Y-148245196D01*
X132011899Y-148245197D01*
X132292956Y-148475854D01*
X132595268Y-148677853D01*
X132595277Y-148677858D01*
X132595279Y-148677859D01*
X132915916Y-148849243D01*
X132915918Y-148849243D01*
X132915924Y-148849247D01*
X133251836Y-148988386D01*
X133599767Y-149093930D01*
X133599773Y-149093931D01*
X133599776Y-149093932D01*
X133599787Y-149093935D01*
X133956369Y-149164862D01*
X134318206Y-149200500D01*
X134318209Y-149200500D01*
X134681791Y-149200500D01*
X134681794Y-149200500D01*
X135043631Y-149164862D01*
X135113045Y-149151054D01*
X135400212Y-149093935D01*
X135400223Y-149093932D01*
X135400223Y-149093931D01*
X135400233Y-149093930D01*
X135748164Y-148988386D01*
X136084076Y-148849247D01*
X136404732Y-148677853D01*
X136707044Y-148475854D01*
X136988101Y-148245197D01*
X137245197Y-147988101D01*
X137475854Y-147707044D01*
X137677853Y-147404732D01*
X137849247Y-147084076D01*
X137988386Y-146748164D01*
X138093930Y-146400233D01*
X138093932Y-146400223D01*
X138093935Y-146400212D01*
X138164862Y-146043630D01*
X138175398Y-145936659D01*
X138200500Y-145681794D01*
X138200500Y-145318206D01*
X138164862Y-144956369D01*
X138131113Y-144786700D01*
X138093935Y-144599787D01*
X138093932Y-144599776D01*
X138093931Y-144599773D01*
X138093930Y-144599767D01*
X137988386Y-144251836D01*
X137849247Y-143915924D01*
X137849243Y-143915916D01*
X137799725Y-143823274D01*
X137770646Y-143768872D01*
X142049500Y-143768872D01*
X142049500Y-144031127D01*
X142074192Y-144218670D01*
X142083730Y-144291116D01*
X142091217Y-144319057D01*
X142151602Y-144544418D01*
X142151605Y-144544428D01*
X142251953Y-144786690D01*
X142251958Y-144786700D01*
X142383075Y-145013803D01*
X142542718Y-145221851D01*
X142542726Y-145221860D01*
X142728140Y-145407274D01*
X142728148Y-145407281D01*
X142936196Y-145566924D01*
X143163299Y-145698041D01*
X143163309Y-145698046D01*
X143405571Y-145798394D01*
X143405581Y-145798398D01*
X143658884Y-145866270D01*
X143918880Y-145900500D01*
X143918887Y-145900500D01*
X145685180Y-145900500D01*
X145685180Y-145901884D01*
X145747655Y-145915847D01*
X145775292Y-145936659D01*
X146272585Y-146433952D01*
X146292354Y-146447161D01*
X146310075Y-146459002D01*
X146310081Y-146459005D01*
X146313373Y-146461205D01*
X146395505Y-146516084D01*
X146433862Y-146531972D01*
X146532088Y-146572659D01*
X146648241Y-146595763D01*
X146667468Y-146599587D01*
X146677081Y-146601500D01*
X146677082Y-146601500D01*
X153322920Y-146601500D01*
X153420462Y-146582096D01*
X153467913Y-146572658D01*
X153604495Y-146516084D01*
X153665386Y-146475398D01*
X153727416Y-146433952D01*
X154224709Y-145936656D01*
X154286028Y-145903174D01*
X154314820Y-145901031D01*
X154314820Y-145900500D01*
X156081113Y-145900500D01*
X156081120Y-145900500D01*
X156341116Y-145866270D01*
X156594419Y-145798398D01*
X156836697Y-145698043D01*
X157063803Y-145566924D01*
X157271851Y-145407282D01*
X157271855Y-145407277D01*
X157271860Y-145407274D01*
X157360928Y-145318206D01*
X161799500Y-145318206D01*
X161799500Y-145681794D01*
X161801101Y-145698046D01*
X161835137Y-146043630D01*
X161906064Y-146400212D01*
X161906067Y-146400223D01*
X162011614Y-146748165D01*
X162150754Y-147084078D01*
X162150756Y-147084083D01*
X162322140Y-147404720D01*
X162322151Y-147404738D01*
X162524140Y-147707035D01*
X162524150Y-147707049D01*
X162754807Y-147988106D01*
X163011893Y-148245192D01*
X163011898Y-148245196D01*
X163011899Y-148245197D01*
X163292956Y-148475854D01*
X163595268Y-148677853D01*
X163595277Y-148677858D01*
X163595279Y-148677859D01*
X163915916Y-148849243D01*
X163915918Y-148849243D01*
X163915924Y-148849247D01*
X164251836Y-148988386D01*
X164599767Y-149093930D01*
X164599773Y-149093931D01*
X164599776Y-149093932D01*
X164599787Y-149093935D01*
X164956369Y-149164862D01*
X165318206Y-149200500D01*
X165318209Y-149200500D01*
X165681791Y-149200500D01*
X165681794Y-149200500D01*
X166043631Y-149164862D01*
X166113045Y-149151054D01*
X166400212Y-149093935D01*
X166400223Y-149093932D01*
X166400223Y-149093931D01*
X166400233Y-149093930D01*
X166748164Y-148988386D01*
X167084076Y-148849247D01*
X167404732Y-148677853D01*
X167707044Y-148475854D01*
X167988101Y-148245197D01*
X168245197Y-147988101D01*
X168475854Y-147707044D01*
X168677853Y-147404732D01*
X168849247Y-147084076D01*
X168988386Y-146748164D01*
X169093930Y-146400233D01*
X169093932Y-146400223D01*
X169093935Y-146400212D01*
X169164862Y-146043630D01*
X169175398Y-145936659D01*
X169200500Y-145681794D01*
X169200500Y-145318206D01*
X169164862Y-144956369D01*
X169131113Y-144786700D01*
X169093935Y-144599787D01*
X169093932Y-144599776D01*
X169093931Y-144599773D01*
X169093930Y-144599767D01*
X168988386Y-144251836D01*
X168849247Y-143915924D01*
X168824834Y-143870251D01*
X168677859Y-143595279D01*
X168677858Y-143595277D01*
X168677853Y-143595268D01*
X168475854Y-143292956D01*
X168245197Y-143011899D01*
X168245196Y-143011898D01*
X168245192Y-143011893D01*
X167988106Y-142754807D01*
X167707049Y-142524150D01*
X167707048Y-142524149D01*
X167707044Y-142524146D01*
X167404732Y-142322147D01*
X167404727Y-142322144D01*
X167404720Y-142322140D01*
X167084083Y-142150756D01*
X167084078Y-142150754D01*
X166748165Y-142011614D01*
X166400223Y-141906067D01*
X166400212Y-141906064D01*
X166043630Y-141835137D01*
X165771111Y-141808296D01*
X165681794Y-141799500D01*
X165318206Y-141799500D01*
X165235679Y-141807628D01*
X164956369Y-141835137D01*
X164599787Y-141906064D01*
X164599776Y-141906067D01*
X164251834Y-142011614D01*
X163915921Y-142150754D01*
X163915916Y-142150756D01*
X163595279Y-142322140D01*
X163595261Y-142322151D01*
X163292964Y-142524140D01*
X163292950Y-142524150D01*
X163011893Y-142754807D01*
X162754807Y-143011893D01*
X162524150Y-143292950D01*
X162524140Y-143292964D01*
X162322151Y-143595261D01*
X162322140Y-143595279D01*
X162150756Y-143915916D01*
X162150754Y-143915921D01*
X162011614Y-144251834D01*
X161906067Y-144599776D01*
X161906064Y-144599787D01*
X161835137Y-144956369D01*
X161820942Y-145100500D01*
X161799500Y-145318206D01*
X157360928Y-145318206D01*
X157457274Y-145221860D01*
X157457277Y-145221855D01*
X157457282Y-145221851D01*
X157616924Y-145013803D01*
X157748043Y-144786697D01*
X157753925Y-144772498D01*
X157848394Y-144544428D01*
X157848398Y-144544419D01*
X157916270Y-144291116D01*
X157950500Y-144031120D01*
X157950500Y-143768880D01*
X157916270Y-143508884D01*
X157848398Y-143255581D01*
X157800000Y-143138738D01*
X157748046Y-143013309D01*
X157748041Y-143013299D01*
X157616924Y-142786196D01*
X157457281Y-142578148D01*
X157457274Y-142578140D01*
X157271860Y-142392726D01*
X157271851Y-142392718D01*
X157063803Y-142233075D01*
X156836700Y-142101958D01*
X156836690Y-142101953D01*
X156594428Y-142001605D01*
X156594421Y-142001603D01*
X156594419Y-142001602D01*
X156341116Y-141933730D01*
X156283339Y-141926123D01*
X156081127Y-141899500D01*
X156081120Y-141899500D01*
X154318880Y-141899500D01*
X154318872Y-141899500D01*
X154087772Y-141929926D01*
X154058884Y-141933730D01*
X153805581Y-142001602D01*
X153805571Y-142001605D01*
X153563309Y-142101953D01*
X153563299Y-142101958D01*
X153336196Y-142233075D01*
X153128148Y-142392718D01*
X152942718Y-142578148D01*
X152783075Y-142786196D01*
X152707387Y-142917294D01*
X152656820Y-142965510D01*
X152588213Y-142978733D01*
X152523348Y-142952765D01*
X152492613Y-142917294D01*
X152416924Y-142786196D01*
X152257281Y-142578148D01*
X152257274Y-142578140D01*
X152071860Y-142392726D01*
X152071851Y-142392718D01*
X151863803Y-142233075D01*
X151636700Y-142101958D01*
X151636690Y-142101953D01*
X151394428Y-142001605D01*
X151394421Y-142001603D01*
X151394419Y-142001602D01*
X151141116Y-141933730D01*
X151083339Y-141926123D01*
X150881127Y-141899500D01*
X150881120Y-141899500D01*
X149118880Y-141899500D01*
X149118872Y-141899500D01*
X148887772Y-141929926D01*
X148858884Y-141933730D01*
X148605581Y-142001602D01*
X148605571Y-142001605D01*
X148363309Y-142101953D01*
X148363299Y-142101958D01*
X148136196Y-142233075D01*
X147928148Y-142392718D01*
X147742718Y-142578148D01*
X147583075Y-142786196D01*
X147507387Y-142917294D01*
X147456820Y-142965510D01*
X147388213Y-142978733D01*
X147323348Y-142952765D01*
X147292613Y-142917294D01*
X147216924Y-142786196D01*
X147057281Y-142578148D01*
X147057274Y-142578140D01*
X146871860Y-142392726D01*
X146871851Y-142392718D01*
X146663803Y-142233075D01*
X146436700Y-142101958D01*
X146436690Y-142101953D01*
X146194428Y-142001605D01*
X146194421Y-142001603D01*
X146194419Y-142001602D01*
X145941116Y-141933730D01*
X145883339Y-141926123D01*
X145681127Y-141899500D01*
X145681120Y-141899500D01*
X143918880Y-141899500D01*
X143918872Y-141899500D01*
X143687772Y-141929926D01*
X143658884Y-141933730D01*
X143405581Y-142001602D01*
X143405571Y-142001605D01*
X143163309Y-142101953D01*
X143163299Y-142101958D01*
X142936196Y-142233075D01*
X142728148Y-142392718D01*
X142542718Y-142578148D01*
X142383075Y-142786196D01*
X142251958Y-143013299D01*
X142251953Y-143013309D01*
X142151605Y-143255571D01*
X142151602Y-143255581D01*
X142083730Y-143508885D01*
X142049500Y-143768872D01*
X137770646Y-143768872D01*
X137677859Y-143595279D01*
X137677858Y-143595277D01*
X137677853Y-143595268D01*
X137475854Y-143292956D01*
X137245197Y-143011899D01*
X137245196Y-143011898D01*
X137245192Y-143011893D01*
X136988106Y-142754807D01*
X136707049Y-142524150D01*
X136707048Y-142524149D01*
X136707044Y-142524146D01*
X136404732Y-142322147D01*
X136404727Y-142322144D01*
X136404720Y-142322140D01*
X136084083Y-142150756D01*
X136084078Y-142150754D01*
X135748165Y-142011614D01*
X135400223Y-141906067D01*
X135400212Y-141906064D01*
X135043630Y-141835137D01*
X134771111Y-141808296D01*
X134681794Y-141799500D01*
X134318206Y-141799500D01*
X134235679Y-141807628D01*
X133956369Y-141835137D01*
X133599787Y-141906064D01*
X133599776Y-141906067D01*
X133251834Y-142011614D01*
X132915921Y-142150754D01*
X132915916Y-142150756D01*
X132595279Y-142322140D01*
X132595261Y-142322151D01*
X132292964Y-142524140D01*
X132292950Y-142524150D01*
X132011893Y-142754807D01*
X131754807Y-143011893D01*
X131524150Y-143292950D01*
X131524140Y-143292964D01*
X131322151Y-143595261D01*
X131322140Y-143595279D01*
X131150756Y-143915916D01*
X131150754Y-143915921D01*
X131011614Y-144251834D01*
X130906067Y-144599776D01*
X130906064Y-144599787D01*
X130835137Y-144956369D01*
X130820942Y-145100500D01*
X130799500Y-145318206D01*
X130500500Y-145318206D01*
X130500500Y-144772502D01*
X130500499Y-144772487D01*
X130462927Y-144319057D01*
X130462926Y-144319051D01*
X130462926Y-144319047D01*
X130388035Y-143870248D01*
X130276338Y-143429166D01*
X130128598Y-142998815D01*
X129945825Y-142582134D01*
X129729266Y-142181969D01*
X129480402Y-141801054D01*
X129200933Y-141441991D01*
X128978624Y-141200500D01*
X128892766Y-141107233D01*
X128558010Y-140799068D01*
X128198946Y-140519598D01*
X127818032Y-140270734D01*
X127417865Y-140054174D01*
X127417861Y-140054173D01*
X127001188Y-139871403D01*
X126570847Y-139723666D01*
X126570841Y-139723664D01*
X126570834Y-139723662D01*
X126129752Y-139611965D01*
X126129748Y-139611964D01*
X125680948Y-139537073D01*
X125680942Y-139537072D01*
X125227512Y-139499500D01*
X125227502Y-139499500D01*
X125065892Y-139499500D01*
X120624500Y-139499500D01*
X120557461Y-139479815D01*
X120511706Y-139427011D01*
X120500500Y-139375500D01*
X120500500Y-138073920D01*
X139249499Y-138073920D01*
X139278340Y-138218907D01*
X139278343Y-138218917D01*
X139334914Y-138355492D01*
X139367812Y-138404727D01*
X139367813Y-138404730D01*
X139417046Y-138478414D01*
X139417052Y-138478421D01*
X140617049Y-139678416D01*
X140721584Y-139782951D01*
X140721585Y-139782952D01*
X140844498Y-139865080D01*
X140844511Y-139865087D01*
X140981082Y-139921656D01*
X140981087Y-139921658D01*
X140981091Y-139921658D01*
X140981092Y-139921659D01*
X141126079Y-139950500D01*
X141126082Y-139950500D01*
X142112688Y-139950500D01*
X142179727Y-139970185D01*
X142225482Y-140022989D01*
X142227249Y-140027047D01*
X142251954Y-140086690D01*
X142251958Y-140086700D01*
X142383075Y-140313803D01*
X142542718Y-140521851D01*
X142542726Y-140521860D01*
X142728140Y-140707274D01*
X142728148Y-140707281D01*
X142936196Y-140866924D01*
X143163299Y-140998041D01*
X143163309Y-140998046D01*
X143405571Y-141098394D01*
X143405581Y-141098398D01*
X143658884Y-141166270D01*
X143907188Y-141198960D01*
X143915074Y-141199999D01*
X143918880Y-141200500D01*
X143918887Y-141200500D01*
X145681113Y-141200500D01*
X145681120Y-141200500D01*
X145941116Y-141166270D01*
X146194419Y-141098398D01*
X146436697Y-140998043D01*
X146663803Y-140866924D01*
X146871851Y-140707282D01*
X146871855Y-140707277D01*
X146871860Y-140707274D01*
X147057274Y-140521860D01*
X147057277Y-140521855D01*
X147057282Y-140521851D01*
X147216924Y-140313803D01*
X147292902Y-140182203D01*
X147343467Y-140133990D01*
X147412074Y-140120766D01*
X147476939Y-140146734D01*
X147507675Y-140182204D01*
X147583498Y-140313531D01*
X147743092Y-140521519D01*
X147743098Y-140521526D01*
X147928473Y-140706901D01*
X147928480Y-140706907D01*
X148136471Y-140866503D01*
X148363517Y-140997590D01*
X148363528Y-140997595D01*
X148605744Y-141097924D01*
X148858979Y-141165777D01*
X148858990Y-141165779D01*
X149118905Y-141199999D01*
X149118920Y-141200000D01*
X149750000Y-141200000D01*
X149750000Y-139700000D01*
X150250000Y-139700000D01*
X150250000Y-141200000D01*
X150881080Y-141200000D01*
X150881094Y-141199999D01*
X151141009Y-141165779D01*
X151141020Y-141165777D01*
X151394255Y-141097924D01*
X151636471Y-140997595D01*
X151636482Y-140997590D01*
X151863528Y-140866503D01*
X152071519Y-140706907D01*
X152071526Y-140706901D01*
X152256901Y-140521526D01*
X152256907Y-140521519D01*
X152416503Y-140313528D01*
X152492324Y-140182204D01*
X152542891Y-140133988D01*
X152611498Y-140120765D01*
X152676363Y-140146733D01*
X152707096Y-140182202D01*
X152758210Y-140270734D01*
X152783077Y-140313805D01*
X152942718Y-140521851D01*
X152942726Y-140521860D01*
X153128140Y-140707274D01*
X153128148Y-140707281D01*
X153336196Y-140866924D01*
X153563299Y-140998041D01*
X153563309Y-140998046D01*
X153805571Y-141098394D01*
X153805581Y-141098398D01*
X154058884Y-141166270D01*
X154307188Y-141198960D01*
X154315074Y-141199999D01*
X154318880Y-141200500D01*
X154318887Y-141200500D01*
X156081113Y-141200500D01*
X156081120Y-141200500D01*
X156341116Y-141166270D01*
X156594419Y-141098398D01*
X156836697Y-140998043D01*
X157063803Y-140866924D01*
X157271851Y-140707282D01*
X157271855Y-140707277D01*
X157271860Y-140707274D01*
X157457274Y-140521860D01*
X157457277Y-140521855D01*
X157457282Y-140521851D01*
X157616924Y-140313803D01*
X157748043Y-140086697D01*
X157761515Y-140054174D01*
X157816404Y-139921659D01*
X157848398Y-139844419D01*
X157916270Y-139591116D01*
X157950500Y-139331120D01*
X157950500Y-139068880D01*
X157916270Y-138808884D01*
X157848398Y-138555581D01*
X157816435Y-138478416D01*
X157748046Y-138313309D01*
X157748041Y-138313299D01*
X157616924Y-138086196D01*
X157457536Y-137878480D01*
X157457282Y-137878149D01*
X157457281Y-137878148D01*
X157457274Y-137878140D01*
X157271860Y-137692726D01*
X157271851Y-137692718D01*
X157063803Y-137533075D01*
X156836700Y-137401958D01*
X156836690Y-137401953D01*
X156594428Y-137301605D01*
X156594421Y-137301603D01*
X156594419Y-137301602D01*
X156341116Y-137233730D01*
X156283339Y-137226123D01*
X156081127Y-137199500D01*
X156081120Y-137199500D01*
X154318880Y-137199500D01*
X154318872Y-137199500D01*
X154087772Y-137229926D01*
X154058884Y-137233730D01*
X153805581Y-137301602D01*
X153805571Y-137301605D01*
X153563309Y-137401953D01*
X153563299Y-137401958D01*
X153336196Y-137533075D01*
X153128148Y-137692718D01*
X152942718Y-137878148D01*
X152783075Y-138086196D01*
X152707098Y-138217794D01*
X152656531Y-138266010D01*
X152587924Y-138279233D01*
X152523059Y-138253265D01*
X152492324Y-138217795D01*
X152416501Y-138086468D01*
X152256907Y-137878480D01*
X152256901Y-137878473D01*
X152071526Y-137693098D01*
X152071519Y-137693092D01*
X151863528Y-137533496D01*
X151636482Y-137402409D01*
X151636471Y-137402404D01*
X151394255Y-137302075D01*
X151141020Y-137234222D01*
X151141009Y-137234220D01*
X150881094Y-137200000D01*
X150250000Y-137200000D01*
X150250000Y-138700000D01*
X149750000Y-138700000D01*
X149750000Y-137200000D01*
X149118905Y-137200000D01*
X148858990Y-137234220D01*
X148858979Y-137234222D01*
X148605744Y-137302075D01*
X148363528Y-137402404D01*
X148363517Y-137402409D01*
X148136471Y-137533496D01*
X147928480Y-137693092D01*
X147928473Y-137693098D01*
X147743098Y-137878473D01*
X147743092Y-137878480D01*
X147583494Y-138086474D01*
X147507674Y-138217795D01*
X147457107Y-138266010D01*
X147388500Y-138279232D01*
X147323635Y-138253264D01*
X147292901Y-138217793D01*
X147216927Y-138086201D01*
X147216925Y-138086197D01*
X147057536Y-137878480D01*
X147057282Y-137878149D01*
X147057281Y-137878148D01*
X147057274Y-137878140D01*
X146871860Y-137692726D01*
X146871851Y-137692718D01*
X146663803Y-137533075D01*
X146436700Y-137401958D01*
X146436690Y-137401953D01*
X146194428Y-137301605D01*
X146194421Y-137301603D01*
X146194419Y-137301602D01*
X145941116Y-137233730D01*
X145883339Y-137226123D01*
X145681127Y-137199500D01*
X145681120Y-137199500D01*
X143918880Y-137199500D01*
X143918872Y-137199500D01*
X143687772Y-137229926D01*
X143658884Y-137233730D01*
X143405581Y-137301602D01*
X143405571Y-137301605D01*
X143163309Y-137401953D01*
X143163299Y-137401958D01*
X142936196Y-137533075D01*
X142728148Y-137692718D01*
X142542718Y-137878148D01*
X142383075Y-138086196D01*
X142251958Y-138313299D01*
X142251954Y-138313309D01*
X142227249Y-138372953D01*
X142183408Y-138427356D01*
X142117114Y-138449421D01*
X142112688Y-138449500D01*
X141562229Y-138449500D01*
X141495190Y-138429815D01*
X141474548Y-138413181D01*
X140786819Y-137725451D01*
X140753334Y-137664128D01*
X140750500Y-137637770D01*
X140750500Y-134368872D01*
X142049500Y-134368872D01*
X142049500Y-134631127D01*
X142076123Y-134833339D01*
X142083730Y-134891116D01*
X142142439Y-135110221D01*
X142151602Y-135144418D01*
X142151605Y-135144428D01*
X142251953Y-135386690D01*
X142251958Y-135386700D01*
X142383075Y-135613803D01*
X142542718Y-135821851D01*
X142542726Y-135821860D01*
X142728140Y-136007274D01*
X142728148Y-136007281D01*
X142728149Y-136007282D01*
X142776554Y-136044424D01*
X142936196Y-136166924D01*
X143163299Y-136298041D01*
X143163309Y-136298046D01*
X143395183Y-136394091D01*
X143405581Y-136398398D01*
X143658884Y-136466270D01*
X143918880Y-136500500D01*
X143918887Y-136500500D01*
X145681113Y-136500500D01*
X145681120Y-136500500D01*
X145941116Y-136466270D01*
X146194419Y-136398398D01*
X146436697Y-136298043D01*
X146663803Y-136166924D01*
X146871851Y-136007282D01*
X146871855Y-136007277D01*
X146871860Y-136007274D01*
X147057274Y-135821860D01*
X147057277Y-135821855D01*
X147057282Y-135821851D01*
X147216924Y-135613803D01*
X147260918Y-135537603D01*
X147292613Y-135482706D01*
X147343179Y-135434490D01*
X147411786Y-135421266D01*
X147476651Y-135447234D01*
X147507387Y-135482706D01*
X147583072Y-135613798D01*
X147583074Y-135613802D01*
X147742718Y-135821851D01*
X147742726Y-135821860D01*
X147928140Y-136007274D01*
X147928148Y-136007281D01*
X147928149Y-136007282D01*
X147976554Y-136044424D01*
X148136196Y-136166924D01*
X148363299Y-136298041D01*
X148363309Y-136298046D01*
X148595183Y-136394091D01*
X148605581Y-136398398D01*
X148858884Y-136466270D01*
X149118880Y-136500500D01*
X149118887Y-136500500D01*
X150881113Y-136500500D01*
X150881120Y-136500500D01*
X151141116Y-136466270D01*
X151394419Y-136398398D01*
X151636697Y-136298043D01*
X151863803Y-136166924D01*
X152071851Y-136007282D01*
X152071855Y-136007277D01*
X152071860Y-136007274D01*
X152257274Y-135821860D01*
X152257277Y-135821855D01*
X152257282Y-135821851D01*
X152416924Y-135613803D01*
X152460918Y-135537603D01*
X152492613Y-135482706D01*
X152543179Y-135434490D01*
X152611786Y-135421266D01*
X152676651Y-135447234D01*
X152707387Y-135482706D01*
X152783072Y-135613798D01*
X152783074Y-135613802D01*
X152942718Y-135821851D01*
X152942726Y-135821860D01*
X153128140Y-136007274D01*
X153128148Y-136007281D01*
X153128149Y-136007282D01*
X153176554Y-136044424D01*
X153336196Y-136166924D01*
X153563299Y-136298041D01*
X153563309Y-136298046D01*
X153795183Y-136394091D01*
X153805581Y-136398398D01*
X154058884Y-136466270D01*
X154318880Y-136500500D01*
X154318887Y-136500500D01*
X156081113Y-136500500D01*
X156081120Y-136500500D01*
X156341116Y-136466270D01*
X156594419Y-136398398D01*
X156836697Y-136298043D01*
X157063803Y-136166924D01*
X157271851Y-136007282D01*
X157271855Y-136007277D01*
X157271860Y-136007274D01*
X157457274Y-135821860D01*
X157457277Y-135821855D01*
X157457282Y-135821851D01*
X157616924Y-135613803D01*
X157748043Y-135386697D01*
X157848398Y-135144419D01*
X157916270Y-134891116D01*
X157916446Y-134889778D01*
X169829500Y-134889778D01*
X169829500Y-135110221D01*
X169863985Y-135327952D01*
X169932103Y-135537603D01*
X169932104Y-135537606D01*
X170032187Y-135734025D01*
X170161752Y-135912358D01*
X170161756Y-135912363D01*
X170317636Y-136068243D01*
X170317641Y-136068247D01*
X170419606Y-136142328D01*
X170495978Y-136197815D01*
X170624375Y-136263237D01*
X170692393Y-136297895D01*
X170692396Y-136297896D01*
X170797221Y-136331955D01*
X170902049Y-136366015D01*
X171119778Y-136400500D01*
X171119779Y-136400500D01*
X171340221Y-136400500D01*
X171340222Y-136400500D01*
X171557951Y-136366015D01*
X171767141Y-136298046D01*
X171767603Y-136297896D01*
X171767606Y-136297895D01*
X171964022Y-136197815D01*
X172142365Y-136068242D01*
X172192536Y-136018070D01*
X172253857Y-135984586D01*
X172323548Y-135989570D01*
X172379482Y-136031441D01*
X172396398Y-136062419D01*
X172426202Y-136142328D01*
X172426206Y-136142335D01*
X172512452Y-136257544D01*
X172512455Y-136257547D01*
X172627664Y-136343793D01*
X172627671Y-136343797D01*
X172762517Y-136394091D01*
X172762516Y-136394091D01*
X172769444Y-136394835D01*
X172822127Y-136400500D01*
X174717872Y-136400499D01*
X174777483Y-136394091D01*
X174912331Y-136343796D01*
X175027546Y-136257546D01*
X175113796Y-136142331D01*
X175164091Y-136007483D01*
X175170500Y-135947873D01*
X175170499Y-134052128D01*
X175164091Y-133992517D01*
X175143601Y-133937581D01*
X175113797Y-133857671D01*
X175113793Y-133857664D01*
X175027547Y-133742455D01*
X175027544Y-133742452D01*
X174912335Y-133656206D01*
X174912328Y-133656202D01*
X174777482Y-133605908D01*
X174777483Y-133605908D01*
X174717883Y-133599501D01*
X174717881Y-133599500D01*
X174717873Y-133599500D01*
X174717864Y-133599500D01*
X172822129Y-133599500D01*
X172822123Y-133599501D01*
X172762516Y-133605908D01*
X172627671Y-133656202D01*
X172627664Y-133656206D01*
X172512455Y-133742452D01*
X172512452Y-133742455D01*
X172426206Y-133857664D01*
X172426203Y-133857669D01*
X172396398Y-133937581D01*
X172354526Y-133993514D01*
X172289062Y-134017931D01*
X172220789Y-134003079D01*
X172192535Y-133981928D01*
X172142363Y-133931756D01*
X172142358Y-133931752D01*
X171964025Y-133802187D01*
X171964024Y-133802186D01*
X171964022Y-133802185D01*
X171839502Y-133738738D01*
X171767606Y-133702104D01*
X171767603Y-133702103D01*
X171557952Y-133633985D01*
X171420583Y-133612228D01*
X171340222Y-133599500D01*
X171119778Y-133599500D01*
X171047201Y-133610995D01*
X170902047Y-133633985D01*
X170692396Y-133702103D01*
X170692393Y-133702104D01*
X170495974Y-133802187D01*
X170317641Y-133931752D01*
X170317636Y-133931756D01*
X170161756Y-134087636D01*
X170161752Y-134087641D01*
X170032187Y-134265974D01*
X169932104Y-134462393D01*
X169932103Y-134462396D01*
X169863985Y-134672047D01*
X169829500Y-134889778D01*
X157916446Y-134889778D01*
X157950500Y-134631120D01*
X157950500Y-134368880D01*
X157916270Y-134108884D01*
X157848398Y-133855581D01*
X157848394Y-133855571D01*
X157748046Y-133613309D01*
X157748041Y-133613299D01*
X157616924Y-133386196D01*
X157457281Y-133178148D01*
X157457274Y-133178140D01*
X157271860Y-132992726D01*
X157271851Y-132992718D01*
X157063803Y-132833075D01*
X156836700Y-132701958D01*
X156836690Y-132701953D01*
X156594428Y-132601605D01*
X156594421Y-132601603D01*
X156594419Y-132601602D01*
X156341116Y-132533730D01*
X156283339Y-132526123D01*
X156081127Y-132499500D01*
X156081120Y-132499500D01*
X154318880Y-132499500D01*
X154318872Y-132499500D01*
X154087772Y-132529926D01*
X154058884Y-132533730D01*
X153805581Y-132601602D01*
X153805571Y-132601605D01*
X153563309Y-132701953D01*
X153563299Y-132701958D01*
X153336196Y-132833075D01*
X153128148Y-132992718D01*
X152942718Y-133178148D01*
X152783075Y-133386196D01*
X152707387Y-133517294D01*
X152656820Y-133565510D01*
X152588213Y-133578733D01*
X152523348Y-133552765D01*
X152492613Y-133517294D01*
X152416924Y-133386196D01*
X152257281Y-133178148D01*
X152257274Y-133178140D01*
X152071860Y-132992726D01*
X152071851Y-132992718D01*
X151863803Y-132833075D01*
X151636700Y-132701958D01*
X151636690Y-132701953D01*
X151394428Y-132601605D01*
X151394421Y-132601603D01*
X151394419Y-132601602D01*
X151141116Y-132533730D01*
X151083339Y-132526123D01*
X150881127Y-132499500D01*
X150881120Y-132499500D01*
X149118880Y-132499500D01*
X149118872Y-132499500D01*
X148887772Y-132529926D01*
X148858884Y-132533730D01*
X148605581Y-132601602D01*
X148605571Y-132601605D01*
X148363309Y-132701953D01*
X148363299Y-132701958D01*
X148136196Y-132833075D01*
X147928148Y-132992718D01*
X147742718Y-133178148D01*
X147583075Y-133386196D01*
X147507387Y-133517294D01*
X147456820Y-133565510D01*
X147388213Y-133578733D01*
X147323348Y-133552765D01*
X147292613Y-133517294D01*
X147216924Y-133386196D01*
X147057281Y-133178148D01*
X147057274Y-133178140D01*
X146871860Y-132992726D01*
X146871851Y-132992718D01*
X146663803Y-132833075D01*
X146436700Y-132701958D01*
X146436690Y-132701953D01*
X146194428Y-132601605D01*
X146194421Y-132601603D01*
X146194419Y-132601602D01*
X145941116Y-132533730D01*
X145883339Y-132526123D01*
X145681127Y-132499500D01*
X145681120Y-132499500D01*
X143918880Y-132499500D01*
X143918872Y-132499500D01*
X143687772Y-132529926D01*
X143658884Y-132533730D01*
X143405581Y-132601602D01*
X143405571Y-132601605D01*
X143163309Y-132701953D01*
X143163299Y-132701958D01*
X142936196Y-132833075D01*
X142728148Y-132992718D01*
X142542718Y-133178148D01*
X142383075Y-133386196D01*
X142251958Y-133613299D01*
X142251953Y-133613309D01*
X142151605Y-133855571D01*
X142151602Y-133855581D01*
X142089424Y-134087636D01*
X142083730Y-134108885D01*
X142049500Y-134368872D01*
X140750500Y-134368872D01*
X140750500Y-133612228D01*
X140770185Y-133545189D01*
X140786814Y-133524552D01*
X142315295Y-131996070D01*
X142355519Y-131969193D01*
X142379179Y-131959394D01*
X142510289Y-131871789D01*
X142621789Y-131760289D01*
X142709394Y-131629179D01*
X142769737Y-131483497D01*
X142800500Y-131328842D01*
X142800500Y-131171158D01*
X142800500Y-131171155D01*
X142800499Y-131171153D01*
X142769738Y-131016510D01*
X142769737Y-131016503D01*
X142735855Y-130934704D01*
X142709397Y-130870827D01*
X142709390Y-130870814D01*
X142621789Y-130739711D01*
X142621786Y-130739707D01*
X142510292Y-130628213D01*
X142510288Y-130628210D01*
X142379185Y-130540609D01*
X142379172Y-130540602D01*
X142233501Y-130480264D01*
X142233489Y-130480261D01*
X142078845Y-130449500D01*
X142078842Y-130449500D01*
X141921158Y-130449500D01*
X141921155Y-130449500D01*
X141766510Y-130480261D01*
X141766498Y-130480264D01*
X141620827Y-130540602D01*
X141620814Y-130540609D01*
X141489711Y-130628210D01*
X141489707Y-130628213D01*
X141378213Y-130739707D01*
X141378207Y-130739715D01*
X141290607Y-130870818D01*
X141290605Y-130870822D01*
X141280805Y-130894480D01*
X141253927Y-130934704D01*
X139417052Y-132771578D01*
X139417049Y-132771581D01*
X139375960Y-132833075D01*
X139375961Y-132833076D01*
X139334914Y-132894508D01*
X139278343Y-133031082D01*
X139278340Y-133031092D01*
X139249500Y-133176079D01*
X139249500Y-133176082D01*
X139249500Y-138073918D01*
X139249500Y-138073920D01*
X139249499Y-138073920D01*
X120500500Y-138073920D01*
X120500500Y-125983872D01*
X123299500Y-125983872D01*
X123299500Y-126246127D01*
X123325891Y-126446574D01*
X123333730Y-126506116D01*
X123374622Y-126658726D01*
X123401602Y-126759418D01*
X123401605Y-126759428D01*
X123501953Y-127001690D01*
X123501958Y-127001700D01*
X123633075Y-127228803D01*
X123792718Y-127436851D01*
X123792726Y-127436860D01*
X123978140Y-127622274D01*
X123978148Y-127622281D01*
X124186196Y-127781924D01*
X124413299Y-127913041D01*
X124413309Y-127913046D01*
X124655571Y-128013394D01*
X124655581Y-128013398D01*
X124908884Y-128081270D01*
X125157188Y-128113960D01*
X125165074Y-128114999D01*
X125168880Y-128115500D01*
X125168887Y-128115500D01*
X125431113Y-128115500D01*
X125431120Y-128115500D01*
X125691116Y-128081270D01*
X125944419Y-128013398D01*
X126186697Y-127913043D01*
X126413803Y-127781924D01*
X126621851Y-127622282D01*
X126621855Y-127622277D01*
X126621860Y-127622274D01*
X126807274Y-127436860D01*
X126807277Y-127436855D01*
X126807282Y-127436851D01*
X126966924Y-127228803D01*
X127098043Y-127001697D01*
X127198398Y-126759419D01*
X127266270Y-126506116D01*
X127300500Y-126246120D01*
X127300500Y-125983880D01*
X127300499Y-125983872D01*
X129649500Y-125983872D01*
X129649500Y-126246127D01*
X129675891Y-126446574D01*
X129683730Y-126506116D01*
X129724622Y-126658726D01*
X129751602Y-126759418D01*
X129751605Y-126759428D01*
X129851953Y-127001690D01*
X129851958Y-127001700D01*
X129983075Y-127228803D01*
X130142718Y-127436851D01*
X130142726Y-127436860D01*
X130328140Y-127622274D01*
X130328148Y-127622281D01*
X130536196Y-127781924D01*
X130763299Y-127913041D01*
X130763309Y-127913046D01*
X131005571Y-128013394D01*
X131005581Y-128013398D01*
X131258884Y-128081270D01*
X131507188Y-128113960D01*
X131515074Y-128114999D01*
X131518880Y-128115500D01*
X131518887Y-128115500D01*
X131781113Y-128115500D01*
X131781120Y-128115500D01*
X132041116Y-128081270D01*
X132294419Y-128013398D01*
X132536697Y-127913043D01*
X132763803Y-127781924D01*
X132971851Y-127622282D01*
X132971855Y-127622277D01*
X132971860Y-127622274D01*
X133157274Y-127436860D01*
X133157277Y-127436855D01*
X133157282Y-127436851D01*
X133316924Y-127228803D01*
X133448043Y-127001697D01*
X133548398Y-126759419D01*
X133616270Y-126506116D01*
X133650500Y-126246120D01*
X133650500Y-125983880D01*
X133650499Y-125983872D01*
X135999500Y-125983872D01*
X135999500Y-126246127D01*
X136025891Y-126446574D01*
X136033730Y-126506116D01*
X136074622Y-126658726D01*
X136101602Y-126759418D01*
X136101605Y-126759428D01*
X136201953Y-127001690D01*
X136201958Y-127001700D01*
X136333075Y-127228803D01*
X136492718Y-127436851D01*
X136492726Y-127436860D01*
X136678140Y-127622274D01*
X136678148Y-127622281D01*
X136886196Y-127781924D01*
X137113299Y-127913041D01*
X137113309Y-127913046D01*
X137355571Y-128013394D01*
X137355581Y-128013398D01*
X137608884Y-128081270D01*
X137857188Y-128113960D01*
X137865074Y-128114999D01*
X137868880Y-128115500D01*
X137868887Y-128115500D01*
X138131113Y-128115500D01*
X138131120Y-128115500D01*
X138391116Y-128081270D01*
X138644419Y-128013398D01*
X138886697Y-127913043D01*
X139113803Y-127781924D01*
X139321851Y-127622282D01*
X139321855Y-127622277D01*
X139321860Y-127622274D01*
X139507274Y-127436860D01*
X139507277Y-127436855D01*
X139507282Y-127436851D01*
X139666924Y-127228803D01*
X139798043Y-127001697D01*
X139898398Y-126759419D01*
X139966270Y-126506116D01*
X140000500Y-126246120D01*
X140000500Y-125983880D01*
X140000499Y-125983872D01*
X160024500Y-125983872D01*
X160024500Y-126246127D01*
X160050891Y-126446574D01*
X160058730Y-126506116D01*
X160099622Y-126658726D01*
X160126602Y-126759418D01*
X160126605Y-126759428D01*
X160226953Y-127001690D01*
X160226958Y-127001700D01*
X160358075Y-127228803D01*
X160517718Y-127436851D01*
X160517726Y-127436860D01*
X160703140Y-127622274D01*
X160703148Y-127622281D01*
X160911196Y-127781924D01*
X161138299Y-127913041D01*
X161138309Y-127913046D01*
X161380571Y-128013394D01*
X161380581Y-128013398D01*
X161633884Y-128081270D01*
X161882188Y-128113960D01*
X161890074Y-128114999D01*
X161893880Y-128115500D01*
X161893887Y-128115500D01*
X162156113Y-128115500D01*
X162156120Y-128115500D01*
X162416116Y-128081270D01*
X162669419Y-128013398D01*
X162911697Y-127913043D01*
X163138803Y-127781924D01*
X163346851Y-127622282D01*
X163346855Y-127622277D01*
X163346860Y-127622274D01*
X163532274Y-127436860D01*
X163532277Y-127436855D01*
X163532282Y-127436851D01*
X163691924Y-127228803D01*
X163823043Y-127001697D01*
X163923398Y-126759419D01*
X163991270Y-126506116D01*
X164025500Y-126246120D01*
X164025500Y-125983880D01*
X164025499Y-125983872D01*
X166374500Y-125983872D01*
X166374500Y-126246127D01*
X166400891Y-126446574D01*
X166408730Y-126506116D01*
X166449622Y-126658726D01*
X166476602Y-126759418D01*
X166476605Y-126759428D01*
X166576953Y-127001690D01*
X166576958Y-127001700D01*
X166708075Y-127228803D01*
X166867718Y-127436851D01*
X166867726Y-127436860D01*
X167053140Y-127622274D01*
X167053148Y-127622281D01*
X167261196Y-127781924D01*
X167488299Y-127913041D01*
X167488309Y-127913046D01*
X167730571Y-128013394D01*
X167730581Y-128013398D01*
X167983884Y-128081270D01*
X168232188Y-128113960D01*
X168240074Y-128114999D01*
X168243880Y-128115500D01*
X168243887Y-128115500D01*
X168506113Y-128115500D01*
X168506120Y-128115500D01*
X168766116Y-128081270D01*
X169019419Y-128013398D01*
X169261697Y-127913043D01*
X169488803Y-127781924D01*
X169696851Y-127622282D01*
X169696855Y-127622277D01*
X169696860Y-127622274D01*
X169882274Y-127436860D01*
X169882277Y-127436855D01*
X169882282Y-127436851D01*
X170041924Y-127228803D01*
X170173043Y-127001697D01*
X170273398Y-126759419D01*
X170341270Y-126506116D01*
X170375500Y-126246120D01*
X170375500Y-125983905D01*
X172725000Y-125983905D01*
X172725000Y-126246094D01*
X172759220Y-126506009D01*
X172759222Y-126506020D01*
X172827075Y-126759255D01*
X172927404Y-127001471D01*
X172927409Y-127001482D01*
X173058488Y-127228516D01*
X173058494Y-127228524D01*
X173145080Y-127341365D01*
X174085689Y-126400756D01*
X174104668Y-126446574D01*
X174181274Y-126561224D01*
X174278776Y-126658726D01*
X174393426Y-126735332D01*
X174439242Y-126754309D01*
X173498633Y-127694917D01*
X173498633Y-127694918D01*
X173611475Y-127781505D01*
X173611483Y-127781511D01*
X173838517Y-127912590D01*
X173838528Y-127912595D01*
X174080744Y-128012924D01*
X174333979Y-128080777D01*
X174333990Y-128080779D01*
X174593905Y-128114999D01*
X174593920Y-128115000D01*
X174856080Y-128115000D01*
X174856094Y-128114999D01*
X175116009Y-128080779D01*
X175116020Y-128080777D01*
X175369255Y-128012924D01*
X175611471Y-127912595D01*
X175611482Y-127912590D01*
X175838516Y-127781511D01*
X175838534Y-127781499D01*
X175951365Y-127694919D01*
X175951365Y-127694917D01*
X175010757Y-126754309D01*
X175056574Y-126735332D01*
X175171224Y-126658726D01*
X175268726Y-126561224D01*
X175345332Y-126446574D01*
X175364309Y-126400757D01*
X176304917Y-127341365D01*
X176304919Y-127341365D01*
X176391499Y-127228534D01*
X176391511Y-127228516D01*
X176522590Y-127001482D01*
X176522595Y-127001471D01*
X176622924Y-126759255D01*
X176690777Y-126506020D01*
X176690779Y-126506009D01*
X176724999Y-126246094D01*
X176725000Y-126246080D01*
X176725000Y-125983919D01*
X176724999Y-125983905D01*
X176690779Y-125723990D01*
X176690777Y-125723979D01*
X176622924Y-125470744D01*
X176522595Y-125228528D01*
X176522590Y-125228517D01*
X176391511Y-125001483D01*
X176391505Y-125001475D01*
X176304918Y-124888633D01*
X176304917Y-124888633D01*
X175364309Y-125829242D01*
X175345332Y-125783426D01*
X175268726Y-125668776D01*
X175171224Y-125571274D01*
X175056574Y-125494668D01*
X175010755Y-125475689D01*
X175951365Y-124535080D01*
X175838524Y-124448494D01*
X175838516Y-124448488D01*
X175611482Y-124317409D01*
X175611471Y-124317404D01*
X175369255Y-124217075D01*
X175116020Y-124149222D01*
X175116009Y-124149220D01*
X174856094Y-124115000D01*
X174593905Y-124115000D01*
X174333990Y-124149220D01*
X174333979Y-124149222D01*
X174080744Y-124217075D01*
X173838528Y-124317404D01*
X173838517Y-124317409D01*
X173611471Y-124448496D01*
X173498633Y-124535079D01*
X173498633Y-124535080D01*
X174439243Y-125475690D01*
X174393426Y-125494668D01*
X174278776Y-125571274D01*
X174181274Y-125668776D01*
X174104668Y-125783426D01*
X174085690Y-125829243D01*
X173145080Y-124888633D01*
X173145079Y-124888633D01*
X173058496Y-125001471D01*
X172927409Y-125228517D01*
X172927404Y-125228528D01*
X172827075Y-125470744D01*
X172759222Y-125723979D01*
X172759220Y-125723990D01*
X172725000Y-125983905D01*
X170375500Y-125983905D01*
X170375500Y-125983880D01*
X170341270Y-125723884D01*
X170273398Y-125470581D01*
X170273394Y-125470571D01*
X170173046Y-125228309D01*
X170173041Y-125228299D01*
X170041924Y-125001196D01*
X169882281Y-124793148D01*
X169882274Y-124793140D01*
X169696860Y-124607726D01*
X169696851Y-124607718D01*
X169488803Y-124448075D01*
X169261700Y-124316958D01*
X169261690Y-124316953D01*
X169019428Y-124216605D01*
X169019421Y-124216603D01*
X169019419Y-124216602D01*
X168766116Y-124148730D01*
X168708339Y-124141123D01*
X168506127Y-124114500D01*
X168506120Y-124114500D01*
X168243880Y-124114500D01*
X168243872Y-124114500D01*
X168012772Y-124144926D01*
X167983884Y-124148730D01*
X167730581Y-124216602D01*
X167730571Y-124216605D01*
X167488309Y-124316953D01*
X167488299Y-124316958D01*
X167261196Y-124448075D01*
X167053148Y-124607718D01*
X166867718Y-124793148D01*
X166708075Y-125001196D01*
X166576958Y-125228299D01*
X166576953Y-125228309D01*
X166476605Y-125470571D01*
X166476602Y-125470581D01*
X166408730Y-125723884D01*
X166408716Y-125723990D01*
X166374500Y-125983872D01*
X164025499Y-125983872D01*
X163991270Y-125723884D01*
X163923398Y-125470581D01*
X163923394Y-125470571D01*
X163823046Y-125228309D01*
X163823041Y-125228299D01*
X163691924Y-125001196D01*
X163532281Y-124793148D01*
X163532274Y-124793140D01*
X163346860Y-124607726D01*
X163346851Y-124607718D01*
X163138803Y-124448075D01*
X162911700Y-124316958D01*
X162911690Y-124316953D01*
X162669428Y-124216605D01*
X162669421Y-124216603D01*
X162669419Y-124216602D01*
X162416116Y-124148730D01*
X162358339Y-124141123D01*
X162156127Y-124114500D01*
X162156120Y-124114500D01*
X161893880Y-124114500D01*
X161893872Y-124114500D01*
X161662772Y-124144926D01*
X161633884Y-124148730D01*
X161380581Y-124216602D01*
X161380571Y-124216605D01*
X161138309Y-124316953D01*
X161138299Y-124316958D01*
X160911196Y-124448075D01*
X160703148Y-124607718D01*
X160517718Y-124793148D01*
X160358075Y-125001196D01*
X160226958Y-125228299D01*
X160226953Y-125228309D01*
X160126605Y-125470571D01*
X160126602Y-125470581D01*
X160058730Y-125723884D01*
X160058716Y-125723990D01*
X160024500Y-125983872D01*
X140000499Y-125983872D01*
X139966270Y-125723884D01*
X139898398Y-125470581D01*
X139898394Y-125470571D01*
X139798046Y-125228309D01*
X139798041Y-125228299D01*
X139666924Y-125001196D01*
X139507281Y-124793148D01*
X139507274Y-124793140D01*
X139321860Y-124607726D01*
X139321851Y-124607718D01*
X139113803Y-124448075D01*
X138886700Y-124316958D01*
X138886690Y-124316953D01*
X138644428Y-124216605D01*
X138644421Y-124216603D01*
X138644419Y-124216602D01*
X138391116Y-124148730D01*
X138333339Y-124141123D01*
X138131127Y-124114500D01*
X138131120Y-124114500D01*
X137868880Y-124114500D01*
X137868872Y-124114500D01*
X137637772Y-124144926D01*
X137608884Y-124148730D01*
X137355581Y-124216602D01*
X137355571Y-124216605D01*
X137113309Y-124316953D01*
X137113299Y-124316958D01*
X136886196Y-124448075D01*
X136678148Y-124607718D01*
X136492718Y-124793148D01*
X136333075Y-125001196D01*
X136201958Y-125228299D01*
X136201953Y-125228309D01*
X136101605Y-125470571D01*
X136101602Y-125470581D01*
X136033730Y-125723884D01*
X136033716Y-125723990D01*
X135999500Y-125983872D01*
X133650499Y-125983872D01*
X133616270Y-125723884D01*
X133548398Y-125470581D01*
X133548394Y-125470571D01*
X133448046Y-125228309D01*
X133448041Y-125228299D01*
X133316924Y-125001196D01*
X133157281Y-124793148D01*
X133157274Y-124793140D01*
X132971860Y-124607726D01*
X132971851Y-124607718D01*
X132763803Y-124448075D01*
X132536700Y-124316958D01*
X132536690Y-124316953D01*
X132294428Y-124216605D01*
X132294421Y-124216603D01*
X132294419Y-124216602D01*
X132041116Y-124148730D01*
X131983339Y-124141123D01*
X131781127Y-124114500D01*
X131781120Y-124114500D01*
X131518880Y-124114500D01*
X131518872Y-124114500D01*
X131287772Y-124144926D01*
X131258884Y-124148730D01*
X131005581Y-124216602D01*
X131005571Y-124216605D01*
X130763309Y-124316953D01*
X130763299Y-124316958D01*
X130536196Y-124448075D01*
X130328148Y-124607718D01*
X130142718Y-124793148D01*
X129983075Y-125001196D01*
X129851958Y-125228299D01*
X129851953Y-125228309D01*
X129751605Y-125470571D01*
X129751602Y-125470581D01*
X129683730Y-125723884D01*
X129683716Y-125723990D01*
X129649500Y-125983872D01*
X127300499Y-125983872D01*
X127266270Y-125723884D01*
X127198398Y-125470581D01*
X127198394Y-125470571D01*
X127098046Y-125228309D01*
X127098041Y-125228299D01*
X126966924Y-125001196D01*
X126807281Y-124793148D01*
X126807274Y-124793140D01*
X126621860Y-124607726D01*
X126621851Y-124607718D01*
X126413803Y-124448075D01*
X126186700Y-124316958D01*
X126186690Y-124316953D01*
X125944428Y-124216605D01*
X125944421Y-124216603D01*
X125944419Y-124216602D01*
X125691116Y-124148730D01*
X125633339Y-124141123D01*
X125431127Y-124114500D01*
X125431120Y-124114500D01*
X125168880Y-124114500D01*
X125168872Y-124114500D01*
X124937772Y-124144926D01*
X124908884Y-124148730D01*
X124655581Y-124216602D01*
X124655571Y-124216605D01*
X124413309Y-124316953D01*
X124413299Y-124316958D01*
X124186196Y-124448075D01*
X123978148Y-124607718D01*
X123792718Y-124793148D01*
X123633075Y-125001196D01*
X123501958Y-125228299D01*
X123501953Y-125228309D01*
X123401605Y-125470571D01*
X123401602Y-125470581D01*
X123333730Y-125723884D01*
X123333716Y-125723990D01*
X123299500Y-125983872D01*
X120500500Y-125983872D01*
X120500500Y-109753905D01*
X123300000Y-109753905D01*
X123300000Y-110016094D01*
X123334220Y-110276009D01*
X123334222Y-110276020D01*
X123402075Y-110529255D01*
X123502404Y-110771471D01*
X123502409Y-110771482D01*
X123633488Y-110998516D01*
X123633494Y-110998524D01*
X123720080Y-111111365D01*
X124660689Y-110170756D01*
X124679668Y-110216574D01*
X124756274Y-110331224D01*
X124853776Y-110428726D01*
X124968426Y-110505332D01*
X125014242Y-110524309D01*
X124073633Y-111464917D01*
X124073633Y-111464918D01*
X124186475Y-111551505D01*
X124186483Y-111551511D01*
X124413517Y-111682590D01*
X124413528Y-111682595D01*
X124655744Y-111782924D01*
X124908979Y-111850777D01*
X124908990Y-111850779D01*
X125168905Y-111884999D01*
X125168920Y-111885000D01*
X125431080Y-111885000D01*
X125431094Y-111884999D01*
X125691009Y-111850779D01*
X125691020Y-111850777D01*
X125944255Y-111782924D01*
X126186471Y-111682595D01*
X126186482Y-111682590D01*
X126413516Y-111551511D01*
X126413534Y-111551499D01*
X126526365Y-111464919D01*
X126526365Y-111464917D01*
X125585757Y-110524309D01*
X125631574Y-110505332D01*
X125746224Y-110428726D01*
X125843726Y-110331224D01*
X125920332Y-110216574D01*
X125939309Y-110170757D01*
X126879917Y-111111365D01*
X126879919Y-111111365D01*
X126966499Y-110998534D01*
X126966511Y-110998516D01*
X127097590Y-110771482D01*
X127097595Y-110771471D01*
X127197924Y-110529255D01*
X127265777Y-110276020D01*
X127265779Y-110276009D01*
X127299999Y-110016094D01*
X127300000Y-110016080D01*
X127300000Y-109753912D01*
X127299995Y-109753872D01*
X129649500Y-109753872D01*
X129649500Y-110016127D01*
X129675891Y-110216574D01*
X129683730Y-110276116D01*
X129724622Y-110428726D01*
X129751602Y-110529418D01*
X129751605Y-110529428D01*
X129851953Y-110771690D01*
X129851958Y-110771700D01*
X129983075Y-110998803D01*
X130142718Y-111206851D01*
X130142726Y-111206860D01*
X130328140Y-111392274D01*
X130328148Y-111392281D01*
X130536196Y-111551924D01*
X130763299Y-111683041D01*
X130763309Y-111683046D01*
X131005571Y-111783394D01*
X131005581Y-111783398D01*
X131258884Y-111851270D01*
X131507188Y-111883960D01*
X131515074Y-111884999D01*
X131518880Y-111885500D01*
X131518887Y-111885500D01*
X131781113Y-111885500D01*
X131781120Y-111885500D01*
X132041116Y-111851270D01*
X132294419Y-111783398D01*
X132536697Y-111683043D01*
X132763803Y-111551924D01*
X132971851Y-111392282D01*
X132971855Y-111392277D01*
X132971860Y-111392274D01*
X133157274Y-111206860D01*
X133157277Y-111206855D01*
X133157282Y-111206851D01*
X133316924Y-110998803D01*
X133448043Y-110771697D01*
X133548398Y-110529419D01*
X133616270Y-110276116D01*
X133650500Y-110016120D01*
X133650500Y-109753880D01*
X133650499Y-109753872D01*
X135999500Y-109753872D01*
X135999500Y-110016127D01*
X136025891Y-110216574D01*
X136033730Y-110276116D01*
X136074622Y-110428726D01*
X136101602Y-110529418D01*
X136101605Y-110529428D01*
X136201953Y-110771690D01*
X136201958Y-110771700D01*
X136333075Y-110998803D01*
X136492718Y-111206851D01*
X136492726Y-111206860D01*
X136678140Y-111392274D01*
X136678148Y-111392281D01*
X136886196Y-111551924D01*
X137113299Y-111683041D01*
X137113309Y-111683046D01*
X137355571Y-111783394D01*
X137355581Y-111783398D01*
X137608884Y-111851270D01*
X137857188Y-111883960D01*
X137865074Y-111884999D01*
X137868880Y-111885500D01*
X137868887Y-111885500D01*
X138131113Y-111885500D01*
X138131120Y-111885500D01*
X138391116Y-111851270D01*
X138644419Y-111783398D01*
X138886697Y-111683043D01*
X139113803Y-111551924D01*
X139321851Y-111392282D01*
X139321855Y-111392277D01*
X139321860Y-111392274D01*
X139507274Y-111206860D01*
X139507277Y-111206855D01*
X139507282Y-111206851D01*
X139666924Y-110998803D01*
X139798043Y-110771697D01*
X139898398Y-110529419D01*
X139966270Y-110276116D01*
X140000500Y-110016120D01*
X140000500Y-109753880D01*
X140000499Y-109753872D01*
X160024500Y-109753872D01*
X160024500Y-110016127D01*
X160050891Y-110216574D01*
X160058730Y-110276116D01*
X160099622Y-110428726D01*
X160126602Y-110529418D01*
X160126605Y-110529428D01*
X160226953Y-110771690D01*
X160226958Y-110771700D01*
X160358075Y-110998803D01*
X160517718Y-111206851D01*
X160517726Y-111206860D01*
X160703140Y-111392274D01*
X160703148Y-111392281D01*
X160911196Y-111551924D01*
X161138299Y-111683041D01*
X161138309Y-111683046D01*
X161380571Y-111783394D01*
X161380581Y-111783398D01*
X161633884Y-111851270D01*
X161882188Y-111883960D01*
X161890074Y-111884999D01*
X161893880Y-111885500D01*
X161893887Y-111885500D01*
X162156113Y-111885500D01*
X162156120Y-111885500D01*
X162416116Y-111851270D01*
X162669419Y-111783398D01*
X162911697Y-111683043D01*
X163138803Y-111551924D01*
X163346851Y-111392282D01*
X163346855Y-111392277D01*
X163346860Y-111392274D01*
X163532274Y-111206860D01*
X163532277Y-111206855D01*
X163532282Y-111206851D01*
X163691924Y-110998803D01*
X163823043Y-110771697D01*
X163923398Y-110529419D01*
X163991270Y-110276116D01*
X164025500Y-110016120D01*
X164025500Y-109753880D01*
X164025499Y-109753872D01*
X166374500Y-109753872D01*
X166374500Y-110016127D01*
X166400891Y-110216574D01*
X166408730Y-110276116D01*
X166449622Y-110428726D01*
X166476602Y-110529418D01*
X166476605Y-110529428D01*
X166576953Y-110771690D01*
X166576958Y-110771700D01*
X166708075Y-110998803D01*
X166867718Y-111206851D01*
X166867726Y-111206860D01*
X167053140Y-111392274D01*
X167053148Y-111392281D01*
X167261196Y-111551924D01*
X167488299Y-111683041D01*
X167488309Y-111683046D01*
X167730571Y-111783394D01*
X167730581Y-111783398D01*
X167983884Y-111851270D01*
X168232188Y-111883960D01*
X168240074Y-111884999D01*
X168243880Y-111885500D01*
X168243887Y-111885500D01*
X168506113Y-111885500D01*
X168506120Y-111885500D01*
X168766116Y-111851270D01*
X169019419Y-111783398D01*
X169261697Y-111683043D01*
X169488803Y-111551924D01*
X169696851Y-111392282D01*
X169696855Y-111392277D01*
X169696860Y-111392274D01*
X169882274Y-111206860D01*
X169882277Y-111206855D01*
X169882282Y-111206851D01*
X170041924Y-110998803D01*
X170173043Y-110771697D01*
X170273398Y-110529419D01*
X170341270Y-110276116D01*
X170375500Y-110016120D01*
X170375500Y-109753880D01*
X170375499Y-109753872D01*
X172724500Y-109753872D01*
X172724500Y-110016127D01*
X172750891Y-110216574D01*
X172758730Y-110276116D01*
X172799622Y-110428726D01*
X172826602Y-110529418D01*
X172826605Y-110529428D01*
X172926953Y-110771690D01*
X172926958Y-110771700D01*
X173058075Y-110998803D01*
X173217718Y-111206851D01*
X173217726Y-111206860D01*
X173403140Y-111392274D01*
X173403148Y-111392281D01*
X173611196Y-111551924D01*
X173838299Y-111683041D01*
X173838309Y-111683046D01*
X174080571Y-111783394D01*
X174080581Y-111783398D01*
X174333884Y-111851270D01*
X174582188Y-111883960D01*
X174590074Y-111884999D01*
X174593880Y-111885500D01*
X174593887Y-111885500D01*
X174856113Y-111885500D01*
X174856120Y-111885500D01*
X175116116Y-111851270D01*
X175369419Y-111783398D01*
X175611697Y-111683043D01*
X175838803Y-111551924D01*
X176046851Y-111392282D01*
X176046855Y-111392277D01*
X176046860Y-111392274D01*
X176232274Y-111206860D01*
X176232277Y-111206855D01*
X176232282Y-111206851D01*
X176391924Y-110998803D01*
X176523043Y-110771697D01*
X176623398Y-110529419D01*
X176691270Y-110276116D01*
X176725500Y-110016120D01*
X176725500Y-109753880D01*
X176691270Y-109493884D01*
X176623398Y-109240581D01*
X176621009Y-109234814D01*
X176523046Y-108998309D01*
X176523041Y-108998299D01*
X176391924Y-108771196D01*
X176232281Y-108563148D01*
X176232274Y-108563140D01*
X176046860Y-108377726D01*
X176046851Y-108377718D01*
X175838803Y-108218075D01*
X175611700Y-108086958D01*
X175611690Y-108086953D01*
X175369428Y-107986605D01*
X175369421Y-107986603D01*
X175369419Y-107986602D01*
X175116116Y-107918730D01*
X175058339Y-107911123D01*
X174856127Y-107884500D01*
X174856120Y-107884500D01*
X174593880Y-107884500D01*
X174593872Y-107884500D01*
X174362772Y-107914926D01*
X174333884Y-107918730D01*
X174182112Y-107959397D01*
X174080581Y-107986602D01*
X174080571Y-107986605D01*
X173838309Y-108086953D01*
X173838299Y-108086958D01*
X173611196Y-108218075D01*
X173403148Y-108377718D01*
X173217718Y-108563148D01*
X173058075Y-108771196D01*
X172926958Y-108998299D01*
X172926953Y-108998309D01*
X172826605Y-109240571D01*
X172826602Y-109240581D01*
X172758730Y-109493884D01*
X172758716Y-109493990D01*
X172724500Y-109753872D01*
X170375499Y-109753872D01*
X170341270Y-109493884D01*
X170273398Y-109240581D01*
X170271009Y-109234814D01*
X170173046Y-108998309D01*
X170173041Y-108998299D01*
X170041924Y-108771196D01*
X169882281Y-108563148D01*
X169882274Y-108563140D01*
X169696860Y-108377726D01*
X169696851Y-108377718D01*
X169488803Y-108218075D01*
X169261700Y-108086958D01*
X169261690Y-108086953D01*
X169019428Y-107986605D01*
X169019421Y-107986603D01*
X169019419Y-107986602D01*
X168766116Y-107918730D01*
X168708339Y-107911123D01*
X168506127Y-107884500D01*
X168506120Y-107884500D01*
X168243880Y-107884500D01*
X168243872Y-107884500D01*
X168012772Y-107914926D01*
X167983884Y-107918730D01*
X167832112Y-107959397D01*
X167730581Y-107986602D01*
X167730571Y-107986605D01*
X167488309Y-108086953D01*
X167488299Y-108086958D01*
X167261196Y-108218075D01*
X167053148Y-108377718D01*
X166867718Y-108563148D01*
X166708075Y-108771196D01*
X166576958Y-108998299D01*
X166576953Y-108998309D01*
X166476605Y-109240571D01*
X166476602Y-109240581D01*
X166408730Y-109493884D01*
X166408716Y-109493990D01*
X166374500Y-109753872D01*
X164025499Y-109753872D01*
X163991270Y-109493884D01*
X163923398Y-109240581D01*
X163921009Y-109234814D01*
X163823046Y-108998309D01*
X163823041Y-108998299D01*
X163691924Y-108771196D01*
X163532281Y-108563148D01*
X163532274Y-108563140D01*
X163346860Y-108377726D01*
X163346851Y-108377718D01*
X163138803Y-108218075D01*
X162911700Y-108086958D01*
X162911690Y-108086953D01*
X162669428Y-107986605D01*
X162669421Y-107986603D01*
X162669419Y-107986602D01*
X162416116Y-107918730D01*
X162358339Y-107911123D01*
X162156127Y-107884500D01*
X162156120Y-107884500D01*
X161893880Y-107884500D01*
X161893872Y-107884500D01*
X161662772Y-107914926D01*
X161633884Y-107918730D01*
X161482112Y-107959397D01*
X161380581Y-107986602D01*
X161380571Y-107986605D01*
X161138309Y-108086953D01*
X161138299Y-108086958D01*
X160911196Y-108218075D01*
X160703148Y-108377718D01*
X160517718Y-108563148D01*
X160358075Y-108771196D01*
X160226958Y-108998299D01*
X160226953Y-108998309D01*
X160126605Y-109240571D01*
X160126602Y-109240581D01*
X160058730Y-109493884D01*
X160058716Y-109493990D01*
X160024500Y-109753872D01*
X140000499Y-109753872D01*
X139966270Y-109493884D01*
X139898398Y-109240581D01*
X139896009Y-109234814D01*
X139798046Y-108998309D01*
X139798041Y-108998299D01*
X139666924Y-108771196D01*
X139507281Y-108563148D01*
X139507274Y-108563140D01*
X139321860Y-108377726D01*
X139321851Y-108377718D01*
X139113803Y-108218075D01*
X138886700Y-108086958D01*
X138886690Y-108086953D01*
X138644428Y-107986605D01*
X138644421Y-107986603D01*
X138644419Y-107986602D01*
X138391116Y-107918730D01*
X138333339Y-107911123D01*
X138230991Y-107897648D01*
X146199500Y-107897648D01*
X146199500Y-108102351D01*
X146231522Y-108304534D01*
X146294781Y-108499223D01*
X146387715Y-108681613D01*
X146508028Y-108847213D01*
X146652786Y-108991971D01*
X146807749Y-109104556D01*
X146818390Y-109112287D01*
X146934607Y-109171503D01*
X147000776Y-109205218D01*
X147000778Y-109205218D01*
X147000781Y-109205220D01*
X147091856Y-109234812D01*
X147195465Y-109268477D01*
X147296557Y-109284488D01*
X147397648Y-109300500D01*
X147397649Y-109300500D01*
X147602351Y-109300500D01*
X147602352Y-109300500D01*
X147804534Y-109268477D01*
X147999219Y-109205220D01*
X148181610Y-109112287D01*
X148310482Y-109018657D01*
X148347213Y-108991971D01*
X148347215Y-108991968D01*
X148347219Y-108991966D01*
X148491966Y-108847219D01*
X148532550Y-108791358D01*
X148587878Y-108748694D01*
X148657491Y-108742713D01*
X148719287Y-108775318D01*
X148750573Y-108825238D01*
X148765183Y-108869327D01*
X148765185Y-108869331D01*
X148765186Y-108869334D01*
X148857288Y-109018656D01*
X148981344Y-109142712D01*
X149130666Y-109234814D01*
X149297203Y-109289999D01*
X149399991Y-109300500D01*
X150600008Y-109300499D01*
X150702797Y-109289999D01*
X150869334Y-109234814D01*
X151018656Y-109142712D01*
X151142712Y-109018656D01*
X151234814Y-108869334D01*
X151289999Y-108702797D01*
X151300500Y-108600009D01*
X151300499Y-107399992D01*
X151289999Y-107297203D01*
X151248230Y-107171153D01*
X156949500Y-107171153D01*
X156949500Y-107328846D01*
X156980261Y-107483489D01*
X156980264Y-107483501D01*
X157040602Y-107629172D01*
X157040609Y-107629185D01*
X157128210Y-107760288D01*
X157128213Y-107760292D01*
X157239707Y-107871786D01*
X157239711Y-107871789D01*
X157370814Y-107959390D01*
X157370827Y-107959397D01*
X157437649Y-107987075D01*
X157516503Y-108019737D01*
X157671153Y-108050499D01*
X157671156Y-108050500D01*
X157671158Y-108050500D01*
X157828844Y-108050500D01*
X157828845Y-108050499D01*
X157983497Y-108019737D01*
X158129179Y-107959394D01*
X158260289Y-107871789D01*
X158371789Y-107760289D01*
X158459394Y-107629179D01*
X158469191Y-107605524D01*
X158496069Y-107565297D01*
X162224548Y-103836819D01*
X162285871Y-103803334D01*
X162312229Y-103800500D01*
X162328844Y-103800500D01*
X162328845Y-103800499D01*
X162483497Y-103769737D01*
X162629179Y-103709394D01*
X162760289Y-103621789D01*
X162871789Y-103510289D01*
X162959394Y-103379179D01*
X163010939Y-103254738D01*
X163054779Y-103200334D01*
X163121074Y-103178269D01*
X163188773Y-103195548D01*
X163236384Y-103246685D01*
X163249500Y-103302190D01*
X163249500Y-104270396D01*
X163240062Y-104317844D01*
X163230265Y-104341498D01*
X163230262Y-104341506D01*
X163230260Y-104341511D01*
X163199500Y-104496153D01*
X163199500Y-104653846D01*
X163230261Y-104808489D01*
X163230264Y-104808501D01*
X163290602Y-104954172D01*
X163290609Y-104954185D01*
X163378210Y-105085288D01*
X163378213Y-105085292D01*
X163489707Y-105196786D01*
X163489711Y-105196789D01*
X163620814Y-105284390D01*
X163620827Y-105284397D01*
X163720060Y-105325500D01*
X163766503Y-105344737D01*
X163921153Y-105375499D01*
X163921156Y-105375500D01*
X163921158Y-105375500D01*
X164078844Y-105375500D01*
X164078845Y-105375499D01*
X164233497Y-105344737D01*
X164379179Y-105284394D01*
X164510289Y-105196789D01*
X164621789Y-105085289D01*
X164709394Y-104954179D01*
X164769737Y-104808497D01*
X164800500Y-104653842D01*
X164800500Y-104496158D01*
X164800500Y-104496155D01*
X164800499Y-104496153D01*
X164769739Y-104341511D01*
X164769738Y-104341508D01*
X164769737Y-104341503D01*
X164759937Y-104317844D01*
X164750500Y-104270396D01*
X164750500Y-100182940D01*
X164770185Y-100115901D01*
X164786814Y-100095263D01*
X164871789Y-100010289D01*
X164959394Y-99879179D01*
X165019737Y-99733497D01*
X165050500Y-99578842D01*
X165050500Y-99421158D01*
X165050500Y-99421155D01*
X165050499Y-99421153D01*
X165028440Y-99310256D01*
X165019737Y-99266503D01*
X165019735Y-99266498D01*
X164959397Y-99120827D01*
X164959390Y-99120814D01*
X164871789Y-98989711D01*
X164871786Y-98989707D01*
X164760292Y-98878213D01*
X164760288Y-98878210D01*
X164629185Y-98790609D01*
X164629172Y-98790602D01*
X164483501Y-98730264D01*
X164483489Y-98730261D01*
X164328845Y-98699500D01*
X164328842Y-98699500D01*
X164171158Y-98699500D01*
X164171155Y-98699500D01*
X164016510Y-98730261D01*
X164016498Y-98730264D01*
X163870827Y-98790602D01*
X163870814Y-98790609D01*
X163739711Y-98878210D01*
X163739707Y-98878213D01*
X163628213Y-98989707D01*
X163628210Y-98989711D01*
X163540609Y-99120814D01*
X163540603Y-99120826D01*
X163530806Y-99144478D01*
X163528743Y-99147772D01*
X163528414Y-99149884D01*
X163519372Y-99162741D01*
X163508978Y-99179345D01*
X163506534Y-99182097D01*
X163417048Y-99271584D01*
X163391209Y-99310256D01*
X163386482Y-99317331D01*
X163334914Y-99394507D01*
X163278343Y-99531082D01*
X163278340Y-99531092D01*
X163249500Y-99676079D01*
X163249500Y-102697809D01*
X163229815Y-102764848D01*
X163177011Y-102810603D01*
X163107853Y-102820547D01*
X163044297Y-102791522D01*
X163010939Y-102745261D01*
X162959397Y-102620827D01*
X162959390Y-102620814D01*
X162871789Y-102489711D01*
X162871786Y-102489707D01*
X162760292Y-102378213D01*
X162760288Y-102378210D01*
X162629185Y-102290609D01*
X162629172Y-102290602D01*
X162483501Y-102230264D01*
X162483489Y-102230261D01*
X162328845Y-102199500D01*
X162328842Y-102199500D01*
X162171158Y-102199500D01*
X162171155Y-102199500D01*
X162016511Y-102230260D01*
X162016506Y-102230262D01*
X162016504Y-102230262D01*
X162016503Y-102230263D01*
X161992844Y-102240062D01*
X161945396Y-102249500D01*
X161926076Y-102249500D01*
X161897242Y-102255234D01*
X161897243Y-102255235D01*
X161781093Y-102278339D01*
X161781083Y-102278342D01*
X161701081Y-102311479D01*
X161701082Y-102311480D01*
X161644505Y-102334915D01*
X161582835Y-102376121D01*
X161579706Y-102378213D01*
X161562372Y-102389795D01*
X161521585Y-102417047D01*
X161521581Y-102417050D01*
X157434703Y-106503927D01*
X157394480Y-106530805D01*
X157370819Y-106540606D01*
X157370818Y-106540607D01*
X157239715Y-106628207D01*
X157239707Y-106628213D01*
X157128213Y-106739707D01*
X157128210Y-106739711D01*
X157040609Y-106870814D01*
X157040602Y-106870827D01*
X156980264Y-107016498D01*
X156980261Y-107016510D01*
X156949500Y-107171153D01*
X151248230Y-107171153D01*
X151234814Y-107130666D01*
X151142712Y-106981344D01*
X151018656Y-106857288D01*
X150871481Y-106766510D01*
X150869336Y-106765187D01*
X150869331Y-106765185D01*
X150854553Y-106760288D01*
X150702797Y-106710001D01*
X150702795Y-106710000D01*
X150600010Y-106699500D01*
X149399998Y-106699500D01*
X149399981Y-106699501D01*
X149297203Y-106710000D01*
X149297200Y-106710001D01*
X149130668Y-106765185D01*
X149130663Y-106765187D01*
X148981342Y-106857289D01*
X148857289Y-106981342D01*
X148765187Y-107130663D01*
X148765186Y-107130666D01*
X148751769Y-107171158D01*
X148750575Y-107174760D01*
X148710802Y-107232205D01*
X148646286Y-107259027D01*
X148577510Y-107246712D01*
X148532551Y-107208640D01*
X148491971Y-107152787D01*
X148491967Y-107152782D01*
X148347213Y-107008028D01*
X148181613Y-106887715D01*
X148181612Y-106887714D01*
X148181610Y-106887713D01*
X148074136Y-106832952D01*
X147999223Y-106794781D01*
X147804534Y-106731522D01*
X147629995Y-106703878D01*
X147602352Y-106699500D01*
X147397648Y-106699500D01*
X147373329Y-106703351D01*
X147195465Y-106731522D01*
X147000776Y-106794781D01*
X146818386Y-106887715D01*
X146652786Y-107008028D01*
X146508028Y-107152786D01*
X146387715Y-107318386D01*
X146294781Y-107500776D01*
X146231522Y-107695465D01*
X146199500Y-107897648D01*
X138230991Y-107897648D01*
X138131127Y-107884500D01*
X138131120Y-107884500D01*
X137868880Y-107884500D01*
X137868872Y-107884500D01*
X137637772Y-107914926D01*
X137608884Y-107918730D01*
X137457112Y-107959397D01*
X137355581Y-107986602D01*
X137355571Y-107986605D01*
X137113309Y-108086953D01*
X137113299Y-108086958D01*
X136886196Y-108218075D01*
X136678148Y-108377718D01*
X136492718Y-108563148D01*
X136333075Y-108771196D01*
X136201958Y-108998299D01*
X136201953Y-108998309D01*
X136101605Y-109240571D01*
X136101602Y-109240581D01*
X136033730Y-109493884D01*
X136033716Y-109493990D01*
X135999500Y-109753872D01*
X133650499Y-109753872D01*
X133616270Y-109493884D01*
X133548398Y-109240581D01*
X133546009Y-109234814D01*
X133448046Y-108998309D01*
X133448041Y-108998299D01*
X133316924Y-108771196D01*
X133157281Y-108563148D01*
X133157274Y-108563140D01*
X132971860Y-108377726D01*
X132971851Y-108377718D01*
X132763803Y-108218075D01*
X132536700Y-108086958D01*
X132536690Y-108086953D01*
X132294428Y-107986605D01*
X132294421Y-107986603D01*
X132294419Y-107986602D01*
X132041116Y-107918730D01*
X131983339Y-107911123D01*
X131781127Y-107884500D01*
X131781120Y-107884500D01*
X131518880Y-107884500D01*
X131518872Y-107884500D01*
X131287772Y-107914926D01*
X131258884Y-107918730D01*
X131107112Y-107959397D01*
X131005581Y-107986602D01*
X131005571Y-107986605D01*
X130763309Y-108086953D01*
X130763299Y-108086958D01*
X130536196Y-108218075D01*
X130328148Y-108377718D01*
X130142718Y-108563148D01*
X129983075Y-108771196D01*
X129851958Y-108998299D01*
X129851953Y-108998309D01*
X129751605Y-109240571D01*
X129751602Y-109240581D01*
X129683730Y-109493884D01*
X129683716Y-109493990D01*
X129649500Y-109753872D01*
X127299995Y-109753872D01*
X127265779Y-109493990D01*
X127265777Y-109493979D01*
X127197924Y-109240744D01*
X127097595Y-108998528D01*
X127097590Y-108998517D01*
X126966511Y-108771483D01*
X126966505Y-108771475D01*
X126879918Y-108658633D01*
X126879917Y-108658633D01*
X125939309Y-109599242D01*
X125920332Y-109553426D01*
X125843726Y-109438776D01*
X125746224Y-109341274D01*
X125631574Y-109264668D01*
X125585755Y-109245689D01*
X126526365Y-108305080D01*
X126413524Y-108218494D01*
X126413516Y-108218488D01*
X126186482Y-108087409D01*
X126186471Y-108087404D01*
X125944255Y-107987075D01*
X125691020Y-107919222D01*
X125691009Y-107919220D01*
X125431094Y-107885000D01*
X125168905Y-107885000D01*
X124908990Y-107919220D01*
X124908979Y-107919222D01*
X124655744Y-107987075D01*
X124413528Y-108087404D01*
X124413517Y-108087409D01*
X124186471Y-108218496D01*
X124073633Y-108305079D01*
X124073633Y-108305080D01*
X125014243Y-109245690D01*
X124968426Y-109264668D01*
X124853776Y-109341274D01*
X124756274Y-109438776D01*
X124679668Y-109553426D01*
X124660690Y-109599243D01*
X123720080Y-108658633D01*
X123720079Y-108658633D01*
X123633496Y-108771471D01*
X123502409Y-108998517D01*
X123502404Y-108998528D01*
X123402075Y-109240744D01*
X123334222Y-109493979D01*
X123334220Y-109493990D01*
X123300000Y-109753905D01*
X120500500Y-109753905D01*
X120500500Y-105421153D01*
X138699500Y-105421153D01*
X138699500Y-105578846D01*
X138730261Y-105733489D01*
X138730264Y-105733501D01*
X138790602Y-105879172D01*
X138790609Y-105879185D01*
X138878210Y-106010288D01*
X138878213Y-106010292D01*
X138989707Y-106121786D01*
X139027289Y-106146898D01*
X139072093Y-106200511D01*
X139080800Y-106269836D01*
X139050645Y-106332863D01*
X139027289Y-106353102D01*
X138989707Y-106378213D01*
X138878213Y-106489707D01*
X138878210Y-106489711D01*
X138790609Y-106620814D01*
X138790602Y-106620827D01*
X138730264Y-106766498D01*
X138730261Y-106766510D01*
X138699500Y-106921153D01*
X138699500Y-107078846D01*
X138730261Y-107233489D01*
X138730264Y-107233501D01*
X138790602Y-107379172D01*
X138790609Y-107379185D01*
X138878210Y-107510288D01*
X138878213Y-107510292D01*
X138989707Y-107621786D01*
X138989711Y-107621789D01*
X139120814Y-107709390D01*
X139120827Y-107709397D01*
X139266498Y-107769735D01*
X139266503Y-107769737D01*
X139421153Y-107800499D01*
X139421156Y-107800500D01*
X139421158Y-107800500D01*
X139578844Y-107800500D01*
X139578845Y-107800499D01*
X139631403Y-107790044D01*
X139726345Y-107771160D01*
X139726350Y-107771159D01*
X139731011Y-107770231D01*
X139733497Y-107769737D01*
X139879179Y-107709394D01*
X140010289Y-107621789D01*
X140121789Y-107510289D01*
X140209394Y-107379179D01*
X140219191Y-107355524D01*
X140246069Y-107315297D01*
X141390214Y-106171153D01*
X143199500Y-106171153D01*
X143199500Y-106328846D01*
X143230261Y-106483489D01*
X143230264Y-106483501D01*
X143290602Y-106629172D01*
X143290609Y-106629185D01*
X143378210Y-106760288D01*
X143378213Y-106760292D01*
X143489707Y-106871786D01*
X143489711Y-106871789D01*
X143620814Y-106959390D01*
X143620827Y-106959397D01*
X143738249Y-107008034D01*
X143766503Y-107019737D01*
X143921153Y-107050499D01*
X143921156Y-107050500D01*
X143921158Y-107050500D01*
X144078844Y-107050500D01*
X144078845Y-107050499D01*
X144155152Y-107035320D01*
X144233488Y-107019739D01*
X144233489Y-107019738D01*
X144233497Y-107019737D01*
X144257155Y-107009937D01*
X144304604Y-107000500D01*
X145823920Y-107000500D01*
X145921462Y-106981096D01*
X145968913Y-106971658D01*
X146105495Y-106915084D01*
X146170291Y-106871789D01*
X146170294Y-106871786D01*
X146170296Y-106871786D01*
X146199547Y-106852240D01*
X146228416Y-106832952D01*
X147815297Y-105246069D01*
X147855524Y-105219191D01*
X147879179Y-105209394D01*
X148010289Y-105121789D01*
X148121789Y-105010289D01*
X148209394Y-104879179D01*
X148269737Y-104733497D01*
X148300500Y-104578842D01*
X148300500Y-104421158D01*
X148300500Y-104421155D01*
X148300499Y-104421153D01*
X148284656Y-104341506D01*
X148269737Y-104266503D01*
X148269735Y-104266498D01*
X148209397Y-104120827D01*
X148209390Y-104120814D01*
X148121789Y-103989711D01*
X148121786Y-103989707D01*
X148010292Y-103878213D01*
X148010288Y-103878210D01*
X147879185Y-103790609D01*
X147879172Y-103790602D01*
X147733501Y-103730264D01*
X147733489Y-103730261D01*
X147578845Y-103699500D01*
X147578842Y-103699500D01*
X147421158Y-103699500D01*
X147421155Y-103699500D01*
X147266510Y-103730261D01*
X147266498Y-103730264D01*
X147120827Y-103790602D01*
X147120814Y-103790609D01*
X146989711Y-103878210D01*
X146989707Y-103878213D01*
X146878213Y-103989707D01*
X146878207Y-103989715D01*
X146790607Y-104120818D01*
X146790606Y-104120819D01*
X146780805Y-104144480D01*
X146753927Y-104184703D01*
X145475451Y-105463181D01*
X145414128Y-105496666D01*
X145387770Y-105499500D01*
X144304604Y-105499500D01*
X144257155Y-105490062D01*
X144233497Y-105480263D01*
X144233493Y-105480262D01*
X144233488Y-105480260D01*
X144078845Y-105449500D01*
X144078842Y-105449500D01*
X143921158Y-105449500D01*
X143921155Y-105449500D01*
X143766510Y-105480261D01*
X143766498Y-105480264D01*
X143620827Y-105540602D01*
X143620814Y-105540609D01*
X143489711Y-105628210D01*
X143489707Y-105628213D01*
X143378213Y-105739707D01*
X143378210Y-105739711D01*
X143290609Y-105870814D01*
X143290602Y-105870827D01*
X143230264Y-106016498D01*
X143230261Y-106016510D01*
X143199500Y-106171153D01*
X141390214Y-106171153D01*
X142199549Y-105361819D01*
X142260872Y-105328334D01*
X142287230Y-105325500D01*
X142695396Y-105325500D01*
X142742844Y-105334937D01*
X142766503Y-105344737D01*
X142766508Y-105344738D01*
X142766511Y-105344739D01*
X142921153Y-105375499D01*
X142921156Y-105375500D01*
X142921158Y-105375500D01*
X143078844Y-105375500D01*
X143078845Y-105375499D01*
X143233497Y-105344737D01*
X143379179Y-105284394D01*
X143510289Y-105196789D01*
X143621789Y-105085289D01*
X143709394Y-104954179D01*
X143769737Y-104808497D01*
X143800500Y-104653842D01*
X143800500Y-104496158D01*
X143800500Y-104496155D01*
X143800499Y-104496153D01*
X143785580Y-104421153D01*
X143769737Y-104341503D01*
X143769735Y-104341498D01*
X143709397Y-104195827D01*
X143709390Y-104195814D01*
X143621789Y-104064711D01*
X143621786Y-104064707D01*
X143510292Y-103953213D01*
X143510288Y-103953210D01*
X143379185Y-103865609D01*
X143379175Y-103865604D01*
X143376659Y-103864562D01*
X143375543Y-103863662D01*
X143373809Y-103862736D01*
X143373984Y-103862407D01*
X143322255Y-103820723D01*
X143300188Y-103754429D01*
X143317466Y-103686729D01*
X143368602Y-103639118D01*
X143376659Y-103635438D01*
X143377222Y-103635204D01*
X143379179Y-103634394D01*
X143510289Y-103546789D01*
X143621789Y-103435289D01*
X143709394Y-103304179D01*
X143769737Y-103158497D01*
X143800500Y-103003842D01*
X143800500Y-102846158D01*
X143800500Y-102846155D01*
X143800499Y-102846153D01*
X143789271Y-102789707D01*
X143769737Y-102691503D01*
X143764231Y-102678210D01*
X143709397Y-102545827D01*
X143709390Y-102545814D01*
X143621789Y-102414711D01*
X143621786Y-102414707D01*
X143510292Y-102303213D01*
X143510288Y-102303210D01*
X143379185Y-102215609D01*
X143379172Y-102215602D01*
X143233501Y-102155264D01*
X143233489Y-102155261D01*
X143078845Y-102124500D01*
X143078842Y-102124500D01*
X142921158Y-102124500D01*
X142921155Y-102124500D01*
X142766511Y-102155260D01*
X142766506Y-102155262D01*
X142766504Y-102155262D01*
X142766503Y-102155263D01*
X142742844Y-102165062D01*
X142695396Y-102174500D01*
X142001080Y-102174500D01*
X141856092Y-102203340D01*
X141856082Y-102203343D01*
X141719508Y-102259913D01*
X141673574Y-102290606D01*
X141673573Y-102290605D01*
X141596585Y-102342046D01*
X141596578Y-102342052D01*
X139184703Y-104753927D01*
X139144480Y-104780805D01*
X139120819Y-104790606D01*
X139120818Y-104790607D01*
X138989715Y-104878207D01*
X138989707Y-104878213D01*
X138878213Y-104989707D01*
X138878210Y-104989711D01*
X138790609Y-105120814D01*
X138790602Y-105120827D01*
X138730264Y-105266498D01*
X138730261Y-105266510D01*
X138699500Y-105421153D01*
X120500500Y-105421153D01*
X120500500Y-103221153D01*
X126899500Y-103221153D01*
X126899500Y-103378846D01*
X126930261Y-103533489D01*
X126930264Y-103533501D01*
X126990602Y-103679172D01*
X126990609Y-103679185D01*
X127078210Y-103810288D01*
X127078213Y-103810292D01*
X127189710Y-103921789D01*
X127236737Y-103953211D01*
X127320821Y-104009394D01*
X127344475Y-104019191D01*
X127384703Y-104046071D01*
X128496580Y-105157948D01*
X128496584Y-105157951D01*
X128619498Y-105240080D01*
X128619511Y-105240087D01*
X128726469Y-105284390D01*
X128756087Y-105296658D01*
X128756091Y-105296658D01*
X128756092Y-105296659D01*
X128901079Y-105325500D01*
X128901082Y-105325500D01*
X129048917Y-105325500D01*
X130445396Y-105325500D01*
X130492844Y-105334937D01*
X130516503Y-105344737D01*
X130516508Y-105344738D01*
X130516511Y-105344739D01*
X130671153Y-105375499D01*
X130671156Y-105375500D01*
X130671158Y-105375500D01*
X130828844Y-105375500D01*
X130828845Y-105375499D01*
X130983497Y-105344737D01*
X131129179Y-105284394D01*
X131260289Y-105196789D01*
X131371789Y-105085289D01*
X131459394Y-104954179D01*
X131519737Y-104808497D01*
X131550500Y-104653842D01*
X131550500Y-104496158D01*
X131550500Y-104496155D01*
X131550499Y-104496153D01*
X131535580Y-104421153D01*
X131519737Y-104341503D01*
X131519735Y-104341498D01*
X131459397Y-104195827D01*
X131459390Y-104195814D01*
X131371789Y-104064711D01*
X131371786Y-104064707D01*
X131260292Y-103953213D01*
X131260288Y-103953210D01*
X131129185Y-103865609D01*
X131129172Y-103865602D01*
X130983501Y-103805264D01*
X130983489Y-103805261D01*
X130828845Y-103774500D01*
X130828842Y-103774500D01*
X130671158Y-103774500D01*
X130671155Y-103774500D01*
X130516511Y-103805260D01*
X130516506Y-103805262D01*
X130516504Y-103805262D01*
X130516503Y-103805263D01*
X130492844Y-103815062D01*
X130445396Y-103824500D01*
X129337229Y-103824500D01*
X129270190Y-103804815D01*
X129249548Y-103788181D01*
X128446071Y-102984703D01*
X128419191Y-102944475D01*
X128409394Y-102920821D01*
X128359504Y-102846155D01*
X128321789Y-102789710D01*
X128210292Y-102678213D01*
X128210288Y-102678210D01*
X128079185Y-102590609D01*
X128079172Y-102590602D01*
X127933501Y-102530264D01*
X127933489Y-102530261D01*
X127778845Y-102499500D01*
X127778842Y-102499500D01*
X127621158Y-102499500D01*
X127621155Y-102499500D01*
X127466510Y-102530261D01*
X127466498Y-102530264D01*
X127320827Y-102590602D01*
X127320814Y-102590609D01*
X127189711Y-102678210D01*
X127189707Y-102678213D01*
X127078213Y-102789707D01*
X127078210Y-102789711D01*
X126990609Y-102920814D01*
X126990602Y-102920827D01*
X126930264Y-103066498D01*
X126930261Y-103066510D01*
X126899500Y-103221153D01*
X120500500Y-103221153D01*
X120500500Y-97171153D01*
X130199500Y-97171153D01*
X130199500Y-97328846D01*
X130230261Y-97483489D01*
X130230264Y-97483501D01*
X130290602Y-97629172D01*
X130290609Y-97629185D01*
X130378210Y-97760288D01*
X130378213Y-97760292D01*
X130489710Y-97871789D01*
X130620815Y-97959390D01*
X130620821Y-97959394D01*
X130644475Y-97969191D01*
X130684703Y-97996071D01*
X133463181Y-100774549D01*
X133496666Y-100835872D01*
X133499500Y-100862230D01*
X133499500Y-102620396D01*
X133490062Y-102667844D01*
X133489060Y-102670266D01*
X133480262Y-102691506D01*
X133480260Y-102691511D01*
X133449500Y-102846153D01*
X133449500Y-103003846D01*
X133480261Y-103158489D01*
X133480264Y-103158501D01*
X133540602Y-103304172D01*
X133540609Y-103304185D01*
X133628210Y-103435288D01*
X133628213Y-103435292D01*
X133739707Y-103546786D01*
X133739711Y-103546789D01*
X133870814Y-103634390D01*
X133870827Y-103634397D01*
X133997170Y-103686729D01*
X134016503Y-103694737D01*
X134171153Y-103725499D01*
X134171156Y-103725500D01*
X134171158Y-103725500D01*
X134328844Y-103725500D01*
X134328845Y-103725499D01*
X134483497Y-103694737D01*
X134629179Y-103634394D01*
X134760289Y-103546789D01*
X134871789Y-103435289D01*
X134959394Y-103304179D01*
X135010939Y-103179738D01*
X135054779Y-103125334D01*
X135121074Y-103103269D01*
X135188773Y-103120548D01*
X135236384Y-103171685D01*
X135249500Y-103227190D01*
X135249500Y-104270396D01*
X135240062Y-104317844D01*
X135230265Y-104341498D01*
X135230262Y-104341506D01*
X135230260Y-104341511D01*
X135199500Y-104496153D01*
X135199500Y-104653846D01*
X135230261Y-104808489D01*
X135230264Y-104808501D01*
X135290602Y-104954172D01*
X135290609Y-104954185D01*
X135378210Y-105085288D01*
X135378213Y-105085292D01*
X135489707Y-105196786D01*
X135489711Y-105196789D01*
X135620814Y-105284390D01*
X135620827Y-105284397D01*
X135720060Y-105325500D01*
X135766503Y-105344737D01*
X135921153Y-105375499D01*
X135921156Y-105375500D01*
X135921158Y-105375500D01*
X136078844Y-105375500D01*
X136078845Y-105375499D01*
X136233497Y-105344737D01*
X136291710Y-105320624D01*
X136340284Y-105300505D01*
X136379173Y-105284397D01*
X136379176Y-105284395D01*
X136379179Y-105284394D01*
X136510289Y-105196789D01*
X136621789Y-105085289D01*
X136709394Y-104954179D01*
X136769737Y-104808497D01*
X136800500Y-104653842D01*
X136800500Y-104496158D01*
X136800500Y-104496155D01*
X136800499Y-104496153D01*
X136769739Y-104341511D01*
X136769738Y-104341508D01*
X136769737Y-104341503D01*
X136759937Y-104317844D01*
X136750500Y-104270396D01*
X136750500Y-101304604D01*
X136759939Y-101257151D01*
X136760934Y-101254749D01*
X136769737Y-101233497D01*
X136800500Y-101078842D01*
X136800500Y-100921158D01*
X136800500Y-100921155D01*
X136800499Y-100921153D01*
X136769738Y-100766510D01*
X136769737Y-100766503D01*
X136760938Y-100745261D01*
X136709397Y-100620827D01*
X136709390Y-100620814D01*
X136621789Y-100489711D01*
X136621786Y-100489707D01*
X136510292Y-100378213D01*
X136510288Y-100378210D01*
X136379185Y-100290609D01*
X136379172Y-100290602D01*
X136233501Y-100230264D01*
X136233489Y-100230261D01*
X136078845Y-100199500D01*
X136078842Y-100199500D01*
X135921158Y-100199500D01*
X135921155Y-100199500D01*
X135766510Y-100230261D01*
X135766498Y-100230264D01*
X135620827Y-100290602D01*
X135620814Y-100290609D01*
X135489711Y-100378210D01*
X135489707Y-100378213D01*
X135378213Y-100489707D01*
X135378210Y-100489711D01*
X135290609Y-100620814D01*
X135290602Y-100620827D01*
X135239061Y-100745261D01*
X135195220Y-100799665D01*
X135128926Y-100821730D01*
X135061227Y-100804451D01*
X135013616Y-100753314D01*
X135000500Y-100697809D01*
X135000500Y-100426079D01*
X134971659Y-100281092D01*
X134971658Y-100281091D01*
X134971658Y-100281087D01*
X134971656Y-100281082D01*
X134915087Y-100144511D01*
X134915085Y-100144507D01*
X134915084Y-100144505D01*
X134869621Y-100076465D01*
X134869619Y-100076462D01*
X134832954Y-100021586D01*
X131746071Y-96934703D01*
X131719191Y-96894475D01*
X131709394Y-96870821D01*
X131709389Y-96870814D01*
X131621789Y-96739710D01*
X131510292Y-96628213D01*
X131510288Y-96628210D01*
X131379185Y-96540609D01*
X131379172Y-96540602D01*
X131233501Y-96480264D01*
X131233489Y-96480261D01*
X131078845Y-96449500D01*
X131078842Y-96449500D01*
X130921158Y-96449500D01*
X130921155Y-96449500D01*
X130766510Y-96480261D01*
X130766498Y-96480264D01*
X130620827Y-96540602D01*
X130620814Y-96540609D01*
X130489711Y-96628210D01*
X130489707Y-96628213D01*
X130378213Y-96739707D01*
X130378210Y-96739711D01*
X130290609Y-96870814D01*
X130290602Y-96870827D01*
X130230264Y-97016498D01*
X130230261Y-97016510D01*
X130199500Y-97171153D01*
X120500500Y-97171153D01*
X120500500Y-92602155D01*
X146100000Y-92602155D01*
X146100000Y-93300000D01*
X147066988Y-93300000D01*
X147034075Y-93357007D01*
X147000000Y-93484174D01*
X147000000Y-93615826D01*
X147034075Y-93742993D01*
X147066988Y-93800000D01*
X146100000Y-93800000D01*
X146100000Y-94497844D01*
X146106401Y-94557372D01*
X146106403Y-94557379D01*
X146156645Y-94692086D01*
X146156649Y-94692093D01*
X146242809Y-94807187D01*
X146242812Y-94807190D01*
X146357906Y-94893350D01*
X146357913Y-94893354D01*
X146492620Y-94943596D01*
X146492627Y-94943598D01*
X146552155Y-94949999D01*
X146552172Y-94950000D01*
X147250000Y-94950000D01*
X147250000Y-93983012D01*
X147307007Y-94015925D01*
X147434174Y-94050000D01*
X147565826Y-94050000D01*
X147692993Y-94015925D01*
X147750000Y-93983012D01*
X147750000Y-94950000D01*
X148447828Y-94950000D01*
X148447844Y-94949999D01*
X148507372Y-94943598D01*
X148507379Y-94943596D01*
X148642086Y-94893354D01*
X148642093Y-94893350D01*
X148757187Y-94807190D01*
X148757190Y-94807187D01*
X148843350Y-94692093D01*
X148843353Y-94692088D01*
X148862345Y-94641166D01*
X148904215Y-94585232D01*
X148969679Y-94560813D01*
X149037952Y-94575663D01*
X149066209Y-94596816D01*
X149087636Y-94618243D01*
X149087641Y-94618247D01*
X149243192Y-94731260D01*
X149265978Y-94747815D01*
X149382501Y-94807187D01*
X149462393Y-94847895D01*
X149462396Y-94847896D01*
X149567221Y-94881955D01*
X149672049Y-94916015D01*
X149889778Y-94950500D01*
X149889779Y-94950500D01*
X150110221Y-94950500D01*
X150110222Y-94950500D01*
X150327951Y-94916015D01*
X150537606Y-94847895D01*
X150734022Y-94747815D01*
X150912365Y-94618242D01*
X151068242Y-94462365D01*
X151149682Y-94350270D01*
X151205011Y-94307606D01*
X151274624Y-94301627D01*
X151336420Y-94334232D01*
X151350313Y-94350265D01*
X151431753Y-94462358D01*
X151431758Y-94462365D01*
X151587636Y-94618243D01*
X151587641Y-94618247D01*
X151743192Y-94731260D01*
X151765978Y-94747815D01*
X151882501Y-94807187D01*
X151962393Y-94847895D01*
X151962396Y-94847896D01*
X152067221Y-94881955D01*
X152172049Y-94916015D01*
X152389778Y-94950500D01*
X152389779Y-94950500D01*
X152610221Y-94950500D01*
X152610222Y-94950500D01*
X152827951Y-94916015D01*
X153037606Y-94847895D01*
X153234022Y-94747815D01*
X153339539Y-94671153D01*
X163294500Y-94671153D01*
X163294500Y-94828846D01*
X163325261Y-94983489D01*
X163325264Y-94983501D01*
X163385602Y-95129172D01*
X163385609Y-95129185D01*
X163473210Y-95260288D01*
X163473213Y-95260292D01*
X163584707Y-95371786D01*
X163584711Y-95371789D01*
X163715814Y-95459390D01*
X163715827Y-95459397D01*
X163861498Y-95519735D01*
X163861503Y-95519737D01*
X164016153Y-95550499D01*
X164016156Y-95550500D01*
X164016158Y-95550500D01*
X164173844Y-95550500D01*
X164173845Y-95550499D01*
X164328497Y-95519737D01*
X164474179Y-95459394D01*
X164605289Y-95371789D01*
X164716789Y-95260289D01*
X164804394Y-95129179D01*
X164814191Y-95105524D01*
X164841069Y-95065297D01*
X167844548Y-92061819D01*
X167905871Y-92028334D01*
X167932229Y-92025500D01*
X172170396Y-92025500D01*
X172217844Y-92034937D01*
X172241503Y-92044737D01*
X172241508Y-92044738D01*
X172241511Y-92044739D01*
X172396153Y-92075499D01*
X172396156Y-92075500D01*
X172396158Y-92075500D01*
X172553844Y-92075500D01*
X172553845Y-92075499D01*
X172708497Y-92044737D01*
X172854179Y-91984394D01*
X172985289Y-91896789D01*
X173096789Y-91785289D01*
X173184394Y-91654179D01*
X173244737Y-91508497D01*
X173275500Y-91353842D01*
X173275500Y-91196158D01*
X173275500Y-91196155D01*
X173275499Y-91196153D01*
X173244738Y-91041510D01*
X173244737Y-91041503D01*
X173244735Y-91041498D01*
X173184397Y-90895827D01*
X173184390Y-90895814D01*
X173096789Y-90764711D01*
X173096786Y-90764707D01*
X172985292Y-90653213D01*
X172985288Y-90653210D01*
X172854185Y-90565609D01*
X172854172Y-90565602D01*
X172708501Y-90505264D01*
X172708489Y-90505261D01*
X172553845Y-90474500D01*
X172553842Y-90474500D01*
X172396158Y-90474500D01*
X172396155Y-90474500D01*
X172241511Y-90505260D01*
X172241506Y-90505262D01*
X172241504Y-90505262D01*
X172241503Y-90505263D01*
X172217844Y-90515062D01*
X172170396Y-90524500D01*
X167496080Y-90524500D01*
X167351092Y-90553340D01*
X167351082Y-90553343D01*
X167214511Y-90609912D01*
X167214498Y-90609919D01*
X167091584Y-90692048D01*
X167091580Y-90692051D01*
X163779703Y-94003927D01*
X163739480Y-94030805D01*
X163715819Y-94040606D01*
X163715818Y-94040607D01*
X163584715Y-94128207D01*
X163584707Y-94128213D01*
X163473213Y-94239707D01*
X163473210Y-94239711D01*
X163385609Y-94370814D01*
X163385602Y-94370827D01*
X163325264Y-94516498D01*
X163325261Y-94516510D01*
X163294500Y-94671153D01*
X153339539Y-94671153D01*
X153412365Y-94618242D01*
X153568242Y-94462365D01*
X153697815Y-94284022D01*
X153797895Y-94087606D01*
X153866015Y-93877951D01*
X153900500Y-93660222D01*
X153900500Y-93439778D01*
X153866015Y-93222049D01*
X153797895Y-93012394D01*
X153797895Y-93012393D01*
X153763237Y-92944375D01*
X153697815Y-92815978D01*
X153649681Y-92749727D01*
X153568247Y-92637641D01*
X153568243Y-92637636D01*
X153412363Y-92481756D01*
X153412358Y-92481752D01*
X153234025Y-92352187D01*
X153234024Y-92352186D01*
X153234022Y-92352185D01*
X153171096Y-92320122D01*
X153037606Y-92252104D01*
X153037603Y-92252103D01*
X152827952Y-92183985D01*
X152719086Y-92166742D01*
X152610222Y-92149500D01*
X152389778Y-92149500D01*
X152317201Y-92160995D01*
X152172047Y-92183985D01*
X151962396Y-92252103D01*
X151962393Y-92252104D01*
X151765974Y-92352187D01*
X151587641Y-92481752D01*
X151587636Y-92481756D01*
X151431756Y-92637636D01*
X151431752Y-92637641D01*
X151350318Y-92749727D01*
X151294989Y-92792393D01*
X151225375Y-92798372D01*
X151163580Y-92765767D01*
X151149682Y-92749727D01*
X151068247Y-92637641D01*
X151068243Y-92637636D01*
X150912363Y-92481756D01*
X150912358Y-92481752D01*
X150734025Y-92352187D01*
X150734024Y-92352186D01*
X150734022Y-92352185D01*
X150671096Y-92320122D01*
X150537606Y-92252104D01*
X150537603Y-92252103D01*
X150327952Y-92183985D01*
X150219086Y-92166742D01*
X150110222Y-92149500D01*
X149889778Y-92149500D01*
X149817201Y-92160995D01*
X149672047Y-92183985D01*
X149462396Y-92252103D01*
X149462393Y-92252104D01*
X149265974Y-92352187D01*
X149087641Y-92481752D01*
X149087635Y-92481757D01*
X149066207Y-92503185D01*
X149004884Y-92536669D01*
X148935192Y-92531683D01*
X148879259Y-92489810D01*
X148862346Y-92458834D01*
X148843355Y-92407915D01*
X148843350Y-92407906D01*
X148757190Y-92292812D01*
X148757187Y-92292809D01*
X148642093Y-92206649D01*
X148642086Y-92206645D01*
X148507379Y-92156403D01*
X148507372Y-92156401D01*
X148447844Y-92150000D01*
X147750000Y-92150000D01*
X147750000Y-93116988D01*
X147692993Y-93084075D01*
X147565826Y-93050000D01*
X147434174Y-93050000D01*
X147307007Y-93084075D01*
X147250000Y-93116988D01*
X147250000Y-92150000D01*
X146552155Y-92150000D01*
X146492627Y-92156401D01*
X146492620Y-92156403D01*
X146357913Y-92206645D01*
X146357906Y-92206649D01*
X146242812Y-92292809D01*
X146242809Y-92292812D01*
X146156649Y-92407906D01*
X146156645Y-92407913D01*
X146106403Y-92542620D01*
X146106401Y-92542627D01*
X146100000Y-92602155D01*
X120500500Y-92602155D01*
X120500500Y-89421153D01*
X146449500Y-89421153D01*
X146449500Y-89578846D01*
X146480261Y-89733489D01*
X146480264Y-89733501D01*
X146540602Y-89879172D01*
X146540609Y-89879185D01*
X146628210Y-90010288D01*
X146628213Y-90010292D01*
X146739707Y-90121786D01*
X146739711Y-90121789D01*
X146870814Y-90209390D01*
X146870827Y-90209397D01*
X146970060Y-90250500D01*
X147016503Y-90269737D01*
X147171153Y-90300499D01*
X147171156Y-90300500D01*
X147171158Y-90300500D01*
X147328844Y-90300500D01*
X147328845Y-90300499D01*
X147405152Y-90285320D01*
X147483488Y-90269739D01*
X147483489Y-90269738D01*
X147483497Y-90269737D01*
X147507155Y-90259937D01*
X147554604Y-90250500D01*
X152445396Y-90250500D01*
X152492844Y-90259937D01*
X152516503Y-90269737D01*
X152516508Y-90269738D01*
X152516511Y-90269739D01*
X152671153Y-90300499D01*
X152671156Y-90300500D01*
X152671158Y-90300500D01*
X152828844Y-90300500D01*
X152828845Y-90300499D01*
X152983497Y-90269737D01*
X153129179Y-90209394D01*
X153260289Y-90121789D01*
X153371789Y-90010289D01*
X153459394Y-89879179D01*
X153519737Y-89733497D01*
X153550500Y-89578842D01*
X153550500Y-89421158D01*
X153550500Y-89421155D01*
X153550499Y-89421153D01*
X153519738Y-89266510D01*
X153519737Y-89266503D01*
X153519735Y-89266498D01*
X153459397Y-89120827D01*
X153459390Y-89120814D01*
X153371789Y-88989711D01*
X153371786Y-88989707D01*
X153260292Y-88878213D01*
X153260288Y-88878210D01*
X153129185Y-88790609D01*
X153129172Y-88790602D01*
X152983501Y-88730264D01*
X152983489Y-88730261D01*
X152828845Y-88699500D01*
X152828842Y-88699500D01*
X152671158Y-88699500D01*
X152671155Y-88699500D01*
X152516511Y-88730260D01*
X152516506Y-88730262D01*
X152516504Y-88730262D01*
X152516503Y-88730263D01*
X152492844Y-88740062D01*
X152445396Y-88749500D01*
X147554604Y-88749500D01*
X147507155Y-88740062D01*
X147483497Y-88730263D01*
X147483493Y-88730262D01*
X147483488Y-88730260D01*
X147328845Y-88699500D01*
X147328842Y-88699500D01*
X147171158Y-88699500D01*
X147171155Y-88699500D01*
X147016510Y-88730261D01*
X147016498Y-88730264D01*
X146870827Y-88790602D01*
X146870814Y-88790609D01*
X146739711Y-88878210D01*
X146739707Y-88878213D01*
X146628213Y-88989707D01*
X146628210Y-88989711D01*
X146540609Y-89120814D01*
X146540602Y-89120827D01*
X146480264Y-89266498D01*
X146480261Y-89266510D01*
X146449500Y-89421153D01*
X120500500Y-89421153D01*
X120500500Y-87583653D01*
X128112000Y-87583653D01*
X128112000Y-87741346D01*
X128142761Y-87895989D01*
X128142764Y-87896001D01*
X128203102Y-88041672D01*
X128203109Y-88041685D01*
X128290710Y-88172788D01*
X128290713Y-88172792D01*
X128402207Y-88284286D01*
X128402211Y-88284289D01*
X128533314Y-88371890D01*
X128533327Y-88371897D01*
X128678998Y-88432235D01*
X128679003Y-88432237D01*
X128833653Y-88462999D01*
X128833656Y-88463000D01*
X128833658Y-88463000D01*
X128991344Y-88463000D01*
X128991345Y-88462999D01*
X129145997Y-88432237D01*
X129291679Y-88371894D01*
X129422789Y-88284289D01*
X129534289Y-88172789D01*
X129621894Y-88041679D01*
X129631691Y-88018024D01*
X129658569Y-87977797D01*
X131349549Y-86286819D01*
X131410872Y-86253334D01*
X131437230Y-86250500D01*
X134323920Y-86250500D01*
X134421462Y-86231096D01*
X134468913Y-86221658D01*
X134605495Y-86165084D01*
X134654729Y-86132186D01*
X134728416Y-86082952D01*
X136075590Y-84735777D01*
X143249500Y-84735777D01*
X143249500Y-87364208D01*
X143249501Y-87364223D01*
X143259904Y-87496413D01*
X143259905Y-87496420D01*
X143314902Y-87714678D01*
X143314903Y-87714681D01*
X143407991Y-87919622D01*
X143407997Y-87919632D01*
X143536174Y-88104645D01*
X143536178Y-88104650D01*
X143536181Y-88104654D01*
X143695346Y-88263819D01*
X143695350Y-88263822D01*
X143695354Y-88263825D01*
X143834603Y-88360297D01*
X143880374Y-88392007D01*
X144085317Y-88485096D01*
X144085321Y-88485097D01*
X144303579Y-88540094D01*
X144303581Y-88540094D01*
X144303588Y-88540096D01*
X144435783Y-88550500D01*
X146064216Y-88550499D01*
X146196412Y-88540096D01*
X146414683Y-88485096D01*
X146619626Y-88392007D01*
X146804654Y-88263819D01*
X146963819Y-88104654D01*
X147092007Y-87919626D01*
X147185096Y-87714683D01*
X147240096Y-87496412D01*
X147250500Y-87364217D01*
X147250499Y-84735784D01*
X147250498Y-84735777D01*
X152749500Y-84735777D01*
X152749500Y-87364208D01*
X152749501Y-87364223D01*
X152759904Y-87496413D01*
X152759905Y-87496420D01*
X152814902Y-87714678D01*
X152814903Y-87714681D01*
X152907991Y-87919622D01*
X152907997Y-87919632D01*
X153036174Y-88104645D01*
X153036178Y-88104650D01*
X153036181Y-88104654D01*
X153195346Y-88263819D01*
X153195350Y-88263822D01*
X153195354Y-88263825D01*
X153334603Y-88360297D01*
X153380374Y-88392007D01*
X153585317Y-88485096D01*
X153585321Y-88485097D01*
X153803579Y-88540094D01*
X153803581Y-88540094D01*
X153803588Y-88540096D01*
X153935783Y-88550500D01*
X155564216Y-88550499D01*
X155696412Y-88540096D01*
X155914683Y-88485096D01*
X156119626Y-88392007D01*
X156304654Y-88263819D01*
X156463819Y-88104654D01*
X156592007Y-87919626D01*
X156685096Y-87714683D01*
X156740096Y-87496412D01*
X156750500Y-87364217D01*
X156750499Y-84735784D01*
X156740096Y-84603588D01*
X156685096Y-84385317D01*
X156592007Y-84180374D01*
X156463819Y-83995346D01*
X156304654Y-83836181D01*
X156304650Y-83836178D01*
X156304645Y-83836174D01*
X156119632Y-83707997D01*
X156119630Y-83707995D01*
X156119626Y-83707993D01*
X155914683Y-83614904D01*
X155914681Y-83614903D01*
X155914678Y-83614902D01*
X155696420Y-83559905D01*
X155696413Y-83559904D01*
X155652347Y-83556436D01*
X155564217Y-83549500D01*
X155564215Y-83549500D01*
X153935791Y-83549500D01*
X153935776Y-83549501D01*
X153803586Y-83559904D01*
X153803579Y-83559905D01*
X153585321Y-83614902D01*
X153585318Y-83614903D01*
X153380377Y-83707991D01*
X153380367Y-83707997D01*
X153195354Y-83836174D01*
X153195342Y-83836184D01*
X153036184Y-83995342D01*
X153036174Y-83995354D01*
X152907997Y-84180367D01*
X152907991Y-84180377D01*
X152814903Y-84385318D01*
X152814902Y-84385321D01*
X152759905Y-84603579D01*
X152759904Y-84603586D01*
X152749500Y-84735777D01*
X147250498Y-84735777D01*
X147240096Y-84603588D01*
X147185096Y-84385317D01*
X147092007Y-84180374D01*
X146963819Y-83995346D01*
X146804654Y-83836181D01*
X146804650Y-83836178D01*
X146804645Y-83836174D01*
X146619632Y-83707997D01*
X146619630Y-83707995D01*
X146619626Y-83707993D01*
X146414683Y-83614904D01*
X146414681Y-83614903D01*
X146414678Y-83614902D01*
X146196420Y-83559905D01*
X146196413Y-83559904D01*
X146152347Y-83556436D01*
X146064217Y-83549500D01*
X146064215Y-83549500D01*
X144435791Y-83549500D01*
X144435776Y-83549501D01*
X144303586Y-83559904D01*
X144303579Y-83559905D01*
X144085321Y-83614902D01*
X144085318Y-83614903D01*
X143880377Y-83707991D01*
X143880367Y-83707997D01*
X143695354Y-83836174D01*
X143695342Y-83836184D01*
X143536184Y-83995342D01*
X143536174Y-83995354D01*
X143407997Y-84180367D01*
X143407991Y-84180377D01*
X143314903Y-84385318D01*
X143314902Y-84385321D01*
X143259905Y-84603579D01*
X143259904Y-84603586D01*
X143249500Y-84735777D01*
X136075590Y-84735777D01*
X137815297Y-82996069D01*
X137855524Y-82969191D01*
X137879179Y-82959394D01*
X138010289Y-82871789D01*
X138121789Y-82760289D01*
X138209394Y-82629179D01*
X138269737Y-82483497D01*
X138300500Y-82328842D01*
X138300500Y-82171158D01*
X138300500Y-82171155D01*
X138300499Y-82171153D01*
X138269738Y-82016510D01*
X138269737Y-82016503D01*
X138235855Y-81934703D01*
X138209397Y-81870827D01*
X138209390Y-81870814D01*
X138121789Y-81739711D01*
X138121786Y-81739707D01*
X138010292Y-81628213D01*
X138010288Y-81628210D01*
X137879185Y-81540609D01*
X137879172Y-81540602D01*
X137733501Y-81480264D01*
X137733489Y-81480261D01*
X137578845Y-81449500D01*
X137578842Y-81449500D01*
X137421158Y-81449500D01*
X137421155Y-81449500D01*
X137266510Y-81480261D01*
X137266498Y-81480264D01*
X137120827Y-81540602D01*
X137120814Y-81540609D01*
X136989711Y-81628210D01*
X136989707Y-81628213D01*
X136878213Y-81739707D01*
X136878207Y-81739715D01*
X136790607Y-81870818D01*
X136790606Y-81870819D01*
X136780805Y-81894480D01*
X136753927Y-81934703D01*
X133975451Y-84713181D01*
X133914128Y-84746666D01*
X133887770Y-84749500D01*
X131001080Y-84749500D01*
X130856092Y-84778340D01*
X130856086Y-84778342D01*
X130719508Y-84834914D01*
X130719496Y-84834921D01*
X130670269Y-84867813D01*
X130596588Y-84917044D01*
X130596580Y-84917050D01*
X128597203Y-86916427D01*
X128556980Y-86943305D01*
X128533319Y-86953106D01*
X128533318Y-86953107D01*
X128402215Y-87040707D01*
X128402207Y-87040713D01*
X128290713Y-87152207D01*
X128290710Y-87152211D01*
X128203109Y-87283314D01*
X128203102Y-87283327D01*
X128142764Y-87428998D01*
X128142761Y-87429010D01*
X128112000Y-87583653D01*
X120500500Y-87583653D01*
X120500500Y-78399983D01*
X126199500Y-78399983D01*
X126199500Y-79600001D01*
X126199501Y-79600018D01*
X126210000Y-79702796D01*
X126210001Y-79702799D01*
X126265185Y-79869331D01*
X126265186Y-79869334D01*
X126357288Y-80018656D01*
X126481344Y-80142712D01*
X126630666Y-80234814D01*
X126797203Y-80289999D01*
X126899991Y-80300500D01*
X128100008Y-80300499D01*
X128202797Y-80289999D01*
X128369334Y-80234814D01*
X128518656Y-80142712D01*
X128642712Y-80018656D01*
X128734814Y-79869334D01*
X128789999Y-79702797D01*
X128800500Y-79600009D01*
X128800499Y-78399992D01*
X128789999Y-78297203D01*
X128734814Y-78130666D01*
X128642712Y-77981344D01*
X128518656Y-77857288D01*
X128369334Y-77765186D01*
X128307558Y-77744715D01*
X128250115Y-77704943D01*
X128223292Y-77640427D01*
X128222946Y-77617280D01*
X128225921Y-77579473D01*
X127546447Y-76900000D01*
X127552661Y-76900000D01*
X127654394Y-76872741D01*
X127745606Y-76820080D01*
X127820080Y-76745606D01*
X127872741Y-76654394D01*
X127900000Y-76552661D01*
X127900000Y-76546448D01*
X128579474Y-77225922D01*
X128579474Y-77225921D01*
X128611859Y-77181349D01*
X128704755Y-76999031D01*
X128767990Y-76804417D01*
X128800000Y-76602317D01*
X128800000Y-76397682D01*
X128799995Y-76397648D01*
X134449500Y-76397648D01*
X134449500Y-76602351D01*
X134481522Y-76804534D01*
X134544781Y-76999223D01*
X134607231Y-77121786D01*
X134637585Y-77181359D01*
X134637715Y-77181613D01*
X134758028Y-77347213D01*
X134902782Y-77491967D01*
X134902787Y-77491971D01*
X134958640Y-77532551D01*
X135001306Y-77587881D01*
X135007285Y-77657494D01*
X134974679Y-77719289D01*
X134924761Y-77750574D01*
X134880672Y-77765184D01*
X134880666Y-77765186D01*
X134880663Y-77765187D01*
X134731342Y-77857289D01*
X134607289Y-77981342D01*
X134515187Y-78130663D01*
X134515186Y-78130666D01*
X134460001Y-78297203D01*
X134460001Y-78297204D01*
X134460000Y-78297204D01*
X134449500Y-78399983D01*
X134449500Y-79600001D01*
X134449501Y-79600018D01*
X134460000Y-79702796D01*
X134460001Y-79702799D01*
X134515185Y-79869331D01*
X134515186Y-79869334D01*
X134607288Y-80018656D01*
X134731344Y-80142712D01*
X134880666Y-80234814D01*
X135047203Y-80289999D01*
X135149991Y-80300500D01*
X136350008Y-80300499D01*
X136452797Y-80289999D01*
X136619334Y-80234814D01*
X136768656Y-80142712D01*
X136892712Y-80018656D01*
X136984814Y-79869334D01*
X137039999Y-79702797D01*
X137050500Y-79600009D01*
X137050499Y-78921153D01*
X148699500Y-78921153D01*
X148699500Y-79078846D01*
X148730261Y-79233489D01*
X148730264Y-79233501D01*
X148790602Y-79379172D01*
X148790609Y-79379185D01*
X148878210Y-79510288D01*
X148878213Y-79510292D01*
X148989707Y-79621786D01*
X148989711Y-79621789D01*
X149120814Y-79709390D01*
X149120827Y-79709397D01*
X149220060Y-79750500D01*
X149266503Y-79769737D01*
X149421153Y-79800499D01*
X149421156Y-79800500D01*
X149421158Y-79800500D01*
X149578844Y-79800500D01*
X149578845Y-79800499D01*
X149655152Y-79785320D01*
X149733488Y-79769739D01*
X149733489Y-79769738D01*
X149733497Y-79769737D01*
X149757155Y-79759937D01*
X149804604Y-79750500D01*
X152387770Y-79750500D01*
X152454809Y-79770185D01*
X152475451Y-79786819D01*
X155521578Y-82832947D01*
X155521585Y-82832953D01*
X155579704Y-82871786D01*
X155579706Y-82871787D01*
X155579709Y-82871789D01*
X155644505Y-82915084D01*
X155644506Y-82915084D01*
X155644507Y-82915085D01*
X155751479Y-82959394D01*
X155781087Y-82971658D01*
X155781091Y-82971658D01*
X155781092Y-82971659D01*
X155926079Y-83000500D01*
X155926082Y-83000500D01*
X155926083Y-83000500D01*
X156073917Y-83000500D01*
X157695396Y-83000500D01*
X157742844Y-83009937D01*
X157766503Y-83019737D01*
X157766508Y-83019738D01*
X157766511Y-83019739D01*
X157921153Y-83050499D01*
X157921156Y-83050500D01*
X157921158Y-83050500D01*
X158078844Y-83050500D01*
X158078845Y-83050499D01*
X158233497Y-83019737D01*
X158379179Y-82959394D01*
X158510289Y-82871789D01*
X158621789Y-82760289D01*
X158709394Y-82629179D01*
X158769737Y-82483497D01*
X158800500Y-82328842D01*
X158800500Y-82171158D01*
X158800500Y-82171155D01*
X158800499Y-82171153D01*
X158769738Y-82016510D01*
X158769737Y-82016503D01*
X158735855Y-81934703D01*
X158709397Y-81870827D01*
X158709390Y-81870814D01*
X158621789Y-81739711D01*
X158621786Y-81739707D01*
X158510292Y-81628213D01*
X158510288Y-81628210D01*
X158379185Y-81540609D01*
X158379172Y-81540602D01*
X158233501Y-81480264D01*
X158233489Y-81480261D01*
X158078845Y-81449500D01*
X158078842Y-81449500D01*
X157921158Y-81449500D01*
X157921155Y-81449500D01*
X157766511Y-81480260D01*
X157766506Y-81480262D01*
X157766504Y-81480262D01*
X157766503Y-81480263D01*
X157742844Y-81490062D01*
X157695396Y-81499500D01*
X156362230Y-81499500D01*
X156295191Y-81479815D01*
X156274549Y-81463181D01*
X153228421Y-78417052D01*
X153228420Y-78417051D01*
X153170289Y-78378210D01*
X153128083Y-78350009D01*
X153128083Y-78350008D01*
X153105495Y-78334916D01*
X153105490Y-78334913D01*
X152968917Y-78278343D01*
X152968907Y-78278340D01*
X152823920Y-78249500D01*
X152823918Y-78249500D01*
X149804604Y-78249500D01*
X149757155Y-78240062D01*
X149733497Y-78230263D01*
X149733493Y-78230262D01*
X149733488Y-78230260D01*
X149578845Y-78199500D01*
X149578842Y-78199500D01*
X149421158Y-78199500D01*
X149421155Y-78199500D01*
X149266510Y-78230261D01*
X149266498Y-78230264D01*
X149120827Y-78290602D01*
X149120814Y-78290609D01*
X148989711Y-78378210D01*
X148989707Y-78378213D01*
X148878213Y-78489707D01*
X148878210Y-78489711D01*
X148790609Y-78620814D01*
X148790602Y-78620827D01*
X148730264Y-78766498D01*
X148730261Y-78766510D01*
X148699500Y-78921153D01*
X137050499Y-78921153D01*
X137050499Y-78399992D01*
X137039999Y-78297203D01*
X136984814Y-78130666D01*
X136892712Y-77981344D01*
X136768656Y-77857288D01*
X136619334Y-77765186D01*
X136575239Y-77750574D01*
X136517795Y-77710802D01*
X136490972Y-77646286D01*
X136503287Y-77577510D01*
X136541359Y-77532550D01*
X136597219Y-77491966D01*
X136741966Y-77347219D01*
X136741968Y-77347215D01*
X136741971Y-77347213D01*
X136798259Y-77269738D01*
X136862287Y-77181610D01*
X136955220Y-76999219D01*
X137018477Y-76804534D01*
X137050500Y-76602352D01*
X137050500Y-76421153D01*
X151199500Y-76421153D01*
X151199500Y-76578846D01*
X151230261Y-76733489D01*
X151230264Y-76733501D01*
X151290602Y-76879172D01*
X151290609Y-76879185D01*
X151378210Y-77010288D01*
X151378213Y-77010292D01*
X151489707Y-77121786D01*
X151489711Y-77121789D01*
X151620814Y-77209390D01*
X151620827Y-77209397D01*
X151720060Y-77250500D01*
X151766503Y-77269737D01*
X151921153Y-77300499D01*
X151921156Y-77300500D01*
X151921158Y-77300500D01*
X152078844Y-77300500D01*
X152078845Y-77300499D01*
X152155152Y-77285320D01*
X152233488Y-77269739D01*
X152233489Y-77269738D01*
X152233497Y-77269737D01*
X152257155Y-77259937D01*
X152304604Y-77250500D01*
X154887770Y-77250500D01*
X154954809Y-77270185D01*
X154975451Y-77286819D01*
X158021578Y-80332947D01*
X158021585Y-80332953D01*
X158079704Y-80371786D01*
X158079706Y-80371787D01*
X158079709Y-80371789D01*
X158144505Y-80415084D01*
X158281087Y-80471658D01*
X158281091Y-80471658D01*
X158281092Y-80471659D01*
X158426079Y-80500500D01*
X158426082Y-80500500D01*
X158426083Y-80500500D01*
X158573917Y-80500500D01*
X160445396Y-80500500D01*
X160492844Y-80509937D01*
X160516503Y-80519737D01*
X160516508Y-80519738D01*
X160516511Y-80519739D01*
X160671153Y-80550499D01*
X160671156Y-80550500D01*
X160671158Y-80550500D01*
X160828844Y-80550500D01*
X160828845Y-80550499D01*
X160983497Y-80519737D01*
X161129179Y-80459394D01*
X161260289Y-80371789D01*
X161371789Y-80260289D01*
X161459394Y-80129179D01*
X161519737Y-79983497D01*
X161550500Y-79828842D01*
X161550500Y-79671158D01*
X161550500Y-79671155D01*
X161550499Y-79671153D01*
X161519738Y-79516510D01*
X161519737Y-79516503D01*
X161517163Y-79510288D01*
X161459397Y-79370827D01*
X161459390Y-79370814D01*
X161371789Y-79239711D01*
X161371786Y-79239707D01*
X161260292Y-79128213D01*
X161260288Y-79128210D01*
X161129185Y-79040609D01*
X161129172Y-79040602D01*
X160983501Y-78980264D01*
X160983489Y-78980261D01*
X160828845Y-78949500D01*
X160828842Y-78949500D01*
X160671158Y-78949500D01*
X160671155Y-78949500D01*
X160516511Y-78980260D01*
X160516506Y-78980262D01*
X160516504Y-78980262D01*
X160516503Y-78980263D01*
X160492844Y-78990062D01*
X160445396Y-78999500D01*
X158862230Y-78999500D01*
X158795191Y-78979815D01*
X158774549Y-78963181D01*
X155728421Y-75917052D01*
X155728414Y-75917046D01*
X155654729Y-75867812D01*
X155654729Y-75867813D01*
X155605491Y-75834913D01*
X155468917Y-75778343D01*
X155468907Y-75778340D01*
X155323920Y-75749500D01*
X155323918Y-75749500D01*
X152304604Y-75749500D01*
X152257155Y-75740062D01*
X152233497Y-75730263D01*
X152233493Y-75730262D01*
X152233488Y-75730260D01*
X152078845Y-75699500D01*
X152078842Y-75699500D01*
X151921158Y-75699500D01*
X151921155Y-75699500D01*
X151766510Y-75730261D01*
X151766498Y-75730264D01*
X151620827Y-75790602D01*
X151620814Y-75790609D01*
X151489711Y-75878210D01*
X151489707Y-75878213D01*
X151378213Y-75989707D01*
X151378210Y-75989711D01*
X151290609Y-76120814D01*
X151290602Y-76120827D01*
X151230264Y-76266498D01*
X151230261Y-76266510D01*
X151199500Y-76421153D01*
X137050500Y-76421153D01*
X137050500Y-76397648D01*
X137032270Y-76282550D01*
X137018477Y-76195465D01*
X136986553Y-76097213D01*
X136955220Y-76000781D01*
X136955218Y-76000778D01*
X136955218Y-76000776D01*
X136892767Y-75878211D01*
X136862287Y-75818390D01*
X136842098Y-75790602D01*
X136741971Y-75652786D01*
X136597213Y-75508028D01*
X136431613Y-75387715D01*
X136431612Y-75387714D01*
X136431610Y-75387713D01*
X136362208Y-75352351D01*
X136249223Y-75294781D01*
X136144353Y-75260707D01*
X136054534Y-75231522D01*
X135879995Y-75203878D01*
X135852352Y-75199500D01*
X135647648Y-75199500D01*
X135623329Y-75203351D01*
X135445465Y-75231522D01*
X135250776Y-75294781D01*
X135068386Y-75387715D01*
X134902786Y-75508028D01*
X134758028Y-75652786D01*
X134637715Y-75818386D01*
X134544781Y-76000776D01*
X134481522Y-76195465D01*
X134449500Y-76397648D01*
X128799995Y-76397648D01*
X128767990Y-76195582D01*
X128704755Y-76000968D01*
X128611859Y-75818650D01*
X128579474Y-75774077D01*
X128579474Y-75774076D01*
X127900000Y-76453551D01*
X127900000Y-76447339D01*
X127872741Y-76345606D01*
X127820080Y-76254394D01*
X127745606Y-76179920D01*
X127654394Y-76127259D01*
X127552661Y-76100000D01*
X127546446Y-76100000D01*
X128225922Y-75420524D01*
X128225921Y-75420523D01*
X128181359Y-75388147D01*
X128181350Y-75388141D01*
X127999031Y-75295244D01*
X127804417Y-75232009D01*
X127602317Y-75200000D01*
X127397683Y-75200000D01*
X127195582Y-75232009D01*
X127000968Y-75295244D01*
X126818644Y-75388143D01*
X126774077Y-75420523D01*
X126774077Y-75420524D01*
X127453554Y-76100000D01*
X127447339Y-76100000D01*
X127345606Y-76127259D01*
X127254394Y-76179920D01*
X127179920Y-76254394D01*
X127127259Y-76345606D01*
X127100000Y-76447339D01*
X127100000Y-76453553D01*
X126420524Y-75774077D01*
X126420523Y-75774077D01*
X126388143Y-75818644D01*
X126295244Y-76000968D01*
X126232009Y-76195582D01*
X126200000Y-76397682D01*
X126200000Y-76602317D01*
X126232009Y-76804417D01*
X126295244Y-76999031D01*
X126388141Y-77181350D01*
X126388147Y-77181359D01*
X126420523Y-77225921D01*
X126420524Y-77225922D01*
X127100000Y-76546446D01*
X127100000Y-76552661D01*
X127127259Y-76654394D01*
X127179920Y-76745606D01*
X127254394Y-76820080D01*
X127345606Y-76872741D01*
X127447339Y-76900000D01*
X127453553Y-76900000D01*
X126774076Y-77579474D01*
X126777052Y-77617282D01*
X126762687Y-77685659D01*
X126713636Y-77735415D01*
X126692440Y-77744715D01*
X126630672Y-77765184D01*
X126630663Y-77765187D01*
X126481342Y-77857289D01*
X126357289Y-77981342D01*
X126265187Y-78130663D01*
X126265186Y-78130666D01*
X126210001Y-78297203D01*
X126210001Y-78297204D01*
X126210000Y-78297204D01*
X126199500Y-78399983D01*
X120500500Y-78399983D01*
X120500500Y-75147648D01*
X166449500Y-75147648D01*
X166449500Y-75352351D01*
X166481522Y-75554534D01*
X166544781Y-75749223D01*
X166588443Y-75834913D01*
X166630295Y-75917052D01*
X166637715Y-75931613D01*
X166758028Y-76097213D01*
X166902782Y-76241967D01*
X166902787Y-76241971D01*
X166958640Y-76282551D01*
X167001306Y-76337881D01*
X167007285Y-76407494D01*
X166974679Y-76469289D01*
X166924761Y-76500574D01*
X166880669Y-76515185D01*
X166880666Y-76515186D01*
X166880663Y-76515187D01*
X166731342Y-76607289D01*
X166607289Y-76731342D01*
X166515187Y-76880663D01*
X166515186Y-76880666D01*
X166460001Y-77047203D01*
X166460001Y-77047204D01*
X166460000Y-77047204D01*
X166449500Y-77149983D01*
X166449500Y-78350001D01*
X166449501Y-78350009D01*
X166460000Y-78452796D01*
X166460001Y-78452799D01*
X166472233Y-78489711D01*
X166515186Y-78619334D01*
X166607288Y-78768656D01*
X166731344Y-78892712D01*
X166880666Y-78984814D01*
X167047203Y-79039999D01*
X167149991Y-79050500D01*
X168350008Y-79050499D01*
X168452797Y-79039999D01*
X168619334Y-78984814D01*
X168768656Y-78892712D01*
X168892712Y-78768656D01*
X168984814Y-78619334D01*
X169039999Y-78452797D01*
X169050500Y-78350009D01*
X169050499Y-77149992D01*
X169039999Y-77047203D01*
X168984814Y-76880666D01*
X168892712Y-76731344D01*
X168768656Y-76607288D01*
X168619334Y-76515186D01*
X168575239Y-76500574D01*
X168517795Y-76460802D01*
X168490972Y-76396286D01*
X168503287Y-76327510D01*
X168541359Y-76282550D01*
X168597219Y-76241966D01*
X168741966Y-76097219D01*
X168741968Y-76097215D01*
X168741971Y-76097213D01*
X168820077Y-75989707D01*
X168862287Y-75931610D01*
X168955220Y-75749219D01*
X169018477Y-75554534D01*
X169050500Y-75352352D01*
X169050500Y-75147648D01*
X173199500Y-75147648D01*
X173199500Y-75352351D01*
X173231522Y-75554534D01*
X173294781Y-75749223D01*
X173338443Y-75834913D01*
X173380295Y-75917052D01*
X173387715Y-75931613D01*
X173508028Y-76097213D01*
X173652782Y-76241967D01*
X173652787Y-76241971D01*
X173708640Y-76282551D01*
X173751306Y-76337881D01*
X173757285Y-76407494D01*
X173724679Y-76469289D01*
X173674761Y-76500574D01*
X173630669Y-76515185D01*
X173630666Y-76515186D01*
X173630663Y-76515187D01*
X173481342Y-76607289D01*
X173357289Y-76731342D01*
X173265187Y-76880663D01*
X173265186Y-76880666D01*
X173210001Y-77047203D01*
X173210001Y-77047204D01*
X173210000Y-77047204D01*
X173199500Y-77149983D01*
X173199500Y-78350001D01*
X173199501Y-78350009D01*
X173210000Y-78452796D01*
X173210001Y-78452799D01*
X173222233Y-78489711D01*
X173265186Y-78619334D01*
X173357288Y-78768656D01*
X173481344Y-78892712D01*
X173630666Y-78984814D01*
X173797203Y-79039999D01*
X173899991Y-79050500D01*
X175100008Y-79050499D01*
X175202797Y-79039999D01*
X175369334Y-78984814D01*
X175518656Y-78892712D01*
X175642712Y-78768656D01*
X175734814Y-78619334D01*
X175789999Y-78452797D01*
X175800500Y-78350009D01*
X175800499Y-77149992D01*
X175789999Y-77047203D01*
X175734814Y-76880666D01*
X175642712Y-76731344D01*
X175518656Y-76607288D01*
X175369334Y-76515186D01*
X175325239Y-76500574D01*
X175267795Y-76460802D01*
X175240972Y-76396286D01*
X175253287Y-76327510D01*
X175291359Y-76282550D01*
X175347219Y-76241966D01*
X175491966Y-76097219D01*
X175491968Y-76097215D01*
X175491971Y-76097213D01*
X175570077Y-75989707D01*
X175612287Y-75931610D01*
X175705220Y-75749219D01*
X175768477Y-75554534D01*
X175800500Y-75352352D01*
X175800500Y-75147648D01*
X175768477Y-74945466D01*
X175705220Y-74750781D01*
X175705218Y-74750778D01*
X175705218Y-74750776D01*
X175671503Y-74684607D01*
X175612287Y-74568390D01*
X175604556Y-74557749D01*
X175491971Y-74402786D01*
X175347213Y-74258028D01*
X175181613Y-74137715D01*
X175181612Y-74137714D01*
X175181610Y-74137713D01*
X175124653Y-74108691D01*
X174999223Y-74044781D01*
X174804534Y-73981522D01*
X174629995Y-73953878D01*
X174602352Y-73949500D01*
X174397648Y-73949500D01*
X174373329Y-73953351D01*
X174195465Y-73981522D01*
X174000776Y-74044781D01*
X173818386Y-74137715D01*
X173652786Y-74258028D01*
X173508028Y-74402786D01*
X173387715Y-74568386D01*
X173294781Y-74750776D01*
X173231522Y-74945465D01*
X173199500Y-75147648D01*
X169050500Y-75147648D01*
X169018477Y-74945466D01*
X168955220Y-74750781D01*
X168955218Y-74750778D01*
X168955218Y-74750776D01*
X168921503Y-74684607D01*
X168862287Y-74568390D01*
X168854556Y-74557749D01*
X168741971Y-74402786D01*
X168597213Y-74258028D01*
X168431613Y-74137715D01*
X168431612Y-74137714D01*
X168431610Y-74137713D01*
X168374653Y-74108691D01*
X168249223Y-74044781D01*
X168054534Y-73981522D01*
X167879995Y-73953878D01*
X167852352Y-73949500D01*
X167647648Y-73949500D01*
X167623329Y-73953351D01*
X167445465Y-73981522D01*
X167250776Y-74044781D01*
X167068386Y-74137715D01*
X166902786Y-74258028D01*
X166758028Y-74402786D01*
X166637715Y-74568386D01*
X166544781Y-74750776D01*
X166481522Y-74945465D01*
X166449500Y-75147648D01*
X120500500Y-75147648D01*
X120500500Y-67102155D01*
X129600000Y-67102155D01*
X129600000Y-67800000D01*
X130566988Y-67800000D01*
X130534075Y-67857007D01*
X130500000Y-67984174D01*
X130500000Y-68115826D01*
X130534075Y-68242993D01*
X130566988Y-68300000D01*
X129600000Y-68300000D01*
X129600000Y-68997844D01*
X129606401Y-69057372D01*
X129606403Y-69057379D01*
X129656645Y-69192086D01*
X129656649Y-69192093D01*
X129742809Y-69307187D01*
X129742812Y-69307190D01*
X129857906Y-69393350D01*
X129857913Y-69393354D01*
X129992620Y-69443596D01*
X129992627Y-69443598D01*
X130052155Y-69449999D01*
X130052172Y-69450000D01*
X130750000Y-69450000D01*
X130750000Y-68483012D01*
X130807007Y-68515925D01*
X130934174Y-68550000D01*
X131065826Y-68550000D01*
X131192993Y-68515925D01*
X131250000Y-68483012D01*
X131250000Y-69450000D01*
X131947828Y-69450000D01*
X131947844Y-69449999D01*
X132007372Y-69443598D01*
X132007379Y-69443596D01*
X132142086Y-69393354D01*
X132142093Y-69393350D01*
X132257187Y-69307190D01*
X132257190Y-69307187D01*
X132343350Y-69192093D01*
X132343353Y-69192088D01*
X132362345Y-69141166D01*
X132404215Y-69085232D01*
X132469679Y-69060813D01*
X132537952Y-69075663D01*
X132566209Y-69096816D01*
X132587636Y-69118243D01*
X132587641Y-69118247D01*
X132743192Y-69231260D01*
X132765978Y-69247815D01*
X132882501Y-69307187D01*
X132962393Y-69347895D01*
X132962396Y-69347896D01*
X133067221Y-69381955D01*
X133172049Y-69416015D01*
X133389778Y-69450500D01*
X133389779Y-69450500D01*
X133610221Y-69450500D01*
X133610222Y-69450500D01*
X133827951Y-69416015D01*
X134037606Y-69347895D01*
X134234022Y-69247815D01*
X134412365Y-69118242D01*
X134568242Y-68962365D01*
X134649682Y-68850270D01*
X134705011Y-68807606D01*
X134774624Y-68801627D01*
X134836420Y-68834232D01*
X134850313Y-68850265D01*
X134931753Y-68962358D01*
X134931758Y-68962365D01*
X135087636Y-69118243D01*
X135087641Y-69118247D01*
X135243192Y-69231260D01*
X135265978Y-69247815D01*
X135382501Y-69307187D01*
X135462393Y-69347895D01*
X135462396Y-69347896D01*
X135567221Y-69381955D01*
X135672049Y-69416015D01*
X135889778Y-69450500D01*
X135889779Y-69450500D01*
X136110221Y-69450500D01*
X136110222Y-69450500D01*
X136327951Y-69416015D01*
X136537606Y-69347895D01*
X136734022Y-69247815D01*
X136912365Y-69118242D01*
X137068242Y-68962365D01*
X137197815Y-68784022D01*
X137297895Y-68587606D01*
X137366015Y-68377951D01*
X137400500Y-68160222D01*
X137400500Y-68149983D01*
X144699500Y-68149983D01*
X144699500Y-69350001D01*
X144699501Y-69350018D01*
X144710000Y-69452796D01*
X144710001Y-69452799D01*
X144765185Y-69619331D01*
X144765186Y-69619334D01*
X144857288Y-69768656D01*
X144981344Y-69892712D01*
X145130666Y-69984814D01*
X145192440Y-70005284D01*
X145249884Y-70045055D01*
X145276707Y-70109571D01*
X145277053Y-70132719D01*
X145274077Y-70170524D01*
X145953554Y-70850000D01*
X145947339Y-70850000D01*
X145845606Y-70877259D01*
X145754394Y-70929920D01*
X145679920Y-71004394D01*
X145627259Y-71095606D01*
X145600000Y-71197339D01*
X145600000Y-71203553D01*
X144920524Y-70524077D01*
X144920523Y-70524077D01*
X144888143Y-70568644D01*
X144795244Y-70750968D01*
X144732009Y-70945582D01*
X144700000Y-71147682D01*
X144700000Y-71352317D01*
X144732009Y-71554417D01*
X144795244Y-71749031D01*
X144888141Y-71931350D01*
X144888147Y-71931359D01*
X144920523Y-71975921D01*
X144920524Y-71975922D01*
X145600000Y-71296446D01*
X145600000Y-71302661D01*
X145627259Y-71404394D01*
X145679920Y-71495606D01*
X145754394Y-71570080D01*
X145845606Y-71622741D01*
X145947339Y-71650000D01*
X145953553Y-71650000D01*
X145274076Y-72329474D01*
X145318650Y-72361859D01*
X145500968Y-72454755D01*
X145695582Y-72517990D01*
X145897683Y-72550000D01*
X146102317Y-72550000D01*
X146304417Y-72517990D01*
X146499031Y-72454755D01*
X146681349Y-72361859D01*
X146725921Y-72329474D01*
X146046447Y-71650000D01*
X146052661Y-71650000D01*
X146154394Y-71622741D01*
X146245606Y-71570080D01*
X146320080Y-71495606D01*
X146372741Y-71404394D01*
X146400000Y-71302661D01*
X146400000Y-71296448D01*
X147079474Y-71975922D01*
X147079474Y-71975921D01*
X147111859Y-71931349D01*
X147204755Y-71749031D01*
X147267990Y-71554417D01*
X147300000Y-71352317D01*
X147300000Y-71147682D01*
X147267990Y-70945582D01*
X147204755Y-70750968D01*
X147111859Y-70568650D01*
X147079474Y-70524077D01*
X147079474Y-70524076D01*
X146400000Y-71203551D01*
X146400000Y-71197339D01*
X146372741Y-71095606D01*
X146320080Y-71004394D01*
X146245606Y-70929920D01*
X146154394Y-70877259D01*
X146052661Y-70850000D01*
X146046446Y-70850000D01*
X146725921Y-70170525D01*
X146722946Y-70132719D01*
X146737310Y-70064341D01*
X146786361Y-70014584D01*
X146807555Y-70005285D01*
X146869334Y-69984814D01*
X147018656Y-69892712D01*
X147142712Y-69768656D01*
X147234814Y-69619334D01*
X147289999Y-69452797D01*
X147300500Y-69350009D01*
X147300499Y-68149992D01*
X147300498Y-68149983D01*
X152949500Y-68149983D01*
X152949500Y-69350001D01*
X152949501Y-69350018D01*
X152960000Y-69452796D01*
X152960001Y-69452799D01*
X153015185Y-69619331D01*
X153015186Y-69619334D01*
X153107288Y-69768656D01*
X153231344Y-69892712D01*
X153380666Y-69984814D01*
X153442440Y-70005284D01*
X153499884Y-70045055D01*
X153526707Y-70109571D01*
X153527053Y-70132719D01*
X153524077Y-70170524D01*
X154203554Y-70850000D01*
X154197339Y-70850000D01*
X154095606Y-70877259D01*
X154004394Y-70929920D01*
X153929920Y-71004394D01*
X153877259Y-71095606D01*
X153850000Y-71197339D01*
X153850000Y-71203553D01*
X153170524Y-70524077D01*
X153170523Y-70524077D01*
X153138143Y-70568644D01*
X153045244Y-70750968D01*
X152982009Y-70945582D01*
X152950000Y-71147682D01*
X152950000Y-71352317D01*
X152982009Y-71554417D01*
X153045244Y-71749031D01*
X153138141Y-71931350D01*
X153138147Y-71931359D01*
X153170523Y-71975921D01*
X153170524Y-71975922D01*
X153850000Y-71296446D01*
X153850000Y-71302661D01*
X153877259Y-71404394D01*
X153929920Y-71495606D01*
X154004394Y-71570080D01*
X154095606Y-71622741D01*
X154197339Y-71650000D01*
X154203553Y-71650000D01*
X153524076Y-72329474D01*
X153568650Y-72361859D01*
X153750968Y-72454755D01*
X153945582Y-72517990D01*
X154147683Y-72550000D01*
X154352317Y-72550000D01*
X154554417Y-72517990D01*
X154749031Y-72454755D01*
X154931349Y-72361859D01*
X154975921Y-72329474D01*
X154296447Y-71650000D01*
X154302661Y-71650000D01*
X154404394Y-71622741D01*
X154495606Y-71570080D01*
X154570080Y-71495606D01*
X154622741Y-71404394D01*
X154650000Y-71302661D01*
X154650000Y-71296447D01*
X155329474Y-71975921D01*
X155361859Y-71931349D01*
X155454755Y-71749031D01*
X155517990Y-71554417D01*
X155550000Y-71352317D01*
X155550000Y-71147682D01*
X155517990Y-70945582D01*
X155454755Y-70750968D01*
X155361859Y-70568650D01*
X155329474Y-70524077D01*
X155329474Y-70524076D01*
X154650000Y-71203551D01*
X154650000Y-71197339D01*
X154622741Y-71095606D01*
X154570080Y-71004394D01*
X154495606Y-70929920D01*
X154404394Y-70877259D01*
X154302661Y-70850000D01*
X154296446Y-70850000D01*
X154975921Y-70170525D01*
X154972946Y-70132719D01*
X154987310Y-70064341D01*
X155036361Y-70014584D01*
X155057555Y-70005285D01*
X155119334Y-69984814D01*
X155268656Y-69892712D01*
X155392712Y-69768656D01*
X155484814Y-69619334D01*
X155539999Y-69452797D01*
X155550500Y-69350009D01*
X155550499Y-68149992D01*
X155539999Y-68047203D01*
X155484814Y-67880666D01*
X155392712Y-67731344D01*
X155268656Y-67607288D01*
X155119334Y-67515186D01*
X154952797Y-67460001D01*
X154952795Y-67460000D01*
X154850010Y-67449500D01*
X153649998Y-67449500D01*
X153649981Y-67449501D01*
X153547203Y-67460000D01*
X153547200Y-67460001D01*
X153380668Y-67515185D01*
X153380663Y-67515187D01*
X153231342Y-67607289D01*
X153107289Y-67731342D01*
X153015187Y-67880663D01*
X153015186Y-67880666D01*
X152960001Y-68047203D01*
X152960001Y-68047204D01*
X152960000Y-68047204D01*
X152949500Y-68149983D01*
X147300498Y-68149983D01*
X147289999Y-68047203D01*
X147234814Y-67880666D01*
X147142712Y-67731344D01*
X147018656Y-67607288D01*
X146869334Y-67515186D01*
X146702797Y-67460001D01*
X146702795Y-67460000D01*
X146600010Y-67449500D01*
X145399998Y-67449500D01*
X145399981Y-67449501D01*
X145297203Y-67460000D01*
X145297200Y-67460001D01*
X145130668Y-67515185D01*
X145130663Y-67515187D01*
X144981342Y-67607289D01*
X144857289Y-67731342D01*
X144765187Y-67880663D01*
X144765186Y-67880666D01*
X144710001Y-68047203D01*
X144710001Y-68047204D01*
X144710000Y-68047204D01*
X144699500Y-68149983D01*
X137400500Y-68149983D01*
X137400500Y-67939778D01*
X137366015Y-67722049D01*
X137310114Y-67550000D01*
X137297896Y-67512396D01*
X137297895Y-67512393D01*
X137197815Y-67315978D01*
X137093018Y-67171736D01*
X137093017Y-67171735D01*
X137068243Y-67137636D01*
X137032762Y-67102155D01*
X162600000Y-67102155D01*
X162600000Y-67800000D01*
X163566988Y-67800000D01*
X163534075Y-67857007D01*
X163500000Y-67984174D01*
X163500000Y-68115826D01*
X163534075Y-68242993D01*
X163566988Y-68300000D01*
X162600000Y-68300000D01*
X162600000Y-68997844D01*
X162606401Y-69057372D01*
X162606403Y-69057379D01*
X162656645Y-69192086D01*
X162656649Y-69192093D01*
X162742809Y-69307187D01*
X162742812Y-69307190D01*
X162857906Y-69393350D01*
X162857913Y-69393354D01*
X162992620Y-69443596D01*
X162992627Y-69443598D01*
X163052155Y-69449999D01*
X163052172Y-69450000D01*
X163750000Y-69450000D01*
X163750000Y-68483012D01*
X163807007Y-68515925D01*
X163934174Y-68550000D01*
X164065826Y-68550000D01*
X164192993Y-68515925D01*
X164250000Y-68483012D01*
X164250000Y-69450000D01*
X164947828Y-69450000D01*
X164947844Y-69449999D01*
X165007372Y-69443598D01*
X165007379Y-69443596D01*
X165142086Y-69393354D01*
X165142093Y-69393350D01*
X165257187Y-69307190D01*
X165257190Y-69307187D01*
X165343350Y-69192093D01*
X165343353Y-69192088D01*
X165362345Y-69141166D01*
X165404215Y-69085232D01*
X165469679Y-69060813D01*
X165537952Y-69075663D01*
X165566209Y-69096816D01*
X165587636Y-69118243D01*
X165587641Y-69118247D01*
X165743192Y-69231260D01*
X165765978Y-69247815D01*
X165882501Y-69307187D01*
X165962393Y-69347895D01*
X165962396Y-69347896D01*
X166067221Y-69381955D01*
X166172049Y-69416015D01*
X166389778Y-69450500D01*
X166389779Y-69450500D01*
X166610221Y-69450500D01*
X166610222Y-69450500D01*
X166827951Y-69416015D01*
X167037606Y-69347895D01*
X167234022Y-69247815D01*
X167412365Y-69118242D01*
X167568242Y-68962365D01*
X167649682Y-68850270D01*
X167705011Y-68807606D01*
X167774624Y-68801627D01*
X167836420Y-68834232D01*
X167850313Y-68850265D01*
X167931753Y-68962358D01*
X167931758Y-68962365D01*
X168087636Y-69118243D01*
X168087641Y-69118247D01*
X168243192Y-69231260D01*
X168265978Y-69247815D01*
X168382501Y-69307187D01*
X168462393Y-69347895D01*
X168462396Y-69347896D01*
X168567221Y-69381955D01*
X168672049Y-69416015D01*
X168889778Y-69450500D01*
X168889779Y-69450500D01*
X169110221Y-69450500D01*
X169110222Y-69450500D01*
X169327951Y-69416015D01*
X169537606Y-69347895D01*
X169734022Y-69247815D01*
X169912365Y-69118242D01*
X170068242Y-68962365D01*
X170197815Y-68784022D01*
X170297895Y-68587606D01*
X170366015Y-68377951D01*
X170400500Y-68160222D01*
X170400500Y-67939778D01*
X170366015Y-67722049D01*
X170310114Y-67550000D01*
X170297896Y-67512396D01*
X170297895Y-67512393D01*
X170263237Y-67444375D01*
X170197815Y-67315978D01*
X170093017Y-67171735D01*
X170068247Y-67137641D01*
X170068243Y-67137636D01*
X169912363Y-66981756D01*
X169912358Y-66981752D01*
X169734025Y-66852187D01*
X169734024Y-66852186D01*
X169734022Y-66852185D01*
X169671096Y-66820122D01*
X169537606Y-66752104D01*
X169537603Y-66752103D01*
X169327952Y-66683985D01*
X169219086Y-66666742D01*
X169110222Y-66649500D01*
X168889778Y-66649500D01*
X168817201Y-66660995D01*
X168672047Y-66683985D01*
X168462396Y-66752103D01*
X168462393Y-66752104D01*
X168265974Y-66852187D01*
X168087641Y-66981752D01*
X168087636Y-66981756D01*
X167931756Y-67137636D01*
X167931752Y-67137641D01*
X167850318Y-67249727D01*
X167794989Y-67292393D01*
X167725375Y-67298372D01*
X167663580Y-67265767D01*
X167649682Y-67249727D01*
X167568247Y-67137641D01*
X167568243Y-67137636D01*
X167412363Y-66981756D01*
X167412358Y-66981752D01*
X167234025Y-66852187D01*
X167234024Y-66852186D01*
X167234022Y-66852185D01*
X167171096Y-66820122D01*
X167037606Y-66752104D01*
X167037603Y-66752103D01*
X166827952Y-66683985D01*
X166719086Y-66666742D01*
X166610222Y-66649500D01*
X166389778Y-66649500D01*
X166317201Y-66660995D01*
X166172047Y-66683985D01*
X165962396Y-66752103D01*
X165962393Y-66752104D01*
X165765974Y-66852187D01*
X165587641Y-66981752D01*
X165587635Y-66981757D01*
X165566207Y-67003185D01*
X165504884Y-67036669D01*
X165435192Y-67031683D01*
X165379259Y-66989810D01*
X165362346Y-66958834D01*
X165343355Y-66907915D01*
X165343350Y-66907906D01*
X165257190Y-66792812D01*
X165257187Y-66792809D01*
X165142093Y-66706649D01*
X165142086Y-66706645D01*
X165007379Y-66656403D01*
X165007372Y-66656401D01*
X164947844Y-66650000D01*
X164250000Y-66650000D01*
X164250000Y-67616988D01*
X164192993Y-67584075D01*
X164065826Y-67550000D01*
X163934174Y-67550000D01*
X163807007Y-67584075D01*
X163750000Y-67616988D01*
X163750000Y-66650000D01*
X163052155Y-66650000D01*
X162992627Y-66656401D01*
X162992620Y-66656403D01*
X162857913Y-66706645D01*
X162857906Y-66706649D01*
X162742812Y-66792809D01*
X162742809Y-66792812D01*
X162656649Y-66907906D01*
X162656645Y-66907913D01*
X162606403Y-67042620D01*
X162606401Y-67042627D01*
X162600000Y-67102155D01*
X137032762Y-67102155D01*
X136912363Y-66981756D01*
X136912358Y-66981752D01*
X136734025Y-66852187D01*
X136734024Y-66852186D01*
X136734022Y-66852185D01*
X136671096Y-66820122D01*
X136537606Y-66752104D01*
X136537603Y-66752103D01*
X136327952Y-66683985D01*
X136219086Y-66666742D01*
X136110222Y-66649500D01*
X135889778Y-66649500D01*
X135817201Y-66660995D01*
X135672047Y-66683985D01*
X135462396Y-66752103D01*
X135462393Y-66752104D01*
X135265974Y-66852187D01*
X135087641Y-66981752D01*
X135087636Y-66981756D01*
X134931756Y-67137636D01*
X134931752Y-67137641D01*
X134850318Y-67249727D01*
X134794989Y-67292393D01*
X134725375Y-67298372D01*
X134663580Y-67265767D01*
X134649682Y-67249727D01*
X134568247Y-67137641D01*
X134568243Y-67137636D01*
X134412363Y-66981756D01*
X134412358Y-66981752D01*
X134234025Y-66852187D01*
X134234024Y-66852186D01*
X134234022Y-66852185D01*
X134171096Y-66820122D01*
X134037606Y-66752104D01*
X134037603Y-66752103D01*
X133827952Y-66683985D01*
X133719086Y-66666742D01*
X133610222Y-66649500D01*
X133389778Y-66649500D01*
X133317201Y-66660995D01*
X133172047Y-66683985D01*
X132962396Y-66752103D01*
X132962393Y-66752104D01*
X132765974Y-66852187D01*
X132587641Y-66981752D01*
X132587635Y-66981757D01*
X132566207Y-67003185D01*
X132504884Y-67036669D01*
X132435192Y-67031683D01*
X132379259Y-66989810D01*
X132362346Y-66958834D01*
X132343355Y-66907915D01*
X132343350Y-66907906D01*
X132257190Y-66792812D01*
X132257187Y-66792809D01*
X132142093Y-66706649D01*
X132142086Y-66706645D01*
X132007379Y-66656403D01*
X132007372Y-66656401D01*
X131947844Y-66650000D01*
X131250000Y-66650000D01*
X131250000Y-67616988D01*
X131192993Y-67584075D01*
X131065826Y-67550000D01*
X130934174Y-67550000D01*
X130807007Y-67584075D01*
X130750000Y-67616988D01*
X130750000Y-66650000D01*
X130052155Y-66650000D01*
X129992627Y-66656401D01*
X129992620Y-66656403D01*
X129857913Y-66706645D01*
X129857906Y-66706649D01*
X129742812Y-66792809D01*
X129742809Y-66792812D01*
X129656649Y-66907906D01*
X129656645Y-66907913D01*
X129606403Y-67042620D01*
X129606401Y-67042627D01*
X129600000Y-67102155D01*
X120500500Y-67102155D01*
X120500500Y-59235777D01*
X126749500Y-59235777D01*
X126749500Y-61864208D01*
X126749501Y-61864223D01*
X126759904Y-61996413D01*
X126759905Y-61996420D01*
X126814902Y-62214678D01*
X126814903Y-62214681D01*
X126907991Y-62419622D01*
X126907997Y-62419632D01*
X127036174Y-62604645D01*
X127036178Y-62604650D01*
X127036181Y-62604654D01*
X127195346Y-62763819D01*
X127195350Y-62763822D01*
X127195354Y-62763825D01*
X127334603Y-62860297D01*
X127380374Y-62892007D01*
X127585317Y-62985096D01*
X127585321Y-62985097D01*
X127803579Y-63040094D01*
X127803581Y-63040094D01*
X127803588Y-63040096D01*
X127935783Y-63050500D01*
X129564216Y-63050499D01*
X129696412Y-63040096D01*
X129914683Y-62985096D01*
X130119626Y-62892007D01*
X130304654Y-62763819D01*
X130463819Y-62604654D01*
X130592007Y-62419626D01*
X130685096Y-62214683D01*
X130740096Y-61996412D01*
X130750500Y-61864217D01*
X130750499Y-59235784D01*
X130750498Y-59235777D01*
X136249500Y-59235777D01*
X136249500Y-61864208D01*
X136249501Y-61864223D01*
X136259904Y-61996413D01*
X136259905Y-61996420D01*
X136314902Y-62214678D01*
X136314903Y-62214681D01*
X136407991Y-62419622D01*
X136407997Y-62419632D01*
X136536174Y-62604645D01*
X136536178Y-62604650D01*
X136536181Y-62604654D01*
X136695346Y-62763819D01*
X136695350Y-62763822D01*
X136695354Y-62763825D01*
X136834603Y-62860297D01*
X136880374Y-62892007D01*
X137085317Y-62985096D01*
X137085321Y-62985097D01*
X137303579Y-63040094D01*
X137303581Y-63040094D01*
X137303588Y-63040096D01*
X137435783Y-63050500D01*
X139064216Y-63050499D01*
X139196412Y-63040096D01*
X139414683Y-62985096D01*
X139619626Y-62892007D01*
X139804654Y-62763819D01*
X139963819Y-62604654D01*
X140092007Y-62419626D01*
X140185096Y-62214683D01*
X140240096Y-61996412D01*
X140250500Y-61864217D01*
X140250499Y-59235784D01*
X140250498Y-59235777D01*
X159749500Y-59235777D01*
X159749500Y-61864208D01*
X159749501Y-61864223D01*
X159759904Y-61996413D01*
X159759905Y-61996420D01*
X159814902Y-62214678D01*
X159814903Y-62214681D01*
X159907991Y-62419622D01*
X159907997Y-62419632D01*
X160036174Y-62604645D01*
X160036178Y-62604650D01*
X160036181Y-62604654D01*
X160195346Y-62763819D01*
X160195350Y-62763822D01*
X160195354Y-62763825D01*
X160334603Y-62860297D01*
X160380374Y-62892007D01*
X160585317Y-62985096D01*
X160585321Y-62985097D01*
X160803579Y-63040094D01*
X160803581Y-63040094D01*
X160803588Y-63040096D01*
X160935783Y-63050500D01*
X162564216Y-63050499D01*
X162696412Y-63040096D01*
X162914683Y-62985096D01*
X163119626Y-62892007D01*
X163304654Y-62763819D01*
X163463819Y-62604654D01*
X163592007Y-62419626D01*
X163685096Y-62214683D01*
X163740096Y-61996412D01*
X163750500Y-61864217D01*
X163750499Y-59235784D01*
X163750498Y-59235777D01*
X169249500Y-59235777D01*
X169249500Y-61864208D01*
X169249501Y-61864223D01*
X169259904Y-61996413D01*
X169259905Y-61996420D01*
X169314902Y-62214678D01*
X169314903Y-62214681D01*
X169407991Y-62419622D01*
X169407997Y-62419632D01*
X169536174Y-62604645D01*
X169536178Y-62604650D01*
X169536181Y-62604654D01*
X169695346Y-62763819D01*
X169695350Y-62763822D01*
X169695354Y-62763825D01*
X169834603Y-62860297D01*
X169880374Y-62892007D01*
X170085317Y-62985096D01*
X170085321Y-62985097D01*
X170303579Y-63040094D01*
X170303581Y-63040094D01*
X170303588Y-63040096D01*
X170435783Y-63050500D01*
X172064216Y-63050499D01*
X172196412Y-63040096D01*
X172414683Y-62985096D01*
X172619626Y-62892007D01*
X172804654Y-62763819D01*
X172963819Y-62604654D01*
X173092007Y-62419626D01*
X173185096Y-62214683D01*
X173240096Y-61996412D01*
X173250500Y-61864217D01*
X173250499Y-59235784D01*
X173240096Y-59103588D01*
X173185096Y-58885317D01*
X173092007Y-58680374D01*
X172963819Y-58495346D01*
X172804654Y-58336181D01*
X172804650Y-58336178D01*
X172804645Y-58336174D01*
X172619632Y-58207997D01*
X172619630Y-58207995D01*
X172619626Y-58207993D01*
X172414683Y-58114904D01*
X172414681Y-58114903D01*
X172414678Y-58114902D01*
X172196420Y-58059905D01*
X172196413Y-58059904D01*
X172152347Y-58056436D01*
X172064217Y-58049500D01*
X172064215Y-58049500D01*
X170435791Y-58049500D01*
X170435776Y-58049501D01*
X170303586Y-58059904D01*
X170303579Y-58059905D01*
X170085321Y-58114902D01*
X170085318Y-58114903D01*
X169880377Y-58207991D01*
X169880367Y-58207997D01*
X169695354Y-58336174D01*
X169695342Y-58336184D01*
X169536184Y-58495342D01*
X169536174Y-58495354D01*
X169407997Y-58680367D01*
X169407991Y-58680377D01*
X169314903Y-58885318D01*
X169314902Y-58885321D01*
X169259905Y-59103579D01*
X169259904Y-59103586D01*
X169249500Y-59235777D01*
X163750498Y-59235777D01*
X163740096Y-59103588D01*
X163685096Y-58885317D01*
X163592007Y-58680374D01*
X163463819Y-58495346D01*
X163304654Y-58336181D01*
X163304650Y-58336178D01*
X163304645Y-58336174D01*
X163119632Y-58207997D01*
X163119630Y-58207995D01*
X163119626Y-58207993D01*
X162914683Y-58114904D01*
X162914681Y-58114903D01*
X162914678Y-58114902D01*
X162696420Y-58059905D01*
X162696413Y-58059904D01*
X162652347Y-58056436D01*
X162564217Y-58049500D01*
X162564215Y-58049500D01*
X160935791Y-58049500D01*
X160935776Y-58049501D01*
X160803586Y-58059904D01*
X160803579Y-58059905D01*
X160585321Y-58114902D01*
X160585318Y-58114903D01*
X160380377Y-58207991D01*
X160380367Y-58207997D01*
X160195354Y-58336174D01*
X160195342Y-58336184D01*
X160036184Y-58495342D01*
X160036174Y-58495354D01*
X159907997Y-58680367D01*
X159907991Y-58680377D01*
X159814903Y-58885318D01*
X159814902Y-58885321D01*
X159759905Y-59103579D01*
X159759904Y-59103586D01*
X159749500Y-59235777D01*
X140250498Y-59235777D01*
X140240096Y-59103588D01*
X140185096Y-58885317D01*
X140092007Y-58680374D01*
X139963819Y-58495346D01*
X139804654Y-58336181D01*
X139804650Y-58336178D01*
X139804645Y-58336174D01*
X139619632Y-58207997D01*
X139619630Y-58207995D01*
X139619626Y-58207993D01*
X139414683Y-58114904D01*
X139414681Y-58114903D01*
X139414678Y-58114902D01*
X139196420Y-58059905D01*
X139196413Y-58059904D01*
X139152347Y-58056436D01*
X139064217Y-58049500D01*
X139064215Y-58049500D01*
X137435791Y-58049500D01*
X137435776Y-58049501D01*
X137303586Y-58059904D01*
X137303579Y-58059905D01*
X137085321Y-58114902D01*
X137085318Y-58114903D01*
X136880377Y-58207991D01*
X136880367Y-58207997D01*
X136695354Y-58336174D01*
X136695342Y-58336184D01*
X136536184Y-58495342D01*
X136536174Y-58495354D01*
X136407997Y-58680367D01*
X136407991Y-58680377D01*
X136314903Y-58885318D01*
X136314902Y-58885321D01*
X136259905Y-59103579D01*
X136259904Y-59103586D01*
X136249500Y-59235777D01*
X130750498Y-59235777D01*
X130740096Y-59103588D01*
X130685096Y-58885317D01*
X130592007Y-58680374D01*
X130463819Y-58495346D01*
X130304654Y-58336181D01*
X130304650Y-58336178D01*
X130304645Y-58336174D01*
X130119632Y-58207997D01*
X130119630Y-58207995D01*
X130119626Y-58207993D01*
X129914683Y-58114904D01*
X129914681Y-58114903D01*
X129914678Y-58114902D01*
X129696420Y-58059905D01*
X129696413Y-58059904D01*
X129652347Y-58056436D01*
X129564217Y-58049500D01*
X129564215Y-58049500D01*
X127935791Y-58049500D01*
X127935776Y-58049501D01*
X127803586Y-58059904D01*
X127803579Y-58059905D01*
X127585321Y-58114902D01*
X127585318Y-58114903D01*
X127380377Y-58207991D01*
X127380367Y-58207997D01*
X127195354Y-58336174D01*
X127195342Y-58336184D01*
X127036184Y-58495342D01*
X127036174Y-58495354D01*
X126907997Y-58680367D01*
X126907991Y-58680377D01*
X126814903Y-58885318D01*
X126814902Y-58885321D01*
X126759905Y-59103579D01*
X126759904Y-59103586D01*
X126749500Y-59235777D01*
X120500500Y-59235777D01*
X120500500Y-50802155D01*
X147200000Y-50802155D01*
X147200000Y-51600000D01*
X148266988Y-51600000D01*
X148234075Y-51657007D01*
X148200000Y-51784174D01*
X148200000Y-51915826D01*
X148234075Y-52042993D01*
X148266988Y-52100000D01*
X147200000Y-52100000D01*
X147200000Y-52897844D01*
X147206401Y-52957372D01*
X147206403Y-52957379D01*
X147256645Y-53092086D01*
X147256649Y-53092093D01*
X147342809Y-53207187D01*
X147342812Y-53207190D01*
X147457906Y-53293350D01*
X147457913Y-53293354D01*
X147592620Y-53343596D01*
X147592627Y-53343598D01*
X147652155Y-53349999D01*
X147652172Y-53350000D01*
X149750000Y-53350000D01*
X149750000Y-52350000D01*
X150250000Y-52350000D01*
X150250000Y-53350000D01*
X152347828Y-53350000D01*
X152347844Y-53349999D01*
X152407372Y-53343598D01*
X152407379Y-53343596D01*
X152542086Y-53293354D01*
X152542093Y-53293350D01*
X152657187Y-53207190D01*
X152657190Y-53207187D01*
X152743350Y-53092093D01*
X152743354Y-53092086D01*
X152793596Y-52957379D01*
X152793598Y-52957372D01*
X152799999Y-52897844D01*
X152800000Y-52897827D01*
X152800000Y-52100000D01*
X151733012Y-52100000D01*
X151765925Y-52042993D01*
X151800000Y-51915826D01*
X151800000Y-51784174D01*
X151765925Y-51657007D01*
X151733012Y-51600000D01*
X152800000Y-51600000D01*
X152800000Y-50802172D01*
X152799999Y-50802155D01*
X152793598Y-50742627D01*
X152793596Y-50742620D01*
X152743354Y-50607913D01*
X152743350Y-50607906D01*
X152657190Y-50492812D01*
X152657187Y-50492809D01*
X152542093Y-50406649D01*
X152542086Y-50406645D01*
X152407379Y-50356403D01*
X152407372Y-50356401D01*
X152347844Y-50350000D01*
X150250000Y-50350000D01*
X150250000Y-51350000D01*
X149750000Y-51350000D01*
X149750000Y-50350000D01*
X147652155Y-50350000D01*
X147592627Y-50356401D01*
X147592620Y-50356403D01*
X147457913Y-50406645D01*
X147457906Y-50406649D01*
X147342812Y-50492809D01*
X147342809Y-50492812D01*
X147256649Y-50607906D01*
X147256645Y-50607913D01*
X147206403Y-50742620D01*
X147206401Y-50742627D01*
X147200000Y-50802155D01*
X120500500Y-50802155D01*
X120500500Y-50624500D01*
X120520185Y-50557461D01*
X120572989Y-50511706D01*
X120624500Y-50500500D01*
X125227498Y-50500500D01*
X125227502Y-50500500D01*
X125526511Y-50475723D01*
X125680942Y-50462927D01*
X125680943Y-50462926D01*
X125680953Y-50462926D01*
X126129752Y-50388035D01*
X126570834Y-50276338D01*
X127001185Y-50128598D01*
X127417866Y-49945825D01*
X127818031Y-49729266D01*
X128198946Y-49480402D01*
X128558009Y-49200933D01*
X128892766Y-48892766D01*
X129200933Y-48558009D01*
X129480402Y-48198946D01*
X129729266Y-47818031D01*
X129945825Y-47417866D01*
X130128598Y-47001185D01*
X130276338Y-46570834D01*
X130388035Y-46129752D01*
X130462926Y-45680953D01*
X130500500Y-45227502D01*
X130500500Y-45000000D01*
X130500500Y-44934108D01*
X130500500Y-44318209D01*
X130799500Y-44318209D01*
X130799500Y-44681790D01*
X130835137Y-45043630D01*
X130906064Y-45400212D01*
X130906067Y-45400223D01*
X131011614Y-45748165D01*
X131150754Y-46084078D01*
X131150756Y-46084083D01*
X131322140Y-46404720D01*
X131322151Y-46404738D01*
X131524140Y-46707035D01*
X131524150Y-46707049D01*
X131754807Y-46988106D01*
X132011893Y-47245192D01*
X132011898Y-47245196D01*
X132011899Y-47245197D01*
X132292956Y-47475854D01*
X132595268Y-47677853D01*
X132595277Y-47677858D01*
X132595279Y-47677859D01*
X132915916Y-47849243D01*
X132915918Y-47849243D01*
X132915924Y-47849247D01*
X133251836Y-47988386D01*
X133599767Y-48093930D01*
X133599773Y-48093931D01*
X133599776Y-48093932D01*
X133599787Y-48093935D01*
X133956369Y-48164862D01*
X134318206Y-48200500D01*
X134318209Y-48200500D01*
X134681791Y-48200500D01*
X134681794Y-48200500D01*
X135043631Y-48164862D01*
X135113045Y-48151054D01*
X135400212Y-48093935D01*
X135400223Y-48093932D01*
X135400223Y-48093931D01*
X135400233Y-48093930D01*
X135748164Y-47988386D01*
X136084076Y-47849247D01*
X136303613Y-47731902D01*
X153299500Y-47731902D01*
X153299500Y-50168097D01*
X153336446Y-50401368D01*
X153409433Y-50625996D01*
X153468860Y-50742627D01*
X153516657Y-50836433D01*
X153655483Y-51027510D01*
X153822490Y-51194517D01*
X154013567Y-51333343D01*
X154112991Y-51384002D01*
X154224003Y-51440566D01*
X154224005Y-51440566D01*
X154224008Y-51440568D01*
X154344412Y-51479689D01*
X154448631Y-51513553D01*
X154681903Y-51550500D01*
X154681908Y-51550500D01*
X154918097Y-51550500D01*
X155151368Y-51513553D01*
X155375992Y-51440568D01*
X155586433Y-51333343D01*
X155777510Y-51194517D01*
X155944517Y-51027510D01*
X156083343Y-50836433D01*
X156190568Y-50625992D01*
X156263553Y-50401368D01*
X156271689Y-50350000D01*
X156300500Y-50168097D01*
X156300500Y-47731905D01*
X156298330Y-47718206D01*
X156298330Y-47718204D01*
X156295785Y-47702135D01*
X157499500Y-47702135D01*
X157499500Y-50297870D01*
X157499501Y-50297876D01*
X157505908Y-50357483D01*
X157556202Y-50492328D01*
X157556206Y-50492335D01*
X157642452Y-50607544D01*
X157642455Y-50607547D01*
X157757664Y-50693793D01*
X157757671Y-50693797D01*
X157892517Y-50744091D01*
X157892516Y-50744091D01*
X157899444Y-50744835D01*
X157952127Y-50750500D01*
X160547872Y-50750499D01*
X160607483Y-50744091D01*
X160742331Y-50693796D01*
X160857546Y-50607546D01*
X160943796Y-50492331D01*
X160994091Y-50357483D01*
X161000500Y-50297873D01*
X161000499Y-47702128D01*
X160994091Y-47642517D01*
X160943796Y-47507669D01*
X160943795Y-47507668D01*
X160943793Y-47507664D01*
X160857547Y-47392455D01*
X160857544Y-47392452D01*
X160742335Y-47306206D01*
X160742328Y-47306202D01*
X160607482Y-47255908D01*
X160607483Y-47255908D01*
X160547883Y-47249501D01*
X160547881Y-47249500D01*
X160547873Y-47249500D01*
X160547864Y-47249500D01*
X157952129Y-47249500D01*
X157952123Y-47249501D01*
X157892516Y-47255908D01*
X157757671Y-47306202D01*
X157757664Y-47306206D01*
X157642455Y-47392452D01*
X157642452Y-47392455D01*
X157556206Y-47507664D01*
X157556202Y-47507671D01*
X157505908Y-47642517D01*
X157502109Y-47677859D01*
X157499501Y-47702123D01*
X157499500Y-47702135D01*
X156295785Y-47702135D01*
X156263553Y-47498631D01*
X156190566Y-47274003D01*
X156083342Y-47063566D01*
X156073849Y-47050500D01*
X155944517Y-46872490D01*
X155777510Y-46705483D01*
X155586433Y-46566657D01*
X155375996Y-46459433D01*
X155151368Y-46386446D01*
X154918097Y-46349500D01*
X154918092Y-46349500D01*
X154681908Y-46349500D01*
X154681903Y-46349500D01*
X154448631Y-46386446D01*
X154224003Y-46459433D01*
X154013566Y-46566657D01*
X153904550Y-46645862D01*
X153822490Y-46705483D01*
X153822488Y-46705485D01*
X153822487Y-46705485D01*
X153655485Y-46872487D01*
X153655485Y-46872488D01*
X153655483Y-46872490D01*
X153606023Y-46940566D01*
X153516657Y-47063566D01*
X153409433Y-47274003D01*
X153336446Y-47498631D01*
X153299500Y-47731902D01*
X136303613Y-47731902D01*
X136404732Y-47677853D01*
X136707044Y-47475854D01*
X136988101Y-47245197D01*
X137245197Y-46988101D01*
X137475854Y-46707044D01*
X137677853Y-46404732D01*
X137849247Y-46084076D01*
X137988386Y-45748164D01*
X138084323Y-45431902D01*
X147399500Y-45431902D01*
X147399500Y-45668097D01*
X147436446Y-45901368D01*
X147509433Y-46125996D01*
X147616657Y-46336433D01*
X147755483Y-46527510D01*
X147922490Y-46694517D01*
X148113567Y-46833343D01*
X148212991Y-46884002D01*
X148324003Y-46940566D01*
X148324005Y-46940566D01*
X148324008Y-46940568D01*
X148444412Y-46979689D01*
X148548631Y-47013553D01*
X148781903Y-47050500D01*
X148781908Y-47050500D01*
X151218097Y-47050500D01*
X151451368Y-47013553D01*
X151489423Y-47001188D01*
X151675992Y-46940568D01*
X151886433Y-46833343D01*
X152077510Y-46694517D01*
X152244517Y-46527510D01*
X152383343Y-46336433D01*
X152490568Y-46125992D01*
X152563553Y-45901368D01*
X152587818Y-45748164D01*
X152600500Y-45668097D01*
X152600500Y-45431902D01*
X152563553Y-45198631D01*
X152513190Y-45043631D01*
X152490568Y-44974008D01*
X152490566Y-44974005D01*
X152490566Y-44974003D01*
X152400824Y-44797876D01*
X152383343Y-44763567D01*
X152244517Y-44572490D01*
X152077510Y-44405483D01*
X151886433Y-44266657D01*
X151675996Y-44159433D01*
X151451368Y-44086446D01*
X151218097Y-44049500D01*
X151218092Y-44049500D01*
X148781908Y-44049500D01*
X148781903Y-44049500D01*
X148548631Y-44086446D01*
X148324003Y-44159433D01*
X148113566Y-44266657D01*
X148042616Y-44318206D01*
X147922490Y-44405483D01*
X147922488Y-44405485D01*
X147922487Y-44405485D01*
X147755485Y-44572487D01*
X147755485Y-44572488D01*
X147755483Y-44572490D01*
X147695862Y-44654550D01*
X147616657Y-44763566D01*
X147509433Y-44974003D01*
X147436446Y-45198631D01*
X147399500Y-45431902D01*
X138084323Y-45431902D01*
X138093930Y-45400233D01*
X138095537Y-45392157D01*
X138152148Y-45107547D01*
X138164862Y-45043631D01*
X138200500Y-44681794D01*
X138200500Y-44318206D01*
X138164862Y-43956369D01*
X138093935Y-43599787D01*
X138093932Y-43599776D01*
X138093931Y-43599773D01*
X138093930Y-43599767D01*
X137988386Y-43251836D01*
X137849247Y-42915924D01*
X137677853Y-42595268D01*
X137475854Y-42292956D01*
X137401319Y-42202135D01*
X157499500Y-42202135D01*
X157499500Y-44797870D01*
X157499501Y-44797876D01*
X157505908Y-44857483D01*
X157556202Y-44992328D01*
X157556206Y-44992335D01*
X157642452Y-45107544D01*
X157642455Y-45107547D01*
X157757664Y-45193793D01*
X157757671Y-45193797D01*
X157892517Y-45244091D01*
X157892516Y-45244091D01*
X157899444Y-45244835D01*
X157952127Y-45250500D01*
X160547872Y-45250499D01*
X160607483Y-45244091D01*
X160742331Y-45193796D01*
X160857546Y-45107546D01*
X160943796Y-44992331D01*
X160994091Y-44857483D01*
X161000500Y-44797873D01*
X161000500Y-44318209D01*
X161799500Y-44318209D01*
X161799500Y-44681790D01*
X161835137Y-45043630D01*
X161906064Y-45400212D01*
X161906067Y-45400223D01*
X162011614Y-45748165D01*
X162150754Y-46084078D01*
X162150756Y-46084083D01*
X162322140Y-46404720D01*
X162322151Y-46404738D01*
X162524140Y-46707035D01*
X162524150Y-46707049D01*
X162754807Y-46988106D01*
X163011893Y-47245192D01*
X163011898Y-47245196D01*
X163011899Y-47245197D01*
X163292956Y-47475854D01*
X163595268Y-47677853D01*
X163595277Y-47677858D01*
X163595279Y-47677859D01*
X163915916Y-47849243D01*
X163915918Y-47849243D01*
X163915924Y-47849247D01*
X164251836Y-47988386D01*
X164599767Y-48093930D01*
X164599773Y-48093931D01*
X164599776Y-48093932D01*
X164599787Y-48093935D01*
X164956369Y-48164862D01*
X165318206Y-48200500D01*
X165318209Y-48200500D01*
X165681791Y-48200500D01*
X165681794Y-48200500D01*
X166043631Y-48164862D01*
X166113045Y-48151054D01*
X166400212Y-48093935D01*
X166400223Y-48093932D01*
X166400223Y-48093931D01*
X166400233Y-48093930D01*
X166748164Y-47988386D01*
X167084076Y-47849247D01*
X167404732Y-47677853D01*
X167707044Y-47475854D01*
X167988101Y-47245197D01*
X168245197Y-46988101D01*
X168475854Y-46707044D01*
X168677853Y-46404732D01*
X168849247Y-46084076D01*
X168988386Y-45748164D01*
X169093930Y-45400233D01*
X169093933Y-45400219D01*
X169093935Y-45400212D01*
X169164862Y-45043630D01*
X169169914Y-44992335D01*
X169200500Y-44681794D01*
X169200500Y-44318206D01*
X169164862Y-43956369D01*
X169093935Y-43599787D01*
X169093932Y-43599776D01*
X169093931Y-43599773D01*
X169093930Y-43599767D01*
X168988386Y-43251836D01*
X168849247Y-42915924D01*
X168677853Y-42595268D01*
X168475854Y-42292956D01*
X168245197Y-42011899D01*
X168245196Y-42011898D01*
X168245192Y-42011893D01*
X167988106Y-41754807D01*
X167707049Y-41524150D01*
X167707048Y-41524149D01*
X167707044Y-41524146D01*
X167404732Y-41322147D01*
X167404727Y-41322144D01*
X167404720Y-41322140D01*
X167084083Y-41150756D01*
X167084078Y-41150754D01*
X166748165Y-41011614D01*
X166400223Y-40906067D01*
X166400212Y-40906064D01*
X166043630Y-40835137D01*
X165771111Y-40808296D01*
X165681794Y-40799500D01*
X165318206Y-40799500D01*
X165235679Y-40807628D01*
X164956369Y-40835137D01*
X164599787Y-40906064D01*
X164599776Y-40906067D01*
X164251834Y-41011614D01*
X163915921Y-41150754D01*
X163915916Y-41150756D01*
X163595279Y-41322140D01*
X163595261Y-41322151D01*
X163292964Y-41524140D01*
X163292950Y-41524150D01*
X163011893Y-41754807D01*
X162754807Y-42011893D01*
X162524150Y-42292950D01*
X162524140Y-42292964D01*
X162322151Y-42595261D01*
X162322140Y-42595279D01*
X162150756Y-42915916D01*
X162150754Y-42915921D01*
X162011614Y-43251834D01*
X161906067Y-43599776D01*
X161906064Y-43599787D01*
X161835137Y-43956369D01*
X161799500Y-44318209D01*
X161000500Y-44318209D01*
X161000499Y-42202128D01*
X160994091Y-42142517D01*
X160945371Y-42011893D01*
X160943797Y-42007671D01*
X160943793Y-42007664D01*
X160857547Y-41892455D01*
X160857544Y-41892452D01*
X160742335Y-41806206D01*
X160742328Y-41806202D01*
X160607482Y-41755908D01*
X160607483Y-41755908D01*
X160547883Y-41749501D01*
X160547881Y-41749500D01*
X160547873Y-41749500D01*
X160547864Y-41749500D01*
X157952129Y-41749500D01*
X157952123Y-41749501D01*
X157892516Y-41755908D01*
X157757671Y-41806202D01*
X157757664Y-41806206D01*
X157642455Y-41892452D01*
X157642452Y-41892455D01*
X157556206Y-42007664D01*
X157556202Y-42007671D01*
X157505908Y-42142517D01*
X157499501Y-42202116D01*
X157499501Y-42202123D01*
X157499500Y-42202135D01*
X137401319Y-42202135D01*
X137245197Y-42011899D01*
X137245196Y-42011898D01*
X137245192Y-42011893D01*
X136988106Y-41754807D01*
X136707049Y-41524150D01*
X136707048Y-41524149D01*
X136707044Y-41524146D01*
X136404732Y-41322147D01*
X136404727Y-41322144D01*
X136404720Y-41322140D01*
X136084083Y-41150756D01*
X136084078Y-41150754D01*
X135748165Y-41011614D01*
X135400223Y-40906067D01*
X135400212Y-40906064D01*
X135043630Y-40835137D01*
X134771111Y-40808296D01*
X134681794Y-40799500D01*
X134318206Y-40799500D01*
X134235679Y-40807628D01*
X133956369Y-40835137D01*
X133599787Y-40906064D01*
X133599776Y-40906067D01*
X133251834Y-41011614D01*
X132915921Y-41150754D01*
X132915916Y-41150756D01*
X132595279Y-41322140D01*
X132595261Y-41322151D01*
X132292964Y-41524140D01*
X132292950Y-41524150D01*
X132011893Y-41754807D01*
X131754807Y-42011893D01*
X131524150Y-42292950D01*
X131524140Y-42292964D01*
X131322151Y-42595261D01*
X131322140Y-42595279D01*
X131150756Y-42915916D01*
X131150754Y-42915921D01*
X131011614Y-43251834D01*
X130906067Y-43599776D01*
X130906064Y-43599787D01*
X130835137Y-43956369D01*
X130799500Y-44318209D01*
X130500500Y-44318209D01*
X130500500Y-40624500D01*
X130520185Y-40557461D01*
X130572989Y-40511706D01*
X130624500Y-40500500D01*
X169375500Y-40500500D01*
X169442539Y-40520185D01*
G37*
%TD.AperFunction*%
%TD*%
M02*
