%TF.GenerationSoftware,KiCad,Pcbnew,9.0.2*%
%TF.CreationDate,2025-06-29T21:27:56+12:00*%
%TF.ProjectId,Delay,44656c61-792e-46b6-9963-61645f706362,rev?*%
%TF.SameCoordinates,Original*%
%TF.FileFunction,Copper,L2,Bot*%
%TF.FilePolarity,Positive*%
%FSLAX46Y46*%
G04 Gerber Fmt 4.6, Leading zero omitted, Abs format (unit mm)*
G04 Created by KiCad (PCBNEW 9.0.2) date 2025-06-29 21:27:56*
%MOMM*%
%LPD*%
G01*
G04 APERTURE LIST*
G04 Aperture macros list*
%AMRoundRect*
0 Rectangle with rounded corners*
0 $1 Rounding radius*
0 $2 $3 $4 $5 $6 $7 $8 $9 X,Y pos of 4 corners*
0 Add a 4 corners polygon primitive as box body*
4,1,4,$2,$3,$4,$5,$6,$7,$8,$9,$2,$3,0*
0 Add four circle primitives for the rounded corners*
1,1,$1+$1,$2,$3*
1,1,$1+$1,$4,$5*
1,1,$1+$1,$6,$7*
1,1,$1+$1,$8,$9*
0 Add four rect primitives between the rounded corners*
20,1,$1+$1,$2,$3,$4,$5,0*
20,1,$1+$1,$4,$5,$6,$7,0*
20,1,$1+$1,$6,$7,$8,$9,0*
20,1,$1+$1,$8,$9,$2,$3,0*%
G04 Aperture macros list end*
%TA.AperFunction,ComponentPad*%
%ADD10RoundRect,0.250000X-0.550000X-0.550000X0.550000X-0.550000X0.550000X0.550000X-0.550000X0.550000X0*%
%TD*%
%TA.AperFunction,ComponentPad*%
%ADD11C,1.600000*%
%TD*%
%TA.AperFunction,ComponentPad*%
%ADD12O,4.500000X3.000000*%
%TD*%
%TA.AperFunction,ComponentPad*%
%ADD13C,3.000000*%
%TD*%
%TA.AperFunction,ComponentPad*%
%ADD14R,4.600000X2.000000*%
%TD*%
%TA.AperFunction,ComponentPad*%
%ADD15O,4.200000X2.000000*%
%TD*%
%TA.AperFunction,ComponentPad*%
%ADD16O,2.000000X4.200000*%
%TD*%
%TA.AperFunction,ComponentPad*%
%ADD17R,1.350000X1.350000*%
%TD*%
%TA.AperFunction,ComponentPad*%
%ADD18C,1.350000*%
%TD*%
%TA.AperFunction,ComponentPad*%
%ADD19R,1.800000X1.800000*%
%TD*%
%TA.AperFunction,ComponentPad*%
%ADD20C,1.800000*%
%TD*%
G04 APERTURE END LIST*
D10*
%TO.P,U1,1,VCC*%
%TO.N,+5V*%
X114260000Y-40150000D03*
D11*
%TO.P,U1,2,REF*%
%TO.N,Net-(U1-REF)*%
X114260000Y-42690000D03*
%TO.P,U1,3,AGND*%
%TO.N,GND*%
X114260000Y-45230000D03*
%TO.P,U1,4,DGND*%
X114260000Y-47770000D03*
%TO.P,U1,5,CLK_O*%
%TO.N,unconnected-(U1-CLK_O-Pad5)*%
X114260000Y-50310000D03*
%TO.P,U1,6,VCO*%
%TO.N,Net-(U1-VCO)*%
X114260000Y-52850000D03*
%TO.P,U1,7,CC1*%
%TO.N,Net-(U1-CC1)*%
X114260000Y-55390000D03*
%TO.P,U1,8,CC0*%
%TO.N,Net-(U1-CC0)*%
X114260000Y-57930000D03*
%TO.P,U1,9,OP1-OUT*%
%TO.N,Net-(U1-OP1-OUT)*%
X121880000Y-57930000D03*
%TO.P,U1,10,OP1-IN*%
%TO.N,Net-(U1-OP1-IN)*%
X121880000Y-55390000D03*
%TO.P,U1,11,OP2-IN*%
%TO.N,Net-(U1-OP2-IN)*%
X121880000Y-52850000D03*
%TO.P,U1,12,OP2-OUT*%
%TO.N,Net-(U1-OP2-OUT)*%
X121880000Y-50310000D03*
%TO.P,U1,13,LPF2-IN*%
%TO.N,Net-(U1-LPF2-IN)*%
X121880000Y-47770000D03*
%TO.P,U1,14,LPF2-OUT*%
%TO.N,Net-(U1-LPF2-OUT)*%
X121880000Y-45230000D03*
%TO.P,U1,15,LPF1-OUT*%
%TO.N,Net-(U1-LPF1-OUT)*%
X121880000Y-42690000D03*
%TO.P,U1,16,LPF1-IN*%
%TO.N,Net-(U1-LPF1-IN)*%
X121880000Y-40150000D03*
%TD*%
D12*
%TO.P,S1,1*%
%TO.N,Wet In*%
X117775000Y-64325000D03*
%TO.P,S1,2*%
%TO.N,Guitar In*%
X117775000Y-69025000D03*
%TO.P,S1,3*%
%TO.N,Net-(S1-Pad3)*%
X117775000Y-73725000D03*
%TO.P,S1,4*%
%TO.N,Net-(D1-K)*%
X122975000Y-64325000D03*
%TO.P,S1,5*%
%TO.N,GND*%
X122975000Y-69025000D03*
%TO.P,S1,6*%
%TO.N,Wet In*%
X122975000Y-73725000D03*
%TO.P,S1,7*%
%TO.N,Wet Out*%
X128175000Y-64325000D03*
%TO.P,S1,8*%
%TO.N,Guitar Out*%
X128175000Y-69025000D03*
%TO.P,S1,9*%
%TO.N,Net-(S1-Pad3)*%
X128175000Y-73725000D03*
%TD*%
D13*
%TO.P,J5,R*%
%TO.N,N/C*%
X92100000Y-61910000D03*
%TO.P,J5,RN*%
X92100000Y-78140000D03*
%TO.P,J5,S*%
%TO.N,GND*%
X98450000Y-61910000D03*
%TO.P,J5,SN*%
%TO.N,unconnected-(J5-PadSN)*%
X98450000Y-78140000D03*
%TO.P,J5,T*%
%TO.N,Guitar Out*%
X85750000Y-61910000D03*
%TO.P,J5,TN*%
%TO.N,unconnected-(J5-PadTN)*%
X85750000Y-78140000D03*
%TD*%
%TO.P,J4,R*%
%TO.N,N/C*%
X92100000Y-40630000D03*
%TO.P,J4,RN*%
X92100000Y-56860000D03*
%TO.P,J4,S*%
%TO.N,GND*%
X98450000Y-40630000D03*
%TO.P,J4,SN*%
%TO.N,/-ve*%
X98450000Y-56860000D03*
%TO.P,J4,T*%
%TO.N,Guitar In*%
X85750000Y-40630000D03*
%TO.P,J4,TN*%
%TO.N,unconnected-(J4-PadTN)*%
X85750000Y-56860000D03*
%TD*%
D14*
%TO.P,J2,1*%
%TO.N,GND*%
X118200000Y-80100000D03*
D15*
%TO.P,J2,2*%
%TO.N,+9V*%
X118200000Y-86400000D03*
D16*
%TO.P,J2,3*%
%TO.N,/+ve*%
X123000000Y-83000000D03*
%TD*%
D17*
%TO.P,J1,1,Pin_1*%
%TO.N,/+ve*%
X95960000Y-82690000D03*
D18*
%TO.P,J1,2,Pin_2*%
%TO.N,/-ve*%
X95960000Y-84690000D03*
%TD*%
D19*
%TO.P,D1,1,K*%
%TO.N,Net-(D1-K)*%
X99660000Y-83400000D03*
D20*
%TO.P,D1,2,A*%
%TO.N,Net-(D1-A)*%
X102200000Y-83400000D03*
%TD*%
M02*
