M48
; DRILL file {KiCad 9.0.2} date 2025-06-30T18:01:48+1200
; FORMAT={-:-/ absolute / inch / decimal}
; #@! TF.CreationDate,2025-06-30T18:01:48+12:00
; #@! TF.GenerationSoftware,Kicad,Pcbnew,9.0.2
; #@! TF.FileFunction,Plated,1,2,PTH
FMAT,2
INCH
; #@! TA.AperFunction,Plated,PTH,ComponentDrill
T1C0.0197
; #@! TA.AperFunction,Plated,PTH,ComponentDrill
T2C0.0354
; #@! TA.AperFunction,Plated,PTH,ComponentDrill
T3C0.0394
; #@! TA.AperFunction,Plated,PTH,ComponentDrill
T4C0.0472
; #@! TA.AperFunction,Plated,PTH,ComponentDrill
T5C0.0551
; #@! TA.AperFunction,Plated,PTH,ComponentDrill
T6C0.0709
; #@! TA.AperFunction,Plated,PTH,ComponentDrill
T7C0.1260
%
G90
G05
T1
X5.3419Y-2.2024
X5.3696Y-2.1355
X5.3696Y-2.2692
X5.4364Y-2.1079
X5.4364Y-2.2969
X5.5032Y-2.1355
X5.5032Y-2.2692
X5.5309Y-2.2024
T2
X5.3459Y-2.4665
X5.4459Y-2.4665
T3
X3.0112Y-1.2909
X3.0112Y-1.3894
X3.0112Y-1.4878
X3.0112Y-1.8559
X3.0112Y-1.9543
X3.0112Y-2.0528
X3.0112Y-2.4209
X3.0112Y-2.5193
X3.0112Y-2.6177
T4
X5.689Y-2.6358
X5.689Y-2.815
T5
X3.8675Y-1.2063
X3.8675Y-1.8453
X3.8675Y-2.0441
X3.8675Y-2.6831
X4.1175Y-1.2063
X4.1175Y-1.8453
X4.1175Y-2.0441
X4.1175Y-2.6831
X4.3675Y-1.2063
X4.3675Y-1.8453
X4.3675Y-2.0441
X4.3675Y-2.6831
T7
X5.4364Y-2.2024
T3
G00X3.1116Y-2.8815
M15
G01X3.214Y-2.8815
M16
G05
G00X3.1195Y-3.1295
M15
G01X3.2061Y-3.1295
M16
G05
G00X3.3518Y-2.9524
M15
G01X3.3518Y-3.039
M16
G05
G00X4.1394Y-2.9537
M15
G01X4.2181Y-2.9537
M16
G05
G00X4.1394Y-3.1388
M15
G01X4.2181Y-3.1388
M16
G05
G00X4.1394Y-3.3238
M15
G01X4.2181Y-3.3238
M16
G05
G00X4.3441Y-2.9537
M15
G01X4.4228Y-2.9537
M16
G05
G00X4.3441Y-3.1388
M15
G01X4.4228Y-3.1388
M16
G05
G00X4.3441Y-3.3238
M15
G01X4.4228Y-3.3238
M16
G05
G00X4.5488Y-2.9537
M15
G01X4.6276Y-2.9537
M16
G05
G00X4.5488Y-3.1388
M15
G01X4.6276Y-3.1388
M16
G05
G00X4.5488Y-3.3238
M15
G01X4.6276Y-3.3238
M16
G05
T6
G00X3.3065Y-1.1984
M15
G01X3.3065Y-1.2063
M16
G05
G00X3.3065Y-1.5724
M15
G01X3.3065Y-1.5803
M16
G05
G00X3.3065Y-1.7634
M15
G01X3.3065Y-1.7713
M16
G05
G00X3.3065Y-2.1374
M15
G01X3.3065Y-2.1453
M16
G05
G00X3.3065Y-2.3283
M15
G01X3.3065Y-2.3362
M16
G05
G00X3.3065Y-2.7024
M15
G01X3.3065Y-2.7102
M16
G05
M30
