%TF.GenerationSoftware,KiCad,Pcbnew,9.0.2*%
%TF.CreationDate,2025-06-30T18:01:48+12:00*%
%TF.ProjectId,Delay,44656c61-792e-46b6-9963-61645f706362,rev?*%
%TF.SameCoordinates,Original*%
%TF.FileFunction,Legend,Top*%
%TF.FilePolarity,Positive*%
%FSLAX46Y46*%
G04 Gerber Fmt 4.6, Leading zero omitted, Abs format (unit mm)*
G04 Created by KiCad (PCBNEW 9.0.2) date 2025-06-30 18:01:48*
%MOMM*%
%LPD*%
G01*
G04 APERTURE LIST*
G04 Aperture macros list*
%AMRoundRect*
0 Rectangle with rounded corners*
0 $1 Rounding radius*
0 $2 $3 $4 $5 $6 $7 $8 $9 X,Y pos of 4 corners*
0 Add a 4 corners polygon primitive as box body*
4,1,4,$2,$3,$4,$5,$6,$7,$8,$9,$2,$3,0*
0 Add four circle primitives for the rounded corners*
1,1,$1+$1,$2,$3*
1,1,$1+$1,$4,$5*
1,1,$1+$1,$6,$7*
1,1,$1+$1,$8,$9*
0 Add four rect primitives between the rounded corners*
20,1,$1+$1,$2,$3,$4,$5,0*
20,1,$1+$1,$4,$5,$6,$7,0*
20,1,$1+$1,$6,$7,$8,$9,0*
20,1,$1+$1,$8,$9,$2,$3,0*%
G04 Aperture macros list end*
%ADD10C,0.150000*%
%ADD11C,0.100000*%
%ADD12C,0.120000*%
%ADD13C,0.800000*%
%ADD14C,6.400000*%
%ADD15RoundRect,0.150000X-0.850000X-0.150000X0.850000X-0.150000X0.850000X0.150000X-0.850000X0.150000X0*%
%ADD16RoundRect,0.250000X-1.050000X-0.550000X1.050000X-0.550000X1.050000X0.550000X-1.050000X0.550000X0*%
%ADD17RoundRect,0.250000X-0.250000X-0.475000X0.250000X-0.475000X0.250000X0.475000X-0.250000X0.475000X0*%
%ADD18RoundRect,0.200000X-0.200000X-0.275000X0.200000X-0.275000X0.200000X0.275000X-0.200000X0.275000X0*%
%ADD19RoundRect,0.250000X-1.500000X-0.550000X1.500000X-0.550000X1.500000X0.550000X-1.500000X0.550000X0*%
%ADD20R,2.500000X2.500000*%
%ADD21RoundRect,0.150000X-0.800000X-0.150000X0.800000X-0.150000X0.800000X0.150000X-0.800000X0.150000X0*%
%ADD22R,4.600000X2.000000*%
%ADD23O,4.200000X2.000000*%
%ADD24O,2.000000X4.200000*%
%ADD25RoundRect,0.250000X-0.325000X-0.650000X0.325000X-0.650000X0.325000X0.650000X-0.325000X0.650000X0*%
%ADD26C,3.200000*%
%ADD27R,1.800000X1.800000*%
%ADD28C,1.800000*%
%ADD29RoundRect,0.750000X-1.250000X-0.750000X1.250000X-0.750000X1.250000X0.750000X-1.250000X0.750000X0*%
%ADD30C,3.000000*%
%ADD31RoundRect,0.225000X-0.225000X-0.375000X0.225000X-0.375000X0.225000X0.375000X-0.225000X0.375000X0*%
%ADD32O,4.500000X3.000000*%
%ADD33RoundRect,0.250000X-0.850000X-0.350000X0.850000X-0.350000X0.850000X0.350000X-0.850000X0.350000X0*%
%ADD34RoundRect,0.249997X-2.950003X-2.650003X2.950003X-2.650003X2.950003X2.650003X-2.950003X2.650003X0*%
G04 APERTURE END LIST*
D10*
X137323095Y-52244819D02*
X137323095Y-51244819D01*
X137323095Y-51721009D02*
X137894523Y-51721009D01*
X137894523Y-52244819D02*
X137894523Y-51244819D01*
X138799285Y-51578152D02*
X138799285Y-52244819D01*
X138561190Y-51197200D02*
X138323095Y-51911485D01*
X138323095Y-51911485D02*
X138942142Y-51911485D01*
X93238095Y-73054819D02*
X93238095Y-73864342D01*
X93238095Y-73864342D02*
X93285714Y-73959580D01*
X93285714Y-73959580D02*
X93333333Y-74007200D01*
X93333333Y-74007200D02*
X93428571Y-74054819D01*
X93428571Y-74054819D02*
X93619047Y-74054819D01*
X93619047Y-74054819D02*
X93714285Y-74007200D01*
X93714285Y-74007200D02*
X93761904Y-73959580D01*
X93761904Y-73959580D02*
X93809523Y-73864342D01*
X93809523Y-73864342D02*
X93809523Y-73054819D01*
X94809523Y-74054819D02*
X94238095Y-74054819D01*
X94523809Y-74054819D02*
X94523809Y-73054819D01*
X94523809Y-73054819D02*
X94428571Y-73197676D01*
X94428571Y-73197676D02*
X94333333Y-73292914D01*
X94333333Y-73292914D02*
X94238095Y-73340533D01*
X129039761Y-62949580D02*
X128992142Y-62997200D01*
X128992142Y-62997200D02*
X128849285Y-63044819D01*
X128849285Y-63044819D02*
X128754047Y-63044819D01*
X128754047Y-63044819D02*
X128611190Y-62997200D01*
X128611190Y-62997200D02*
X128515952Y-62901961D01*
X128515952Y-62901961D02*
X128468333Y-62806723D01*
X128468333Y-62806723D02*
X128420714Y-62616247D01*
X128420714Y-62616247D02*
X128420714Y-62473390D01*
X128420714Y-62473390D02*
X128468333Y-62282914D01*
X128468333Y-62282914D02*
X128515952Y-62187676D01*
X128515952Y-62187676D02*
X128611190Y-62092438D01*
X128611190Y-62092438D02*
X128754047Y-62044819D01*
X128754047Y-62044819D02*
X128849285Y-62044819D01*
X128849285Y-62044819D02*
X128992142Y-62092438D01*
X128992142Y-62092438D02*
X129039761Y-62140057D01*
X129801666Y-62521009D02*
X129468333Y-62521009D01*
X129468333Y-63044819D02*
X129468333Y-62044819D01*
X129468333Y-62044819D02*
X129944523Y-62044819D01*
X130754047Y-62044819D02*
X130563571Y-62044819D01*
X130563571Y-62044819D02*
X130468333Y-62092438D01*
X130468333Y-62092438D02*
X130420714Y-62140057D01*
X130420714Y-62140057D02*
X130325476Y-62282914D01*
X130325476Y-62282914D02*
X130277857Y-62473390D01*
X130277857Y-62473390D02*
X130277857Y-62854342D01*
X130277857Y-62854342D02*
X130325476Y-62949580D01*
X130325476Y-62949580D02*
X130373095Y-62997200D01*
X130373095Y-62997200D02*
X130468333Y-63044819D01*
X130468333Y-63044819D02*
X130658809Y-63044819D01*
X130658809Y-63044819D02*
X130754047Y-62997200D01*
X130754047Y-62997200D02*
X130801666Y-62949580D01*
X130801666Y-62949580D02*
X130849285Y-62854342D01*
X130849285Y-62854342D02*
X130849285Y-62616247D01*
X130849285Y-62616247D02*
X130801666Y-62521009D01*
X130801666Y-62521009D02*
X130754047Y-62473390D01*
X130754047Y-62473390D02*
X130658809Y-62425771D01*
X130658809Y-62425771D02*
X130468333Y-62425771D01*
X130468333Y-62425771D02*
X130373095Y-62473390D01*
X130373095Y-62473390D02*
X130325476Y-62521009D01*
X130325476Y-62521009D02*
X130277857Y-62616247D01*
X132122142Y-79889580D02*
X132074523Y-79937200D01*
X132074523Y-79937200D02*
X131931666Y-79984819D01*
X131931666Y-79984819D02*
X131836428Y-79984819D01*
X131836428Y-79984819D02*
X131693571Y-79937200D01*
X131693571Y-79937200D02*
X131598333Y-79841961D01*
X131598333Y-79841961D02*
X131550714Y-79746723D01*
X131550714Y-79746723D02*
X131503095Y-79556247D01*
X131503095Y-79556247D02*
X131503095Y-79413390D01*
X131503095Y-79413390D02*
X131550714Y-79222914D01*
X131550714Y-79222914D02*
X131598333Y-79127676D01*
X131598333Y-79127676D02*
X131693571Y-79032438D01*
X131693571Y-79032438D02*
X131836428Y-78984819D01*
X131836428Y-78984819D02*
X131931666Y-78984819D01*
X131931666Y-78984819D02*
X132074523Y-79032438D01*
X132074523Y-79032438D02*
X132122142Y-79080057D01*
X133074523Y-79984819D02*
X132503095Y-79984819D01*
X132788809Y-79984819D02*
X132788809Y-78984819D01*
X132788809Y-78984819D02*
X132693571Y-79127676D01*
X132693571Y-79127676D02*
X132598333Y-79222914D01*
X132598333Y-79222914D02*
X132503095Y-79270533D01*
X133931666Y-79318152D02*
X133931666Y-79984819D01*
X133693571Y-78937200D02*
X133455476Y-79651485D01*
X133455476Y-79651485D02*
X134074523Y-79651485D01*
X123478333Y-93034819D02*
X123145000Y-92558628D01*
X122906905Y-93034819D02*
X122906905Y-92034819D01*
X122906905Y-92034819D02*
X123287857Y-92034819D01*
X123287857Y-92034819D02*
X123383095Y-92082438D01*
X123383095Y-92082438D02*
X123430714Y-92130057D01*
X123430714Y-92130057D02*
X123478333Y-92225295D01*
X123478333Y-92225295D02*
X123478333Y-92368152D01*
X123478333Y-92368152D02*
X123430714Y-92463390D01*
X123430714Y-92463390D02*
X123383095Y-92511009D01*
X123383095Y-92511009D02*
X123287857Y-92558628D01*
X123287857Y-92558628D02*
X122906905Y-92558628D01*
X124383095Y-92034819D02*
X123906905Y-92034819D01*
X123906905Y-92034819D02*
X123859286Y-92511009D01*
X123859286Y-92511009D02*
X123906905Y-92463390D01*
X123906905Y-92463390D02*
X124002143Y-92415771D01*
X124002143Y-92415771D02*
X124240238Y-92415771D01*
X124240238Y-92415771D02*
X124335476Y-92463390D01*
X124335476Y-92463390D02*
X124383095Y-92511009D01*
X124383095Y-92511009D02*
X124430714Y-92606247D01*
X124430714Y-92606247D02*
X124430714Y-92844342D01*
X124430714Y-92844342D02*
X124383095Y-92939580D01*
X124383095Y-92939580D02*
X124335476Y-92987200D01*
X124335476Y-92987200D02*
X124240238Y-93034819D01*
X124240238Y-93034819D02*
X124002143Y-93034819D01*
X124002143Y-93034819D02*
X123906905Y-92987200D01*
X123906905Y-92987200D02*
X123859286Y-92939580D01*
X131022142Y-90524819D02*
X130688809Y-90048628D01*
X130450714Y-90524819D02*
X130450714Y-89524819D01*
X130450714Y-89524819D02*
X130831666Y-89524819D01*
X130831666Y-89524819D02*
X130926904Y-89572438D01*
X130926904Y-89572438D02*
X130974523Y-89620057D01*
X130974523Y-89620057D02*
X131022142Y-89715295D01*
X131022142Y-89715295D02*
X131022142Y-89858152D01*
X131022142Y-89858152D02*
X130974523Y-89953390D01*
X130974523Y-89953390D02*
X130926904Y-90001009D01*
X130926904Y-90001009D02*
X130831666Y-90048628D01*
X130831666Y-90048628D02*
X130450714Y-90048628D01*
X131974523Y-90524819D02*
X131403095Y-90524819D01*
X131688809Y-90524819D02*
X131688809Y-89524819D01*
X131688809Y-89524819D02*
X131593571Y-89667676D01*
X131593571Y-89667676D02*
X131498333Y-89762914D01*
X131498333Y-89762914D02*
X131403095Y-89810533D01*
X132831666Y-89524819D02*
X132641190Y-89524819D01*
X132641190Y-89524819D02*
X132545952Y-89572438D01*
X132545952Y-89572438D02*
X132498333Y-89620057D01*
X132498333Y-89620057D02*
X132403095Y-89762914D01*
X132403095Y-89762914D02*
X132355476Y-89953390D01*
X132355476Y-89953390D02*
X132355476Y-90334342D01*
X132355476Y-90334342D02*
X132403095Y-90429580D01*
X132403095Y-90429580D02*
X132450714Y-90477200D01*
X132450714Y-90477200D02*
X132545952Y-90524819D01*
X132545952Y-90524819D02*
X132736428Y-90524819D01*
X132736428Y-90524819D02*
X132831666Y-90477200D01*
X132831666Y-90477200D02*
X132879285Y-90429580D01*
X132879285Y-90429580D02*
X132926904Y-90334342D01*
X132926904Y-90334342D02*
X132926904Y-90096247D01*
X132926904Y-90096247D02*
X132879285Y-90001009D01*
X132879285Y-90001009D02*
X132831666Y-89953390D01*
X132831666Y-89953390D02*
X132736428Y-89905771D01*
X132736428Y-89905771D02*
X132545952Y-89905771D01*
X132545952Y-89905771D02*
X132450714Y-89953390D01*
X132450714Y-89953390D02*
X132403095Y-90001009D01*
X132403095Y-90001009D02*
X132355476Y-90096247D01*
X136572142Y-76879580D02*
X136524523Y-76927200D01*
X136524523Y-76927200D02*
X136381666Y-76974819D01*
X136381666Y-76974819D02*
X136286428Y-76974819D01*
X136286428Y-76974819D02*
X136143571Y-76927200D01*
X136143571Y-76927200D02*
X136048333Y-76831961D01*
X136048333Y-76831961D02*
X136000714Y-76736723D01*
X136000714Y-76736723D02*
X135953095Y-76546247D01*
X135953095Y-76546247D02*
X135953095Y-76403390D01*
X135953095Y-76403390D02*
X136000714Y-76212914D01*
X136000714Y-76212914D02*
X136048333Y-76117676D01*
X136048333Y-76117676D02*
X136143571Y-76022438D01*
X136143571Y-76022438D02*
X136286428Y-75974819D01*
X136286428Y-75974819D02*
X136381666Y-75974819D01*
X136381666Y-75974819D02*
X136524523Y-76022438D01*
X136524523Y-76022438D02*
X136572142Y-76070057D01*
X137524523Y-76974819D02*
X136953095Y-76974819D01*
X137238809Y-76974819D02*
X137238809Y-75974819D01*
X137238809Y-75974819D02*
X137143571Y-76117676D01*
X137143571Y-76117676D02*
X137048333Y-76212914D01*
X137048333Y-76212914D02*
X136953095Y-76260533D01*
X137857857Y-75974819D02*
X138524523Y-75974819D01*
X138524523Y-75974819D02*
X138095952Y-76974819D01*
X129039761Y-35549580D02*
X128992142Y-35597200D01*
X128992142Y-35597200D02*
X128849285Y-35644819D01*
X128849285Y-35644819D02*
X128754047Y-35644819D01*
X128754047Y-35644819D02*
X128611190Y-35597200D01*
X128611190Y-35597200D02*
X128515952Y-35501961D01*
X128515952Y-35501961D02*
X128468333Y-35406723D01*
X128468333Y-35406723D02*
X128420714Y-35216247D01*
X128420714Y-35216247D02*
X128420714Y-35073390D01*
X128420714Y-35073390D02*
X128468333Y-34882914D01*
X128468333Y-34882914D02*
X128515952Y-34787676D01*
X128515952Y-34787676D02*
X128611190Y-34692438D01*
X128611190Y-34692438D02*
X128754047Y-34644819D01*
X128754047Y-34644819D02*
X128849285Y-34644819D01*
X128849285Y-34644819D02*
X128992142Y-34692438D01*
X128992142Y-34692438D02*
X129039761Y-34740057D01*
X129801666Y-35121009D02*
X129468333Y-35121009D01*
X129468333Y-35644819D02*
X129468333Y-34644819D01*
X129468333Y-34644819D02*
X129944523Y-34644819D01*
X130277857Y-34740057D02*
X130325476Y-34692438D01*
X130325476Y-34692438D02*
X130420714Y-34644819D01*
X130420714Y-34644819D02*
X130658809Y-34644819D01*
X130658809Y-34644819D02*
X130754047Y-34692438D01*
X130754047Y-34692438D02*
X130801666Y-34740057D01*
X130801666Y-34740057D02*
X130849285Y-34835295D01*
X130849285Y-34835295D02*
X130849285Y-34930533D01*
X130849285Y-34930533D02*
X130801666Y-35073390D01*
X130801666Y-35073390D02*
X130230238Y-35644819D01*
X130230238Y-35644819D02*
X130849285Y-35644819D01*
X131022142Y-85504819D02*
X130688809Y-85028628D01*
X130450714Y-85504819D02*
X130450714Y-84504819D01*
X130450714Y-84504819D02*
X130831666Y-84504819D01*
X130831666Y-84504819D02*
X130926904Y-84552438D01*
X130926904Y-84552438D02*
X130974523Y-84600057D01*
X130974523Y-84600057D02*
X131022142Y-84695295D01*
X131022142Y-84695295D02*
X131022142Y-84838152D01*
X131022142Y-84838152D02*
X130974523Y-84933390D01*
X130974523Y-84933390D02*
X130926904Y-84981009D01*
X130926904Y-84981009D02*
X130831666Y-85028628D01*
X130831666Y-85028628D02*
X130450714Y-85028628D01*
X131974523Y-85504819D02*
X131403095Y-85504819D01*
X131688809Y-85504819D02*
X131688809Y-84504819D01*
X131688809Y-84504819D02*
X131593571Y-84647676D01*
X131593571Y-84647676D02*
X131498333Y-84742914D01*
X131498333Y-84742914D02*
X131403095Y-84790533D01*
X132831666Y-84838152D02*
X132831666Y-85504819D01*
X132593571Y-84457200D02*
X132355476Y-85171485D01*
X132355476Y-85171485D02*
X132974523Y-85171485D01*
X135032142Y-88014819D02*
X134698809Y-87538628D01*
X134460714Y-88014819D02*
X134460714Y-87014819D01*
X134460714Y-87014819D02*
X134841666Y-87014819D01*
X134841666Y-87014819D02*
X134936904Y-87062438D01*
X134936904Y-87062438D02*
X134984523Y-87110057D01*
X134984523Y-87110057D02*
X135032142Y-87205295D01*
X135032142Y-87205295D02*
X135032142Y-87348152D01*
X135032142Y-87348152D02*
X134984523Y-87443390D01*
X134984523Y-87443390D02*
X134936904Y-87491009D01*
X134936904Y-87491009D02*
X134841666Y-87538628D01*
X134841666Y-87538628D02*
X134460714Y-87538628D01*
X135413095Y-87110057D02*
X135460714Y-87062438D01*
X135460714Y-87062438D02*
X135555952Y-87014819D01*
X135555952Y-87014819D02*
X135794047Y-87014819D01*
X135794047Y-87014819D02*
X135889285Y-87062438D01*
X135889285Y-87062438D02*
X135936904Y-87110057D01*
X135936904Y-87110057D02*
X135984523Y-87205295D01*
X135984523Y-87205295D02*
X135984523Y-87300533D01*
X135984523Y-87300533D02*
X135936904Y-87443390D01*
X135936904Y-87443390D02*
X135365476Y-88014819D01*
X135365476Y-88014819D02*
X135984523Y-88014819D01*
X136936904Y-88014819D02*
X136365476Y-88014819D01*
X136651190Y-88014819D02*
X136651190Y-87014819D01*
X136651190Y-87014819D02*
X136555952Y-87157676D01*
X136555952Y-87157676D02*
X136460714Y-87252914D01*
X136460714Y-87252914D02*
X136365476Y-87300533D01*
X129039761Y-54949580D02*
X128992142Y-54997200D01*
X128992142Y-54997200D02*
X128849285Y-55044819D01*
X128849285Y-55044819D02*
X128754047Y-55044819D01*
X128754047Y-55044819D02*
X128611190Y-54997200D01*
X128611190Y-54997200D02*
X128515952Y-54901961D01*
X128515952Y-54901961D02*
X128468333Y-54806723D01*
X128468333Y-54806723D02*
X128420714Y-54616247D01*
X128420714Y-54616247D02*
X128420714Y-54473390D01*
X128420714Y-54473390D02*
X128468333Y-54282914D01*
X128468333Y-54282914D02*
X128515952Y-54187676D01*
X128515952Y-54187676D02*
X128611190Y-54092438D01*
X128611190Y-54092438D02*
X128754047Y-54044819D01*
X128754047Y-54044819D02*
X128849285Y-54044819D01*
X128849285Y-54044819D02*
X128992142Y-54092438D01*
X128992142Y-54092438D02*
X129039761Y-54140057D01*
X129801666Y-54521009D02*
X129468333Y-54521009D01*
X129468333Y-55044819D02*
X129468333Y-54044819D01*
X129468333Y-54044819D02*
X129944523Y-54044819D01*
X130801666Y-54044819D02*
X130325476Y-54044819D01*
X130325476Y-54044819D02*
X130277857Y-54521009D01*
X130277857Y-54521009D02*
X130325476Y-54473390D01*
X130325476Y-54473390D02*
X130420714Y-54425771D01*
X130420714Y-54425771D02*
X130658809Y-54425771D01*
X130658809Y-54425771D02*
X130754047Y-54473390D01*
X130754047Y-54473390D02*
X130801666Y-54521009D01*
X130801666Y-54521009D02*
X130849285Y-54616247D01*
X130849285Y-54616247D02*
X130849285Y-54854342D01*
X130849285Y-54854342D02*
X130801666Y-54949580D01*
X130801666Y-54949580D02*
X130754047Y-54997200D01*
X130754047Y-54997200D02*
X130658809Y-55044819D01*
X130658809Y-55044819D02*
X130420714Y-55044819D01*
X130420714Y-55044819D02*
X130325476Y-54997200D01*
X130325476Y-54997200D02*
X130277857Y-54949580D01*
X127012142Y-95544819D02*
X126678809Y-95068628D01*
X126440714Y-95544819D02*
X126440714Y-94544819D01*
X126440714Y-94544819D02*
X126821666Y-94544819D01*
X126821666Y-94544819D02*
X126916904Y-94592438D01*
X126916904Y-94592438D02*
X126964523Y-94640057D01*
X126964523Y-94640057D02*
X127012142Y-94735295D01*
X127012142Y-94735295D02*
X127012142Y-94878152D01*
X127012142Y-94878152D02*
X126964523Y-94973390D01*
X126964523Y-94973390D02*
X126916904Y-95021009D01*
X126916904Y-95021009D02*
X126821666Y-95068628D01*
X126821666Y-95068628D02*
X126440714Y-95068628D01*
X127964523Y-95544819D02*
X127393095Y-95544819D01*
X127678809Y-95544819D02*
X127678809Y-94544819D01*
X127678809Y-94544819D02*
X127583571Y-94687676D01*
X127583571Y-94687676D02*
X127488333Y-94782914D01*
X127488333Y-94782914D02*
X127393095Y-94830533D01*
X128345476Y-94640057D02*
X128393095Y-94592438D01*
X128393095Y-94592438D02*
X128488333Y-94544819D01*
X128488333Y-94544819D02*
X128726428Y-94544819D01*
X128726428Y-94544819D02*
X128821666Y-94592438D01*
X128821666Y-94592438D02*
X128869285Y-94640057D01*
X128869285Y-94640057D02*
X128916904Y-94735295D01*
X128916904Y-94735295D02*
X128916904Y-94830533D01*
X128916904Y-94830533D02*
X128869285Y-94973390D01*
X128869285Y-94973390D02*
X128297857Y-95544819D01*
X128297857Y-95544819D02*
X128916904Y-95544819D01*
X143238095Y-68806819D02*
X143809523Y-68806819D01*
X143523809Y-69806819D02*
X143523809Y-68806819D01*
X144142857Y-69806819D02*
X144142857Y-68806819D01*
X144142857Y-68806819D02*
X144523809Y-68806819D01*
X144523809Y-68806819D02*
X144619047Y-68854438D01*
X144619047Y-68854438D02*
X144666666Y-68902057D01*
X144666666Y-68902057D02*
X144714285Y-68997295D01*
X144714285Y-68997295D02*
X144714285Y-69140152D01*
X144714285Y-69140152D02*
X144666666Y-69235390D01*
X144666666Y-69235390D02*
X144619047Y-69283009D01*
X144619047Y-69283009D02*
X144523809Y-69330628D01*
X144523809Y-69330628D02*
X144142857Y-69330628D01*
X145095238Y-68902057D02*
X145142857Y-68854438D01*
X145142857Y-68854438D02*
X145238095Y-68806819D01*
X145238095Y-68806819D02*
X145476190Y-68806819D01*
X145476190Y-68806819D02*
X145571428Y-68854438D01*
X145571428Y-68854438D02*
X145619047Y-68902057D01*
X145619047Y-68902057D02*
X145666666Y-68997295D01*
X145666666Y-68997295D02*
X145666666Y-69092533D01*
X145666666Y-69092533D02*
X145619047Y-69235390D01*
X145619047Y-69235390D02*
X145047619Y-69806819D01*
X145047619Y-69806819D02*
X145666666Y-69806819D01*
X105503095Y-88054819D02*
X105503095Y-88864342D01*
X105503095Y-88864342D02*
X105550714Y-88959580D01*
X105550714Y-88959580D02*
X105598333Y-89007200D01*
X105598333Y-89007200D02*
X105693571Y-89054819D01*
X105693571Y-89054819D02*
X105884047Y-89054819D01*
X105884047Y-89054819D02*
X105979285Y-89007200D01*
X105979285Y-89007200D02*
X106026904Y-88959580D01*
X106026904Y-88959580D02*
X106074523Y-88864342D01*
X106074523Y-88864342D02*
X106074523Y-88054819D01*
X106455476Y-88054819D02*
X107074523Y-88054819D01*
X107074523Y-88054819D02*
X106741190Y-88435771D01*
X106741190Y-88435771D02*
X106884047Y-88435771D01*
X106884047Y-88435771D02*
X106979285Y-88483390D01*
X106979285Y-88483390D02*
X107026904Y-88531009D01*
X107026904Y-88531009D02*
X107074523Y-88626247D01*
X107074523Y-88626247D02*
X107074523Y-88864342D01*
X107074523Y-88864342D02*
X107026904Y-88959580D01*
X107026904Y-88959580D02*
X106979285Y-89007200D01*
X106979285Y-89007200D02*
X106884047Y-89054819D01*
X106884047Y-89054819D02*
X106598333Y-89054819D01*
X106598333Y-89054819D02*
X106503095Y-89007200D01*
X106503095Y-89007200D02*
X106455476Y-88959580D01*
X132122142Y-76879580D02*
X132074523Y-76927200D01*
X132074523Y-76927200D02*
X131931666Y-76974819D01*
X131931666Y-76974819D02*
X131836428Y-76974819D01*
X131836428Y-76974819D02*
X131693571Y-76927200D01*
X131693571Y-76927200D02*
X131598333Y-76831961D01*
X131598333Y-76831961D02*
X131550714Y-76736723D01*
X131550714Y-76736723D02*
X131503095Y-76546247D01*
X131503095Y-76546247D02*
X131503095Y-76403390D01*
X131503095Y-76403390D02*
X131550714Y-76212914D01*
X131550714Y-76212914D02*
X131598333Y-76117676D01*
X131598333Y-76117676D02*
X131693571Y-76022438D01*
X131693571Y-76022438D02*
X131836428Y-75974819D01*
X131836428Y-75974819D02*
X131931666Y-75974819D01*
X131931666Y-75974819D02*
X132074523Y-76022438D01*
X132074523Y-76022438D02*
X132122142Y-76070057D01*
X133074523Y-76974819D02*
X132503095Y-76974819D01*
X132788809Y-76974819D02*
X132788809Y-75974819D01*
X132788809Y-75974819D02*
X132693571Y-76117676D01*
X132693571Y-76117676D02*
X132598333Y-76212914D01*
X132598333Y-76212914D02*
X132503095Y-76260533D01*
X133407857Y-75974819D02*
X134026904Y-75974819D01*
X134026904Y-75974819D02*
X133693571Y-76355771D01*
X133693571Y-76355771D02*
X133836428Y-76355771D01*
X133836428Y-76355771D02*
X133931666Y-76403390D01*
X133931666Y-76403390D02*
X133979285Y-76451009D01*
X133979285Y-76451009D02*
X134026904Y-76546247D01*
X134026904Y-76546247D02*
X134026904Y-76784342D01*
X134026904Y-76784342D02*
X133979285Y-76879580D01*
X133979285Y-76879580D02*
X133931666Y-76927200D01*
X133931666Y-76927200D02*
X133836428Y-76974819D01*
X133836428Y-76974819D02*
X133550714Y-76974819D01*
X133550714Y-76974819D02*
X133455476Y-76927200D01*
X133455476Y-76927200D02*
X133407857Y-76879580D01*
X143238095Y-64256819D02*
X143809523Y-64256819D01*
X143523809Y-65256819D02*
X143523809Y-64256819D01*
X144142857Y-65256819D02*
X144142857Y-64256819D01*
X144142857Y-64256819D02*
X144523809Y-64256819D01*
X144523809Y-64256819D02*
X144619047Y-64304438D01*
X144619047Y-64304438D02*
X144666666Y-64352057D01*
X144666666Y-64352057D02*
X144714285Y-64447295D01*
X144714285Y-64447295D02*
X144714285Y-64590152D01*
X144714285Y-64590152D02*
X144666666Y-64685390D01*
X144666666Y-64685390D02*
X144619047Y-64733009D01*
X144619047Y-64733009D02*
X144523809Y-64780628D01*
X144523809Y-64780628D02*
X144142857Y-64780628D01*
X145666666Y-65256819D02*
X145095238Y-65256819D01*
X145380952Y-65256819D02*
X145380952Y-64256819D01*
X145380952Y-64256819D02*
X145285714Y-64399676D01*
X145285714Y-64399676D02*
X145190476Y-64494914D01*
X145190476Y-64494914D02*
X145095238Y-64542533D01*
X80001666Y-70144819D02*
X80001666Y-70859104D01*
X80001666Y-70859104D02*
X79954047Y-71001961D01*
X79954047Y-71001961D02*
X79858809Y-71097200D01*
X79858809Y-71097200D02*
X79715952Y-71144819D01*
X79715952Y-71144819D02*
X79620714Y-71144819D01*
X80430238Y-70240057D02*
X80477857Y-70192438D01*
X80477857Y-70192438D02*
X80573095Y-70144819D01*
X80573095Y-70144819D02*
X80811190Y-70144819D01*
X80811190Y-70144819D02*
X80906428Y-70192438D01*
X80906428Y-70192438D02*
X80954047Y-70240057D01*
X80954047Y-70240057D02*
X81001666Y-70335295D01*
X81001666Y-70335295D02*
X81001666Y-70430533D01*
X81001666Y-70430533D02*
X80954047Y-70573390D01*
X80954047Y-70573390D02*
X80382619Y-71144819D01*
X80382619Y-71144819D02*
X81001666Y-71144819D01*
X129039761Y-27549580D02*
X128992142Y-27597200D01*
X128992142Y-27597200D02*
X128849285Y-27644819D01*
X128849285Y-27644819D02*
X128754047Y-27644819D01*
X128754047Y-27644819D02*
X128611190Y-27597200D01*
X128611190Y-27597200D02*
X128515952Y-27501961D01*
X128515952Y-27501961D02*
X128468333Y-27406723D01*
X128468333Y-27406723D02*
X128420714Y-27216247D01*
X128420714Y-27216247D02*
X128420714Y-27073390D01*
X128420714Y-27073390D02*
X128468333Y-26882914D01*
X128468333Y-26882914D02*
X128515952Y-26787676D01*
X128515952Y-26787676D02*
X128611190Y-26692438D01*
X128611190Y-26692438D02*
X128754047Y-26644819D01*
X128754047Y-26644819D02*
X128849285Y-26644819D01*
X128849285Y-26644819D02*
X128992142Y-26692438D01*
X128992142Y-26692438D02*
X129039761Y-26740057D01*
X129801666Y-27121009D02*
X129468333Y-27121009D01*
X129468333Y-27644819D02*
X129468333Y-26644819D01*
X129468333Y-26644819D02*
X129944523Y-26644819D01*
X130849285Y-27644819D02*
X130277857Y-27644819D01*
X130563571Y-27644819D02*
X130563571Y-26644819D01*
X130563571Y-26644819D02*
X130468333Y-26787676D01*
X130468333Y-26787676D02*
X130373095Y-26882914D01*
X130373095Y-26882914D02*
X130277857Y-26930533D01*
X114148333Y-88959580D02*
X114100714Y-89007200D01*
X114100714Y-89007200D02*
X113957857Y-89054819D01*
X113957857Y-89054819D02*
X113862619Y-89054819D01*
X113862619Y-89054819D02*
X113719762Y-89007200D01*
X113719762Y-89007200D02*
X113624524Y-88911961D01*
X113624524Y-88911961D02*
X113576905Y-88816723D01*
X113576905Y-88816723D02*
X113529286Y-88626247D01*
X113529286Y-88626247D02*
X113529286Y-88483390D01*
X113529286Y-88483390D02*
X113576905Y-88292914D01*
X113576905Y-88292914D02*
X113624524Y-88197676D01*
X113624524Y-88197676D02*
X113719762Y-88102438D01*
X113719762Y-88102438D02*
X113862619Y-88054819D01*
X113862619Y-88054819D02*
X113957857Y-88054819D01*
X113957857Y-88054819D02*
X114100714Y-88102438D01*
X114100714Y-88102438D02*
X114148333Y-88150057D01*
X114529286Y-88150057D02*
X114576905Y-88102438D01*
X114576905Y-88102438D02*
X114672143Y-88054819D01*
X114672143Y-88054819D02*
X114910238Y-88054819D01*
X114910238Y-88054819D02*
X115005476Y-88102438D01*
X115005476Y-88102438D02*
X115053095Y-88150057D01*
X115053095Y-88150057D02*
X115100714Y-88245295D01*
X115100714Y-88245295D02*
X115100714Y-88340533D01*
X115100714Y-88340533D02*
X115053095Y-88483390D01*
X115053095Y-88483390D02*
X114481667Y-89054819D01*
X114481667Y-89054819D02*
X115100714Y-89054819D01*
X137323095Y-44294819D02*
X137323095Y-43294819D01*
X137323095Y-43771009D02*
X137894523Y-43771009D01*
X137894523Y-44294819D02*
X137894523Y-43294819D01*
X138275476Y-43294819D02*
X138894523Y-43294819D01*
X138894523Y-43294819D02*
X138561190Y-43675771D01*
X138561190Y-43675771D02*
X138704047Y-43675771D01*
X138704047Y-43675771D02*
X138799285Y-43723390D01*
X138799285Y-43723390D02*
X138846904Y-43771009D01*
X138846904Y-43771009D02*
X138894523Y-43866247D01*
X138894523Y-43866247D02*
X138894523Y-44104342D01*
X138894523Y-44104342D02*
X138846904Y-44199580D01*
X138846904Y-44199580D02*
X138799285Y-44247200D01*
X138799285Y-44247200D02*
X138704047Y-44294819D01*
X138704047Y-44294819D02*
X138418333Y-44294819D01*
X138418333Y-44294819D02*
X138323095Y-44247200D01*
X138323095Y-44247200D02*
X138275476Y-44199580D01*
X136572142Y-73869580D02*
X136524523Y-73917200D01*
X136524523Y-73917200D02*
X136381666Y-73964819D01*
X136381666Y-73964819D02*
X136286428Y-73964819D01*
X136286428Y-73964819D02*
X136143571Y-73917200D01*
X136143571Y-73917200D02*
X136048333Y-73821961D01*
X136048333Y-73821961D02*
X136000714Y-73726723D01*
X136000714Y-73726723D02*
X135953095Y-73536247D01*
X135953095Y-73536247D02*
X135953095Y-73393390D01*
X135953095Y-73393390D02*
X136000714Y-73202914D01*
X136000714Y-73202914D02*
X136048333Y-73107676D01*
X136048333Y-73107676D02*
X136143571Y-73012438D01*
X136143571Y-73012438D02*
X136286428Y-72964819D01*
X136286428Y-72964819D02*
X136381666Y-72964819D01*
X136381666Y-72964819D02*
X136524523Y-73012438D01*
X136524523Y-73012438D02*
X136572142Y-73060057D01*
X137524523Y-73964819D02*
X136953095Y-73964819D01*
X137238809Y-73964819D02*
X137238809Y-72964819D01*
X137238809Y-72964819D02*
X137143571Y-73107676D01*
X137143571Y-73107676D02*
X137048333Y-73202914D01*
X137048333Y-73202914D02*
X136953095Y-73250533D01*
X138381666Y-72964819D02*
X138191190Y-72964819D01*
X138191190Y-72964819D02*
X138095952Y-73012438D01*
X138095952Y-73012438D02*
X138048333Y-73060057D01*
X138048333Y-73060057D02*
X137953095Y-73202914D01*
X137953095Y-73202914D02*
X137905476Y-73393390D01*
X137905476Y-73393390D02*
X137905476Y-73774342D01*
X137905476Y-73774342D02*
X137953095Y-73869580D01*
X137953095Y-73869580D02*
X138000714Y-73917200D01*
X138000714Y-73917200D02*
X138095952Y-73964819D01*
X138095952Y-73964819D02*
X138286428Y-73964819D01*
X138286428Y-73964819D02*
X138381666Y-73917200D01*
X138381666Y-73917200D02*
X138429285Y-73869580D01*
X138429285Y-73869580D02*
X138476904Y-73774342D01*
X138476904Y-73774342D02*
X138476904Y-73536247D01*
X138476904Y-73536247D02*
X138429285Y-73441009D01*
X138429285Y-73441009D02*
X138381666Y-73393390D01*
X138381666Y-73393390D02*
X138286428Y-73345771D01*
X138286428Y-73345771D02*
X138095952Y-73345771D01*
X138095952Y-73345771D02*
X138000714Y-73393390D01*
X138000714Y-73393390D02*
X137953095Y-73441009D01*
X137953095Y-73441009D02*
X137905476Y-73536247D01*
X128148333Y-76879580D02*
X128100714Y-76927200D01*
X128100714Y-76927200D02*
X127957857Y-76974819D01*
X127957857Y-76974819D02*
X127862619Y-76974819D01*
X127862619Y-76974819D02*
X127719762Y-76927200D01*
X127719762Y-76927200D02*
X127624524Y-76831961D01*
X127624524Y-76831961D02*
X127576905Y-76736723D01*
X127576905Y-76736723D02*
X127529286Y-76546247D01*
X127529286Y-76546247D02*
X127529286Y-76403390D01*
X127529286Y-76403390D02*
X127576905Y-76212914D01*
X127576905Y-76212914D02*
X127624524Y-76117676D01*
X127624524Y-76117676D02*
X127719762Y-76022438D01*
X127719762Y-76022438D02*
X127862619Y-75974819D01*
X127862619Y-75974819D02*
X127957857Y-75974819D01*
X127957857Y-75974819D02*
X128100714Y-76022438D01*
X128100714Y-76022438D02*
X128148333Y-76070057D01*
X128624524Y-76974819D02*
X128815000Y-76974819D01*
X128815000Y-76974819D02*
X128910238Y-76927200D01*
X128910238Y-76927200D02*
X128957857Y-76879580D01*
X128957857Y-76879580D02*
X129053095Y-76736723D01*
X129053095Y-76736723D02*
X129100714Y-76546247D01*
X129100714Y-76546247D02*
X129100714Y-76165295D01*
X129100714Y-76165295D02*
X129053095Y-76070057D01*
X129053095Y-76070057D02*
X129005476Y-76022438D01*
X129005476Y-76022438D02*
X128910238Y-75974819D01*
X128910238Y-75974819D02*
X128719762Y-75974819D01*
X128719762Y-75974819D02*
X128624524Y-76022438D01*
X128624524Y-76022438D02*
X128576905Y-76070057D01*
X128576905Y-76070057D02*
X128529286Y-76165295D01*
X128529286Y-76165295D02*
X128529286Y-76403390D01*
X128529286Y-76403390D02*
X128576905Y-76498628D01*
X128576905Y-76498628D02*
X128624524Y-76546247D01*
X128624524Y-76546247D02*
X128719762Y-76593866D01*
X128719762Y-76593866D02*
X128910238Y-76593866D01*
X128910238Y-76593866D02*
X129005476Y-76546247D01*
X129005476Y-76546247D02*
X129053095Y-76498628D01*
X129053095Y-76498628D02*
X129100714Y-76403390D01*
X127012142Y-90524819D02*
X126678809Y-90048628D01*
X126440714Y-90524819D02*
X126440714Y-89524819D01*
X126440714Y-89524819D02*
X126821666Y-89524819D01*
X126821666Y-89524819D02*
X126916904Y-89572438D01*
X126916904Y-89572438D02*
X126964523Y-89620057D01*
X126964523Y-89620057D02*
X127012142Y-89715295D01*
X127012142Y-89715295D02*
X127012142Y-89858152D01*
X127012142Y-89858152D02*
X126964523Y-89953390D01*
X126964523Y-89953390D02*
X126916904Y-90001009D01*
X126916904Y-90001009D02*
X126821666Y-90048628D01*
X126821666Y-90048628D02*
X126440714Y-90048628D01*
X127964523Y-90524819D02*
X127393095Y-90524819D01*
X127678809Y-90524819D02*
X127678809Y-89524819D01*
X127678809Y-89524819D02*
X127583571Y-89667676D01*
X127583571Y-89667676D02*
X127488333Y-89762914D01*
X127488333Y-89762914D02*
X127393095Y-89810533D01*
X128583571Y-89524819D02*
X128678809Y-89524819D01*
X128678809Y-89524819D02*
X128774047Y-89572438D01*
X128774047Y-89572438D02*
X128821666Y-89620057D01*
X128821666Y-89620057D02*
X128869285Y-89715295D01*
X128869285Y-89715295D02*
X128916904Y-89905771D01*
X128916904Y-89905771D02*
X128916904Y-90143866D01*
X128916904Y-90143866D02*
X128869285Y-90334342D01*
X128869285Y-90334342D02*
X128821666Y-90429580D01*
X128821666Y-90429580D02*
X128774047Y-90477200D01*
X128774047Y-90477200D02*
X128678809Y-90524819D01*
X128678809Y-90524819D02*
X128583571Y-90524819D01*
X128583571Y-90524819D02*
X128488333Y-90477200D01*
X128488333Y-90477200D02*
X128440714Y-90429580D01*
X128440714Y-90429580D02*
X128393095Y-90334342D01*
X128393095Y-90334342D02*
X128345476Y-90143866D01*
X128345476Y-90143866D02*
X128345476Y-89905771D01*
X128345476Y-89905771D02*
X128393095Y-89715295D01*
X128393095Y-89715295D02*
X128440714Y-89620057D01*
X128440714Y-89620057D02*
X128488333Y-89572438D01*
X128488333Y-89572438D02*
X128583571Y-89524819D01*
X131022142Y-88014819D02*
X130688809Y-87538628D01*
X130450714Y-88014819D02*
X130450714Y-87014819D01*
X130450714Y-87014819D02*
X130831666Y-87014819D01*
X130831666Y-87014819D02*
X130926904Y-87062438D01*
X130926904Y-87062438D02*
X130974523Y-87110057D01*
X130974523Y-87110057D02*
X131022142Y-87205295D01*
X131022142Y-87205295D02*
X131022142Y-87348152D01*
X131022142Y-87348152D02*
X130974523Y-87443390D01*
X130974523Y-87443390D02*
X130926904Y-87491009D01*
X130926904Y-87491009D02*
X130831666Y-87538628D01*
X130831666Y-87538628D02*
X130450714Y-87538628D01*
X131974523Y-88014819D02*
X131403095Y-88014819D01*
X131688809Y-88014819D02*
X131688809Y-87014819D01*
X131688809Y-87014819D02*
X131593571Y-87157676D01*
X131593571Y-87157676D02*
X131498333Y-87252914D01*
X131498333Y-87252914D02*
X131403095Y-87300533D01*
X132879285Y-87014819D02*
X132403095Y-87014819D01*
X132403095Y-87014819D02*
X132355476Y-87491009D01*
X132355476Y-87491009D02*
X132403095Y-87443390D01*
X132403095Y-87443390D02*
X132498333Y-87395771D01*
X132498333Y-87395771D02*
X132736428Y-87395771D01*
X132736428Y-87395771D02*
X132831666Y-87443390D01*
X132831666Y-87443390D02*
X132879285Y-87491009D01*
X132879285Y-87491009D02*
X132926904Y-87586247D01*
X132926904Y-87586247D02*
X132926904Y-87824342D01*
X132926904Y-87824342D02*
X132879285Y-87919580D01*
X132879285Y-87919580D02*
X132831666Y-87967200D01*
X132831666Y-87967200D02*
X132736428Y-88014819D01*
X132736428Y-88014819D02*
X132498333Y-88014819D01*
X132498333Y-88014819D02*
X132403095Y-87967200D01*
X132403095Y-87967200D02*
X132355476Y-87919580D01*
X136572142Y-70859580D02*
X136524523Y-70907200D01*
X136524523Y-70907200D02*
X136381666Y-70954819D01*
X136381666Y-70954819D02*
X136286428Y-70954819D01*
X136286428Y-70954819D02*
X136143571Y-70907200D01*
X136143571Y-70907200D02*
X136048333Y-70811961D01*
X136048333Y-70811961D02*
X136000714Y-70716723D01*
X136000714Y-70716723D02*
X135953095Y-70526247D01*
X135953095Y-70526247D02*
X135953095Y-70383390D01*
X135953095Y-70383390D02*
X136000714Y-70192914D01*
X136000714Y-70192914D02*
X136048333Y-70097676D01*
X136048333Y-70097676D02*
X136143571Y-70002438D01*
X136143571Y-70002438D02*
X136286428Y-69954819D01*
X136286428Y-69954819D02*
X136381666Y-69954819D01*
X136381666Y-69954819D02*
X136524523Y-70002438D01*
X136524523Y-70002438D02*
X136572142Y-70050057D01*
X137524523Y-70954819D02*
X136953095Y-70954819D01*
X137238809Y-70954819D02*
X137238809Y-69954819D01*
X137238809Y-69954819D02*
X137143571Y-70097676D01*
X137143571Y-70097676D02*
X137048333Y-70192914D01*
X137048333Y-70192914D02*
X136953095Y-70240533D01*
X138429285Y-69954819D02*
X137953095Y-69954819D01*
X137953095Y-69954819D02*
X137905476Y-70431009D01*
X137905476Y-70431009D02*
X137953095Y-70383390D01*
X137953095Y-70383390D02*
X138048333Y-70335771D01*
X138048333Y-70335771D02*
X138286428Y-70335771D01*
X138286428Y-70335771D02*
X138381666Y-70383390D01*
X138381666Y-70383390D02*
X138429285Y-70431009D01*
X138429285Y-70431009D02*
X138476904Y-70526247D01*
X138476904Y-70526247D02*
X138476904Y-70764342D01*
X138476904Y-70764342D02*
X138429285Y-70859580D01*
X138429285Y-70859580D02*
X138381666Y-70907200D01*
X138381666Y-70907200D02*
X138286428Y-70954819D01*
X138286428Y-70954819D02*
X138048333Y-70954819D01*
X138048333Y-70954819D02*
X137953095Y-70907200D01*
X137953095Y-70907200D02*
X137905476Y-70859580D01*
X135008333Y-90524819D02*
X134675000Y-90048628D01*
X134436905Y-90524819D02*
X134436905Y-89524819D01*
X134436905Y-89524819D02*
X134817857Y-89524819D01*
X134817857Y-89524819D02*
X134913095Y-89572438D01*
X134913095Y-89572438D02*
X134960714Y-89620057D01*
X134960714Y-89620057D02*
X135008333Y-89715295D01*
X135008333Y-89715295D02*
X135008333Y-89858152D01*
X135008333Y-89858152D02*
X134960714Y-89953390D01*
X134960714Y-89953390D02*
X134913095Y-90001009D01*
X134913095Y-90001009D02*
X134817857Y-90048628D01*
X134817857Y-90048628D02*
X134436905Y-90048628D01*
X136008333Y-90429580D02*
X135960714Y-90477200D01*
X135960714Y-90477200D02*
X135817857Y-90524819D01*
X135817857Y-90524819D02*
X135722619Y-90524819D01*
X135722619Y-90524819D02*
X135579762Y-90477200D01*
X135579762Y-90477200D02*
X135484524Y-90381961D01*
X135484524Y-90381961D02*
X135436905Y-90286723D01*
X135436905Y-90286723D02*
X135389286Y-90096247D01*
X135389286Y-90096247D02*
X135389286Y-89953390D01*
X135389286Y-89953390D02*
X135436905Y-89762914D01*
X135436905Y-89762914D02*
X135484524Y-89667676D01*
X135484524Y-89667676D02*
X135579762Y-89572438D01*
X135579762Y-89572438D02*
X135722619Y-89524819D01*
X135722619Y-89524819D02*
X135817857Y-89524819D01*
X135817857Y-89524819D02*
X135960714Y-89572438D01*
X135960714Y-89572438D02*
X136008333Y-89620057D01*
X136960714Y-90524819D02*
X136389286Y-90524819D01*
X136675000Y-90524819D02*
X136675000Y-89524819D01*
X136675000Y-89524819D02*
X136579762Y-89667676D01*
X136579762Y-89667676D02*
X136484524Y-89762914D01*
X136484524Y-89762914D02*
X136389286Y-89810533D01*
X79677856Y-42444819D02*
X79344523Y-41968628D01*
X79106428Y-42444819D02*
X79106428Y-41444819D01*
X79106428Y-41444819D02*
X79487380Y-41444819D01*
X79487380Y-41444819D02*
X79582618Y-41492438D01*
X79582618Y-41492438D02*
X79630237Y-41540057D01*
X79630237Y-41540057D02*
X79677856Y-41635295D01*
X79677856Y-41635295D02*
X79677856Y-41778152D01*
X79677856Y-41778152D02*
X79630237Y-41873390D01*
X79630237Y-41873390D02*
X79582618Y-41921009D01*
X79582618Y-41921009D02*
X79487380Y-41968628D01*
X79487380Y-41968628D02*
X79106428Y-41968628D01*
X80106428Y-41921009D02*
X80439761Y-41921009D01*
X80582618Y-42444819D02*
X80106428Y-42444819D01*
X80106428Y-42444819D02*
X80106428Y-41444819D01*
X80106428Y-41444819D02*
X80582618Y-41444819D01*
X81011190Y-42444819D02*
X81011190Y-41444819D01*
X81011190Y-41444819D02*
X81392142Y-41444819D01*
X81392142Y-41444819D02*
X81487380Y-41492438D01*
X81487380Y-41492438D02*
X81534999Y-41540057D01*
X81534999Y-41540057D02*
X81582618Y-41635295D01*
X81582618Y-41635295D02*
X81582618Y-41778152D01*
X81582618Y-41778152D02*
X81534999Y-41873390D01*
X81534999Y-41873390D02*
X81487380Y-41921009D01*
X81487380Y-41921009D02*
X81392142Y-41968628D01*
X81392142Y-41968628D02*
X81011190Y-41968628D01*
X82011190Y-41921009D02*
X82344523Y-41921009D01*
X82487380Y-42444819D02*
X82011190Y-42444819D01*
X82011190Y-42444819D02*
X82011190Y-41444819D01*
X82011190Y-41444819D02*
X82487380Y-41444819D01*
X82868333Y-42159104D02*
X83344523Y-42159104D01*
X82773095Y-42444819D02*
X83106428Y-41444819D01*
X83106428Y-41444819D02*
X83439761Y-42444819D01*
X83630238Y-41444819D02*
X84201666Y-41444819D01*
X83915952Y-42444819D02*
X83915952Y-41444819D01*
X84487381Y-42397200D02*
X84630238Y-42444819D01*
X84630238Y-42444819D02*
X84868333Y-42444819D01*
X84868333Y-42444819D02*
X84963571Y-42397200D01*
X84963571Y-42397200D02*
X85011190Y-42349580D01*
X85011190Y-42349580D02*
X85058809Y-42254342D01*
X85058809Y-42254342D02*
X85058809Y-42159104D01*
X85058809Y-42159104D02*
X85011190Y-42063866D01*
X85011190Y-42063866D02*
X84963571Y-42016247D01*
X84963571Y-42016247D02*
X84868333Y-41968628D01*
X84868333Y-41968628D02*
X84677857Y-41921009D01*
X84677857Y-41921009D02*
X84582619Y-41873390D01*
X84582619Y-41873390D02*
X84535000Y-41825771D01*
X84535000Y-41825771D02*
X84487381Y-41730533D01*
X84487381Y-41730533D02*
X84487381Y-41635295D01*
X84487381Y-41635295D02*
X84535000Y-41540057D01*
X84535000Y-41540057D02*
X84582619Y-41492438D01*
X84582619Y-41492438D02*
X84677857Y-41444819D01*
X84677857Y-41444819D02*
X84915952Y-41444819D01*
X84915952Y-41444819D02*
X85058809Y-41492438D01*
X86011190Y-42444819D02*
X85439762Y-42444819D01*
X85725476Y-42444819D02*
X85725476Y-41444819D01*
X85725476Y-41444819D02*
X85630238Y-41587676D01*
X85630238Y-41587676D02*
X85535000Y-41682914D01*
X85535000Y-41682914D02*
X85439762Y-41730533D01*
X135032142Y-82994819D02*
X134698809Y-82518628D01*
X134460714Y-82994819D02*
X134460714Y-81994819D01*
X134460714Y-81994819D02*
X134841666Y-81994819D01*
X134841666Y-81994819D02*
X134936904Y-82042438D01*
X134936904Y-82042438D02*
X134984523Y-82090057D01*
X134984523Y-82090057D02*
X135032142Y-82185295D01*
X135032142Y-82185295D02*
X135032142Y-82328152D01*
X135032142Y-82328152D02*
X134984523Y-82423390D01*
X134984523Y-82423390D02*
X134936904Y-82471009D01*
X134936904Y-82471009D02*
X134841666Y-82518628D01*
X134841666Y-82518628D02*
X134460714Y-82518628D01*
X135984523Y-82994819D02*
X135413095Y-82994819D01*
X135698809Y-82994819D02*
X135698809Y-81994819D01*
X135698809Y-81994819D02*
X135603571Y-82137676D01*
X135603571Y-82137676D02*
X135508333Y-82232914D01*
X135508333Y-82232914D02*
X135413095Y-82280533D01*
X136460714Y-82994819D02*
X136651190Y-82994819D01*
X136651190Y-82994819D02*
X136746428Y-82947200D01*
X136746428Y-82947200D02*
X136794047Y-82899580D01*
X136794047Y-82899580D02*
X136889285Y-82756723D01*
X136889285Y-82756723D02*
X136936904Y-82566247D01*
X136936904Y-82566247D02*
X136936904Y-82185295D01*
X136936904Y-82185295D02*
X136889285Y-82090057D01*
X136889285Y-82090057D02*
X136841666Y-82042438D01*
X136841666Y-82042438D02*
X136746428Y-81994819D01*
X136746428Y-81994819D02*
X136555952Y-81994819D01*
X136555952Y-81994819D02*
X136460714Y-82042438D01*
X136460714Y-82042438D02*
X136413095Y-82090057D01*
X136413095Y-82090057D02*
X136365476Y-82185295D01*
X136365476Y-82185295D02*
X136365476Y-82423390D01*
X136365476Y-82423390D02*
X136413095Y-82518628D01*
X136413095Y-82518628D02*
X136460714Y-82566247D01*
X136460714Y-82566247D02*
X136555952Y-82613866D01*
X136555952Y-82613866D02*
X136746428Y-82613866D01*
X136746428Y-82613866D02*
X136841666Y-82566247D01*
X136841666Y-82566247D02*
X136889285Y-82518628D01*
X136889285Y-82518628D02*
X136936904Y-82423390D01*
X114148333Y-92309580D02*
X114100714Y-92357200D01*
X114100714Y-92357200D02*
X113957857Y-92404819D01*
X113957857Y-92404819D02*
X113862619Y-92404819D01*
X113862619Y-92404819D02*
X113719762Y-92357200D01*
X113719762Y-92357200D02*
X113624524Y-92261961D01*
X113624524Y-92261961D02*
X113576905Y-92166723D01*
X113576905Y-92166723D02*
X113529286Y-91976247D01*
X113529286Y-91976247D02*
X113529286Y-91833390D01*
X113529286Y-91833390D02*
X113576905Y-91642914D01*
X113576905Y-91642914D02*
X113624524Y-91547676D01*
X113624524Y-91547676D02*
X113719762Y-91452438D01*
X113719762Y-91452438D02*
X113862619Y-91404819D01*
X113862619Y-91404819D02*
X113957857Y-91404819D01*
X113957857Y-91404819D02*
X114100714Y-91452438D01*
X114100714Y-91452438D02*
X114148333Y-91500057D01*
X115005476Y-91404819D02*
X114815000Y-91404819D01*
X114815000Y-91404819D02*
X114719762Y-91452438D01*
X114719762Y-91452438D02*
X114672143Y-91500057D01*
X114672143Y-91500057D02*
X114576905Y-91642914D01*
X114576905Y-91642914D02*
X114529286Y-91833390D01*
X114529286Y-91833390D02*
X114529286Y-92214342D01*
X114529286Y-92214342D02*
X114576905Y-92309580D01*
X114576905Y-92309580D02*
X114624524Y-92357200D01*
X114624524Y-92357200D02*
X114719762Y-92404819D01*
X114719762Y-92404819D02*
X114910238Y-92404819D01*
X114910238Y-92404819D02*
X115005476Y-92357200D01*
X115005476Y-92357200D02*
X115053095Y-92309580D01*
X115053095Y-92309580D02*
X115100714Y-92214342D01*
X115100714Y-92214342D02*
X115100714Y-91976247D01*
X115100714Y-91976247D02*
X115053095Y-91881009D01*
X115053095Y-91881009D02*
X115005476Y-91833390D01*
X115005476Y-91833390D02*
X114910238Y-91785771D01*
X114910238Y-91785771D02*
X114719762Y-91785771D01*
X114719762Y-91785771D02*
X114624524Y-91833390D01*
X114624524Y-91833390D02*
X114576905Y-91881009D01*
X114576905Y-91881009D02*
X114529286Y-91976247D01*
X80511191Y-55794819D02*
X81082619Y-55794819D01*
X80796905Y-56794819D02*
X80796905Y-55794819D01*
X81415953Y-56794819D02*
X81415953Y-55794819D01*
X81892143Y-56794819D02*
X81892143Y-55794819D01*
X81892143Y-55794819D02*
X82225476Y-56509104D01*
X82225476Y-56509104D02*
X82558809Y-55794819D01*
X82558809Y-55794819D02*
X82558809Y-56794819D01*
X83035000Y-56271009D02*
X83368333Y-56271009D01*
X83511190Y-56794819D02*
X83035000Y-56794819D01*
X83035000Y-56794819D02*
X83035000Y-55794819D01*
X83035000Y-55794819D02*
X83511190Y-55794819D01*
X84463571Y-56794819D02*
X83892143Y-56794819D01*
X84177857Y-56794819D02*
X84177857Y-55794819D01*
X84177857Y-55794819D02*
X84082619Y-55937676D01*
X84082619Y-55937676D02*
X83987381Y-56032914D01*
X83987381Y-56032914D02*
X83892143Y-56080533D01*
X136572142Y-79889580D02*
X136524523Y-79937200D01*
X136524523Y-79937200D02*
X136381666Y-79984819D01*
X136381666Y-79984819D02*
X136286428Y-79984819D01*
X136286428Y-79984819D02*
X136143571Y-79937200D01*
X136143571Y-79937200D02*
X136048333Y-79841961D01*
X136048333Y-79841961D02*
X136000714Y-79746723D01*
X136000714Y-79746723D02*
X135953095Y-79556247D01*
X135953095Y-79556247D02*
X135953095Y-79413390D01*
X135953095Y-79413390D02*
X136000714Y-79222914D01*
X136000714Y-79222914D02*
X136048333Y-79127676D01*
X136048333Y-79127676D02*
X136143571Y-79032438D01*
X136143571Y-79032438D02*
X136286428Y-78984819D01*
X136286428Y-78984819D02*
X136381666Y-78984819D01*
X136381666Y-78984819D02*
X136524523Y-79032438D01*
X136524523Y-79032438D02*
X136572142Y-79080057D01*
X137524523Y-79984819D02*
X136953095Y-79984819D01*
X137238809Y-79984819D02*
X137238809Y-78984819D01*
X137238809Y-78984819D02*
X137143571Y-79127676D01*
X137143571Y-79127676D02*
X137048333Y-79222914D01*
X137048333Y-79222914D02*
X136953095Y-79270533D01*
X138095952Y-79413390D02*
X138000714Y-79365771D01*
X138000714Y-79365771D02*
X137953095Y-79318152D01*
X137953095Y-79318152D02*
X137905476Y-79222914D01*
X137905476Y-79222914D02*
X137905476Y-79175295D01*
X137905476Y-79175295D02*
X137953095Y-79080057D01*
X137953095Y-79080057D02*
X138000714Y-79032438D01*
X138000714Y-79032438D02*
X138095952Y-78984819D01*
X138095952Y-78984819D02*
X138286428Y-78984819D01*
X138286428Y-78984819D02*
X138381666Y-79032438D01*
X138381666Y-79032438D02*
X138429285Y-79080057D01*
X138429285Y-79080057D02*
X138476904Y-79175295D01*
X138476904Y-79175295D02*
X138476904Y-79222914D01*
X138476904Y-79222914D02*
X138429285Y-79318152D01*
X138429285Y-79318152D02*
X138381666Y-79365771D01*
X138381666Y-79365771D02*
X138286428Y-79413390D01*
X138286428Y-79413390D02*
X138095952Y-79413390D01*
X138095952Y-79413390D02*
X138000714Y-79461009D01*
X138000714Y-79461009D02*
X137953095Y-79508628D01*
X137953095Y-79508628D02*
X137905476Y-79603866D01*
X137905476Y-79603866D02*
X137905476Y-79794342D01*
X137905476Y-79794342D02*
X137953095Y-79889580D01*
X137953095Y-79889580D02*
X138000714Y-79937200D01*
X138000714Y-79937200D02*
X138095952Y-79984819D01*
X138095952Y-79984819D02*
X138286428Y-79984819D01*
X138286428Y-79984819D02*
X138381666Y-79937200D01*
X138381666Y-79937200D02*
X138429285Y-79889580D01*
X138429285Y-79889580D02*
X138476904Y-79794342D01*
X138476904Y-79794342D02*
X138476904Y-79603866D01*
X138476904Y-79603866D02*
X138429285Y-79508628D01*
X138429285Y-79508628D02*
X138381666Y-79461009D01*
X138381666Y-79461009D02*
X138286428Y-79413390D01*
X131022142Y-82994819D02*
X130688809Y-82518628D01*
X130450714Y-82994819D02*
X130450714Y-81994819D01*
X130450714Y-81994819D02*
X130831666Y-81994819D01*
X130831666Y-81994819D02*
X130926904Y-82042438D01*
X130926904Y-82042438D02*
X130974523Y-82090057D01*
X130974523Y-82090057D02*
X131022142Y-82185295D01*
X131022142Y-82185295D02*
X131022142Y-82328152D01*
X131022142Y-82328152D02*
X130974523Y-82423390D01*
X130974523Y-82423390D02*
X130926904Y-82471009D01*
X130926904Y-82471009D02*
X130831666Y-82518628D01*
X130831666Y-82518628D02*
X130450714Y-82518628D01*
X131974523Y-82994819D02*
X131403095Y-82994819D01*
X131688809Y-82994819D02*
X131688809Y-81994819D01*
X131688809Y-81994819D02*
X131593571Y-82137676D01*
X131593571Y-82137676D02*
X131498333Y-82232914D01*
X131498333Y-82232914D02*
X131403095Y-82280533D01*
X132307857Y-81994819D02*
X132926904Y-81994819D01*
X132926904Y-81994819D02*
X132593571Y-82375771D01*
X132593571Y-82375771D02*
X132736428Y-82375771D01*
X132736428Y-82375771D02*
X132831666Y-82423390D01*
X132831666Y-82423390D02*
X132879285Y-82471009D01*
X132879285Y-82471009D02*
X132926904Y-82566247D01*
X132926904Y-82566247D02*
X132926904Y-82804342D01*
X132926904Y-82804342D02*
X132879285Y-82899580D01*
X132879285Y-82899580D02*
X132831666Y-82947200D01*
X132831666Y-82947200D02*
X132736428Y-82994819D01*
X132736428Y-82994819D02*
X132450714Y-82994819D01*
X132450714Y-82994819D02*
X132355476Y-82947200D01*
X132355476Y-82947200D02*
X132307857Y-82899580D01*
X80630237Y-28094819D02*
X80154047Y-28094819D01*
X80154047Y-28094819D02*
X80154047Y-27094819D01*
X80963571Y-27571009D02*
X81296904Y-27571009D01*
X81439761Y-28094819D02*
X80963571Y-28094819D01*
X80963571Y-28094819D02*
X80963571Y-27094819D01*
X80963571Y-27094819D02*
X81439761Y-27094819D01*
X81725476Y-27094819D02*
X82058809Y-28094819D01*
X82058809Y-28094819D02*
X82392142Y-27094819D01*
X82725476Y-27571009D02*
X83058809Y-27571009D01*
X83201666Y-28094819D02*
X82725476Y-28094819D01*
X82725476Y-28094819D02*
X82725476Y-27094819D01*
X82725476Y-27094819D02*
X83201666Y-27094819D01*
X84106428Y-28094819D02*
X83630238Y-28094819D01*
X83630238Y-28094819D02*
X83630238Y-27094819D01*
X84963571Y-28094819D02*
X84392143Y-28094819D01*
X84677857Y-28094819D02*
X84677857Y-27094819D01*
X84677857Y-27094819D02*
X84582619Y-27237676D01*
X84582619Y-27237676D02*
X84487381Y-27332914D01*
X84487381Y-27332914D02*
X84392143Y-27380533D01*
X129039761Y-49249580D02*
X128992142Y-49297200D01*
X128992142Y-49297200D02*
X128849285Y-49344819D01*
X128849285Y-49344819D02*
X128754047Y-49344819D01*
X128754047Y-49344819D02*
X128611190Y-49297200D01*
X128611190Y-49297200D02*
X128515952Y-49201961D01*
X128515952Y-49201961D02*
X128468333Y-49106723D01*
X128468333Y-49106723D02*
X128420714Y-48916247D01*
X128420714Y-48916247D02*
X128420714Y-48773390D01*
X128420714Y-48773390D02*
X128468333Y-48582914D01*
X128468333Y-48582914D02*
X128515952Y-48487676D01*
X128515952Y-48487676D02*
X128611190Y-48392438D01*
X128611190Y-48392438D02*
X128754047Y-48344819D01*
X128754047Y-48344819D02*
X128849285Y-48344819D01*
X128849285Y-48344819D02*
X128992142Y-48392438D01*
X128992142Y-48392438D02*
X129039761Y-48440057D01*
X129801666Y-48821009D02*
X129468333Y-48821009D01*
X129468333Y-49344819D02*
X129468333Y-48344819D01*
X129468333Y-48344819D02*
X129944523Y-48344819D01*
X130754047Y-48678152D02*
X130754047Y-49344819D01*
X130515952Y-48297200D02*
X130277857Y-49011485D01*
X130277857Y-49011485D02*
X130896904Y-49011485D01*
X123478333Y-95544819D02*
X123145000Y-95068628D01*
X122906905Y-95544819D02*
X122906905Y-94544819D01*
X122906905Y-94544819D02*
X123287857Y-94544819D01*
X123287857Y-94544819D02*
X123383095Y-94592438D01*
X123383095Y-94592438D02*
X123430714Y-94640057D01*
X123430714Y-94640057D02*
X123478333Y-94735295D01*
X123478333Y-94735295D02*
X123478333Y-94878152D01*
X123478333Y-94878152D02*
X123430714Y-94973390D01*
X123430714Y-94973390D02*
X123383095Y-95021009D01*
X123383095Y-95021009D02*
X123287857Y-95068628D01*
X123287857Y-95068628D02*
X122906905Y-95068628D01*
X124335476Y-94544819D02*
X124145000Y-94544819D01*
X124145000Y-94544819D02*
X124049762Y-94592438D01*
X124049762Y-94592438D02*
X124002143Y-94640057D01*
X124002143Y-94640057D02*
X123906905Y-94782914D01*
X123906905Y-94782914D02*
X123859286Y-94973390D01*
X123859286Y-94973390D02*
X123859286Y-95354342D01*
X123859286Y-95354342D02*
X123906905Y-95449580D01*
X123906905Y-95449580D02*
X123954524Y-95497200D01*
X123954524Y-95497200D02*
X124049762Y-95544819D01*
X124049762Y-95544819D02*
X124240238Y-95544819D01*
X124240238Y-95544819D02*
X124335476Y-95497200D01*
X124335476Y-95497200D02*
X124383095Y-95449580D01*
X124383095Y-95449580D02*
X124430714Y-95354342D01*
X124430714Y-95354342D02*
X124430714Y-95116247D01*
X124430714Y-95116247D02*
X124383095Y-95021009D01*
X124383095Y-95021009D02*
X124335476Y-94973390D01*
X124335476Y-94973390D02*
X124240238Y-94925771D01*
X124240238Y-94925771D02*
X124049762Y-94925771D01*
X124049762Y-94925771D02*
X123954524Y-94973390D01*
X123954524Y-94973390D02*
X123906905Y-95021009D01*
X123906905Y-95021009D02*
X123859286Y-95116247D01*
X137323095Y-36344819D02*
X137323095Y-35344819D01*
X137323095Y-35821009D02*
X137894523Y-35821009D01*
X137894523Y-36344819D02*
X137894523Y-35344819D01*
X138323095Y-35440057D02*
X138370714Y-35392438D01*
X138370714Y-35392438D02*
X138465952Y-35344819D01*
X138465952Y-35344819D02*
X138704047Y-35344819D01*
X138704047Y-35344819D02*
X138799285Y-35392438D01*
X138799285Y-35392438D02*
X138846904Y-35440057D01*
X138846904Y-35440057D02*
X138894523Y-35535295D01*
X138894523Y-35535295D02*
X138894523Y-35630533D01*
X138894523Y-35630533D02*
X138846904Y-35773390D01*
X138846904Y-35773390D02*
X138275476Y-36344819D01*
X138275476Y-36344819D02*
X138894523Y-36344819D01*
X104251666Y-48374819D02*
X104251666Y-49089104D01*
X104251666Y-49089104D02*
X104204047Y-49231961D01*
X104204047Y-49231961D02*
X104108809Y-49327200D01*
X104108809Y-49327200D02*
X103965952Y-49374819D01*
X103965952Y-49374819D02*
X103870714Y-49374819D01*
X105204047Y-48374819D02*
X104727857Y-48374819D01*
X104727857Y-48374819D02*
X104680238Y-48851009D01*
X104680238Y-48851009D02*
X104727857Y-48803390D01*
X104727857Y-48803390D02*
X104823095Y-48755771D01*
X104823095Y-48755771D02*
X105061190Y-48755771D01*
X105061190Y-48755771D02*
X105156428Y-48803390D01*
X105156428Y-48803390D02*
X105204047Y-48851009D01*
X105204047Y-48851009D02*
X105251666Y-48946247D01*
X105251666Y-48946247D02*
X105251666Y-49184342D01*
X105251666Y-49184342D02*
X105204047Y-49279580D01*
X105204047Y-49279580D02*
X105156428Y-49327200D01*
X105156428Y-49327200D02*
X105061190Y-49374819D01*
X105061190Y-49374819D02*
X104823095Y-49374819D01*
X104823095Y-49374819D02*
X104727857Y-49327200D01*
X104727857Y-49327200D02*
X104680238Y-49279580D01*
X123698333Y-76879580D02*
X123650714Y-76927200D01*
X123650714Y-76927200D02*
X123507857Y-76974819D01*
X123507857Y-76974819D02*
X123412619Y-76974819D01*
X123412619Y-76974819D02*
X123269762Y-76927200D01*
X123269762Y-76927200D02*
X123174524Y-76831961D01*
X123174524Y-76831961D02*
X123126905Y-76736723D01*
X123126905Y-76736723D02*
X123079286Y-76546247D01*
X123079286Y-76546247D02*
X123079286Y-76403390D01*
X123079286Y-76403390D02*
X123126905Y-76212914D01*
X123126905Y-76212914D02*
X123174524Y-76117676D01*
X123174524Y-76117676D02*
X123269762Y-76022438D01*
X123269762Y-76022438D02*
X123412619Y-75974819D01*
X123412619Y-75974819D02*
X123507857Y-75974819D01*
X123507857Y-75974819D02*
X123650714Y-76022438D01*
X123650714Y-76022438D02*
X123698333Y-76070057D01*
X124555476Y-76308152D02*
X124555476Y-76974819D01*
X124317381Y-75927200D02*
X124079286Y-76641485D01*
X124079286Y-76641485D02*
X124698333Y-76641485D01*
X127488333Y-85504819D02*
X127155000Y-85028628D01*
X126916905Y-85504819D02*
X126916905Y-84504819D01*
X126916905Y-84504819D02*
X127297857Y-84504819D01*
X127297857Y-84504819D02*
X127393095Y-84552438D01*
X127393095Y-84552438D02*
X127440714Y-84600057D01*
X127440714Y-84600057D02*
X127488333Y-84695295D01*
X127488333Y-84695295D02*
X127488333Y-84838152D01*
X127488333Y-84838152D02*
X127440714Y-84933390D01*
X127440714Y-84933390D02*
X127393095Y-84981009D01*
X127393095Y-84981009D02*
X127297857Y-85028628D01*
X127297857Y-85028628D02*
X126916905Y-85028628D01*
X128059762Y-84933390D02*
X127964524Y-84885771D01*
X127964524Y-84885771D02*
X127916905Y-84838152D01*
X127916905Y-84838152D02*
X127869286Y-84742914D01*
X127869286Y-84742914D02*
X127869286Y-84695295D01*
X127869286Y-84695295D02*
X127916905Y-84600057D01*
X127916905Y-84600057D02*
X127964524Y-84552438D01*
X127964524Y-84552438D02*
X128059762Y-84504819D01*
X128059762Y-84504819D02*
X128250238Y-84504819D01*
X128250238Y-84504819D02*
X128345476Y-84552438D01*
X128345476Y-84552438D02*
X128393095Y-84600057D01*
X128393095Y-84600057D02*
X128440714Y-84695295D01*
X128440714Y-84695295D02*
X128440714Y-84742914D01*
X128440714Y-84742914D02*
X128393095Y-84838152D01*
X128393095Y-84838152D02*
X128345476Y-84885771D01*
X128345476Y-84885771D02*
X128250238Y-84933390D01*
X128250238Y-84933390D02*
X128059762Y-84933390D01*
X128059762Y-84933390D02*
X127964524Y-84981009D01*
X127964524Y-84981009D02*
X127916905Y-85028628D01*
X127916905Y-85028628D02*
X127869286Y-85123866D01*
X127869286Y-85123866D02*
X127869286Y-85314342D01*
X127869286Y-85314342D02*
X127916905Y-85409580D01*
X127916905Y-85409580D02*
X127964524Y-85457200D01*
X127964524Y-85457200D02*
X128059762Y-85504819D01*
X128059762Y-85504819D02*
X128250238Y-85504819D01*
X128250238Y-85504819D02*
X128345476Y-85457200D01*
X128345476Y-85457200D02*
X128393095Y-85409580D01*
X128393095Y-85409580D02*
X128440714Y-85314342D01*
X128440714Y-85314342D02*
X128440714Y-85123866D01*
X128440714Y-85123866D02*
X128393095Y-85028628D01*
X128393095Y-85028628D02*
X128345476Y-84981009D01*
X128345476Y-84981009D02*
X128250238Y-84933390D01*
X123478333Y-90524819D02*
X123145000Y-90048628D01*
X122906905Y-90524819D02*
X122906905Y-89524819D01*
X122906905Y-89524819D02*
X123287857Y-89524819D01*
X123287857Y-89524819D02*
X123383095Y-89572438D01*
X123383095Y-89572438D02*
X123430714Y-89620057D01*
X123430714Y-89620057D02*
X123478333Y-89715295D01*
X123478333Y-89715295D02*
X123478333Y-89858152D01*
X123478333Y-89858152D02*
X123430714Y-89953390D01*
X123430714Y-89953390D02*
X123383095Y-90001009D01*
X123383095Y-90001009D02*
X123287857Y-90048628D01*
X123287857Y-90048628D02*
X122906905Y-90048628D01*
X124335476Y-89858152D02*
X124335476Y-90524819D01*
X124097381Y-89477200D02*
X123859286Y-90191485D01*
X123859286Y-90191485D02*
X124478333Y-90191485D01*
X135032142Y-85504819D02*
X134698809Y-85028628D01*
X134460714Y-85504819D02*
X134460714Y-84504819D01*
X134460714Y-84504819D02*
X134841666Y-84504819D01*
X134841666Y-84504819D02*
X134936904Y-84552438D01*
X134936904Y-84552438D02*
X134984523Y-84600057D01*
X134984523Y-84600057D02*
X135032142Y-84695295D01*
X135032142Y-84695295D02*
X135032142Y-84838152D01*
X135032142Y-84838152D02*
X134984523Y-84933390D01*
X134984523Y-84933390D02*
X134936904Y-84981009D01*
X134936904Y-84981009D02*
X134841666Y-85028628D01*
X134841666Y-85028628D02*
X134460714Y-85028628D01*
X135413095Y-84600057D02*
X135460714Y-84552438D01*
X135460714Y-84552438D02*
X135555952Y-84504819D01*
X135555952Y-84504819D02*
X135794047Y-84504819D01*
X135794047Y-84504819D02*
X135889285Y-84552438D01*
X135889285Y-84552438D02*
X135936904Y-84600057D01*
X135936904Y-84600057D02*
X135984523Y-84695295D01*
X135984523Y-84695295D02*
X135984523Y-84790533D01*
X135984523Y-84790533D02*
X135936904Y-84933390D01*
X135936904Y-84933390D02*
X135365476Y-85504819D01*
X135365476Y-85504819D02*
X135984523Y-85504819D01*
X136603571Y-84504819D02*
X136698809Y-84504819D01*
X136698809Y-84504819D02*
X136794047Y-84552438D01*
X136794047Y-84552438D02*
X136841666Y-84600057D01*
X136841666Y-84600057D02*
X136889285Y-84695295D01*
X136889285Y-84695295D02*
X136936904Y-84885771D01*
X136936904Y-84885771D02*
X136936904Y-85123866D01*
X136936904Y-85123866D02*
X136889285Y-85314342D01*
X136889285Y-85314342D02*
X136841666Y-85409580D01*
X136841666Y-85409580D02*
X136794047Y-85457200D01*
X136794047Y-85457200D02*
X136698809Y-85504819D01*
X136698809Y-85504819D02*
X136603571Y-85504819D01*
X136603571Y-85504819D02*
X136508333Y-85457200D01*
X136508333Y-85457200D02*
X136460714Y-85409580D01*
X136460714Y-85409580D02*
X136413095Y-85314342D01*
X136413095Y-85314342D02*
X136365476Y-85123866D01*
X136365476Y-85123866D02*
X136365476Y-84885771D01*
X136365476Y-84885771D02*
X136413095Y-84695295D01*
X136413095Y-84695295D02*
X136460714Y-84600057D01*
X136460714Y-84600057D02*
X136508333Y-84552438D01*
X136508333Y-84552438D02*
X136603571Y-84504819D01*
X123698333Y-73869580D02*
X123650714Y-73917200D01*
X123650714Y-73917200D02*
X123507857Y-73964819D01*
X123507857Y-73964819D02*
X123412619Y-73964819D01*
X123412619Y-73964819D02*
X123269762Y-73917200D01*
X123269762Y-73917200D02*
X123174524Y-73821961D01*
X123174524Y-73821961D02*
X123126905Y-73726723D01*
X123126905Y-73726723D02*
X123079286Y-73536247D01*
X123079286Y-73536247D02*
X123079286Y-73393390D01*
X123079286Y-73393390D02*
X123126905Y-73202914D01*
X123126905Y-73202914D02*
X123174524Y-73107676D01*
X123174524Y-73107676D02*
X123269762Y-73012438D01*
X123269762Y-73012438D02*
X123412619Y-72964819D01*
X123412619Y-72964819D02*
X123507857Y-72964819D01*
X123507857Y-72964819D02*
X123650714Y-73012438D01*
X123650714Y-73012438D02*
X123698333Y-73060057D01*
X124031667Y-72964819D02*
X124650714Y-72964819D01*
X124650714Y-72964819D02*
X124317381Y-73345771D01*
X124317381Y-73345771D02*
X124460238Y-73345771D01*
X124460238Y-73345771D02*
X124555476Y-73393390D01*
X124555476Y-73393390D02*
X124603095Y-73441009D01*
X124603095Y-73441009D02*
X124650714Y-73536247D01*
X124650714Y-73536247D02*
X124650714Y-73774342D01*
X124650714Y-73774342D02*
X124603095Y-73869580D01*
X124603095Y-73869580D02*
X124555476Y-73917200D01*
X124555476Y-73917200D02*
X124460238Y-73964819D01*
X124460238Y-73964819D02*
X124174524Y-73964819D01*
X124174524Y-73964819D02*
X124079286Y-73917200D01*
X124079286Y-73917200D02*
X124031667Y-73869580D01*
X132122142Y-73869580D02*
X132074523Y-73917200D01*
X132074523Y-73917200D02*
X131931666Y-73964819D01*
X131931666Y-73964819D02*
X131836428Y-73964819D01*
X131836428Y-73964819D02*
X131693571Y-73917200D01*
X131693571Y-73917200D02*
X131598333Y-73821961D01*
X131598333Y-73821961D02*
X131550714Y-73726723D01*
X131550714Y-73726723D02*
X131503095Y-73536247D01*
X131503095Y-73536247D02*
X131503095Y-73393390D01*
X131503095Y-73393390D02*
X131550714Y-73202914D01*
X131550714Y-73202914D02*
X131598333Y-73107676D01*
X131598333Y-73107676D02*
X131693571Y-73012438D01*
X131693571Y-73012438D02*
X131836428Y-72964819D01*
X131836428Y-72964819D02*
X131931666Y-72964819D01*
X131931666Y-72964819D02*
X132074523Y-73012438D01*
X132074523Y-73012438D02*
X132122142Y-73060057D01*
X133074523Y-73964819D02*
X132503095Y-73964819D01*
X132788809Y-73964819D02*
X132788809Y-72964819D01*
X132788809Y-72964819D02*
X132693571Y-73107676D01*
X132693571Y-73107676D02*
X132598333Y-73202914D01*
X132598333Y-73202914D02*
X132503095Y-73250533D01*
X133455476Y-73060057D02*
X133503095Y-73012438D01*
X133503095Y-73012438D02*
X133598333Y-72964819D01*
X133598333Y-72964819D02*
X133836428Y-72964819D01*
X133836428Y-72964819D02*
X133931666Y-73012438D01*
X133931666Y-73012438D02*
X133979285Y-73060057D01*
X133979285Y-73060057D02*
X134026904Y-73155295D01*
X134026904Y-73155295D02*
X134026904Y-73250533D01*
X134026904Y-73250533D02*
X133979285Y-73393390D01*
X133979285Y-73393390D02*
X133407857Y-73964819D01*
X133407857Y-73964819D02*
X134026904Y-73964819D01*
X129039761Y-42399580D02*
X128992142Y-42447200D01*
X128992142Y-42447200D02*
X128849285Y-42494819D01*
X128849285Y-42494819D02*
X128754047Y-42494819D01*
X128754047Y-42494819D02*
X128611190Y-42447200D01*
X128611190Y-42447200D02*
X128515952Y-42351961D01*
X128515952Y-42351961D02*
X128468333Y-42256723D01*
X128468333Y-42256723D02*
X128420714Y-42066247D01*
X128420714Y-42066247D02*
X128420714Y-41923390D01*
X128420714Y-41923390D02*
X128468333Y-41732914D01*
X128468333Y-41732914D02*
X128515952Y-41637676D01*
X128515952Y-41637676D02*
X128611190Y-41542438D01*
X128611190Y-41542438D02*
X128754047Y-41494819D01*
X128754047Y-41494819D02*
X128849285Y-41494819D01*
X128849285Y-41494819D02*
X128992142Y-41542438D01*
X128992142Y-41542438D02*
X129039761Y-41590057D01*
X129801666Y-41971009D02*
X129468333Y-41971009D01*
X129468333Y-42494819D02*
X129468333Y-41494819D01*
X129468333Y-41494819D02*
X129944523Y-41494819D01*
X130230238Y-41494819D02*
X130849285Y-41494819D01*
X130849285Y-41494819D02*
X130515952Y-41875771D01*
X130515952Y-41875771D02*
X130658809Y-41875771D01*
X130658809Y-41875771D02*
X130754047Y-41923390D01*
X130754047Y-41923390D02*
X130801666Y-41971009D01*
X130801666Y-41971009D02*
X130849285Y-42066247D01*
X130849285Y-42066247D02*
X130849285Y-42304342D01*
X130849285Y-42304342D02*
X130801666Y-42399580D01*
X130801666Y-42399580D02*
X130754047Y-42447200D01*
X130754047Y-42447200D02*
X130658809Y-42494819D01*
X130658809Y-42494819D02*
X130373095Y-42494819D01*
X130373095Y-42494819D02*
X130277857Y-42447200D01*
X130277857Y-42447200D02*
X130230238Y-42399580D01*
X127488333Y-82994819D02*
X127155000Y-82518628D01*
X126916905Y-82994819D02*
X126916905Y-81994819D01*
X126916905Y-81994819D02*
X127297857Y-81994819D01*
X127297857Y-81994819D02*
X127393095Y-82042438D01*
X127393095Y-82042438D02*
X127440714Y-82090057D01*
X127440714Y-82090057D02*
X127488333Y-82185295D01*
X127488333Y-82185295D02*
X127488333Y-82328152D01*
X127488333Y-82328152D02*
X127440714Y-82423390D01*
X127440714Y-82423390D02*
X127393095Y-82471009D01*
X127393095Y-82471009D02*
X127297857Y-82518628D01*
X127297857Y-82518628D02*
X126916905Y-82518628D01*
X127821667Y-81994819D02*
X128488333Y-81994819D01*
X128488333Y-81994819D02*
X128059762Y-82994819D01*
X127012142Y-93034819D02*
X126678809Y-92558628D01*
X126440714Y-93034819D02*
X126440714Y-92034819D01*
X126440714Y-92034819D02*
X126821666Y-92034819D01*
X126821666Y-92034819D02*
X126916904Y-92082438D01*
X126916904Y-92082438D02*
X126964523Y-92130057D01*
X126964523Y-92130057D02*
X127012142Y-92225295D01*
X127012142Y-92225295D02*
X127012142Y-92368152D01*
X127012142Y-92368152D02*
X126964523Y-92463390D01*
X126964523Y-92463390D02*
X126916904Y-92511009D01*
X126916904Y-92511009D02*
X126821666Y-92558628D01*
X126821666Y-92558628D02*
X126440714Y-92558628D01*
X127964523Y-93034819D02*
X127393095Y-93034819D01*
X127678809Y-93034819D02*
X127678809Y-92034819D01*
X127678809Y-92034819D02*
X127583571Y-92177676D01*
X127583571Y-92177676D02*
X127488333Y-92272914D01*
X127488333Y-92272914D02*
X127393095Y-92320533D01*
X128916904Y-93034819D02*
X128345476Y-93034819D01*
X128631190Y-93034819D02*
X128631190Y-92034819D01*
X128631190Y-92034819D02*
X128535952Y-92177676D01*
X128535952Y-92177676D02*
X128440714Y-92272914D01*
X128440714Y-92272914D02*
X128345476Y-92320533D01*
X123698333Y-70859580D02*
X123650714Y-70907200D01*
X123650714Y-70907200D02*
X123507857Y-70954819D01*
X123507857Y-70954819D02*
X123412619Y-70954819D01*
X123412619Y-70954819D02*
X123269762Y-70907200D01*
X123269762Y-70907200D02*
X123174524Y-70811961D01*
X123174524Y-70811961D02*
X123126905Y-70716723D01*
X123126905Y-70716723D02*
X123079286Y-70526247D01*
X123079286Y-70526247D02*
X123079286Y-70383390D01*
X123079286Y-70383390D02*
X123126905Y-70192914D01*
X123126905Y-70192914D02*
X123174524Y-70097676D01*
X123174524Y-70097676D02*
X123269762Y-70002438D01*
X123269762Y-70002438D02*
X123412619Y-69954819D01*
X123412619Y-69954819D02*
X123507857Y-69954819D01*
X123507857Y-69954819D02*
X123650714Y-70002438D01*
X123650714Y-70002438D02*
X123698333Y-70050057D01*
X124650714Y-70954819D02*
X124079286Y-70954819D01*
X124365000Y-70954819D02*
X124365000Y-69954819D01*
X124365000Y-69954819D02*
X124269762Y-70097676D01*
X124269762Y-70097676D02*
X124174524Y-70192914D01*
X124174524Y-70192914D02*
X124079286Y-70240533D01*
X123698333Y-79889580D02*
X123650714Y-79937200D01*
X123650714Y-79937200D02*
X123507857Y-79984819D01*
X123507857Y-79984819D02*
X123412619Y-79984819D01*
X123412619Y-79984819D02*
X123269762Y-79937200D01*
X123269762Y-79937200D02*
X123174524Y-79841961D01*
X123174524Y-79841961D02*
X123126905Y-79746723D01*
X123126905Y-79746723D02*
X123079286Y-79556247D01*
X123079286Y-79556247D02*
X123079286Y-79413390D01*
X123079286Y-79413390D02*
X123126905Y-79222914D01*
X123126905Y-79222914D02*
X123174524Y-79127676D01*
X123174524Y-79127676D02*
X123269762Y-79032438D01*
X123269762Y-79032438D02*
X123412619Y-78984819D01*
X123412619Y-78984819D02*
X123507857Y-78984819D01*
X123507857Y-78984819D02*
X123650714Y-79032438D01*
X123650714Y-79032438D02*
X123698333Y-79080057D01*
X124603095Y-78984819D02*
X124126905Y-78984819D01*
X124126905Y-78984819D02*
X124079286Y-79461009D01*
X124079286Y-79461009D02*
X124126905Y-79413390D01*
X124126905Y-79413390D02*
X124222143Y-79365771D01*
X124222143Y-79365771D02*
X124460238Y-79365771D01*
X124460238Y-79365771D02*
X124555476Y-79413390D01*
X124555476Y-79413390D02*
X124603095Y-79461009D01*
X124603095Y-79461009D02*
X124650714Y-79556247D01*
X124650714Y-79556247D02*
X124650714Y-79794342D01*
X124650714Y-79794342D02*
X124603095Y-79889580D01*
X124603095Y-79889580D02*
X124555476Y-79937200D01*
X124555476Y-79937200D02*
X124460238Y-79984819D01*
X124460238Y-79984819D02*
X124222143Y-79984819D01*
X124222143Y-79984819D02*
X124126905Y-79937200D01*
X124126905Y-79937200D02*
X124079286Y-79889580D01*
X128148333Y-70859580D02*
X128100714Y-70907200D01*
X128100714Y-70907200D02*
X127957857Y-70954819D01*
X127957857Y-70954819D02*
X127862619Y-70954819D01*
X127862619Y-70954819D02*
X127719762Y-70907200D01*
X127719762Y-70907200D02*
X127624524Y-70811961D01*
X127624524Y-70811961D02*
X127576905Y-70716723D01*
X127576905Y-70716723D02*
X127529286Y-70526247D01*
X127529286Y-70526247D02*
X127529286Y-70383390D01*
X127529286Y-70383390D02*
X127576905Y-70192914D01*
X127576905Y-70192914D02*
X127624524Y-70097676D01*
X127624524Y-70097676D02*
X127719762Y-70002438D01*
X127719762Y-70002438D02*
X127862619Y-69954819D01*
X127862619Y-69954819D02*
X127957857Y-69954819D01*
X127957857Y-69954819D02*
X128100714Y-70002438D01*
X128100714Y-70002438D02*
X128148333Y-70050057D01*
X128481667Y-69954819D02*
X129148333Y-69954819D01*
X129148333Y-69954819D02*
X128719762Y-70954819D01*
X137323095Y-28394819D02*
X137323095Y-27394819D01*
X137323095Y-27871009D02*
X137894523Y-27871009D01*
X137894523Y-28394819D02*
X137894523Y-27394819D01*
X138894523Y-28394819D02*
X138323095Y-28394819D01*
X138608809Y-28394819D02*
X138608809Y-27394819D01*
X138608809Y-27394819D02*
X138513571Y-27537676D01*
X138513571Y-27537676D02*
X138418333Y-27632914D01*
X138418333Y-27632914D02*
X138323095Y-27680533D01*
X132122142Y-70859580D02*
X132074523Y-70907200D01*
X132074523Y-70907200D02*
X131931666Y-70954819D01*
X131931666Y-70954819D02*
X131836428Y-70954819D01*
X131836428Y-70954819D02*
X131693571Y-70907200D01*
X131693571Y-70907200D02*
X131598333Y-70811961D01*
X131598333Y-70811961D02*
X131550714Y-70716723D01*
X131550714Y-70716723D02*
X131503095Y-70526247D01*
X131503095Y-70526247D02*
X131503095Y-70383390D01*
X131503095Y-70383390D02*
X131550714Y-70192914D01*
X131550714Y-70192914D02*
X131598333Y-70097676D01*
X131598333Y-70097676D02*
X131693571Y-70002438D01*
X131693571Y-70002438D02*
X131836428Y-69954819D01*
X131836428Y-69954819D02*
X131931666Y-69954819D01*
X131931666Y-69954819D02*
X132074523Y-70002438D01*
X132074523Y-70002438D02*
X132122142Y-70050057D01*
X133074523Y-70954819D02*
X132503095Y-70954819D01*
X132788809Y-70954819D02*
X132788809Y-69954819D01*
X132788809Y-69954819D02*
X132693571Y-70097676D01*
X132693571Y-70097676D02*
X132598333Y-70192914D01*
X132598333Y-70192914D02*
X132503095Y-70240533D01*
X134026904Y-70954819D02*
X133455476Y-70954819D01*
X133741190Y-70954819D02*
X133741190Y-69954819D01*
X133741190Y-69954819D02*
X133645952Y-70097676D01*
X133645952Y-70097676D02*
X133550714Y-70192914D01*
X133550714Y-70192914D02*
X133455476Y-70240533D01*
X104251666Y-27094819D02*
X104251666Y-27809104D01*
X104251666Y-27809104D02*
X104204047Y-27951961D01*
X104204047Y-27951961D02*
X104108809Y-28047200D01*
X104108809Y-28047200D02*
X103965952Y-28094819D01*
X103965952Y-28094819D02*
X103870714Y-28094819D01*
X105156428Y-27428152D02*
X105156428Y-28094819D01*
X104918333Y-27047200D02*
X104680238Y-27761485D01*
X104680238Y-27761485D02*
X105299285Y-27761485D01*
X127672142Y-79889580D02*
X127624523Y-79937200D01*
X127624523Y-79937200D02*
X127481666Y-79984819D01*
X127481666Y-79984819D02*
X127386428Y-79984819D01*
X127386428Y-79984819D02*
X127243571Y-79937200D01*
X127243571Y-79937200D02*
X127148333Y-79841961D01*
X127148333Y-79841961D02*
X127100714Y-79746723D01*
X127100714Y-79746723D02*
X127053095Y-79556247D01*
X127053095Y-79556247D02*
X127053095Y-79413390D01*
X127053095Y-79413390D02*
X127100714Y-79222914D01*
X127100714Y-79222914D02*
X127148333Y-79127676D01*
X127148333Y-79127676D02*
X127243571Y-79032438D01*
X127243571Y-79032438D02*
X127386428Y-78984819D01*
X127386428Y-78984819D02*
X127481666Y-78984819D01*
X127481666Y-78984819D02*
X127624523Y-79032438D01*
X127624523Y-79032438D02*
X127672142Y-79080057D01*
X128624523Y-79984819D02*
X128053095Y-79984819D01*
X128338809Y-79984819D02*
X128338809Y-78984819D01*
X128338809Y-78984819D02*
X128243571Y-79127676D01*
X128243571Y-79127676D02*
X128148333Y-79222914D01*
X128148333Y-79222914D02*
X128053095Y-79270533D01*
X129243571Y-78984819D02*
X129338809Y-78984819D01*
X129338809Y-78984819D02*
X129434047Y-79032438D01*
X129434047Y-79032438D02*
X129481666Y-79080057D01*
X129481666Y-79080057D02*
X129529285Y-79175295D01*
X129529285Y-79175295D02*
X129576904Y-79365771D01*
X129576904Y-79365771D02*
X129576904Y-79603866D01*
X129576904Y-79603866D02*
X129529285Y-79794342D01*
X129529285Y-79794342D02*
X129481666Y-79889580D01*
X129481666Y-79889580D02*
X129434047Y-79937200D01*
X129434047Y-79937200D02*
X129338809Y-79984819D01*
X129338809Y-79984819D02*
X129243571Y-79984819D01*
X129243571Y-79984819D02*
X129148333Y-79937200D01*
X129148333Y-79937200D02*
X129100714Y-79889580D01*
X129100714Y-79889580D02*
X129053095Y-79794342D01*
X129053095Y-79794342D02*
X129005476Y-79603866D01*
X129005476Y-79603866D02*
X129005476Y-79365771D01*
X129005476Y-79365771D02*
X129053095Y-79175295D01*
X129053095Y-79175295D02*
X129100714Y-79080057D01*
X129100714Y-79080057D02*
X129148333Y-79032438D01*
X129148333Y-79032438D02*
X129243571Y-78984819D01*
X123478333Y-82994819D02*
X123145000Y-82518628D01*
X122906905Y-82994819D02*
X122906905Y-81994819D01*
X122906905Y-81994819D02*
X123287857Y-81994819D01*
X123287857Y-81994819D02*
X123383095Y-82042438D01*
X123383095Y-82042438D02*
X123430714Y-82090057D01*
X123430714Y-82090057D02*
X123478333Y-82185295D01*
X123478333Y-82185295D02*
X123478333Y-82328152D01*
X123478333Y-82328152D02*
X123430714Y-82423390D01*
X123430714Y-82423390D02*
X123383095Y-82471009D01*
X123383095Y-82471009D02*
X123287857Y-82518628D01*
X123287857Y-82518628D02*
X122906905Y-82518628D01*
X124430714Y-82994819D02*
X123859286Y-82994819D01*
X124145000Y-82994819D02*
X124145000Y-81994819D01*
X124145000Y-81994819D02*
X124049762Y-82137676D01*
X124049762Y-82137676D02*
X123954524Y-82232914D01*
X123954524Y-82232914D02*
X123859286Y-82280533D01*
X131022142Y-93034819D02*
X130688809Y-92558628D01*
X130450714Y-93034819D02*
X130450714Y-92034819D01*
X130450714Y-92034819D02*
X130831666Y-92034819D01*
X130831666Y-92034819D02*
X130926904Y-92082438D01*
X130926904Y-92082438D02*
X130974523Y-92130057D01*
X130974523Y-92130057D02*
X131022142Y-92225295D01*
X131022142Y-92225295D02*
X131022142Y-92368152D01*
X131022142Y-92368152D02*
X130974523Y-92463390D01*
X130974523Y-92463390D02*
X130926904Y-92511009D01*
X130926904Y-92511009D02*
X130831666Y-92558628D01*
X130831666Y-92558628D02*
X130450714Y-92558628D01*
X131974523Y-93034819D02*
X131403095Y-93034819D01*
X131688809Y-93034819D02*
X131688809Y-92034819D01*
X131688809Y-92034819D02*
X131593571Y-92177676D01*
X131593571Y-92177676D02*
X131498333Y-92272914D01*
X131498333Y-92272914D02*
X131403095Y-92320533D01*
X132307857Y-92034819D02*
X132974523Y-92034819D01*
X132974523Y-92034819D02*
X132545952Y-93034819D01*
X136291905Y-65514819D02*
X136291905Y-64514819D01*
X136291905Y-64514819D02*
X136530000Y-64514819D01*
X136530000Y-64514819D02*
X136672857Y-64562438D01*
X136672857Y-64562438D02*
X136768095Y-64657676D01*
X136768095Y-64657676D02*
X136815714Y-64752914D01*
X136815714Y-64752914D02*
X136863333Y-64943390D01*
X136863333Y-64943390D02*
X136863333Y-65086247D01*
X136863333Y-65086247D02*
X136815714Y-65276723D01*
X136815714Y-65276723D02*
X136768095Y-65371961D01*
X136768095Y-65371961D02*
X136672857Y-65467200D01*
X136672857Y-65467200D02*
X136530000Y-65514819D01*
X136530000Y-65514819D02*
X136291905Y-65514819D01*
X137768095Y-64514819D02*
X137291905Y-64514819D01*
X137291905Y-64514819D02*
X137244286Y-64991009D01*
X137244286Y-64991009D02*
X137291905Y-64943390D01*
X137291905Y-64943390D02*
X137387143Y-64895771D01*
X137387143Y-64895771D02*
X137625238Y-64895771D01*
X137625238Y-64895771D02*
X137720476Y-64943390D01*
X137720476Y-64943390D02*
X137768095Y-64991009D01*
X137768095Y-64991009D02*
X137815714Y-65086247D01*
X137815714Y-65086247D02*
X137815714Y-65324342D01*
X137815714Y-65324342D02*
X137768095Y-65419580D01*
X137768095Y-65419580D02*
X137720476Y-65467200D01*
X137720476Y-65467200D02*
X137625238Y-65514819D01*
X137625238Y-65514819D02*
X137387143Y-65514819D01*
X137387143Y-65514819D02*
X137291905Y-65467200D01*
X137291905Y-65467200D02*
X137244286Y-65419580D01*
X127488333Y-88014819D02*
X127155000Y-87538628D01*
X126916905Y-88014819D02*
X126916905Y-87014819D01*
X126916905Y-87014819D02*
X127297857Y-87014819D01*
X127297857Y-87014819D02*
X127393095Y-87062438D01*
X127393095Y-87062438D02*
X127440714Y-87110057D01*
X127440714Y-87110057D02*
X127488333Y-87205295D01*
X127488333Y-87205295D02*
X127488333Y-87348152D01*
X127488333Y-87348152D02*
X127440714Y-87443390D01*
X127440714Y-87443390D02*
X127393095Y-87491009D01*
X127393095Y-87491009D02*
X127297857Y-87538628D01*
X127297857Y-87538628D02*
X126916905Y-87538628D01*
X127964524Y-88014819D02*
X128155000Y-88014819D01*
X128155000Y-88014819D02*
X128250238Y-87967200D01*
X128250238Y-87967200D02*
X128297857Y-87919580D01*
X128297857Y-87919580D02*
X128393095Y-87776723D01*
X128393095Y-87776723D02*
X128440714Y-87586247D01*
X128440714Y-87586247D02*
X128440714Y-87205295D01*
X128440714Y-87205295D02*
X128393095Y-87110057D01*
X128393095Y-87110057D02*
X128345476Y-87062438D01*
X128345476Y-87062438D02*
X128250238Y-87014819D01*
X128250238Y-87014819D02*
X128059762Y-87014819D01*
X128059762Y-87014819D02*
X127964524Y-87062438D01*
X127964524Y-87062438D02*
X127916905Y-87110057D01*
X127916905Y-87110057D02*
X127869286Y-87205295D01*
X127869286Y-87205295D02*
X127869286Y-87443390D01*
X127869286Y-87443390D02*
X127916905Y-87538628D01*
X127916905Y-87538628D02*
X127964524Y-87586247D01*
X127964524Y-87586247D02*
X128059762Y-87633866D01*
X128059762Y-87633866D02*
X128250238Y-87633866D01*
X128250238Y-87633866D02*
X128345476Y-87586247D01*
X128345476Y-87586247D02*
X128393095Y-87538628D01*
X128393095Y-87538628D02*
X128440714Y-87443390D01*
D11*
X110728095Y-67234800D02*
X110870952Y-67282419D01*
X110870952Y-67282419D02*
X111109047Y-67282419D01*
X111109047Y-67282419D02*
X111204285Y-67234800D01*
X111204285Y-67234800D02*
X111251904Y-67187180D01*
X111251904Y-67187180D02*
X111299523Y-67091942D01*
X111299523Y-67091942D02*
X111299523Y-66996704D01*
X111299523Y-66996704D02*
X111251904Y-66901466D01*
X111251904Y-66901466D02*
X111204285Y-66853847D01*
X111204285Y-66853847D02*
X111109047Y-66806228D01*
X111109047Y-66806228D02*
X110918571Y-66758609D01*
X110918571Y-66758609D02*
X110823333Y-66710990D01*
X110823333Y-66710990D02*
X110775714Y-66663371D01*
X110775714Y-66663371D02*
X110728095Y-66568133D01*
X110728095Y-66568133D02*
X110728095Y-66472895D01*
X110728095Y-66472895D02*
X110775714Y-66377657D01*
X110775714Y-66377657D02*
X110823333Y-66330038D01*
X110823333Y-66330038D02*
X110918571Y-66282419D01*
X110918571Y-66282419D02*
X111156666Y-66282419D01*
X111156666Y-66282419D02*
X111299523Y-66330038D01*
X112251904Y-67282419D02*
X111680476Y-67282419D01*
X111966190Y-67282419D02*
X111966190Y-66282419D01*
X111966190Y-66282419D02*
X111870952Y-66425276D01*
X111870952Y-66425276D02*
X111775714Y-66520514D01*
X111775714Y-66520514D02*
X111680476Y-66568133D01*
D10*
X123478333Y-85504819D02*
X123145000Y-85028628D01*
X122906905Y-85504819D02*
X122906905Y-84504819D01*
X122906905Y-84504819D02*
X123287857Y-84504819D01*
X123287857Y-84504819D02*
X123383095Y-84552438D01*
X123383095Y-84552438D02*
X123430714Y-84600057D01*
X123430714Y-84600057D02*
X123478333Y-84695295D01*
X123478333Y-84695295D02*
X123478333Y-84838152D01*
X123478333Y-84838152D02*
X123430714Y-84933390D01*
X123430714Y-84933390D02*
X123383095Y-84981009D01*
X123383095Y-84981009D02*
X123287857Y-85028628D01*
X123287857Y-85028628D02*
X122906905Y-85028628D01*
X123859286Y-84600057D02*
X123906905Y-84552438D01*
X123906905Y-84552438D02*
X124002143Y-84504819D01*
X124002143Y-84504819D02*
X124240238Y-84504819D01*
X124240238Y-84504819D02*
X124335476Y-84552438D01*
X124335476Y-84552438D02*
X124383095Y-84600057D01*
X124383095Y-84600057D02*
X124430714Y-84695295D01*
X124430714Y-84695295D02*
X124430714Y-84790533D01*
X124430714Y-84790533D02*
X124383095Y-84933390D01*
X124383095Y-84933390D02*
X123811667Y-85504819D01*
X123811667Y-85504819D02*
X124430714Y-85504819D01*
X131022142Y-95544819D02*
X130688809Y-95068628D01*
X130450714Y-95544819D02*
X130450714Y-94544819D01*
X130450714Y-94544819D02*
X130831666Y-94544819D01*
X130831666Y-94544819D02*
X130926904Y-94592438D01*
X130926904Y-94592438D02*
X130974523Y-94640057D01*
X130974523Y-94640057D02*
X131022142Y-94735295D01*
X131022142Y-94735295D02*
X131022142Y-94878152D01*
X131022142Y-94878152D02*
X130974523Y-94973390D01*
X130974523Y-94973390D02*
X130926904Y-95021009D01*
X130926904Y-95021009D02*
X130831666Y-95068628D01*
X130831666Y-95068628D02*
X130450714Y-95068628D01*
X131974523Y-95544819D02*
X131403095Y-95544819D01*
X131688809Y-95544819D02*
X131688809Y-94544819D01*
X131688809Y-94544819D02*
X131593571Y-94687676D01*
X131593571Y-94687676D02*
X131498333Y-94782914D01*
X131498333Y-94782914D02*
X131403095Y-94830533D01*
X132545952Y-94973390D02*
X132450714Y-94925771D01*
X132450714Y-94925771D02*
X132403095Y-94878152D01*
X132403095Y-94878152D02*
X132355476Y-94782914D01*
X132355476Y-94782914D02*
X132355476Y-94735295D01*
X132355476Y-94735295D02*
X132403095Y-94640057D01*
X132403095Y-94640057D02*
X132450714Y-94592438D01*
X132450714Y-94592438D02*
X132545952Y-94544819D01*
X132545952Y-94544819D02*
X132736428Y-94544819D01*
X132736428Y-94544819D02*
X132831666Y-94592438D01*
X132831666Y-94592438D02*
X132879285Y-94640057D01*
X132879285Y-94640057D02*
X132926904Y-94735295D01*
X132926904Y-94735295D02*
X132926904Y-94782914D01*
X132926904Y-94782914D02*
X132879285Y-94878152D01*
X132879285Y-94878152D02*
X132831666Y-94925771D01*
X132831666Y-94925771D02*
X132736428Y-94973390D01*
X132736428Y-94973390D02*
X132545952Y-94973390D01*
X132545952Y-94973390D02*
X132450714Y-95021009D01*
X132450714Y-95021009D02*
X132403095Y-95068628D01*
X132403095Y-95068628D02*
X132355476Y-95163866D01*
X132355476Y-95163866D02*
X132355476Y-95354342D01*
X132355476Y-95354342D02*
X132403095Y-95449580D01*
X132403095Y-95449580D02*
X132450714Y-95497200D01*
X132450714Y-95497200D02*
X132545952Y-95544819D01*
X132545952Y-95544819D02*
X132736428Y-95544819D01*
X132736428Y-95544819D02*
X132831666Y-95497200D01*
X132831666Y-95497200D02*
X132879285Y-95449580D01*
X132879285Y-95449580D02*
X132926904Y-95354342D01*
X132926904Y-95354342D02*
X132926904Y-95163866D01*
X132926904Y-95163866D02*
X132879285Y-95068628D01*
X132879285Y-95068628D02*
X132831666Y-95021009D01*
X132831666Y-95021009D02*
X132736428Y-94973390D01*
X123478333Y-88014819D02*
X123145000Y-87538628D01*
X122906905Y-88014819D02*
X122906905Y-87014819D01*
X122906905Y-87014819D02*
X123287857Y-87014819D01*
X123287857Y-87014819D02*
X123383095Y-87062438D01*
X123383095Y-87062438D02*
X123430714Y-87110057D01*
X123430714Y-87110057D02*
X123478333Y-87205295D01*
X123478333Y-87205295D02*
X123478333Y-87348152D01*
X123478333Y-87348152D02*
X123430714Y-87443390D01*
X123430714Y-87443390D02*
X123383095Y-87491009D01*
X123383095Y-87491009D02*
X123287857Y-87538628D01*
X123287857Y-87538628D02*
X122906905Y-87538628D01*
X123811667Y-87014819D02*
X124430714Y-87014819D01*
X124430714Y-87014819D02*
X124097381Y-87395771D01*
X124097381Y-87395771D02*
X124240238Y-87395771D01*
X124240238Y-87395771D02*
X124335476Y-87443390D01*
X124335476Y-87443390D02*
X124383095Y-87491009D01*
X124383095Y-87491009D02*
X124430714Y-87586247D01*
X124430714Y-87586247D02*
X124430714Y-87824342D01*
X124430714Y-87824342D02*
X124383095Y-87919580D01*
X124383095Y-87919580D02*
X124335476Y-87967200D01*
X124335476Y-87967200D02*
X124240238Y-88014819D01*
X124240238Y-88014819D02*
X123954524Y-88014819D01*
X123954524Y-88014819D02*
X123859286Y-87967200D01*
X123859286Y-87967200D02*
X123811667Y-87919580D01*
X80963095Y-87039819D02*
X80963095Y-87849342D01*
X80963095Y-87849342D02*
X81010714Y-87944580D01*
X81010714Y-87944580D02*
X81058333Y-87992200D01*
X81058333Y-87992200D02*
X81153571Y-88039819D01*
X81153571Y-88039819D02*
X81344047Y-88039819D01*
X81344047Y-88039819D02*
X81439285Y-87992200D01*
X81439285Y-87992200D02*
X81486904Y-87944580D01*
X81486904Y-87944580D02*
X81534523Y-87849342D01*
X81534523Y-87849342D02*
X81534523Y-87039819D01*
X81963095Y-87135057D02*
X82010714Y-87087438D01*
X82010714Y-87087438D02*
X82105952Y-87039819D01*
X82105952Y-87039819D02*
X82344047Y-87039819D01*
X82344047Y-87039819D02*
X82439285Y-87087438D01*
X82439285Y-87087438D02*
X82486904Y-87135057D01*
X82486904Y-87135057D02*
X82534523Y-87230295D01*
X82534523Y-87230295D02*
X82534523Y-87325533D01*
X82534523Y-87325533D02*
X82486904Y-87468390D01*
X82486904Y-87468390D02*
X81915476Y-88039819D01*
X81915476Y-88039819D02*
X82534523Y-88039819D01*
X128148333Y-73869580D02*
X128100714Y-73917200D01*
X128100714Y-73917200D02*
X127957857Y-73964819D01*
X127957857Y-73964819D02*
X127862619Y-73964819D01*
X127862619Y-73964819D02*
X127719762Y-73917200D01*
X127719762Y-73917200D02*
X127624524Y-73821961D01*
X127624524Y-73821961D02*
X127576905Y-73726723D01*
X127576905Y-73726723D02*
X127529286Y-73536247D01*
X127529286Y-73536247D02*
X127529286Y-73393390D01*
X127529286Y-73393390D02*
X127576905Y-73202914D01*
X127576905Y-73202914D02*
X127624524Y-73107676D01*
X127624524Y-73107676D02*
X127719762Y-73012438D01*
X127719762Y-73012438D02*
X127862619Y-72964819D01*
X127862619Y-72964819D02*
X127957857Y-72964819D01*
X127957857Y-72964819D02*
X128100714Y-73012438D01*
X128100714Y-73012438D02*
X128148333Y-73060057D01*
X128719762Y-73393390D02*
X128624524Y-73345771D01*
X128624524Y-73345771D02*
X128576905Y-73298152D01*
X128576905Y-73298152D02*
X128529286Y-73202914D01*
X128529286Y-73202914D02*
X128529286Y-73155295D01*
X128529286Y-73155295D02*
X128576905Y-73060057D01*
X128576905Y-73060057D02*
X128624524Y-73012438D01*
X128624524Y-73012438D02*
X128719762Y-72964819D01*
X128719762Y-72964819D02*
X128910238Y-72964819D01*
X128910238Y-72964819D02*
X129005476Y-73012438D01*
X129005476Y-73012438D02*
X129053095Y-73060057D01*
X129053095Y-73060057D02*
X129100714Y-73155295D01*
X129100714Y-73155295D02*
X129100714Y-73202914D01*
X129100714Y-73202914D02*
X129053095Y-73298152D01*
X129053095Y-73298152D02*
X129005476Y-73345771D01*
X129005476Y-73345771D02*
X128910238Y-73393390D01*
X128910238Y-73393390D02*
X128719762Y-73393390D01*
X128719762Y-73393390D02*
X128624524Y-73441009D01*
X128624524Y-73441009D02*
X128576905Y-73488628D01*
X128576905Y-73488628D02*
X128529286Y-73583866D01*
X128529286Y-73583866D02*
X128529286Y-73774342D01*
X128529286Y-73774342D02*
X128576905Y-73869580D01*
X128576905Y-73869580D02*
X128624524Y-73917200D01*
X128624524Y-73917200D02*
X128719762Y-73964819D01*
X128719762Y-73964819D02*
X128910238Y-73964819D01*
X128910238Y-73964819D02*
X129005476Y-73917200D01*
X129005476Y-73917200D02*
X129053095Y-73869580D01*
X129053095Y-73869580D02*
X129100714Y-73774342D01*
X129100714Y-73774342D02*
X129100714Y-73583866D01*
X129100714Y-73583866D02*
X129053095Y-73488628D01*
X129053095Y-73488628D02*
X129005476Y-73441009D01*
X129005476Y-73441009D02*
X128910238Y-73393390D01*
X136316905Y-60144819D02*
X136316905Y-59144819D01*
X136316905Y-59144819D02*
X136555000Y-59144819D01*
X136555000Y-59144819D02*
X136697857Y-59192438D01*
X136697857Y-59192438D02*
X136793095Y-59287676D01*
X136793095Y-59287676D02*
X136840714Y-59382914D01*
X136840714Y-59382914D02*
X136888333Y-59573390D01*
X136888333Y-59573390D02*
X136888333Y-59716247D01*
X136888333Y-59716247D02*
X136840714Y-59906723D01*
X136840714Y-59906723D02*
X136793095Y-60001961D01*
X136793095Y-60001961D02*
X136697857Y-60097200D01*
X136697857Y-60097200D02*
X136555000Y-60144819D01*
X136555000Y-60144819D02*
X136316905Y-60144819D01*
X137840714Y-60144819D02*
X137269286Y-60144819D01*
X137555000Y-60144819D02*
X137555000Y-59144819D01*
X137555000Y-59144819D02*
X137459762Y-59287676D01*
X137459762Y-59287676D02*
X137364524Y-59382914D01*
X137364524Y-59382914D02*
X137269286Y-59430533D01*
D12*
%TO.C,U1*%
X94000000Y-74440000D02*
X92050000Y-74440000D01*
X94000000Y-74440000D02*
X95950000Y-74440000D01*
X94000000Y-84560000D02*
X92050000Y-84560000D01*
X94000000Y-84560000D02*
X95950000Y-84560000D01*
X91275000Y-74495000D02*
X91035000Y-74165000D01*
X91515000Y-74165000D01*
X91275000Y-74495000D01*
G36*
X91275000Y-74495000D02*
G01*
X91035000Y-74165000D01*
X91515000Y-74165000D01*
X91275000Y-74495000D01*
G37*
%TO.C,CF6*%
X126635000Y-64230000D02*
X127135000Y-64230000D01*
X126885000Y-63980000D02*
X126885000Y-64480000D01*
X127375000Y-64594437D02*
X127375000Y-64730000D01*
X127375000Y-64594437D02*
X128439437Y-63530000D01*
X127375000Y-66985563D02*
X127375000Y-66850000D01*
X127375000Y-66985563D02*
X128439437Y-68050000D01*
X128439437Y-63530000D02*
X131895000Y-63530000D01*
X128439437Y-68050000D02*
X131895000Y-68050000D01*
X131895000Y-63530000D02*
X131895000Y-64730000D01*
X131895000Y-68050000D02*
X131895000Y-66850000D01*
%TO.C,C14*%
X132503748Y-80475000D02*
X133026252Y-80475000D01*
X132503748Y-81945000D02*
X133026252Y-81945000D01*
%TO.C,R5*%
X123407742Y-93487500D02*
X123882258Y-93487500D01*
X123407742Y-94532500D02*
X123882258Y-94532500D01*
%TO.C,R16*%
X131427742Y-90977500D02*
X131902258Y-90977500D01*
X131427742Y-92022500D02*
X131902258Y-92022500D01*
%TO.C,C17*%
X136953748Y-77465000D02*
X137476252Y-77465000D01*
X136953748Y-78935000D02*
X137476252Y-78935000D01*
%TO.C,CF2*%
X126635000Y-36830000D02*
X127135000Y-36830000D01*
X126885000Y-36580000D02*
X126885000Y-37080000D01*
X127375000Y-37194437D02*
X127375000Y-37330000D01*
X127375000Y-37194437D02*
X128439437Y-36130000D01*
X127375000Y-39585563D02*
X127375000Y-39450000D01*
X127375000Y-39585563D02*
X128439437Y-40650000D01*
X128439437Y-36130000D02*
X131895000Y-36130000D01*
X128439437Y-40650000D02*
X131895000Y-40650000D01*
X131895000Y-36130000D02*
X131895000Y-37330000D01*
X131895000Y-40650000D02*
X131895000Y-39450000D01*
%TO.C,R14*%
X131427742Y-85957500D02*
X131902258Y-85957500D01*
X131427742Y-87002500D02*
X131902258Y-87002500D01*
%TO.C,R21*%
X135437742Y-88467500D02*
X135912258Y-88467500D01*
X135437742Y-89512500D02*
X135912258Y-89512500D01*
%TO.C,CF5*%
X125197500Y-57092500D02*
X125985000Y-57092500D01*
X125591250Y-56698750D02*
X125591250Y-57486250D01*
X126225000Y-56594437D02*
X126225000Y-57880000D01*
X126225000Y-56594437D02*
X127289437Y-55530000D01*
X126225000Y-61285563D02*
X126225000Y-60000000D01*
X126225000Y-61285563D02*
X127289437Y-62350000D01*
X127289437Y-55530000D02*
X133045000Y-55530000D01*
X127289437Y-62350000D02*
X133045000Y-62350000D01*
X133045000Y-55530000D02*
X133045000Y-57880000D01*
X133045000Y-62350000D02*
X133045000Y-60000000D01*
%TO.C,R12*%
X127417742Y-95997500D02*
X127892258Y-95997500D01*
X127417742Y-97042500D02*
X127892258Y-97042500D01*
%TO.C,TP2*%
X143050000Y-70050000D02*
X145950000Y-70050000D01*
X143050000Y-72950000D02*
X143050000Y-70050000D01*
X145950000Y-70050000D02*
X145950000Y-72950000D01*
X145950000Y-72950000D02*
X143050000Y-72950000D01*
%TO.C,U3*%
X103505000Y-89440000D02*
X103505000Y-90185000D01*
X103505000Y-95860000D02*
X103505000Y-95115000D01*
X106265000Y-89440000D02*
X103505000Y-89440000D01*
X106265000Y-89440000D02*
X109025000Y-89440000D01*
X106265000Y-95860000D02*
X103505000Y-95860000D01*
X106265000Y-95860000D02*
X109025000Y-95860000D01*
X109025000Y-89440000D02*
X109025000Y-90185000D01*
X109025000Y-95860000D02*
X109025000Y-95115000D01*
X102715000Y-90185000D02*
X102475000Y-89855000D01*
X102955000Y-89855000D01*
X102715000Y-90185000D01*
G36*
X102715000Y-90185000D02*
G01*
X102475000Y-89855000D01*
X102955000Y-89855000D01*
X102715000Y-90185000D01*
G37*
%TO.C,C13*%
X132503748Y-77465000D02*
X133026252Y-77465000D01*
X132503748Y-78935000D02*
X133026252Y-78935000D01*
%TO.C,TP1*%
X143050000Y-65500000D02*
X145950000Y-65500000D01*
X143050000Y-68400000D02*
X143050000Y-65500000D01*
X145950000Y-65500000D02*
X145950000Y-68400000D01*
X145950000Y-68400000D02*
X143050000Y-68400000D01*
%TO.C,J2*%
X75435000Y-72190000D02*
X75435000Y-73490000D01*
X75735000Y-72490000D02*
X77735000Y-72490000D01*
X75735000Y-86990000D02*
X75735000Y-72490000D01*
X77135000Y-72190000D02*
X75435000Y-72190000D01*
X82935000Y-72490000D02*
X84935000Y-72490000D01*
X84935000Y-72490000D02*
X84935000Y-73790000D01*
X84935000Y-78390000D02*
X84935000Y-86990000D01*
X84935000Y-86990000D02*
X75735000Y-86990000D01*
%TO.C,CF1*%
X125197500Y-29692500D02*
X125985000Y-29692500D01*
X125591250Y-29298750D02*
X125591250Y-30086250D01*
X126225000Y-29194437D02*
X126225000Y-30480000D01*
X126225000Y-29194437D02*
X127289437Y-28130000D01*
X126225000Y-33885563D02*
X126225000Y-32600000D01*
X126225000Y-33885563D02*
X127289437Y-34950000D01*
X127289437Y-28130000D02*
X133045000Y-28130000D01*
X127289437Y-34950000D02*
X133045000Y-34950000D01*
X133045000Y-28130000D02*
X133045000Y-30480000D01*
X133045000Y-34950000D02*
X133045000Y-32600000D01*
%TO.C,C2*%
X113603748Y-89540000D02*
X115026252Y-89540000D01*
X113603748Y-91360000D02*
X115026252Y-91360000D01*
%TO.C,C16*%
X136953748Y-74455000D02*
X137476252Y-74455000D01*
X136953748Y-75925000D02*
X137476252Y-75925000D01*
%TO.C,C9*%
X128053748Y-77465000D02*
X128576252Y-77465000D01*
X128053748Y-78935000D02*
X128576252Y-78935000D01*
%TO.C,R10*%
X127417742Y-90977500D02*
X127892258Y-90977500D01*
X127417742Y-92022500D02*
X127892258Y-92022500D01*
%TO.C,R15*%
X131427742Y-88467500D02*
X131902258Y-88467500D01*
X131427742Y-89512500D02*
X131902258Y-89512500D01*
%TO.C,C15*%
X136953748Y-71445000D02*
X137476252Y-71445000D01*
X136953748Y-72915000D02*
X137476252Y-72915000D01*
%TO.C,RC1*%
X135437742Y-90977500D02*
X135912258Y-90977500D01*
X135437742Y-92022500D02*
X135912258Y-92022500D01*
%TO.C,REPEATS1*%
X77365000Y-44619000D02*
X77365000Y-45940000D01*
X77365000Y-44619000D02*
X81802000Y-44619000D01*
X77365000Y-48390000D02*
X77365000Y-48770000D01*
X77365000Y-50511000D02*
X77365000Y-51270000D01*
X77365000Y-53010000D02*
X77365000Y-54660000D01*
X77365000Y-54660000D02*
X81802000Y-54660000D01*
X86169000Y-44619000D02*
X89605000Y-44619000D01*
X86169000Y-54660000D02*
X89605000Y-54660000D01*
X89605000Y-44619000D02*
X89605000Y-54660000D01*
%TO.C,R19*%
X135437742Y-83447500D02*
X135912258Y-83447500D01*
X135437742Y-84492500D02*
X135912258Y-84492500D01*
%TO.C,C6*%
X113603748Y-92890000D02*
X115026252Y-92890000D01*
X113603748Y-94710000D02*
X115026252Y-94710000D01*
%TO.C,TIME1*%
X77365000Y-58969000D02*
X77365000Y-60290000D01*
X77365000Y-58969000D02*
X81802000Y-58969000D01*
X77365000Y-62740000D02*
X77365000Y-63120000D01*
X77365000Y-64861000D02*
X77365000Y-65620000D01*
X77365000Y-67360000D02*
X77365000Y-69010000D01*
X77365000Y-69010000D02*
X81802000Y-69010000D01*
X86169000Y-58969000D02*
X89605000Y-58969000D01*
X86169000Y-69010000D02*
X89605000Y-69010000D01*
X89605000Y-58969000D02*
X89605000Y-69010000D01*
%TO.C,C18*%
X136953748Y-80475000D02*
X137476252Y-80475000D01*
X136953748Y-81945000D02*
X137476252Y-81945000D01*
%TO.C,R13*%
X131427742Y-83447500D02*
X131902258Y-83447500D01*
X131427742Y-84492500D02*
X131902258Y-84492500D01*
%TO.C,LEVEL1*%
X77365000Y-30269000D02*
X77365000Y-31590000D01*
X77365000Y-30269000D02*
X81802000Y-30269000D01*
X77365000Y-34040000D02*
X77365000Y-34420000D01*
X77365000Y-36161000D02*
X77365000Y-36920000D01*
X77365000Y-38660000D02*
X77365000Y-40310000D01*
X77365000Y-40310000D02*
X81802000Y-40310000D01*
X86169000Y-30269000D02*
X89605000Y-30269000D01*
X86169000Y-40310000D02*
X89605000Y-40310000D01*
X89605000Y-30269000D02*
X89605000Y-40310000D01*
%TO.C,CF4*%
X126635000Y-50530000D02*
X127135000Y-50530000D01*
X126885000Y-50280000D02*
X126885000Y-50780000D01*
X127375000Y-50894437D02*
X127375000Y-51030000D01*
X127375000Y-50894437D02*
X128439437Y-49830000D01*
X127375000Y-53285563D02*
X127375000Y-53150000D01*
X127375000Y-53285563D02*
X128439437Y-54350000D01*
X128439437Y-49830000D02*
X131895000Y-49830000D01*
X128439437Y-54350000D02*
X131895000Y-54350000D01*
X131895000Y-49830000D02*
X131895000Y-51030000D01*
X131895000Y-54350000D02*
X131895000Y-53150000D01*
%TO.C,R6*%
X123407742Y-95997500D02*
X123882258Y-95997500D01*
X123407742Y-97042500D02*
X123882258Y-97042500D01*
%TO.C,J5*%
X91165000Y-55565000D02*
X94165000Y-55565000D01*
X91165000Y-64465000D02*
X91165000Y-55565000D01*
X91165000Y-64505000D02*
X94165000Y-64505000D01*
X94165000Y-50815000D02*
X96885000Y-50815000D01*
X94165000Y-55565000D02*
X94165000Y-50815000D01*
X94165000Y-69255000D02*
X94165000Y-64505000D01*
X96885000Y-69255000D02*
X94165000Y-69255000D01*
X99635000Y-50815000D02*
X103235000Y-50815000D01*
X103235000Y-69255000D02*
X99635000Y-69255000D01*
X105935000Y-50815000D02*
X109535000Y-50815000D01*
X109535000Y-69255000D02*
X105935000Y-69255000D01*
X115405000Y-50815000D02*
X112285000Y-50815000D01*
X115405000Y-54415000D02*
X115405000Y-50815000D01*
X115405000Y-54415000D02*
X124255000Y-54415000D01*
X115405000Y-65655000D02*
X124255000Y-65655000D01*
X115405000Y-69255000D02*
X112285000Y-69255000D01*
X115405000Y-69255000D02*
X115405000Y-65655000D01*
X124255000Y-65655000D02*
X124255000Y-54415000D01*
%TO.C,C4*%
X123603748Y-77465000D02*
X124126252Y-77465000D01*
X123603748Y-78935000D02*
X124126252Y-78935000D01*
%TO.C,R8*%
X127417742Y-85957500D02*
X127892258Y-85957500D01*
X127417742Y-87002500D02*
X127892258Y-87002500D01*
%TO.C,R4*%
X123407742Y-90977500D02*
X123882258Y-90977500D01*
X123407742Y-92022500D02*
X123882258Y-92022500D01*
%TO.C,R20*%
X135437742Y-85957500D02*
X135912258Y-85957500D01*
X135437742Y-87002500D02*
X135912258Y-87002500D01*
%TO.C,C3*%
X123603748Y-74455000D02*
X124126252Y-74455000D01*
X123603748Y-75925000D02*
X124126252Y-75925000D01*
%TO.C,C12*%
X132503748Y-74455000D02*
X133026252Y-74455000D01*
X132503748Y-75925000D02*
X133026252Y-75925000D01*
%TO.C,CF3*%
X126635000Y-43680000D02*
X127135000Y-43680000D01*
X126885000Y-43430000D02*
X126885000Y-43930000D01*
X127375000Y-44044437D02*
X127375000Y-44180000D01*
X127375000Y-44044437D02*
X128439437Y-42980000D01*
X127375000Y-46435563D02*
X127375000Y-46300000D01*
X127375000Y-46435563D02*
X128439437Y-47500000D01*
X128439437Y-42980000D02*
X131895000Y-42980000D01*
X128439437Y-47500000D02*
X131895000Y-47500000D01*
X131895000Y-42980000D02*
X131895000Y-44180000D01*
X131895000Y-47500000D02*
X131895000Y-46300000D01*
%TO.C,R7*%
X127417742Y-83447500D02*
X127892258Y-83447500D01*
X127417742Y-84492500D02*
X127892258Y-84492500D01*
%TO.C,R11*%
X127417742Y-93487500D02*
X127892258Y-93487500D01*
X127417742Y-94532500D02*
X127892258Y-94532500D01*
%TO.C,C1*%
X123603748Y-71445000D02*
X124126252Y-71445000D01*
X123603748Y-72915000D02*
X124126252Y-72915000D01*
%TO.C,C5*%
X123603748Y-80475000D02*
X124126252Y-80475000D01*
X123603748Y-81945000D02*
X124126252Y-81945000D01*
%TO.C,C7*%
X128053748Y-71445000D02*
X128576252Y-71445000D01*
X128053748Y-72915000D02*
X128576252Y-72915000D01*
%TO.C,C11*%
X132503748Y-71445000D02*
X133026252Y-71445000D01*
X132503748Y-72915000D02*
X133026252Y-72915000D01*
%TO.C,J4*%
X91165000Y-34285000D02*
X94165000Y-34285000D01*
X91165000Y-43185000D02*
X91165000Y-34285000D01*
X91165000Y-43225000D02*
X94165000Y-43225000D01*
X94165000Y-29535000D02*
X96885000Y-29535000D01*
X94165000Y-34285000D02*
X94165000Y-29535000D01*
X94165000Y-47975000D02*
X94165000Y-43225000D01*
X96885000Y-47975000D02*
X94165000Y-47975000D01*
X99635000Y-29535000D02*
X103235000Y-29535000D01*
X103235000Y-47975000D02*
X99635000Y-47975000D01*
X105935000Y-29535000D02*
X109535000Y-29535000D01*
X109535000Y-47975000D02*
X105935000Y-47975000D01*
X115405000Y-29535000D02*
X112285000Y-29535000D01*
X115405000Y-33135000D02*
X115405000Y-29535000D01*
X115405000Y-33135000D02*
X124255000Y-33135000D01*
X115405000Y-44375000D02*
X124255000Y-44375000D01*
X115405000Y-47975000D02*
X112285000Y-47975000D01*
X115405000Y-47975000D02*
X115405000Y-44375000D01*
X124255000Y-44375000D02*
X124255000Y-33135000D01*
%TO.C,C10*%
X128053748Y-80475000D02*
X128576252Y-80475000D01*
X128053748Y-81945000D02*
X128576252Y-81945000D01*
%TO.C,R1*%
X123407742Y-83447500D02*
X123882258Y-83447500D01*
X123407742Y-84492500D02*
X123882258Y-84492500D01*
%TO.C,R17*%
X131427742Y-93487500D02*
X131902258Y-93487500D01*
X131427742Y-94532500D02*
X131902258Y-94532500D01*
%TO.C,D5*%
X134670000Y-66060000D02*
X134670000Y-68060000D01*
X134670000Y-66060000D02*
X138680000Y-66060000D01*
X134670000Y-68060000D02*
X138680000Y-68060000D01*
%TO.C,R9*%
X127417742Y-88467500D02*
X127892258Y-88467500D01*
X127417742Y-89512500D02*
X127892258Y-89512500D01*
%TO.C,S1*%
D11*
X101590000Y-71225000D02*
X121090000Y-71225000D01*
X121090000Y-88225000D01*
X101590000Y-88225000D01*
X101590000Y-71225000D01*
D12*
%TO.C,R2*%
X123407742Y-85957500D02*
X123882258Y-85957500D01*
X123407742Y-87002500D02*
X123882258Y-87002500D01*
%TO.C,R18*%
X131427742Y-95997500D02*
X131902258Y-95997500D01*
X131427742Y-97042500D02*
X131902258Y-97042500D01*
%TO.C,R3*%
X123407742Y-88467500D02*
X123882258Y-88467500D01*
X123407742Y-89512500D02*
X123882258Y-89512500D01*
%TO.C,U2*%
X78415000Y-88635000D02*
X78415000Y-88905000D01*
X78415000Y-95535000D02*
X78415000Y-95265000D01*
X84835000Y-88635000D02*
X78415000Y-88635000D01*
X84835000Y-95535000D02*
X78415000Y-95535000D01*
X76685000Y-88945000D02*
X76345000Y-88475000D01*
X77025000Y-88475000D01*
X76685000Y-88945000D01*
G36*
X76685000Y-88945000D02*
G01*
X76345000Y-88475000D01*
X77025000Y-88475000D01*
X76685000Y-88945000D01*
G37*
%TO.C,C8*%
X128053748Y-74455000D02*
X128576252Y-74455000D01*
X128053748Y-75925000D02*
X128576252Y-75925000D01*
%TO.C,D1*%
X135495000Y-61414000D02*
X135495000Y-61570000D01*
X135495000Y-63730000D02*
X135495000Y-63886000D01*
X135495000Y-61414484D02*
G75*
G02*
X138726437Y-61570000I1560000J-1235516D01*
G01*
X136014039Y-61570000D02*
G75*
G02*
X138095961Y-61570000I1040961J-1080000D01*
G01*
X138095961Y-63730000D02*
G75*
G02*
X136014039Y-63730000I-1040961J1080000D01*
G01*
X138726437Y-63730000D02*
G75*
G02*
X135495000Y-63885516I-1671437J1080000D01*
G01*
%TD*%
%LPC*%
D13*
%TO.C,H4*%
X135685000Y-55940000D03*
X136387944Y-54242944D03*
X136387944Y-57637056D03*
X138085000Y-53540000D03*
D14*
X138085000Y-55940000D03*
D13*
X138085000Y-58340000D03*
X139782056Y-54242944D03*
X139782056Y-57637056D03*
X140485000Y-55940000D03*
%TD*%
D15*
%TO.C,U1*%
X91500000Y-75055000D03*
X91500000Y-76325000D03*
X91500000Y-77595000D03*
X91500000Y-78865000D03*
X91500000Y-80135000D03*
X91500000Y-81405000D03*
X91500000Y-82675000D03*
X91500000Y-83945000D03*
X96500000Y-83945000D03*
X96500000Y-82675000D03*
X96500000Y-81405000D03*
X96500000Y-80135000D03*
X96500000Y-78865000D03*
X96500000Y-77595000D03*
X96500000Y-76325000D03*
X96500000Y-75055000D03*
%TD*%
D16*
%TO.C,CF6*%
X127835000Y-65790000D03*
X131435000Y-65790000D03*
%TD*%
D17*
%TO.C,C14*%
X131815000Y-81210000D03*
X133715000Y-81210000D03*
%TD*%
D18*
%TO.C,R5*%
X122820000Y-94010000D03*
X124470000Y-94010000D03*
%TD*%
%TO.C,R16*%
X130840000Y-91500000D03*
X132490000Y-91500000D03*
%TD*%
D17*
%TO.C,C17*%
X136265000Y-78200000D03*
X138165000Y-78200000D03*
%TD*%
D16*
%TO.C,CF2*%
X127835000Y-38390000D03*
X131435000Y-38390000D03*
%TD*%
D18*
%TO.C,R14*%
X130840000Y-86480000D03*
X132490000Y-86480000D03*
%TD*%
%TO.C,R21*%
X134850000Y-88990000D03*
X136500000Y-88990000D03*
%TD*%
D19*
%TO.C,CF5*%
X126935000Y-58940000D03*
X132335000Y-58940000D03*
%TD*%
D18*
%TO.C,R12*%
X126830000Y-96520000D03*
X128480000Y-96520000D03*
%TD*%
D20*
%TO.C,TP2*%
X144500000Y-71500000D03*
%TD*%
D21*
%TO.C,U3*%
X102765000Y-90745000D03*
X102765000Y-92015000D03*
X102765000Y-93285000D03*
X102765000Y-94555000D03*
X109765000Y-94555000D03*
X109765000Y-93285000D03*
X109765000Y-92015000D03*
X109765000Y-90745000D03*
%TD*%
D17*
%TO.C,C13*%
X131815000Y-78200000D03*
X133715000Y-78200000D03*
%TD*%
D20*
%TO.C,TP1*%
X144500000Y-66950000D03*
%TD*%
D22*
%TO.C,J2*%
X80335000Y-73190000D03*
D23*
X80335000Y-79490000D03*
D24*
X85135000Y-76090000D03*
%TD*%
D19*
%TO.C,CF1*%
X126935000Y-31540000D03*
X132335000Y-31540000D03*
%TD*%
D25*
%TO.C,C2*%
X112840000Y-90450000D03*
X115790000Y-90450000D03*
%TD*%
D26*
%TO.C,H3*%
X138085000Y-47990000D03*
%TD*%
D17*
%TO.C,C16*%
X136265000Y-75190000D03*
X138165000Y-75190000D03*
%TD*%
%TO.C,C9*%
X127365000Y-78200000D03*
X129265000Y-78200000D03*
%TD*%
D18*
%TO.C,R10*%
X126830000Y-91500000D03*
X128480000Y-91500000D03*
%TD*%
%TO.C,R15*%
X130840000Y-88990000D03*
X132490000Y-88990000D03*
%TD*%
D17*
%TO.C,C15*%
X136265000Y-72180000D03*
X138165000Y-72180000D03*
%TD*%
D18*
%TO.C,RC1*%
X134850000Y-91500000D03*
X136500000Y-91500000D03*
%TD*%
D27*
%TO.C,REPEATS1*%
X76485000Y-47140000D03*
D28*
X76485000Y-49640000D03*
X76485000Y-52140000D03*
D29*
X83985000Y-44890000D03*
X83985000Y-54390000D03*
%TD*%
D18*
%TO.C,R19*%
X134850000Y-83970000D03*
X136500000Y-83970000D03*
%TD*%
D25*
%TO.C,C6*%
X112840000Y-93800000D03*
X115790000Y-93800000D03*
%TD*%
D27*
%TO.C,TIME1*%
X76485000Y-61490000D03*
D28*
X76485000Y-63990000D03*
X76485000Y-66490000D03*
D29*
X83985000Y-59240000D03*
X83985000Y-68740000D03*
%TD*%
D17*
%TO.C,C18*%
X136265000Y-81210000D03*
X138165000Y-81210000D03*
%TD*%
D18*
%TO.C,R13*%
X130840000Y-83970000D03*
X132490000Y-83970000D03*
%TD*%
D27*
%TO.C,LEVEL1*%
X76485000Y-32790000D03*
D28*
X76485000Y-35290000D03*
X76485000Y-37790000D03*
D29*
X83985000Y-30540000D03*
X83985000Y-40040000D03*
%TD*%
D16*
%TO.C,CF4*%
X127835000Y-52090000D03*
X131435000Y-52090000D03*
%TD*%
D18*
%TO.C,R6*%
X122820000Y-96520000D03*
X124470000Y-96520000D03*
%TD*%
D26*
%TO.C,H2*%
X138085000Y-40040000D03*
%TD*%
D30*
%TO.C,J5*%
X104585000Y-51920000D03*
X104585000Y-68150000D03*
X110935000Y-51920000D03*
X110935000Y-68150000D03*
X98235000Y-51920000D03*
X98235000Y-68150000D03*
%TD*%
D17*
%TO.C,C4*%
X122915000Y-78200000D03*
X124815000Y-78200000D03*
%TD*%
D18*
%TO.C,R8*%
X126830000Y-86480000D03*
X128480000Y-86480000D03*
%TD*%
%TO.C,R4*%
X122820000Y-91500000D03*
X124470000Y-91500000D03*
%TD*%
%TO.C,R20*%
X134850000Y-86480000D03*
X136500000Y-86480000D03*
%TD*%
D17*
%TO.C,C3*%
X122915000Y-75190000D03*
X124815000Y-75190000D03*
%TD*%
%TO.C,C12*%
X131815000Y-75190000D03*
X133715000Y-75190000D03*
%TD*%
D16*
%TO.C,CF3*%
X127835000Y-45240000D03*
X131435000Y-45240000D03*
%TD*%
D18*
%TO.C,R7*%
X126830000Y-83970000D03*
X128480000Y-83970000D03*
%TD*%
%TO.C,R11*%
X126830000Y-94010000D03*
X128480000Y-94010000D03*
%TD*%
D17*
%TO.C,C1*%
X122915000Y-72180000D03*
X124815000Y-72180000D03*
%TD*%
%TO.C,C5*%
X122915000Y-81210000D03*
X124815000Y-81210000D03*
%TD*%
%TO.C,C7*%
X127365000Y-72180000D03*
X129265000Y-72180000D03*
%TD*%
D26*
%TO.C,H1*%
X138085000Y-32090000D03*
%TD*%
D17*
%TO.C,C11*%
X131815000Y-72180000D03*
X133715000Y-72180000D03*
%TD*%
D30*
%TO.C,J4*%
X104585000Y-30640000D03*
X104585000Y-46870000D03*
X110935000Y-30640000D03*
X110935000Y-46870000D03*
X98235000Y-30640000D03*
X98235000Y-46870000D03*
%TD*%
D17*
%TO.C,C10*%
X127365000Y-81210000D03*
X129265000Y-81210000D03*
%TD*%
D18*
%TO.C,R1*%
X122820000Y-83970000D03*
X124470000Y-83970000D03*
%TD*%
%TO.C,R17*%
X130840000Y-94010000D03*
X132490000Y-94010000D03*
%TD*%
D31*
%TO.C,D5*%
X135380000Y-67060000D03*
X138680000Y-67060000D03*
%TD*%
D18*
%TO.C,R9*%
X126830000Y-88990000D03*
X128480000Y-88990000D03*
%TD*%
D32*
%TO.C,S1*%
X106140000Y-75025000D03*
X106140000Y-79725000D03*
X106140000Y-84425000D03*
X111340000Y-75025000D03*
X111340000Y-79725000D03*
X111340000Y-84425000D03*
X116540000Y-75025000D03*
X116540000Y-79725000D03*
X116540000Y-84425000D03*
%TD*%
D18*
%TO.C,R2*%
X122820000Y-86480000D03*
X124470000Y-86480000D03*
%TD*%
%TO.C,R18*%
X130840000Y-96520000D03*
X132490000Y-96520000D03*
%TD*%
%TO.C,R3*%
X122820000Y-88990000D03*
X124470000Y-88990000D03*
%TD*%
D33*
%TO.C,U2*%
X76685000Y-89805000D03*
D34*
X82985000Y-92085000D03*
D33*
X76685000Y-94365000D03*
%TD*%
D17*
%TO.C,C8*%
X127365000Y-75190000D03*
X129265000Y-75190000D03*
%TD*%
D27*
%TO.C,D1*%
X135785000Y-62650000D03*
D28*
X138325000Y-62650000D03*
%TD*%
%LPD*%
M02*
