%TF.GenerationSoftware,KiCad,Pcbnew,9.0.2*%
%TF.CreationDate,2025-06-29T21:27:56+12:00*%
%TF.ProjectId,Delay,44656c61-792e-46b6-9963-61645f706362,rev?*%
%TF.SameCoordinates,Original*%
%TF.FileFunction,Legend,Top*%
%TF.FilePolarity,Positive*%
%FSLAX46Y46*%
G04 Gerber Fmt 4.6, Leading zero omitted, Abs format (unit mm)*
G04 Created by KiCad (PCBNEW 9.0.2) date 2025-06-29 21:27:56*
%MOMM*%
%LPD*%
G01*
G04 APERTURE LIST*
G04 Aperture macros list*
%AMRoundRect*
0 Rectangle with rounded corners*
0 $1 Rounding radius*
0 $2 $3 $4 $5 $6 $7 $8 $9 X,Y pos of 4 corners*
0 Add a 4 corners polygon primitive as box body*
4,1,4,$2,$3,$4,$5,$6,$7,$8,$9,$2,$3,0*
0 Add four circle primitives for the rounded corners*
1,1,$1+$1,$2,$3*
1,1,$1+$1,$4,$5*
1,1,$1+$1,$6,$7*
1,1,$1+$1,$8,$9*
0 Add four rect primitives between the rounded corners*
20,1,$1+$1,$2,$3,$4,$5,0*
20,1,$1+$1,$4,$5,$6,$7,0*
20,1,$1+$1,$6,$7,$8,$9,0*
20,1,$1+$1,$8,$9,$2,$3,0*%
G04 Aperture macros list end*
%ADD10C,0.150000*%
%ADD11C,0.100000*%
%ADD12C,0.120000*%
%ADD13RoundRect,0.250000X-0.850000X-0.350000X0.850000X-0.350000X0.850000X0.350000X-0.850000X0.350000X0*%
%ADD14RoundRect,0.249997X-2.950003X-2.650003X2.950003X-2.650003X2.950003X2.650003X-2.950003X2.650003X0*%
%ADD15RoundRect,0.250000X-0.550000X-0.550000X0.550000X-0.550000X0.550000X0.550000X-0.550000X0.550000X0*%
%ADD16C,1.600000*%
%ADD17O,4.500000X3.000000*%
%ADD18RoundRect,0.200000X-0.200000X-0.275000X0.200000X-0.275000X0.200000X0.275000X-0.200000X0.275000X0*%
%ADD19C,3.000000*%
%ADD20R,4.600000X2.000000*%
%ADD21O,4.200000X2.000000*%
%ADD22O,2.000000X4.200000*%
%ADD23R,1.350000X1.350000*%
%ADD24C,1.350000*%
%ADD25RoundRect,0.225000X-0.225000X-0.375000X0.225000X-0.375000X0.225000X0.375000X-0.225000X0.375000X0*%
%ADD26R,1.800000X1.800000*%
%ADD27C,1.800000*%
%ADD28RoundRect,0.250000X-0.250000X-0.475000X0.250000X-0.475000X0.250000X0.475000X-0.250000X0.475000X0*%
%ADD29RoundRect,0.250000X-0.325000X-0.650000X0.325000X-0.650000X0.325000X0.650000X-0.325000X0.650000X0*%
G04 APERTURE END LIST*
D10*
X83928095Y-79789819D02*
X83928095Y-80599342D01*
X83928095Y-80599342D02*
X83975714Y-80694580D01*
X83975714Y-80694580D02*
X84023333Y-80742200D01*
X84023333Y-80742200D02*
X84118571Y-80789819D01*
X84118571Y-80789819D02*
X84309047Y-80789819D01*
X84309047Y-80789819D02*
X84404285Y-80742200D01*
X84404285Y-80742200D02*
X84451904Y-80694580D01*
X84451904Y-80694580D02*
X84499523Y-80599342D01*
X84499523Y-80599342D02*
X84499523Y-79789819D01*
X84928095Y-79885057D02*
X84975714Y-79837438D01*
X84975714Y-79837438D02*
X85070952Y-79789819D01*
X85070952Y-79789819D02*
X85309047Y-79789819D01*
X85309047Y-79789819D02*
X85404285Y-79837438D01*
X85404285Y-79837438D02*
X85451904Y-79885057D01*
X85451904Y-79885057D02*
X85499523Y-79980295D01*
X85499523Y-79980295D02*
X85499523Y-80075533D01*
X85499523Y-80075533D02*
X85451904Y-80218390D01*
X85451904Y-80218390D02*
X84880476Y-80789819D01*
X84880476Y-80789819D02*
X85499523Y-80789819D01*
X117308095Y-37274819D02*
X117308095Y-38084342D01*
X117308095Y-38084342D02*
X117355714Y-38179580D01*
X117355714Y-38179580D02*
X117403333Y-38227200D01*
X117403333Y-38227200D02*
X117498571Y-38274819D01*
X117498571Y-38274819D02*
X117689047Y-38274819D01*
X117689047Y-38274819D02*
X117784285Y-38227200D01*
X117784285Y-38227200D02*
X117831904Y-38179580D01*
X117831904Y-38179580D02*
X117879523Y-38084342D01*
X117879523Y-38084342D02*
X117879523Y-37274819D01*
X118879523Y-38274819D02*
X118308095Y-38274819D01*
X118593809Y-38274819D02*
X118593809Y-37274819D01*
X118593809Y-37274819D02*
X118498571Y-37417676D01*
X118498571Y-37417676D02*
X118403333Y-37512914D01*
X118403333Y-37512914D02*
X118308095Y-37560533D01*
D11*
X122363095Y-56534800D02*
X122505952Y-56582419D01*
X122505952Y-56582419D02*
X122744047Y-56582419D01*
X122744047Y-56582419D02*
X122839285Y-56534800D01*
X122839285Y-56534800D02*
X122886904Y-56487180D01*
X122886904Y-56487180D02*
X122934523Y-56391942D01*
X122934523Y-56391942D02*
X122934523Y-56296704D01*
X122934523Y-56296704D02*
X122886904Y-56201466D01*
X122886904Y-56201466D02*
X122839285Y-56153847D01*
X122839285Y-56153847D02*
X122744047Y-56106228D01*
X122744047Y-56106228D02*
X122553571Y-56058609D01*
X122553571Y-56058609D02*
X122458333Y-56010990D01*
X122458333Y-56010990D02*
X122410714Y-55963371D01*
X122410714Y-55963371D02*
X122363095Y-55868133D01*
X122363095Y-55868133D02*
X122363095Y-55772895D01*
X122363095Y-55772895D02*
X122410714Y-55677657D01*
X122410714Y-55677657D02*
X122458333Y-55630038D01*
X122458333Y-55630038D02*
X122553571Y-55582419D01*
X122553571Y-55582419D02*
X122791666Y-55582419D01*
X122791666Y-55582419D02*
X122934523Y-55630038D01*
X123886904Y-56582419D02*
X123315476Y-56582419D01*
X123601190Y-56582419D02*
X123601190Y-55582419D01*
X123601190Y-55582419D02*
X123505952Y-55725276D01*
X123505952Y-55725276D02*
X123410714Y-55820514D01*
X123410714Y-55820514D02*
X123315476Y-55868133D01*
D10*
X91263333Y-88474819D02*
X90930000Y-87998628D01*
X90691905Y-88474819D02*
X90691905Y-87474819D01*
X90691905Y-87474819D02*
X91072857Y-87474819D01*
X91072857Y-87474819D02*
X91168095Y-87522438D01*
X91168095Y-87522438D02*
X91215714Y-87570057D01*
X91215714Y-87570057D02*
X91263333Y-87665295D01*
X91263333Y-87665295D02*
X91263333Y-87808152D01*
X91263333Y-87808152D02*
X91215714Y-87903390D01*
X91215714Y-87903390D02*
X91168095Y-87951009D01*
X91168095Y-87951009D02*
X91072857Y-87998628D01*
X91072857Y-87998628D02*
X90691905Y-87998628D01*
X92263333Y-88379580D02*
X92215714Y-88427200D01*
X92215714Y-88427200D02*
X92072857Y-88474819D01*
X92072857Y-88474819D02*
X91977619Y-88474819D01*
X91977619Y-88474819D02*
X91834762Y-88427200D01*
X91834762Y-88427200D02*
X91739524Y-88331961D01*
X91739524Y-88331961D02*
X91691905Y-88236723D01*
X91691905Y-88236723D02*
X91644286Y-88046247D01*
X91644286Y-88046247D02*
X91644286Y-87903390D01*
X91644286Y-87903390D02*
X91691905Y-87712914D01*
X91691905Y-87712914D02*
X91739524Y-87617676D01*
X91739524Y-87617676D02*
X91834762Y-87522438D01*
X91834762Y-87522438D02*
X91977619Y-87474819D01*
X91977619Y-87474819D02*
X92072857Y-87474819D01*
X92072857Y-87474819D02*
X92215714Y-87522438D01*
X92215714Y-87522438D02*
X92263333Y-87570057D01*
X93215714Y-88474819D02*
X92644286Y-88474819D01*
X92930000Y-88474819D02*
X92930000Y-87474819D01*
X92930000Y-87474819D02*
X92834762Y-87617676D01*
X92834762Y-87617676D02*
X92739524Y-87712914D01*
X92739524Y-87712914D02*
X92644286Y-87760533D01*
X91287142Y-85964819D02*
X90953809Y-85488628D01*
X90715714Y-85964819D02*
X90715714Y-84964819D01*
X90715714Y-84964819D02*
X91096666Y-84964819D01*
X91096666Y-84964819D02*
X91191904Y-85012438D01*
X91191904Y-85012438D02*
X91239523Y-85060057D01*
X91239523Y-85060057D02*
X91287142Y-85155295D01*
X91287142Y-85155295D02*
X91287142Y-85298152D01*
X91287142Y-85298152D02*
X91239523Y-85393390D01*
X91239523Y-85393390D02*
X91191904Y-85441009D01*
X91191904Y-85441009D02*
X91096666Y-85488628D01*
X91096666Y-85488628D02*
X90715714Y-85488628D01*
X92239523Y-85964819D02*
X91668095Y-85964819D01*
X91953809Y-85964819D02*
X91953809Y-84964819D01*
X91953809Y-84964819D02*
X91858571Y-85107676D01*
X91858571Y-85107676D02*
X91763333Y-85202914D01*
X91763333Y-85202914D02*
X91668095Y-85250533D01*
X92572857Y-84964819D02*
X93239523Y-84964819D01*
X93239523Y-84964819D02*
X92810952Y-85964819D01*
X91763333Y-83454819D02*
X91430000Y-82978628D01*
X91191905Y-83454819D02*
X91191905Y-82454819D01*
X91191905Y-82454819D02*
X91572857Y-82454819D01*
X91572857Y-82454819D02*
X91668095Y-82502438D01*
X91668095Y-82502438D02*
X91715714Y-82550057D01*
X91715714Y-82550057D02*
X91763333Y-82645295D01*
X91763333Y-82645295D02*
X91763333Y-82788152D01*
X91763333Y-82788152D02*
X91715714Y-82883390D01*
X91715714Y-82883390D02*
X91668095Y-82931009D01*
X91668095Y-82931009D02*
X91572857Y-82978628D01*
X91572857Y-82978628D02*
X91191905Y-82978628D01*
X92668095Y-82454819D02*
X92191905Y-82454819D01*
X92191905Y-82454819D02*
X92144286Y-82931009D01*
X92144286Y-82931009D02*
X92191905Y-82883390D01*
X92191905Y-82883390D02*
X92287143Y-82835771D01*
X92287143Y-82835771D02*
X92525238Y-82835771D01*
X92525238Y-82835771D02*
X92620476Y-82883390D01*
X92620476Y-82883390D02*
X92668095Y-82931009D01*
X92668095Y-82931009D02*
X92715714Y-83026247D01*
X92715714Y-83026247D02*
X92715714Y-83264342D01*
X92715714Y-83264342D02*
X92668095Y-83359580D01*
X92668095Y-83359580D02*
X92620476Y-83407200D01*
X92620476Y-83407200D02*
X92525238Y-83454819D01*
X92525238Y-83454819D02*
X92287143Y-83454819D01*
X92287143Y-83454819D02*
X92191905Y-83407200D01*
X92191905Y-83407200D02*
X92144286Y-83359580D01*
X91763333Y-80944819D02*
X91430000Y-80468628D01*
X91191905Y-80944819D02*
X91191905Y-79944819D01*
X91191905Y-79944819D02*
X91572857Y-79944819D01*
X91572857Y-79944819D02*
X91668095Y-79992438D01*
X91668095Y-79992438D02*
X91715714Y-80040057D01*
X91715714Y-80040057D02*
X91763333Y-80135295D01*
X91763333Y-80135295D02*
X91763333Y-80278152D01*
X91763333Y-80278152D02*
X91715714Y-80373390D01*
X91715714Y-80373390D02*
X91668095Y-80421009D01*
X91668095Y-80421009D02*
X91572857Y-80468628D01*
X91572857Y-80468628D02*
X91191905Y-80468628D01*
X92620476Y-80278152D02*
X92620476Y-80944819D01*
X92382381Y-79897200D02*
X92144286Y-80611485D01*
X92144286Y-80611485D02*
X92763333Y-80611485D01*
X91766666Y-58364819D02*
X91766666Y-59079104D01*
X91766666Y-59079104D02*
X91719047Y-59221961D01*
X91719047Y-59221961D02*
X91623809Y-59317200D01*
X91623809Y-59317200D02*
X91480952Y-59364819D01*
X91480952Y-59364819D02*
X91385714Y-59364819D01*
X92719047Y-58364819D02*
X92242857Y-58364819D01*
X92242857Y-58364819D02*
X92195238Y-58841009D01*
X92195238Y-58841009D02*
X92242857Y-58793390D01*
X92242857Y-58793390D02*
X92338095Y-58745771D01*
X92338095Y-58745771D02*
X92576190Y-58745771D01*
X92576190Y-58745771D02*
X92671428Y-58793390D01*
X92671428Y-58793390D02*
X92719047Y-58841009D01*
X92719047Y-58841009D02*
X92766666Y-58936247D01*
X92766666Y-58936247D02*
X92766666Y-59174342D01*
X92766666Y-59174342D02*
X92719047Y-59269580D01*
X92719047Y-59269580D02*
X92671428Y-59317200D01*
X92671428Y-59317200D02*
X92576190Y-59364819D01*
X92576190Y-59364819D02*
X92338095Y-59364819D01*
X92338095Y-59364819D02*
X92242857Y-59317200D01*
X92242857Y-59317200D02*
X92195238Y-59269580D01*
X91766666Y-37084819D02*
X91766666Y-37799104D01*
X91766666Y-37799104D02*
X91719047Y-37941961D01*
X91719047Y-37941961D02*
X91623809Y-38037200D01*
X91623809Y-38037200D02*
X91480952Y-38084819D01*
X91480952Y-38084819D02*
X91385714Y-38084819D01*
X92671428Y-37418152D02*
X92671428Y-38084819D01*
X92433333Y-37037200D02*
X92195238Y-37751485D01*
X92195238Y-37751485D02*
X92814285Y-37751485D01*
X117866666Y-77054819D02*
X117866666Y-77769104D01*
X117866666Y-77769104D02*
X117819047Y-77911961D01*
X117819047Y-77911961D02*
X117723809Y-78007200D01*
X117723809Y-78007200D02*
X117580952Y-78054819D01*
X117580952Y-78054819D02*
X117485714Y-78054819D01*
X118295238Y-77150057D02*
X118342857Y-77102438D01*
X118342857Y-77102438D02*
X118438095Y-77054819D01*
X118438095Y-77054819D02*
X118676190Y-77054819D01*
X118676190Y-77054819D02*
X118771428Y-77102438D01*
X118771428Y-77102438D02*
X118819047Y-77150057D01*
X118819047Y-77150057D02*
X118866666Y-77245295D01*
X118866666Y-77245295D02*
X118866666Y-77340533D01*
X118866666Y-77340533D02*
X118819047Y-77483390D01*
X118819047Y-77483390D02*
X118247619Y-78054819D01*
X118247619Y-78054819D02*
X118866666Y-78054819D01*
X95626666Y-79644819D02*
X95626666Y-80359104D01*
X95626666Y-80359104D02*
X95579047Y-80501961D01*
X95579047Y-80501961D02*
X95483809Y-80597200D01*
X95483809Y-80597200D02*
X95340952Y-80644819D01*
X95340952Y-80644819D02*
X95245714Y-80644819D01*
X96626666Y-80644819D02*
X96055238Y-80644819D01*
X96340952Y-80644819D02*
X96340952Y-79644819D01*
X96340952Y-79644819D02*
X96245714Y-79787676D01*
X96245714Y-79787676D02*
X96150476Y-79882914D01*
X96150476Y-79882914D02*
X96055238Y-79930533D01*
X100166905Y-86264819D02*
X100166905Y-85264819D01*
X100166905Y-85264819D02*
X100405000Y-85264819D01*
X100405000Y-85264819D02*
X100547857Y-85312438D01*
X100547857Y-85312438D02*
X100643095Y-85407676D01*
X100643095Y-85407676D02*
X100690714Y-85502914D01*
X100690714Y-85502914D02*
X100738333Y-85693390D01*
X100738333Y-85693390D02*
X100738333Y-85836247D01*
X100738333Y-85836247D02*
X100690714Y-86026723D01*
X100690714Y-86026723D02*
X100643095Y-86121961D01*
X100643095Y-86121961D02*
X100547857Y-86217200D01*
X100547857Y-86217200D02*
X100405000Y-86264819D01*
X100405000Y-86264819D02*
X100166905Y-86264819D01*
X101643095Y-85264819D02*
X101166905Y-85264819D01*
X101166905Y-85264819D02*
X101119286Y-85741009D01*
X101119286Y-85741009D02*
X101166905Y-85693390D01*
X101166905Y-85693390D02*
X101262143Y-85645771D01*
X101262143Y-85645771D02*
X101500238Y-85645771D01*
X101500238Y-85645771D02*
X101595476Y-85693390D01*
X101595476Y-85693390D02*
X101643095Y-85741009D01*
X101643095Y-85741009D02*
X101690714Y-85836247D01*
X101690714Y-85836247D02*
X101690714Y-86074342D01*
X101690714Y-86074342D02*
X101643095Y-86169580D01*
X101643095Y-86169580D02*
X101595476Y-86217200D01*
X101595476Y-86217200D02*
X101500238Y-86264819D01*
X101500238Y-86264819D02*
X101262143Y-86264819D01*
X101262143Y-86264819D02*
X101166905Y-86217200D01*
X101166905Y-86217200D02*
X101119286Y-86169580D01*
X100191905Y-80894819D02*
X100191905Y-79894819D01*
X100191905Y-79894819D02*
X100430000Y-79894819D01*
X100430000Y-79894819D02*
X100572857Y-79942438D01*
X100572857Y-79942438D02*
X100668095Y-80037676D01*
X100668095Y-80037676D02*
X100715714Y-80132914D01*
X100715714Y-80132914D02*
X100763333Y-80323390D01*
X100763333Y-80323390D02*
X100763333Y-80466247D01*
X100763333Y-80466247D02*
X100715714Y-80656723D01*
X100715714Y-80656723D02*
X100668095Y-80751961D01*
X100668095Y-80751961D02*
X100572857Y-80847200D01*
X100572857Y-80847200D02*
X100430000Y-80894819D01*
X100430000Y-80894819D02*
X100191905Y-80894819D01*
X101715714Y-80894819D02*
X101144286Y-80894819D01*
X101430000Y-80894819D02*
X101430000Y-79894819D01*
X101430000Y-79894819D02*
X101334762Y-80037676D01*
X101334762Y-80037676D02*
X101239524Y-80132914D01*
X101239524Y-80132914D02*
X101144286Y-80180533D01*
X105933333Y-80849580D02*
X105885714Y-80897200D01*
X105885714Y-80897200D02*
X105742857Y-80944819D01*
X105742857Y-80944819D02*
X105647619Y-80944819D01*
X105647619Y-80944819D02*
X105504762Y-80897200D01*
X105504762Y-80897200D02*
X105409524Y-80801961D01*
X105409524Y-80801961D02*
X105361905Y-80706723D01*
X105361905Y-80706723D02*
X105314286Y-80516247D01*
X105314286Y-80516247D02*
X105314286Y-80373390D01*
X105314286Y-80373390D02*
X105361905Y-80182914D01*
X105361905Y-80182914D02*
X105409524Y-80087676D01*
X105409524Y-80087676D02*
X105504762Y-79992438D01*
X105504762Y-79992438D02*
X105647619Y-79944819D01*
X105647619Y-79944819D02*
X105742857Y-79944819D01*
X105742857Y-79944819D02*
X105885714Y-79992438D01*
X105885714Y-79992438D02*
X105933333Y-80040057D01*
X106266667Y-79944819D02*
X106885714Y-79944819D01*
X106885714Y-79944819D02*
X106552381Y-80325771D01*
X106552381Y-80325771D02*
X106695238Y-80325771D01*
X106695238Y-80325771D02*
X106790476Y-80373390D01*
X106790476Y-80373390D02*
X106838095Y-80421009D01*
X106838095Y-80421009D02*
X106885714Y-80516247D01*
X106885714Y-80516247D02*
X106885714Y-80754342D01*
X106885714Y-80754342D02*
X106838095Y-80849580D01*
X106838095Y-80849580D02*
X106790476Y-80897200D01*
X106790476Y-80897200D02*
X106695238Y-80944819D01*
X106695238Y-80944819D02*
X106409524Y-80944819D01*
X106409524Y-80944819D02*
X106314286Y-80897200D01*
X106314286Y-80897200D02*
X106266667Y-80849580D01*
X100643333Y-89669580D02*
X100595714Y-89717200D01*
X100595714Y-89717200D02*
X100452857Y-89764819D01*
X100452857Y-89764819D02*
X100357619Y-89764819D01*
X100357619Y-89764819D02*
X100214762Y-89717200D01*
X100214762Y-89717200D02*
X100119524Y-89621961D01*
X100119524Y-89621961D02*
X100071905Y-89526723D01*
X100071905Y-89526723D02*
X100024286Y-89336247D01*
X100024286Y-89336247D02*
X100024286Y-89193390D01*
X100024286Y-89193390D02*
X100071905Y-89002914D01*
X100071905Y-89002914D02*
X100119524Y-88907676D01*
X100119524Y-88907676D02*
X100214762Y-88812438D01*
X100214762Y-88812438D02*
X100357619Y-88764819D01*
X100357619Y-88764819D02*
X100452857Y-88764819D01*
X100452857Y-88764819D02*
X100595714Y-88812438D01*
X100595714Y-88812438D02*
X100643333Y-88860057D01*
X101024286Y-88860057D02*
X101071905Y-88812438D01*
X101071905Y-88812438D02*
X101167143Y-88764819D01*
X101167143Y-88764819D02*
X101405238Y-88764819D01*
X101405238Y-88764819D02*
X101500476Y-88812438D01*
X101500476Y-88812438D02*
X101548095Y-88860057D01*
X101548095Y-88860057D02*
X101595714Y-88955295D01*
X101595714Y-88955295D02*
X101595714Y-89050533D01*
X101595714Y-89050533D02*
X101548095Y-89193390D01*
X101548095Y-89193390D02*
X100976667Y-89764819D01*
X100976667Y-89764819D02*
X101595714Y-89764819D01*
D12*
%TO.C,U2*%
X81380000Y-81385000D02*
X81380000Y-81655000D01*
X81380000Y-88285000D02*
X81380000Y-88015000D01*
X87800000Y-81385000D02*
X81380000Y-81385000D01*
X87800000Y-88285000D02*
X81380000Y-88285000D01*
X79650000Y-81695000D02*
X79310000Y-81225000D01*
X79990000Y-81225000D01*
X79650000Y-81695000D01*
G36*
X79650000Y-81695000D02*
G01*
X79310000Y-81225000D01*
X79990000Y-81225000D01*
X79650000Y-81695000D01*
G37*
%TO.C,U1*%
X115420000Y-38820000D02*
X115420000Y-59260000D01*
X115420000Y-59260000D02*
X120720000Y-59260000D01*
X117070000Y-38820000D02*
X115420000Y-38820000D01*
X120720000Y-38820000D02*
X119070000Y-38820000D01*
X120720000Y-59260000D02*
X120720000Y-38820000D01*
X119070000Y-38820000D02*
G75*
G02*
X117070000Y-38820000I-1000000J0D01*
G01*
%TO.C,S1*%
D11*
X113225000Y-60525000D02*
X132725000Y-60525000D01*
X132725000Y-77525000D01*
X113225000Y-77525000D01*
X113225000Y-60525000D01*
D12*
%TO.C,RC1*%
X91692742Y-88927500D02*
X92167258Y-88927500D01*
X91692742Y-89972500D02*
X92167258Y-89972500D01*
%TO.C,R17*%
X91692742Y-86417500D02*
X92167258Y-86417500D01*
X91692742Y-87462500D02*
X92167258Y-87462500D01*
%TO.C,R5*%
X91692742Y-83907500D02*
X92167258Y-83907500D01*
X91692742Y-84952500D02*
X92167258Y-84952500D01*
%TO.C,R4*%
X91692742Y-81397500D02*
X92167258Y-81397500D01*
X91692742Y-82442500D02*
X92167258Y-82442500D01*
%TO.C,J5*%
X78680000Y-65555000D02*
X81680000Y-65555000D01*
X78680000Y-74455000D02*
X78680000Y-65555000D01*
X78680000Y-74495000D02*
X81680000Y-74495000D01*
X81680000Y-60805000D02*
X84400000Y-60805000D01*
X81680000Y-65555000D02*
X81680000Y-60805000D01*
X81680000Y-79245000D02*
X81680000Y-74495000D01*
X84400000Y-79245000D02*
X81680000Y-79245000D01*
X87150000Y-60805000D02*
X90750000Y-60805000D01*
X90750000Y-79245000D02*
X87150000Y-79245000D01*
X93450000Y-60805000D02*
X97050000Y-60805000D01*
X97050000Y-79245000D02*
X93450000Y-79245000D01*
X102920000Y-60805000D02*
X99800000Y-60805000D01*
X102920000Y-64405000D02*
X102920000Y-60805000D01*
X102920000Y-64405000D02*
X111770000Y-64405000D01*
X102920000Y-75645000D02*
X111770000Y-75645000D01*
X102920000Y-79245000D02*
X99800000Y-79245000D01*
X102920000Y-79245000D02*
X102920000Y-75645000D01*
X111770000Y-75645000D02*
X111770000Y-64405000D01*
%TO.C,J4*%
X78680000Y-44275000D02*
X81680000Y-44275000D01*
X78680000Y-53175000D02*
X78680000Y-44275000D01*
X78680000Y-53215000D02*
X81680000Y-53215000D01*
X81680000Y-39525000D02*
X84400000Y-39525000D01*
X81680000Y-44275000D02*
X81680000Y-39525000D01*
X81680000Y-57965000D02*
X81680000Y-53215000D01*
X84400000Y-57965000D02*
X81680000Y-57965000D01*
X87150000Y-39525000D02*
X90750000Y-39525000D01*
X90750000Y-57965000D02*
X87150000Y-57965000D01*
X93450000Y-39525000D02*
X97050000Y-39525000D01*
X97050000Y-57965000D02*
X93450000Y-57965000D01*
X102920000Y-39525000D02*
X99800000Y-39525000D01*
X102920000Y-43125000D02*
X102920000Y-39525000D01*
X102920000Y-43125000D02*
X111770000Y-43125000D01*
X102920000Y-54365000D02*
X111770000Y-54365000D01*
X102920000Y-57965000D02*
X99800000Y-57965000D01*
X102920000Y-57965000D02*
X102920000Y-54365000D01*
X111770000Y-54365000D02*
X111770000Y-43125000D01*
%TO.C,J2*%
X113300000Y-79100000D02*
X113300000Y-80400000D01*
X113600000Y-79400000D02*
X115600000Y-79400000D01*
X113600000Y-93900000D02*
X113600000Y-79400000D01*
X115000000Y-79100000D02*
X113300000Y-79100000D01*
X120800000Y-79400000D02*
X122800000Y-79400000D01*
X122800000Y-79400000D02*
X122800000Y-80700000D01*
X122800000Y-85300000D02*
X122800000Y-93900000D01*
X122800000Y-93900000D02*
X113600000Y-93900000D01*
%TO.C,J1*%
X94900000Y-83690000D02*
X94900000Y-85750000D01*
X94900000Y-83690000D02*
X97020000Y-83690000D01*
X94900000Y-85750000D02*
X97020000Y-85750000D01*
X95960000Y-81630000D02*
X97020000Y-81630000D01*
X97020000Y-81630000D02*
X97020000Y-82690000D01*
X97020000Y-83690000D02*
X97020000Y-85750000D01*
%TO.C,D5*%
X98545000Y-86810000D02*
X98545000Y-88810000D01*
X98545000Y-86810000D02*
X102555000Y-86810000D01*
X98545000Y-88810000D02*
X102555000Y-88810000D01*
%TO.C,D1*%
X99370000Y-82164000D02*
X99370000Y-82320000D01*
X99370000Y-84480000D02*
X99370000Y-84636000D01*
X99370000Y-82164484D02*
G75*
G02*
X102601437Y-82320000I1560000J-1235516D01*
G01*
X99889039Y-82320000D02*
G75*
G02*
X101970961Y-82320000I1040961J-1080000D01*
G01*
X101970961Y-84480000D02*
G75*
G02*
X99889039Y-84480000I-1040961J1080000D01*
G01*
X102601437Y-84480000D02*
G75*
G02*
X99370000Y-84635516I-1671437J1080000D01*
G01*
%TO.C,C3*%
X105838748Y-81435000D02*
X106361252Y-81435000D01*
X105838748Y-82905000D02*
X106361252Y-82905000D01*
%TO.C,C2*%
X100098748Y-90250000D02*
X101521252Y-90250000D01*
X100098748Y-92070000D02*
X101521252Y-92070000D01*
%TD*%
%LPC*%
D13*
%TO.C,U2*%
X79650000Y-82555000D03*
D14*
X85950000Y-84835000D03*
D13*
X79650000Y-87115000D03*
%TD*%
D15*
%TO.C,U1*%
X114260000Y-40150000D03*
D16*
X114260000Y-42690000D03*
X114260000Y-45230000D03*
X114260000Y-47770000D03*
X114260000Y-50310000D03*
X114260000Y-52850000D03*
X114260000Y-55390000D03*
X114260000Y-57930000D03*
X121880000Y-57930000D03*
X121880000Y-55390000D03*
X121880000Y-52850000D03*
X121880000Y-50310000D03*
X121880000Y-47770000D03*
X121880000Y-45230000D03*
X121880000Y-42690000D03*
X121880000Y-40150000D03*
%TD*%
D17*
%TO.C,S1*%
X117775000Y-64325000D03*
X117775000Y-69025000D03*
X117775000Y-73725000D03*
X122975000Y-64325000D03*
X122975000Y-69025000D03*
X122975000Y-73725000D03*
X128175000Y-64325000D03*
X128175000Y-69025000D03*
X128175000Y-73725000D03*
%TD*%
D18*
%TO.C,RC1*%
X91105000Y-89450000D03*
X92755000Y-89450000D03*
%TD*%
%TO.C,R17*%
X91105000Y-86940000D03*
X92755000Y-86940000D03*
%TD*%
%TO.C,R5*%
X91105000Y-84430000D03*
X92755000Y-84430000D03*
%TD*%
%TO.C,R4*%
X91105000Y-81920000D03*
X92755000Y-81920000D03*
%TD*%
D19*
%TO.C,J5*%
X92100000Y-61910000D03*
X92100000Y-78140000D03*
X98450000Y-61910000D03*
X98450000Y-78140000D03*
X85750000Y-61910000D03*
X85750000Y-78140000D03*
%TD*%
%TO.C,J4*%
X92100000Y-40630000D03*
X92100000Y-56860000D03*
X98450000Y-40630000D03*
X98450000Y-56860000D03*
X85750000Y-40630000D03*
X85750000Y-56860000D03*
%TD*%
D20*
%TO.C,J2*%
X118200000Y-80100000D03*
D21*
X118200000Y-86400000D03*
D22*
X123000000Y-83000000D03*
%TD*%
D23*
%TO.C,J1*%
X95960000Y-82690000D03*
D24*
X95960000Y-84690000D03*
%TD*%
D25*
%TO.C,D5*%
X99255000Y-87810000D03*
X102555000Y-87810000D03*
%TD*%
D26*
%TO.C,D1*%
X99660000Y-83400000D03*
D27*
X102200000Y-83400000D03*
%TD*%
D28*
%TO.C,C3*%
X105150000Y-82170000D03*
X107050000Y-82170000D03*
%TD*%
D29*
%TO.C,C2*%
X99335000Y-91160000D03*
X102285000Y-91160000D03*
%TD*%
%LPD*%
M02*
