%TF.GenerationSoftware,KiCad,Pcbnew,9.0.2*%
%TF.CreationDate,2025-07-24T19:17:49+12:00*%
%TF.ProjectId,Delay,44656c61-792e-46b6-9963-61645f706362,rev?*%
%TF.SameCoordinates,Original*%
%TF.FileFunction,Copper,L1,Top*%
%TF.FilePolarity,Positive*%
%FSLAX46Y46*%
G04 Gerber Fmt 4.6, Leading zero omitted, Abs format (unit mm)*
G04 Created by KiCad (PCBNEW 9.0.2) date 2025-07-24 19:17:49*
%MOMM*%
%LPD*%
G01*
G04 APERTURE LIST*
G04 Aperture macros list*
%AMRoundRect*
0 Rectangle with rounded corners*
0 $1 Rounding radius*
0 $2 $3 $4 $5 $6 $7 $8 $9 X,Y pos of 4 corners*
0 Add a 4 corners polygon primitive as box body*
4,1,4,$2,$3,$4,$5,$6,$7,$8,$9,$2,$3,0*
0 Add four circle primitives for the rounded corners*
1,1,$1+$1,$2,$3*
1,1,$1+$1,$4,$5*
1,1,$1+$1,$6,$7*
1,1,$1+$1,$8,$9*
0 Add four rect primitives between the rounded corners*
20,1,$1+$1,$2,$3,$4,$5,0*
20,1,$1+$1,$4,$5,$6,$7,0*
20,1,$1+$1,$6,$7,$8,$9,0*
20,1,$1+$1,$8,$9,$2,$3,0*%
G04 Aperture macros list end*
%TA.AperFunction,ComponentPad*%
%ADD10RoundRect,0.250000X0.550000X-0.550000X0.550000X0.550000X-0.550000X0.550000X-0.550000X-0.550000X0*%
%TD*%
%TA.AperFunction,ComponentPad*%
%ADD11C,1.600000*%
%TD*%
%TA.AperFunction,ComponentPad*%
%ADD12RoundRect,0.250000X0.550000X0.550000X-0.550000X0.550000X-0.550000X-0.550000X0.550000X-0.550000X0*%
%TD*%
%TA.AperFunction,ComponentPad*%
%ADD13RoundRect,0.250000X-0.550000X0.550000X-0.550000X-0.550000X0.550000X-0.550000X0.550000X0.550000X0*%
%TD*%
%TA.AperFunction,SMDPad,CuDef*%
%ADD14RoundRect,0.225000X-0.225000X-0.250000X0.225000X-0.250000X0.225000X0.250000X-0.225000X0.250000X0*%
%TD*%
%TA.AperFunction,SMDPad,CuDef*%
%ADD15RoundRect,0.200000X0.275000X-0.200000X0.275000X0.200000X-0.275000X0.200000X-0.275000X-0.200000X0*%
%TD*%
%TA.AperFunction,SMDPad,CuDef*%
%ADD16RoundRect,0.150000X-0.725000X-0.150000X0.725000X-0.150000X0.725000X0.150000X-0.725000X0.150000X0*%
%TD*%
%TA.AperFunction,ComponentPad*%
%ADD17C,0.800000*%
%TD*%
%TA.AperFunction,ComponentPad*%
%ADD18C,6.400000*%
%TD*%
%TA.AperFunction,SMDPad,CuDef*%
%ADD19RoundRect,0.200000X0.200000X0.275000X-0.200000X0.275000X-0.200000X-0.275000X0.200000X-0.275000X0*%
%TD*%
%TA.AperFunction,ComponentPad*%
%ADD20R,2.500000X2.500000*%
%TD*%
%TA.AperFunction,ComponentPad*%
%ADD21R,1.800000X1.800000*%
%TD*%
%TA.AperFunction,ComponentPad*%
%ADD22C,1.800000*%
%TD*%
%TA.AperFunction,ComponentPad*%
%ADD23RoundRect,0.750000X0.750000X-1.250000X0.750000X1.250000X-0.750000X1.250000X-0.750000X-1.250000X0*%
%TD*%
%TA.AperFunction,SMDPad,CuDef*%
%ADD24RoundRect,0.225000X0.225000X0.250000X-0.225000X0.250000X-0.225000X-0.250000X0.225000X-0.250000X0*%
%TD*%
%TA.AperFunction,SMDPad,CuDef*%
%ADD25RoundRect,0.200000X-0.275000X0.200000X-0.275000X-0.200000X0.275000X-0.200000X0.275000X0.200000X0*%
%TD*%
%TA.AperFunction,SMDPad,CuDef*%
%ADD26RoundRect,0.225000X0.250000X-0.225000X0.250000X0.225000X-0.250000X0.225000X-0.250000X-0.225000X0*%
%TD*%
%TA.AperFunction,SMDPad,CuDef*%
%ADD27RoundRect,0.250000X-0.325000X-0.650000X0.325000X-0.650000X0.325000X0.650000X-0.325000X0.650000X0*%
%TD*%
%TA.AperFunction,SMDPad,CuDef*%
%ADD28RoundRect,0.225000X-0.225000X-0.375000X0.225000X-0.375000X0.225000X0.375000X-0.225000X0.375000X0*%
%TD*%
%TA.AperFunction,ComponentPad*%
%ADD29O,4.500000X3.000000*%
%TD*%
%TA.AperFunction,SMDPad,CuDef*%
%ADD30RoundRect,0.200000X-0.200000X-0.275000X0.200000X-0.275000X0.200000X0.275000X-0.200000X0.275000X0*%
%TD*%
%TA.AperFunction,SMDPad,CuDef*%
%ADD31RoundRect,0.250000X-0.850000X-0.350000X0.850000X-0.350000X0.850000X0.350000X-0.850000X0.350000X0*%
%TD*%
%TA.AperFunction,SMDPad,CuDef*%
%ADD32RoundRect,0.249997X-2.950003X-2.650003X2.950003X-2.650003X2.950003X2.650003X-2.950003X2.650003X0*%
%TD*%
%TA.AperFunction,SMDPad,CuDef*%
%ADD33RoundRect,0.150000X0.150000X-0.800000X0.150000X0.800000X-0.150000X0.800000X-0.150000X-0.800000X0*%
%TD*%
%TA.AperFunction,ComponentPad*%
%ADD34R,4.600000X2.000000*%
%TD*%
%TA.AperFunction,ComponentPad*%
%ADD35O,4.200000X2.000000*%
%TD*%
%TA.AperFunction,ComponentPad*%
%ADD36O,2.000000X4.200000*%
%TD*%
%TA.AperFunction,ComponentPad*%
%ADD37C,3.000000*%
%TD*%
%TA.AperFunction,ViaPad*%
%ADD38C,0.600000*%
%TD*%
%TA.AperFunction,Conductor*%
%ADD39C,0.500000*%
%TD*%
%TA.AperFunction,Conductor*%
%ADD40C,1.000000*%
%TD*%
%TA.AperFunction,Conductor*%
%ADD41C,0.200000*%
%TD*%
G04 APERTURE END LIST*
D10*
%TO.P,CF7,1*%
%TO.N,Net-(C15-Pad2)*%
X174500000Y-77750000D03*
D11*
%TO.P,CF7,2*%
%TO.N,Net-(CF7-Pad2)*%
X174500000Y-75250000D03*
%TD*%
D10*
%TO.P,CF6,1*%
%TO.N,Delayed Signal*%
X167750000Y-77750000D03*
D11*
%TO.P,CF6,2*%
%TO.N,Net-(CF6-Pad2)*%
X167750000Y-75250000D03*
%TD*%
D12*
%TO.P,CF5,1*%
%TO.N,Net-(CF5-Pad1)*%
X150000000Y-108000000D03*
D11*
%TO.P,CF5,2*%
%TO.N,Net-(C14-Pad1)*%
X147500000Y-108000000D03*
%TD*%
D10*
%TO.P,CF4,1*%
%TO.N,Buffered Signal*%
X135750000Y-79000000D03*
D11*
%TO.P,CF4,2*%
%TO.N,Net-(CF4-Pad2)*%
X135750000Y-76500000D03*
%TD*%
D13*
%TO.P,CF3,1*%
%TO.N,+5V*%
X154250000Y-68750000D03*
D11*
%TO.P,CF3,2*%
%TO.N,GND*%
X154250000Y-71250000D03*
%TD*%
D13*
%TO.P,CF2,1*%
%TO.N,+9V*%
X146000000Y-68750000D03*
D11*
%TO.P,CF2,2*%
%TO.N,GND*%
X146000000Y-71250000D03*
%TD*%
D10*
%TO.P,CF1,1*%
%TO.N,Net-(U2-REF)*%
X127500000Y-79000000D03*
D11*
%TO.P,CF1,2*%
%TO.N,GND*%
X127500000Y-76500000D03*
%TD*%
D14*
%TO.P,C3,1*%
%TO.N,Wet In*%
X170725000Y-93750000D03*
%TO.P,C3,2*%
%TO.N,Net-(C3-Pad2)*%
X172275000Y-93750000D03*
%TD*%
D15*
%TO.P,R8,1*%
%TO.N,Net-(C12-Pad1)*%
X130750000Y-104575000D03*
%TO.P,R8,2*%
%TO.N,Net-(U2-LPF1-IN)*%
X130750000Y-102925000D03*
%TD*%
D14*
%TO.P,C12,1*%
%TO.N,Net-(C12-Pad1)*%
X124225000Y-92095000D03*
%TO.P,C12,2*%
%TO.N,GND*%
X125775000Y-92095000D03*
%TD*%
D15*
%TO.P,R7,1*%
%TO.N,Buffered Signal*%
X165750000Y-104575000D03*
%TO.P,R7,2*%
%TO.N,Net-(U1A--)*%
X165750000Y-102925000D03*
%TD*%
%TO.P,R11,1*%
%TO.N,Net-(C13-Pad1)*%
X139500000Y-104575000D03*
%TO.P,R11,2*%
%TO.N,Net-(U2-LPF2-OUT)*%
X139500000Y-102925000D03*
%TD*%
D14*
%TO.P,C7,1*%
%TO.N,Net-(U2-LPF1-IN)*%
X137225000Y-87000000D03*
%TO.P,C7,2*%
%TO.N,Net-(U2-LPF1-OUT)*%
X138775000Y-87000000D03*
%TD*%
D16*
%TO.P,U2,1,VCC*%
%TO.N,+5V*%
X128925000Y-87650000D03*
%TO.P,U2,2,REF*%
%TO.N,Net-(U2-REF)*%
X128925000Y-88920000D03*
%TO.P,U2,3,AGND*%
%TO.N,GND*%
X128925000Y-90190000D03*
%TO.P,U2,4,DGND*%
X128925000Y-91460000D03*
%TO.P,U2,5,CLK_O*%
%TO.N,unconnected-(U2-CLK_O-Pad5)*%
X128925000Y-92730000D03*
%TO.P,U2,6,VCO*%
%TO.N,Net-(U2-VCO)*%
X128925000Y-94000000D03*
%TO.P,U2,7,CC1*%
%TO.N,Net-(U2-CC1)*%
X128925000Y-95270000D03*
%TO.P,U2,8,CC0*%
%TO.N,Net-(U2-CC0)*%
X128925000Y-96540000D03*
%TO.P,U2,9,OP1-OUT*%
%TO.N,Net-(U2-OP1-OUT)*%
X134075000Y-96540000D03*
%TO.P,U2,10,OP1-IN*%
%TO.N,Net-(U2-OP1-IN)*%
X134075000Y-95270000D03*
%TO.P,U2,11,OP2-IN*%
%TO.N,Net-(U2-OP2-IN)*%
X134075000Y-94000000D03*
%TO.P,U2,12,OP2-OUT*%
%TO.N,Net-(U2-OP2-OUT)*%
X134075000Y-92730000D03*
%TO.P,U2,13,LPF2-IN*%
%TO.N,Net-(U2-LPF2-IN)*%
X134075000Y-91460000D03*
%TO.P,U2,14,LPF2-OUT*%
%TO.N,Net-(U2-LPF2-OUT)*%
X134075000Y-90190000D03*
%TO.P,U2,15,LPF1-OUT*%
%TO.N,Net-(U2-LPF1-OUT)*%
X134075000Y-88920000D03*
%TO.P,U2,16,LPF1-IN*%
%TO.N,Net-(U2-LPF1-IN)*%
X134075000Y-87650000D03*
%TD*%
D14*
%TO.P,C11,1*%
%TO.N,+5V*%
X124225000Y-89595000D03*
%TO.P,C11,2*%
%TO.N,GND*%
X125775000Y-89595000D03*
%TD*%
D17*
%TO.P,H3,1*%
%TO.N,N/C*%
X132100000Y-44500000D03*
X132802944Y-42802944D03*
X132802944Y-46197056D03*
X134500000Y-42100000D03*
D18*
X134500000Y-44500000D03*
D17*
X134500000Y-46900000D03*
X136197056Y-42802944D03*
X136197056Y-46197056D03*
X136900000Y-44500000D03*
%TD*%
D15*
%TO.P,R21,1*%
%TO.N,Wet Out*%
X160500000Y-104575000D03*
%TO.P,R21,2*%
%TO.N,GND*%
X160500000Y-102925000D03*
%TD*%
D19*
%TO.P,R1,1*%
%TO.N,Net-(D1-A)*%
X164575000Y-134250000D03*
%TO.P,R1,2*%
%TO.N,+9V*%
X162925000Y-134250000D03*
%TD*%
D17*
%TO.P,H2,1*%
%TO.N,N/C*%
X163100000Y-44500000D03*
X163802944Y-42802944D03*
X163802944Y-46197056D03*
X165500000Y-42100000D03*
D18*
X165500000Y-44500000D03*
D17*
X165500000Y-46900000D03*
X167197056Y-42802944D03*
X167197056Y-46197056D03*
X167900000Y-44500000D03*
%TD*%
D14*
%TO.P,C8,1*%
%TO.N,Net-(U2-LPF2-OUT)*%
X137225000Y-89500000D03*
%TO.P,C8,2*%
%TO.N,Net-(U2-LPF2-IN)*%
X138775000Y-89500000D03*
%TD*%
D20*
%TO.P,+9VBATT1,1,1*%
%TO.N,Net-(+9VBATT1-Pad1)*%
X159250000Y-43500000D03*
%TD*%
D21*
%TO.P,LEVEL1,1,1*%
%TO.N,GND*%
X147500000Y-93550000D03*
D22*
%TO.P,LEVEL1,2,2*%
%TO.N,Net-(CF6-Pad2)*%
X150000000Y-93550000D03*
%TO.P,LEVEL1,3,3*%
%TO.N,Net-(CF5-Pad1)*%
X152500000Y-93550000D03*
D23*
%TO.P,LEVEL1,MP*%
%TO.N,N/C*%
X145250000Y-86050000D03*
X154750000Y-86050000D03*
%TD*%
D21*
%TO.P,TIME1,1,1*%
%TO.N,GND*%
X164000000Y-68050000D03*
D22*
%TO.P,TIME1,2,2*%
%TO.N,Net-(R5-Pad1)*%
X166500000Y-68050000D03*
%TO.P,TIME1,3,3*%
X169000000Y-68050000D03*
D23*
%TO.P,TIME1,MP*%
%TO.N,N/C*%
X161750000Y-60550000D03*
X171250000Y-60550000D03*
%TD*%
D24*
%TO.P,C4,1*%
%TO.N,Net-(U2-CC1)*%
X125775000Y-94595000D03*
%TO.P,C4,2*%
%TO.N,GND*%
X124225000Y-94595000D03*
%TD*%
D15*
%TO.P,R5,1*%
%TO.N,Net-(R5-Pad1)*%
X129000000Y-104575000D03*
%TO.P,R5,2*%
%TO.N,Net-(U2-VCO)*%
X129000000Y-102925000D03*
%TD*%
%TO.P,R19,1*%
%TO.N,Net-(C17-Pad1)*%
X157000000Y-104575000D03*
%TO.P,R19,2*%
%TO.N,Net-(CF5-Pad1)*%
X157000000Y-102925000D03*
%TD*%
D25*
%TO.P,R16,1*%
%TO.N,Net-(U1B--)*%
X169250000Y-102925000D03*
%TO.P,R16,2*%
%TO.N,Delayed Signal*%
X169250000Y-104575000D03*
%TD*%
D15*
%TO.P,R14,1*%
%TO.N,Net-(U1B--)*%
X167500000Y-104575000D03*
%TO.P,R14,2*%
%TO.N,Buffered Signal*%
X167500000Y-102925000D03*
%TD*%
D26*
%TO.P,C17,1*%
%TO.N,Net-(C17-Pad1)*%
X155000000Y-104525000D03*
%TO.P,C17,2*%
%TO.N,GND*%
X155000000Y-102975000D03*
%TD*%
D24*
%TO.P,C5,1*%
%TO.N,Net-(U2-CC0)*%
X125775000Y-97095000D03*
%TO.P,C5,2*%
%TO.N,GND*%
X124225000Y-97095000D03*
%TD*%
D15*
%TO.P,R20,1*%
%TO.N,Wet Out*%
X158750000Y-104575000D03*
%TO.P,R20,2*%
%TO.N,Net-(CF7-Pad2)*%
X158750000Y-102925000D03*
%TD*%
D14*
%TO.P,C15,1*%
%TO.N,Net-(U1B--)*%
X170725000Y-88750000D03*
%TO.P,C15,2*%
%TO.N,Net-(C15-Pad2)*%
X172275000Y-88750000D03*
%TD*%
D26*
%TO.P,C14,1*%
%TO.N,Net-(C14-Pad1)*%
X145000000Y-104525000D03*
%TO.P,C14,2*%
%TO.N,GND*%
X145000000Y-102975000D03*
%TD*%
D27*
%TO.P,C2,1*%
%TO.N,+4.5V*%
X141025000Y-47500000D03*
%TO.P,C2,2*%
%TO.N,GND*%
X143975000Y-47500000D03*
%TD*%
D28*
%TO.P,D2,1,K*%
%TO.N,+9V*%
X140850000Y-42250000D03*
%TO.P,D2,2,A*%
%TO.N,GND*%
X144150000Y-42250000D03*
%TD*%
D24*
%TO.P,C13,1*%
%TO.N,Net-(C13-Pad1)*%
X138775000Y-97000000D03*
%TO.P,C13,2*%
%TO.N,GND*%
X137225000Y-97000000D03*
%TD*%
D25*
%TO.P,R10,1*%
%TO.N,Net-(CF4-Pad2)*%
X134250000Y-102925000D03*
%TO.P,R10,2*%
%TO.N,Net-(C12-Pad1)*%
X134250000Y-104575000D03*
%TD*%
D15*
%TO.P,R4,1*%
%TO.N,GND*%
X162250000Y-104575000D03*
%TO.P,R4,2*%
%TO.N,Wet In*%
X162250000Y-102925000D03*
%TD*%
D29*
%TO.P,S1,1*%
%TO.N,Wet In*%
X144800000Y-134500000D03*
%TO.P,S1,2*%
%TO.N,Guitar In*%
X144800000Y-139200000D03*
%TO.P,S1,3*%
%TO.N,Net-(S1-Pad3)*%
X144800000Y-143900000D03*
%TO.P,S1,4*%
%TO.N,Net-(D1-K)*%
X150000000Y-134500000D03*
%TO.P,S1,5*%
%TO.N,GND*%
X150000000Y-139200000D03*
%TO.P,S1,6*%
%TO.N,Wet In*%
X150000000Y-143900000D03*
%TO.P,S1,7*%
%TO.N,Wet Out*%
X155200000Y-134500000D03*
%TO.P,S1,8*%
%TO.N,Guitar Out*%
X155200000Y-139200000D03*
%TO.P,S1,9*%
%TO.N,Net-(S1-Pad3)*%
X155200000Y-143900000D03*
%TD*%
D30*
%TO.P,R3,1*%
%TO.N,+4.5V*%
X141675000Y-51250000D03*
%TO.P,R3,2*%
%TO.N,GND*%
X143325000Y-51250000D03*
%TD*%
D15*
%TO.P,R12,1*%
%TO.N,Net-(C13-Pad1)*%
X137750000Y-104575000D03*
%TO.P,R12,2*%
%TO.N,Net-(U2-LPF2-IN)*%
X137750000Y-102925000D03*
%TD*%
D14*
%TO.P,C9,1*%
%TO.N,Net-(U2-OP2-OUT)*%
X137225000Y-92000000D03*
%TO.P,C9,2*%
%TO.N,Net-(U2-OP2-IN)*%
X138775000Y-92000000D03*
%TD*%
%TO.P,C16,1*%
%TO.N,Net-(C16-Pad1)*%
X124225000Y-87095000D03*
%TO.P,C16,2*%
%TO.N,Net-(C16-Pad2)*%
X125775000Y-87095000D03*
%TD*%
D31*
%TO.P,U3,1,VI*%
%TO.N,+9V*%
X145950000Y-57220000D03*
D32*
%TO.P,U3,2,GND*%
%TO.N,GND*%
X152250000Y-59500000D03*
D31*
%TO.P,U3,3,VO*%
%TO.N,+5V*%
X145950000Y-61780000D03*
%TD*%
D27*
%TO.P,C1,1*%
%TO.N,+9V*%
X141025000Y-45000000D03*
%TO.P,C1,2*%
%TO.N,GND*%
X143975000Y-45000000D03*
%TD*%
D20*
%TO.P,-9VBATT1,1,1*%
%TO.N,Net-(-9VBATT1-Pad1)*%
X159250000Y-49000000D03*
%TD*%
D14*
%TO.P,C10,1*%
%TO.N,Net-(U2-OP1-IN)*%
X137225000Y-94500000D03*
%TO.P,C10,2*%
%TO.N,Net-(U2-OP1-OUT)*%
X138775000Y-94500000D03*
%TD*%
D30*
%TO.P,R2,1*%
%TO.N,+9V*%
X141675000Y-49500000D03*
%TO.P,R2,2*%
%TO.N,+4.5V*%
X143325000Y-49500000D03*
%TD*%
D21*
%TO.P,D1,1,K*%
%TO.N,Net-(D1-K)*%
X173770000Y-135000000D03*
D22*
%TO.P,D1,2,A*%
%TO.N,Net-(D1-A)*%
X171230000Y-135000000D03*
%TD*%
D15*
%TO.P,R13,1*%
%TO.N,Net-(C13-Pad1)*%
X136000000Y-104575000D03*
%TO.P,R13,2*%
%TO.N,Net-(U2-OP2-OUT)*%
X136000000Y-102925000D03*
%TD*%
D21*
%TO.P,REPEATS1,1,1*%
%TO.N,GND*%
X131000000Y-68050000D03*
D22*
%TO.P,REPEATS1,2,2*%
%TO.N,Net-(C17-Pad1)*%
X133500000Y-68050000D03*
%TO.P,REPEATS1,3,3*%
%TO.N,Net-(C16-Pad2)*%
X136000000Y-68050000D03*
D23*
%TO.P,REPEATS1,MP*%
%TO.N,N/C*%
X128750000Y-60550000D03*
X138250000Y-60550000D03*
%TD*%
D15*
%TO.P,R17,1*%
%TO.N,Net-(C15-Pad2)*%
X171000000Y-104575000D03*
%TO.P,R17,2*%
%TO.N,Net-(U1B--)*%
X171000000Y-102925000D03*
%TD*%
D30*
%TO.P,RC1,1*%
%TO.N,Guitar Out*%
X162925000Y-136250000D03*
%TO.P,RC1,2*%
%TO.N,GND*%
X164575000Y-136250000D03*
%TD*%
D15*
%TO.P,R18,1*%
%TO.N,Net-(C16-Pad1)*%
X143000000Y-104575000D03*
%TO.P,R18,2*%
%TO.N,Net-(C12-Pad1)*%
X143000000Y-102925000D03*
%TD*%
D14*
%TO.P,C6,1*%
%TO.N,Net-(U1A--)*%
X170725000Y-91250000D03*
%TO.P,C6,2*%
%TO.N,Buffered Signal*%
X172275000Y-91250000D03*
%TD*%
D17*
%TO.P,H4,1*%
%TO.N,N/C*%
X132100000Y-145500000D03*
X132802944Y-143802944D03*
X132802944Y-147197056D03*
X134500000Y-143100000D03*
D18*
X134500000Y-145500000D03*
D17*
X134500000Y-147900000D03*
X136197056Y-143802944D03*
X136197056Y-147197056D03*
X136900000Y-145500000D03*
%TD*%
D33*
%TO.P,U1,1*%
%TO.N,Buffered Signal*%
X164095000Y-94750000D03*
%TO.P,U1,2,-*%
%TO.N,Net-(U1A--)*%
X165365000Y-94750000D03*
%TO.P,U1,3,+*%
%TO.N,+4.5V*%
X166635000Y-94750000D03*
%TO.P,U1,4,V-*%
%TO.N,GND*%
X167905000Y-94750000D03*
%TO.P,U1,5,+*%
%TO.N,+4.5V*%
X167905000Y-87750000D03*
%TO.P,U1,6,-*%
%TO.N,Net-(U1B--)*%
X166635000Y-87750000D03*
%TO.P,U1,7*%
%TO.N,Net-(C15-Pad2)*%
X165365000Y-87750000D03*
%TO.P,U1,8,V+*%
%TO.N,+9V*%
X164095000Y-87750000D03*
%TD*%
D15*
%TO.P,R9,1*%
%TO.N,Net-(C12-Pad1)*%
X132500000Y-104575000D03*
%TO.P,R9,2*%
%TO.N,Net-(U2-LPF1-OUT)*%
X132500000Y-102925000D03*
%TD*%
D17*
%TO.P,H1,1*%
%TO.N,N/C*%
X163100000Y-145500000D03*
X163802944Y-143802944D03*
X163802944Y-147197056D03*
X165500000Y-143100000D03*
D18*
X165500000Y-145500000D03*
D17*
X165500000Y-147900000D03*
X167197056Y-143802944D03*
X167197056Y-147197056D03*
X167900000Y-145500000D03*
%TD*%
D15*
%TO.P,R6,1*%
%TO.N,Net-(U1A--)*%
X164000000Y-104575000D03*
%TO.P,R6,2*%
%TO.N,Net-(C3-Pad2)*%
X164000000Y-102925000D03*
%TD*%
%TO.P,R15,1*%
%TO.N,Net-(C14-Pad1)*%
X141250000Y-104575000D03*
%TO.P,R15,2*%
%TO.N,Net-(U2-LPF2-OUT)*%
X141250000Y-102925000D03*
%TD*%
D34*
%TO.P,J2,1*%
%TO.N,GND*%
X150000000Y-51850000D03*
D35*
%TO.P,J2,2*%
%TO.N,+9V*%
X150000000Y-45550000D03*
D36*
%TO.P,J2,3*%
%TO.N,Net-(+9VBATT1-Pad1)*%
X154800000Y-48950000D03*
%TD*%
D37*
%TO.P,J3,R*%
%TO.N,N/C*%
X131650000Y-109885000D03*
%TO.P,J3,RN*%
X131650000Y-126115000D03*
%TO.P,J3,S*%
%TO.N,GND*%
X125300000Y-109885000D03*
%TO.P,J3,SN*%
%TO.N,unconnected-(J3-PadSN)*%
X125300000Y-126115000D03*
%TO.P,J3,T*%
%TO.N,Guitar Out*%
X138000000Y-109885000D03*
%TO.P,J3,TN*%
%TO.N,unconnected-(J3-PadTN)*%
X138000000Y-126115000D03*
%TD*%
%TO.P,J1,R*%
%TO.N,N/C*%
X168375000Y-126115000D03*
%TO.P,J1,RN*%
X168375000Y-109885000D03*
%TO.P,J1,S*%
%TO.N,GND*%
X174725000Y-126115000D03*
%TO.P,J1,SN*%
%TO.N,Net-(-9VBATT1-Pad1)*%
X174725000Y-109885000D03*
%TO.P,J1,T*%
%TO.N,Guitar In*%
X162025000Y-126115000D03*
%TO.P,J1,TN*%
%TO.N,unconnected-(J1-PadTN)*%
X162025000Y-109885000D03*
%TD*%
D38*
%TO.N,+9V*%
X160750000Y-79750000D03*
X152000000Y-76500000D03*
%TO.N,GND*%
X143325000Y-51250000D03*
X124050000Y-97095000D03*
X125950000Y-92095000D03*
X145000000Y-102800000D03*
X137050000Y-97000000D03*
X160500000Y-102925000D03*
X125950000Y-89595000D03*
X162250000Y-104575000D03*
X128925000Y-91460000D03*
X167905000Y-94750000D03*
X155000000Y-102800000D03*
X144150000Y-42250000D03*
X152250000Y-59500000D03*
X164575000Y-136250000D03*
X124050000Y-94595000D03*
X143975000Y-47500000D03*
X128925000Y-90190000D03*
X143975000Y-45000000D03*
%TO.N,+4.5V*%
X158000000Y-82250000D03*
X149500000Y-79000000D03*
%TO.N,Guitar In*%
X142000000Y-131250000D03*
%TO.N,Wet In*%
X162250000Y-103000000D03*
X157750000Y-107250000D03*
%TO.N,+5V*%
X128912500Y-87662500D03*
X137500000Y-82250000D03*
%TO.N,Net-(C12-Pad1)*%
X139500000Y-105500000D03*
X127700000Y-103300000D03*
X130750000Y-104575000D03*
X143000000Y-102925000D03*
%TO.N,Net-(C13-Pad1)*%
X136000000Y-104575000D03*
X136000000Y-101000000D03*
%TO.N,Buffered Signal*%
X172475000Y-91275000D03*
X152750000Y-89500000D03*
X164095000Y-94750000D03*
X147250000Y-89500000D03*
%TO.N,Net-(CF4-Pad2)*%
X131000000Y-97250000D03*
X134250000Y-102925000D03*
%TO.N,Net-(U1A--)*%
X164000000Y-104575000D03*
X164250000Y-99500000D03*
%TO.N,Net-(C16-Pad1)*%
X143000000Y-104575000D03*
X139500000Y-107000000D03*
%TO.N,Net-(R5-Pad1)*%
X147500000Y-104500000D03*
X144000000Y-106250000D03*
%TD*%
D39*
%TO.N,Net-(C14-Pad1)*%
X144274000Y-105426000D02*
X142101000Y-105426000D01*
X145000000Y-104700000D02*
X144274000Y-105426000D01*
X147500000Y-107200000D02*
X145000000Y-104700000D01*
X142101000Y-105426000D02*
X141250000Y-104575000D01*
X147500000Y-108000000D02*
X147500000Y-107200000D01*
%TO.N,Net-(CF5-Pad1)*%
X155924000Y-101849000D02*
X157000000Y-102925000D01*
X151800000Y-104276708D02*
X154227708Y-101849000D01*
X154227708Y-101849000D02*
X155924000Y-101849000D01*
X151800000Y-106200000D02*
X151800000Y-104276708D01*
X150000000Y-108000000D02*
X151800000Y-106200000D01*
%TO.N,Delayed Signal*%
X171501000Y-73999000D02*
X167750000Y-77750000D01*
X175018182Y-73999000D02*
X171501000Y-73999000D01*
X175751000Y-74731818D02*
X175018182Y-73999000D01*
X175751000Y-101225196D02*
X175751000Y-74731818D01*
%TO.N,Net-(CF7-Pad2)*%
X170750000Y-79000000D02*
X174500000Y-75250000D01*
X158101528Y-79000000D02*
X170750000Y-79000000D01*
X151999000Y-85102528D02*
X158101528Y-79000000D01*
%TO.N,Net-(C15-Pad2)*%
X165365000Y-86885000D02*
X174500000Y-77750000D01*
X165365000Y-87215900D02*
X165365000Y-86885000D01*
%TO.N,Net-(CF6-Pad2)*%
X167050000Y-75950000D02*
X167750000Y-75250000D01*
X159300000Y-75950000D02*
X167050000Y-75950000D01*
X150000000Y-85250000D02*
X159300000Y-75950000D01*
X150000000Y-93550000D02*
X150000000Y-85250000D01*
%TO.N,+5V*%
X150220000Y-66050000D02*
X145950000Y-61780000D01*
X151550000Y-66050000D02*
X150220000Y-66050000D01*
X149250000Y-82250000D02*
X156500000Y-75000000D01*
X156500000Y-71000000D02*
X151550000Y-66050000D01*
X137500000Y-82250000D02*
X149250000Y-82250000D01*
X156500000Y-75000000D02*
X156500000Y-71000000D01*
%TO.N,+9V*%
X146000000Y-66050000D02*
X146000000Y-68750000D01*
X146000000Y-68750000D02*
X152000000Y-74750000D01*
X144399000Y-58771000D02*
X144399000Y-64449000D01*
X145950000Y-57220000D02*
X144399000Y-58771000D01*
X144399000Y-64449000D02*
X146000000Y-66050000D01*
X152000000Y-74750000D02*
X152000000Y-76250000D01*
%TO.N,Buffered Signal*%
X135750000Y-81562075D02*
X135750000Y-79000000D01*
%TO.N,Net-(CF4-Pad2)*%
X131000000Y-81250000D02*
X135750000Y-76500000D01*
X131000000Y-97250000D02*
X131000000Y-81250000D01*
%TO.N,Net-(U2-REF)*%
X127500000Y-81700000D02*
X127500000Y-79000000D01*
%TO.N,+9V*%
X164095000Y-83095000D02*
X160750000Y-79750000D01*
X144250000Y-55520000D02*
X145950000Y-57220000D01*
X139999000Y-48447292D02*
X139999000Y-46026000D01*
X141025000Y-45000000D02*
X141025000Y-42425000D01*
D40*
X153001000Y-48551000D02*
X150000000Y-45550000D01*
X162925000Y-130575000D02*
X166000000Y-127500000D01*
D39*
X150000000Y-45550000D02*
X145649000Y-41199000D01*
X139999000Y-46026000D02*
X141025000Y-45000000D01*
X150000000Y-45550000D02*
X144250000Y-51300000D01*
D40*
X154095423Y-51751000D02*
X153001000Y-50656577D01*
X177551000Y-62067848D02*
X167234152Y-51751000D01*
D39*
X145649000Y-41199000D02*
X141901000Y-41199000D01*
D40*
X167234152Y-51751000D02*
X154095423Y-51751000D01*
D39*
X141051708Y-49500000D02*
X139999000Y-48447292D01*
D40*
X177551000Y-103946315D02*
X166000000Y-115497315D01*
X162925000Y-134250000D02*
X162925000Y-130575000D01*
D39*
X141675000Y-49500000D02*
X141051708Y-49500000D01*
D40*
X166000000Y-115497315D02*
X166000000Y-127500000D01*
D39*
X141901000Y-41199000D02*
X140850000Y-42250000D01*
X144250000Y-51300000D02*
X144250000Y-55520000D01*
D40*
X177551000Y-62067848D02*
X177551000Y-103946315D01*
D39*
X164095000Y-87750000D02*
X164095000Y-83095000D01*
D40*
X153001000Y-50656577D02*
X153001000Y-48551000D01*
D39*
%TO.N,+4.5V*%
X166635000Y-89554100D02*
X167905000Y-88284100D01*
X166635000Y-94750000D02*
X166635000Y-89554100D01*
X141675000Y-51250000D02*
X141675000Y-71175000D01*
X158000000Y-82250000D02*
X161000000Y-85250000D01*
X141675000Y-71175000D02*
X149500000Y-79000000D01*
X161000000Y-87500000D02*
X166635000Y-93135000D01*
X141325000Y-47500000D02*
X143325000Y-49500000D01*
X161000000Y-85250000D02*
X161000000Y-87500000D01*
X143325000Y-49600000D02*
X141675000Y-51250000D01*
X166635000Y-93135000D02*
X166635000Y-94750000D01*
%TO.N,Net-(D1-K)*%
X172419000Y-136351000D02*
X173770000Y-135000000D01*
X169643397Y-135324000D02*
X170670397Y-136351000D01*
X150000000Y-134500000D02*
X152749000Y-137249000D01*
X158683131Y-135324000D02*
X169643397Y-135324000D01*
X156758131Y-137249000D02*
X158683131Y-135324000D01*
X152749000Y-137249000D02*
X156758131Y-137249000D01*
X170670397Y-136351000D02*
X172419000Y-136351000D01*
%TO.N,Net-(D1-A)*%
X164575000Y-134250000D02*
X170480000Y-134250000D01*
X170480000Y-134250000D02*
X171230000Y-135000000D01*
%TO.N,Guitar In*%
X156890000Y-131250000D02*
X162025000Y-126115000D01*
X142000000Y-131250000D02*
X156890000Y-131250000D01*
%TO.N,Guitar Out*%
X136049000Y-111836000D02*
X138000000Y-109885000D01*
X157901000Y-144708131D02*
X156758131Y-145851000D01*
X157901000Y-141901000D02*
X157901000Y-144708131D01*
X136049000Y-138658131D02*
X136049000Y-111836000D01*
X162925000Y-136250000D02*
X159975000Y-139200000D01*
X159975000Y-139200000D02*
X155200000Y-139200000D01*
X155200000Y-139200000D02*
X157901000Y-141901000D01*
X156758131Y-145851000D02*
X143241869Y-145851000D01*
X143241869Y-145851000D02*
X136049000Y-138658131D01*
%TO.N,Wet In*%
X148049000Y-141949000D02*
X144039869Y-141949000D01*
X140500000Y-132312075D02*
X140500000Y-126250000D01*
X144039869Y-141949000D02*
X142099000Y-140008131D01*
X140500000Y-126250000D02*
X157750000Y-109000000D01*
X162525464Y-102925000D02*
X162250000Y-102925000D01*
X150000000Y-143900000D02*
X148049000Y-141949000D01*
X170550000Y-94900464D02*
X162525464Y-102925000D01*
X142687925Y-134500000D02*
X140500000Y-132312075D01*
X144800000Y-134500000D02*
X142687925Y-134500000D01*
X157750000Y-109000000D02*
X157750000Y-107250000D01*
X142099000Y-140008131D02*
X142099000Y-137490364D01*
X142099000Y-137490364D02*
X144800000Y-134789364D01*
X170550000Y-93750000D02*
X170550000Y-94900464D01*
%TO.N,Wet Out*%
X163976000Y-125306869D02*
X163976000Y-126923131D01*
X163976000Y-126923131D02*
X156399131Y-134500000D01*
X158750000Y-104575000D02*
X158750000Y-120080869D01*
X156399131Y-134500000D02*
X155200000Y-134500000D01*
X158750000Y-120080869D02*
X163976000Y-125306869D01*
X158750000Y-104575000D02*
X160500000Y-104575000D01*
%TO.N,+5V*%
X125226000Y-88419000D02*
X127281001Y-88419000D01*
X128037501Y-87662500D02*
X128912500Y-87662500D01*
X127281001Y-88419000D02*
X128037501Y-87662500D01*
X124050000Y-89595000D02*
X125226000Y-88419000D01*
%TO.N,Net-(C12-Pad1)*%
X135175000Y-105500000D02*
X139500000Y-105500000D01*
X124225000Y-92095000D02*
X123299000Y-93021000D01*
X134250000Y-104575000D02*
X135175000Y-105500000D01*
X123299000Y-98899000D02*
X127700000Y-103300000D01*
X134250000Y-104575000D02*
X130750000Y-104575000D01*
X123299000Y-93021000D02*
X123299000Y-98899000D01*
%TO.N,Net-(C13-Pad1)*%
X138775000Y-98225000D02*
X138775000Y-97000000D01*
X136000000Y-101000000D02*
X138775000Y-98225000D01*
X136000000Y-104575000D02*
X139500000Y-104575000D01*
%TO.N,Net-(C15-Pad2)*%
X174803000Y-90603000D02*
X174803000Y-100772000D01*
X174803000Y-100772000D02*
X171000000Y-104575000D01*
X166517001Y-85648000D02*
X165365000Y-86800001D01*
X172950000Y-88750000D02*
X174803000Y-90603000D01*
X172450000Y-88750000D02*
X169348000Y-85648000D01*
X165365000Y-86800001D02*
X165365000Y-87750000D01*
X169348000Y-85648000D02*
X166517001Y-85648000D01*
X172450000Y-88750000D02*
X172950000Y-88750000D01*
%TO.N,Net-(C16-Pad2)*%
X125950000Y-74801708D02*
X125950000Y-87095000D01*
X126652708Y-74099000D02*
X125950000Y-74801708D01*
X129951000Y-74099000D02*
X126652708Y-74099000D01*
X136000000Y-68050000D02*
X129951000Y-74099000D01*
%TO.N,Buffered Signal*%
X160500000Y-89500000D02*
X164095000Y-93095000D01*
X172475000Y-91275000D02*
X173401000Y-92201000D01*
X143687925Y-89500000D02*
X147250000Y-89500000D01*
X164095000Y-93095000D02*
X164095000Y-94750000D01*
X167400000Y-102925000D02*
X165750000Y-104575000D01*
X173401000Y-97024000D02*
X167500000Y-102925000D01*
X135750000Y-81562075D02*
X143687925Y-89500000D01*
X152750000Y-89500000D02*
X160500000Y-89500000D01*
X173401000Y-92201000D02*
X173401000Y-97024000D01*
%TO.N,Delayed Signal*%
X175751000Y-101225196D02*
X171550196Y-105426000D01*
X170101000Y-105426000D02*
X169250000Y-104575000D01*
X171550196Y-105426000D02*
X170101000Y-105426000D01*
%TO.N,Net-(+9VBATT1-Pad1)*%
X159250000Y-44500000D02*
X154800000Y-48950000D01*
D40*
%TO.N,Net-(-9VBATT1-Pad1)*%
X174725000Y-109385000D02*
X174725000Y-109885000D01*
X178752000Y-61570378D02*
X178752000Y-105858000D01*
X159250000Y-49000000D02*
X166181622Y-49000000D01*
X166181622Y-49000000D02*
X178752000Y-61570378D01*
X178752000Y-105858000D02*
X174725000Y-109885000D01*
D39*
%TO.N,Net-(C3-Pad2)*%
X172450000Y-94475000D02*
X164000000Y-102925000D01*
X172450000Y-93750000D02*
X172450000Y-94475000D01*
D41*
%TO.N,Net-(U2-CC1)*%
X126625000Y-95270000D02*
X128925000Y-95270000D01*
D39*
X125775000Y-94595000D02*
X126450000Y-95270000D01*
X126450000Y-95270000D02*
X128925000Y-95270000D01*
D41*
X125950000Y-94595000D02*
X126625000Y-95270000D01*
D39*
%TO.N,Net-(U2-CC0)*%
X128370000Y-97095000D02*
X128925000Y-96540000D01*
X125775000Y-97095000D02*
X128370000Y-97095000D01*
%TO.N,Net-(U1A--)*%
X165747000Y-96151000D02*
X165365000Y-95769000D01*
X164250000Y-99500000D02*
X165365000Y-98385000D01*
X165650000Y-102925000D02*
X164000000Y-104575000D01*
X168656000Y-93144000D02*
X168656000Y-95803100D01*
D41*
X165365000Y-94750000D02*
X165365000Y-98620936D01*
D39*
X165365000Y-98385000D02*
X165365000Y-94750000D01*
X165365000Y-95769000D02*
X165365000Y-94750000D01*
X168308100Y-96151000D02*
X165747000Y-96151000D01*
X168656000Y-95803100D02*
X168308100Y-96151000D01*
X170550000Y-91250000D02*
X168656000Y-93144000D01*
%TO.N,Net-(U2-LPF1-IN)*%
X137225000Y-87000000D02*
X134725000Y-87000000D01*
X134725000Y-87000000D02*
X134075000Y-87650000D01*
X133200001Y-87650000D02*
X134075000Y-87650000D01*
X130750000Y-102925000D02*
X131900000Y-101775000D01*
X131900000Y-101775000D02*
X131900000Y-88950001D01*
X131900000Y-88950001D02*
X133200001Y-87650000D01*
%TO.N,Net-(U2-LPF1-OUT)*%
X132500000Y-102925000D02*
X132500000Y-102500000D01*
X132749000Y-102676000D02*
X132749000Y-89696000D01*
X138775000Y-87000000D02*
X137849000Y-87926000D01*
X137849000Y-87926000D02*
X136903232Y-87926000D01*
X132749000Y-89696000D02*
X133525000Y-88920000D01*
X132500000Y-102925000D02*
X132749000Y-102676000D01*
X135909232Y-88920000D02*
X134075000Y-88920000D01*
X136903232Y-87926000D02*
X135909232Y-88920000D01*
D41*
%TO.N,Net-(U2-LPF2-IN)*%
X137924000Y-90526000D02*
X138950000Y-89500000D01*
D39*
X137849000Y-90426000D02*
X136903232Y-90426000D01*
D41*
X134075000Y-91460000D02*
X136040000Y-91460000D01*
X136040000Y-91460000D02*
X136974000Y-90526000D01*
D39*
X136903232Y-90426000D02*
X135869232Y-91460000D01*
X140551000Y-91276000D02*
X138775000Y-89500000D01*
X137750000Y-102925000D02*
X140551000Y-100124000D01*
X140551000Y-100124000D02*
X140551000Y-91276000D01*
X138775000Y-89500000D02*
X137849000Y-90426000D01*
X135869232Y-91460000D02*
X134075000Y-91460000D01*
D41*
X136974000Y-90526000D02*
X137924000Y-90526000D01*
D39*
%TO.N,Net-(U2-LPF2-OUT)*%
X141252000Y-90539758D02*
X139286242Y-88574000D01*
X139500000Y-102925000D02*
X141252000Y-101173000D01*
X139500000Y-102925000D02*
X141250000Y-102925000D01*
X138151000Y-88574000D02*
X137225000Y-89500000D01*
D41*
X136360000Y-90190000D02*
X137050000Y-89500000D01*
D39*
X136775000Y-89500000D02*
X136085000Y-90190000D01*
X141252000Y-101173000D02*
X141252000Y-90539758D01*
X137225000Y-89500000D02*
X136775000Y-89500000D01*
D41*
X134075000Y-90190000D02*
X136360000Y-90190000D01*
D39*
X139286242Y-88574000D02*
X138151000Y-88574000D01*
X136085000Y-90190000D02*
X134075000Y-90190000D01*
D41*
%TO.N,Net-(U2-OP2-IN)*%
X137924000Y-93026000D02*
X138950000Y-92000000D01*
D39*
X134949999Y-94000000D02*
X134075000Y-94000000D01*
X135668999Y-93281000D02*
X134949999Y-94000000D01*
X137494000Y-93281000D02*
X135668999Y-93281000D01*
X138775000Y-92000000D02*
X137494000Y-93281000D01*
D41*
X136974000Y-93026000D02*
X137924000Y-93026000D01*
D39*
%TO.N,Net-(U2-OP2-OUT)*%
X138383182Y-90883182D02*
X137266364Y-92000000D01*
D41*
X136320000Y-92730000D02*
X137050000Y-92000000D01*
D39*
X136725000Y-92500000D02*
X134305000Y-92500000D01*
X136000000Y-102925000D02*
X139676000Y-99249000D01*
X139676000Y-91463758D02*
X139095424Y-90883182D01*
X134305000Y-92500000D02*
X134075000Y-92730000D01*
D41*
X134075000Y-92730000D02*
X136320000Y-92730000D01*
D39*
X137225000Y-92000000D02*
X136725000Y-92500000D01*
D41*
X140000000Y-91538840D02*
X139435160Y-90974000D01*
X139435160Y-90974000D02*
X138076000Y-90974000D01*
D39*
X139095424Y-90883182D02*
X138383182Y-90883182D01*
X139676000Y-99249000D02*
X139676000Y-91463758D01*
%TO.N,Net-(U2-OP1-IN)*%
X135668999Y-94551000D02*
X134949999Y-95270000D01*
X134949999Y-95270000D02*
X134075000Y-95270000D01*
X137174000Y-94551000D02*
X135668999Y-94551000D01*
%TO.N,Net-(U2-OP1-OUT)*%
X135668999Y-95821000D02*
X134949999Y-96540000D01*
D41*
X134949999Y-96540000D02*
X135739999Y-95750000D01*
X137700000Y-95750000D02*
X138950000Y-94500000D01*
X135739999Y-95750000D02*
X137700000Y-95750000D01*
D39*
X137454000Y-95821000D02*
X135668999Y-95821000D01*
X134949999Y-96540000D02*
X134075000Y-96540000D01*
X138775000Y-94500000D02*
X137454000Y-95821000D01*
%TO.N,Net-(U1B--)*%
X171726000Y-89926000D02*
X170550000Y-88750000D01*
D41*
X169250000Y-102925000D02*
X171000000Y-102925000D01*
D39*
X170550000Y-88025000D02*
X170550000Y-88750000D01*
D41*
X167600000Y-104575000D02*
X169250000Y-102925000D01*
D39*
X172849292Y-89926000D02*
X171726000Y-89926000D01*
X174102000Y-99823000D02*
X174102000Y-91178708D01*
X167501900Y-86349000D02*
X168874000Y-86349000D01*
X166635000Y-87215900D02*
X167501900Y-86349000D01*
X167500000Y-104575000D02*
X169150000Y-102925000D01*
X169150000Y-102925000D02*
X171000000Y-102925000D01*
X174102000Y-91178708D02*
X172849292Y-89926000D01*
X171000000Y-102925000D02*
X174102000Y-99823000D01*
X168874000Y-86349000D02*
X170550000Y-88025000D01*
%TO.N,Net-(C16-Pad1)*%
X122500000Y-88645000D02*
X124050000Y-87095000D01*
X130023804Y-107000000D02*
X122500000Y-99476196D01*
X122500000Y-99476196D02*
X122500000Y-88645000D01*
X139500000Y-107000000D02*
X130023804Y-107000000D01*
%TO.N,Net-(C17-Pad1)*%
X146852708Y-109251000D02*
X153147292Y-109251000D01*
X145535708Y-107934000D02*
X146852708Y-109251000D01*
X133500000Y-68050000D02*
X128152000Y-73398000D01*
X153147292Y-109251000D02*
X157000000Y-105398292D01*
X128152000Y-73398000D02*
X126362344Y-73398000D01*
X121500000Y-103325869D02*
X126108131Y-107934000D01*
X157000000Y-105398292D02*
X157000000Y-104575000D01*
X126362344Y-73398000D02*
X121500000Y-78260344D01*
D41*
X155000000Y-104700000D02*
X156875000Y-104700000D01*
D39*
X157000000Y-104575000D02*
X155125000Y-104575000D01*
X126108131Y-107934000D02*
X145535708Y-107934000D01*
X121500000Y-78260344D02*
X121500000Y-103325869D01*
%TO.N,Net-(U2-REF)*%
X129384100Y-88920000D02*
X130251000Y-88053100D01*
X130251000Y-88053100D02*
X130251000Y-84451000D01*
X130251000Y-84451000D02*
X127500000Y-81700000D01*
%TO.N,Net-(CF5-Pad1)*%
X157000000Y-98050000D02*
X152500000Y-93550000D01*
X157000000Y-102925000D02*
X157000000Y-98050000D01*
%TO.N,Net-(CF7-Pad2)*%
X158750000Y-102925000D02*
X158750000Y-97500000D01*
X151999000Y-90749000D02*
X151999000Y-85102528D01*
X158750000Y-97500000D02*
X151999000Y-90749000D01*
%TO.N,Net-(R5-Pad1)*%
X169000000Y-68050000D02*
X166500000Y-68050000D01*
X165351000Y-68399000D02*
X165700000Y-68050000D01*
X146149000Y-91663075D02*
X148500000Y-89312075D01*
X165700000Y-68050000D02*
X166500000Y-68050000D01*
X147500000Y-104500000D02*
X147500000Y-96252000D01*
X146149000Y-94901000D02*
X146149000Y-91663075D01*
X148500000Y-89312075D02*
X148500000Y-85250000D01*
X164349000Y-69401000D02*
X165351000Y-69401000D01*
X148500000Y-85250000D02*
X164349000Y-69401000D01*
X165351000Y-69401000D02*
X165351000Y-68399000D01*
X130675000Y-106250000D02*
X144000000Y-106250000D01*
X129000000Y-104575000D02*
X130675000Y-106250000D01*
X147500000Y-96252000D02*
X146149000Y-94901000D01*
D41*
%TO.N,Net-(U2-VCO)*%
X129799999Y-94000000D02*
X128925000Y-94000000D01*
D39*
X130251000Y-96943100D02*
X130251000Y-94866900D01*
X129000000Y-98194100D02*
X130251000Y-96943100D01*
X130251000Y-94866900D02*
X129384100Y-94000000D01*
X129000000Y-102925000D02*
X129000000Y-98194100D01*
%TD*%
M02*
