M48
; DRILL file {KiCad 9.0.2} date 2025-06-29T21:27:56+1200
; FORMAT={-:-/ absolute / inch / decimal}
; #@! TF.CreationDate,2025-06-29T21:27:56+12:00
; #@! TF.GenerationSoftware,Kicad,Pcbnew,9.0.2
; #@! TF.FileFunction,Plated,1,2,PTH
FMAT,2
INCH
; #@! TA.AperFunction,Plated,PTH,ComponentDrill
T1C0.0315
; #@! TA.AperFunction,Plated,PTH,ComponentDrill
T2C0.0354
; #@! TA.AperFunction,Plated,PTH,ComponentDrill
T3C0.0394
; #@! TA.AperFunction,Plated,PTH,ComponentDrill
T4C0.0551
%
G90
G05
T1
X3.778Y-3.2555
X3.778Y-3.3343
X4.4984Y-1.5807
X4.4984Y-1.6807
X4.4984Y-1.7807
X4.4984Y-1.8807
X4.4984Y-1.9807
X4.4984Y-2.0807
X4.4984Y-2.1807
X4.4984Y-2.2807
X4.7984Y-1.5807
X4.7984Y-1.6807
X4.7984Y-1.7807
X4.7984Y-1.8807
X4.7984Y-1.9807
X4.7984Y-2.0807
X4.7984Y-2.1807
X4.7984Y-2.2807
T2
X3.9236Y-3.2835
X4.0236Y-3.2835
T4
X3.376Y-1.5996
X3.376Y-2.2386
X3.376Y-2.4374
X3.376Y-3.0764
X3.626Y-1.5996
X3.626Y-2.2386
X3.626Y-2.4374
X3.626Y-3.0764
X3.876Y-1.5996
X3.876Y-2.2386
X3.876Y-2.4374
X3.876Y-3.0764
T3
G00X4.5974Y-2.5325
M15
G01X4.6762Y-2.5325
M16
G05
G00X4.5974Y-2.7175
M15
G01X4.6762Y-2.7175
M16
G05
G00X4.5974Y-2.9026
M15
G01X4.6762Y-2.9026
M16
G05
G00X4.6024Y-3.1535
M15
G01X4.7047Y-3.1535
M16
G05
G00X4.6102Y-3.4016
M15
G01X4.6969Y-3.4016
M16
G05
G00X4.8022Y-2.5325
M15
G01X4.8809Y-2.5325
M16
G05
G00X4.8022Y-2.7175
M15
G01X4.8809Y-2.7175
M16
G05
G00X4.8022Y-2.9026
M15
G01X4.8809Y-2.9026
M16
G05
G00X4.8425Y-3.2244
M15
G01X4.8425Y-3.311
M16
G05
G00X5.0069Y-2.5325
M15
G01X5.0856Y-2.5325
M16
G05
G00X5.0069Y-2.7175
M15
G01X5.0856Y-2.7175
M16
G05
G00X5.0069Y-2.9026
M15
G01X5.0856Y-2.9026
M16
G05
M30
