%TF.GenerationSoftware,KiCad,Pcbnew,9.0.2*%
%TF.CreationDate,2025-06-30T18:01:48+12:00*%
%TF.ProjectId,Delay,44656c61-792e-46b6-9963-61645f706362,rev?*%
%TF.SameCoordinates,Original*%
%TF.FileFunction,Copper,L1,Top*%
%TF.FilePolarity,Positive*%
%FSLAX46Y46*%
G04 Gerber Fmt 4.6, Leading zero omitted, Abs format (unit mm)*
G04 Created by KiCad (PCBNEW 9.0.2) date 2025-06-30 18:01:48*
%MOMM*%
%LPD*%
G01*
G04 APERTURE LIST*
G04 Aperture macros list*
%AMRoundRect*
0 Rectangle with rounded corners*
0 $1 Rounding radius*
0 $2 $3 $4 $5 $6 $7 $8 $9 X,Y pos of 4 corners*
0 Add a 4 corners polygon primitive as box body*
4,1,4,$2,$3,$4,$5,$6,$7,$8,$9,$2,$3,0*
0 Add four circle primitives for the rounded corners*
1,1,$1+$1,$2,$3*
1,1,$1+$1,$4,$5*
1,1,$1+$1,$6,$7*
1,1,$1+$1,$8,$9*
0 Add four rect primitives between the rounded corners*
20,1,$1+$1,$2,$3,$4,$5,0*
20,1,$1+$1,$4,$5,$6,$7,0*
20,1,$1+$1,$6,$7,$8,$9,0*
20,1,$1+$1,$8,$9,$2,$3,0*%
G04 Aperture macros list end*
%TA.AperFunction,ComponentPad*%
%ADD10C,0.800000*%
%TD*%
%TA.AperFunction,ComponentPad*%
%ADD11C,6.400000*%
%TD*%
%TA.AperFunction,SMDPad,CuDef*%
%ADD12RoundRect,0.150000X-0.850000X-0.150000X0.850000X-0.150000X0.850000X0.150000X-0.850000X0.150000X0*%
%TD*%
%TA.AperFunction,SMDPad,CuDef*%
%ADD13RoundRect,0.250000X-1.050000X-0.550000X1.050000X-0.550000X1.050000X0.550000X-1.050000X0.550000X0*%
%TD*%
%TA.AperFunction,SMDPad,CuDef*%
%ADD14RoundRect,0.250000X-0.250000X-0.475000X0.250000X-0.475000X0.250000X0.475000X-0.250000X0.475000X0*%
%TD*%
%TA.AperFunction,SMDPad,CuDef*%
%ADD15RoundRect,0.200000X-0.200000X-0.275000X0.200000X-0.275000X0.200000X0.275000X-0.200000X0.275000X0*%
%TD*%
%TA.AperFunction,SMDPad,CuDef*%
%ADD16RoundRect,0.250000X-1.500000X-0.550000X1.500000X-0.550000X1.500000X0.550000X-1.500000X0.550000X0*%
%TD*%
%TA.AperFunction,ComponentPad*%
%ADD17R,2.500000X2.500000*%
%TD*%
%TA.AperFunction,SMDPad,CuDef*%
%ADD18RoundRect,0.150000X-0.800000X-0.150000X0.800000X-0.150000X0.800000X0.150000X-0.800000X0.150000X0*%
%TD*%
%TA.AperFunction,ComponentPad*%
%ADD19R,4.600000X2.000000*%
%TD*%
%TA.AperFunction,ComponentPad*%
%ADD20O,4.200000X2.000000*%
%TD*%
%TA.AperFunction,ComponentPad*%
%ADD21O,2.000000X4.200000*%
%TD*%
%TA.AperFunction,SMDPad,CuDef*%
%ADD22RoundRect,0.250000X-0.325000X-0.650000X0.325000X-0.650000X0.325000X0.650000X-0.325000X0.650000X0*%
%TD*%
%TA.AperFunction,ComponentPad*%
%ADD23R,1.800000X1.800000*%
%TD*%
%TA.AperFunction,ComponentPad*%
%ADD24C,1.800000*%
%TD*%
%TA.AperFunction,ComponentPad*%
%ADD25RoundRect,0.750000X-1.250000X-0.750000X1.250000X-0.750000X1.250000X0.750000X-1.250000X0.750000X0*%
%TD*%
%TA.AperFunction,ComponentPad*%
%ADD26C,3.000000*%
%TD*%
%TA.AperFunction,SMDPad,CuDef*%
%ADD27RoundRect,0.225000X-0.225000X-0.375000X0.225000X-0.375000X0.225000X0.375000X-0.225000X0.375000X0*%
%TD*%
%TA.AperFunction,ComponentPad*%
%ADD28O,4.500000X3.000000*%
%TD*%
%TA.AperFunction,SMDPad,CuDef*%
%ADD29RoundRect,0.250000X-0.850000X-0.350000X0.850000X-0.350000X0.850000X0.350000X-0.850000X0.350000X0*%
%TD*%
%TA.AperFunction,SMDPad,CuDef*%
%ADD30RoundRect,0.249997X-2.950003X-2.650003X2.950003X-2.650003X2.950003X2.650003X-2.950003X2.650003X0*%
%TD*%
G04 APERTURE END LIST*
D10*
%TO.P,H4,1*%
%TO.N,N/C*%
X135685000Y-55940000D03*
X136387944Y-54242944D03*
X136387944Y-57637056D03*
X138085000Y-53540000D03*
D11*
X138085000Y-55940000D03*
D10*
X138085000Y-58340000D03*
X139782056Y-54242944D03*
X139782056Y-57637056D03*
X140485000Y-55940000D03*
%TD*%
D12*
%TO.P,U1,1,VCC*%
%TO.N,+5V*%
X91500000Y-75055000D03*
%TO.P,U1,2,REF*%
%TO.N,Net-(U1-REF)*%
X91500000Y-76325000D03*
%TO.P,U1,3,AGND*%
%TO.N,GND*%
X91500000Y-77595000D03*
%TO.P,U1,4,DGND*%
X91500000Y-78865000D03*
%TO.P,U1,5,CLK_O*%
%TO.N,unconnected-(U1-CLK_O-Pad5)*%
X91500000Y-80135000D03*
%TO.P,U1,6,VCO*%
%TO.N,Net-(U1-VCO)*%
X91500000Y-81405000D03*
%TO.P,U1,7,CC1*%
%TO.N,Net-(U1-CC1)*%
X91500000Y-82675000D03*
%TO.P,U1,8,CC0*%
%TO.N,Net-(U1-CC0)*%
X91500000Y-83945000D03*
%TO.P,U1,9,OP1-OUT*%
%TO.N,Net-(U1-OP1-OUT)*%
X96500000Y-83945000D03*
%TO.P,U1,10,OP1-IN*%
%TO.N,Net-(U1-OP1-IN)*%
X96500000Y-82675000D03*
%TO.P,U1,11,OP2-IN*%
%TO.N,Net-(U1-OP2-IN)*%
X96500000Y-81405000D03*
%TO.P,U1,12,OP2-OUT*%
%TO.N,Net-(U1-OP2-OUT)*%
X96500000Y-80135000D03*
%TO.P,U1,13,LPF2-IN*%
%TO.N,Net-(U1-LPF2-IN)*%
X96500000Y-78865000D03*
%TO.P,U1,14,LPF2-OUT*%
%TO.N,Net-(U1-LPF2-OUT)*%
X96500000Y-77595000D03*
%TO.P,U1,15,LPF1-OUT*%
%TO.N,Net-(U1-LPF1-OUT)*%
X96500000Y-76325000D03*
%TO.P,U1,16,LPF1-IN*%
%TO.N,Net-(U1-LPF1-IN)*%
X96500000Y-75055000D03*
%TD*%
D13*
%TO.P,CF6,1*%
%TO.N,Net-(C18-Pad2)*%
X127835000Y-65790000D03*
%TO.P,CF6,2*%
%TO.N,Net-(CF6-Pad2)*%
X131435000Y-65790000D03*
%TD*%
D14*
%TO.P,C14,1*%
%TO.N,Net-(C14-Pad1)*%
X131815000Y-81210000D03*
%TO.P,C14,2*%
%TO.N,GND*%
X133715000Y-81210000D03*
%TD*%
D15*
%TO.P,R5,1*%
%TO.N,+4.5V*%
X122820000Y-94010000D03*
%TO.P,R5,2*%
%TO.N,GND*%
X124470000Y-94010000D03*
%TD*%
%TO.P,R16,1*%
%TO.N,Net-(U3B--)*%
X130840000Y-91500000D03*
%TO.P,R16,2*%
%TO.N,Buffered Signal*%
X132490000Y-91500000D03*
%TD*%
D14*
%TO.P,C17,1*%
%TO.N,Net-(U3A--)*%
X136265000Y-78200000D03*
%TO.P,C17,2*%
%TO.N,Buffered Signal*%
X138165000Y-78200000D03*
%TD*%
D13*
%TO.P,CF2,1*%
%TO.N,Net-(CF2-Pad1)*%
X127835000Y-38390000D03*
%TO.P,CF2,2*%
%TO.N,Net-(C12-Pad1)*%
X131435000Y-38390000D03*
%TD*%
D15*
%TO.P,R14,1*%
%TO.N,Net-(U3A--)*%
X130840000Y-86480000D03*
%TO.P,R14,2*%
%TO.N,Net-(C16-Pad2)*%
X132490000Y-86480000D03*
%TD*%
%TO.P,R21,1*%
%TO.N,Wet Out*%
X134850000Y-88990000D03*
%TO.P,R21,2*%
%TO.N,GND*%
X136500000Y-88990000D03*
%TD*%
D16*
%TO.P,CF5,1*%
%TO.N,+5V*%
X126935000Y-58940000D03*
%TO.P,CF5,2*%
%TO.N,GND*%
X132335000Y-58940000D03*
%TD*%
D15*
%TO.P,R12,1*%
%TO.N,Net-(C15-Pad1)*%
X126830000Y-96520000D03*
%TO.P,R12,2*%
%TO.N,Net-(C13-Pad1)*%
X128480000Y-96520000D03*
%TD*%
D17*
%TO.P,TP2,1,1*%
%TO.N,Net-(J4-PadSN)*%
X144500000Y-71500000D03*
%TD*%
D18*
%TO.P,U3,1*%
%TO.N,Buffered Signal*%
X102765000Y-90745000D03*
%TO.P,U3,2,-*%
%TO.N,Net-(U3A--)*%
X102765000Y-92015000D03*
%TO.P,U3,3,+*%
%TO.N,+4.5V*%
X102765000Y-93285000D03*
%TO.P,U3,4,V-*%
%TO.N,GND*%
X102765000Y-94555000D03*
%TO.P,U3,5,+*%
%TO.N,+4.5V*%
X109765000Y-94555000D03*
%TO.P,U3,6,-*%
%TO.N,Net-(U3B--)*%
X109765000Y-93285000D03*
%TO.P,U3,7*%
%TO.N,Net-(C18-Pad2)*%
X109765000Y-92015000D03*
%TO.P,U3,8,V+*%
%TO.N,+9V*%
X109765000Y-90745000D03*
%TD*%
D14*
%TO.P,C13,1*%
%TO.N,Net-(C13-Pad1)*%
X131815000Y-78200000D03*
%TO.P,C13,2*%
%TO.N,GND*%
X133715000Y-78200000D03*
%TD*%
D17*
%TO.P,TP1,1,1*%
%TO.N,Net-(J2-Pad3)*%
X144500000Y-66950000D03*
%TD*%
D19*
%TO.P,J2,1*%
%TO.N,GND*%
X80335000Y-73190000D03*
D20*
%TO.P,J2,2*%
%TO.N,+9V*%
X80335000Y-79490000D03*
D21*
%TO.P,J2,3*%
%TO.N,Net-(J2-Pad3)*%
X85135000Y-76090000D03*
%TD*%
D16*
%TO.P,CF1,1*%
%TO.N,Net-(U1-REF)*%
X126935000Y-31540000D03*
%TO.P,CF1,2*%
%TO.N,GND*%
X132335000Y-31540000D03*
%TD*%
D22*
%TO.P,C2,1*%
%TO.N,+9V*%
X112840000Y-90450000D03*
%TO.P,C2,2*%
%TO.N,GND*%
X115790000Y-90450000D03*
%TD*%
D14*
%TO.P,C16,1*%
%TO.N,Wet In*%
X136265000Y-75190000D03*
%TO.P,C16,2*%
%TO.N,Net-(C16-Pad2)*%
X138165000Y-75190000D03*
%TD*%
%TO.P,C9,1*%
%TO.N,Net-(U1-LPF2-OUT)*%
X127365000Y-78200000D03*
%TO.P,C9,2*%
%TO.N,Net-(U1-LPF2-IN)*%
X129265000Y-78200000D03*
%TD*%
D15*
%TO.P,R10,1*%
%TO.N,Net-(CF3-Pad2)*%
X126830000Y-91500000D03*
%TO.P,R10,2*%
%TO.N,Net-(C13-Pad1)*%
X128480000Y-91500000D03*
%TD*%
%TO.P,R15,1*%
%TO.N,Buffered Signal*%
X130840000Y-88990000D03*
%TO.P,R15,2*%
%TO.N,Net-(U3A--)*%
X132490000Y-88990000D03*
%TD*%
D14*
%TO.P,C15,1*%
%TO.N,Net-(C15-Pad1)*%
X136265000Y-72180000D03*
%TO.P,C15,2*%
%TO.N,Net-(C15-Pad2)*%
X138165000Y-72180000D03*
%TD*%
D15*
%TO.P,RC1,1*%
%TO.N,Guitar Out*%
X134850000Y-91500000D03*
%TO.P,RC1,2*%
%TO.N,GND*%
X136500000Y-91500000D03*
%TD*%
D23*
%TO.P,REPEATS1,1,1*%
%TO.N,GND*%
X76485000Y-47140000D03*
D24*
%TO.P,REPEATS1,2,2*%
%TO.N,Net-(C14-Pad1)*%
X76485000Y-49640000D03*
%TO.P,REPEATS1,3,3*%
%TO.N,Net-(C15-Pad2)*%
X76485000Y-52140000D03*
D25*
%TO.P,REPEATS1,MP*%
%TO.N,N/C*%
X83985000Y-44890000D03*
X83985000Y-54390000D03*
%TD*%
D15*
%TO.P,R19,1*%
%TO.N,Net-(U3B--)*%
X134850000Y-83970000D03*
%TO.P,R19,2*%
%TO.N,Delayed Signal*%
X136500000Y-83970000D03*
%TD*%
D22*
%TO.P,C6,1*%
%TO.N,+9V*%
X112840000Y-93800000D03*
%TO.P,C6,2*%
%TO.N,GND*%
X115790000Y-93800000D03*
%TD*%
D23*
%TO.P,TIME1,1,1*%
%TO.N,GND*%
X76485000Y-61490000D03*
D24*
%TO.P,TIME1,2,2*%
%TO.N,Net-(R1-Pad1)*%
X76485000Y-63990000D03*
%TO.P,TIME1,3,3*%
X76485000Y-66490000D03*
D25*
%TO.P,TIME1,MP*%
%TO.N,N/C*%
X83985000Y-59240000D03*
X83985000Y-68740000D03*
%TD*%
D14*
%TO.P,C18,1*%
%TO.N,Net-(U3B--)*%
X136265000Y-81210000D03*
%TO.P,C18,2*%
%TO.N,Net-(C18-Pad2)*%
X138165000Y-81210000D03*
%TD*%
D15*
%TO.P,R13,1*%
%TO.N,GND*%
X130840000Y-83970000D03*
%TO.P,R13,2*%
%TO.N,Wet In*%
X132490000Y-83970000D03*
%TD*%
D23*
%TO.P,LEVEL1,1,1*%
%TO.N,GND*%
X76485000Y-32790000D03*
D24*
%TO.P,LEVEL1,2,2*%
%TO.N,Net-(CF4-Pad2)*%
X76485000Y-35290000D03*
%TO.P,LEVEL1,3,3*%
%TO.N,Net-(CF2-Pad1)*%
X76485000Y-37790000D03*
D25*
%TO.P,LEVEL1,MP*%
%TO.N,N/C*%
X83985000Y-30540000D03*
X83985000Y-40040000D03*
%TD*%
D13*
%TO.P,CF4,1*%
%TO.N,Delayed Signal*%
X127835000Y-52090000D03*
%TO.P,CF4,2*%
%TO.N,Net-(CF4-Pad2)*%
X131435000Y-52090000D03*
%TD*%
D15*
%TO.P,R6,1*%
%TO.N,Net-(C11-Pad1)*%
X122820000Y-96520000D03*
%TO.P,R6,2*%
%TO.N,Net-(U1-OP2-OUT)*%
X124470000Y-96520000D03*
%TD*%
D26*
%TO.P,J5,R*%
%TO.N,N/C*%
X104585000Y-51920000D03*
%TO.P,J5,RN*%
X104585000Y-68150000D03*
%TO.P,J5,S*%
%TO.N,GND*%
X110935000Y-51920000D03*
%TO.P,J5,SN*%
%TO.N,unconnected-(J5-PadSN)*%
X110935000Y-68150000D03*
%TO.P,J5,T*%
%TO.N,Guitar Out*%
X98235000Y-51920000D03*
%TO.P,J5,TN*%
%TO.N,unconnected-(J5-PadTN)*%
X98235000Y-68150000D03*
%TD*%
D14*
%TO.P,C4,1*%
%TO.N,Net-(U1-CC1)*%
X122915000Y-78200000D03*
%TO.P,C4,2*%
%TO.N,GND*%
X124815000Y-78200000D03*
%TD*%
D15*
%TO.P,R8,1*%
%TO.N,Net-(C13-Pad1)*%
X126830000Y-86480000D03*
%TO.P,R8,2*%
%TO.N,Net-(U1-LPF1-OUT)*%
X128480000Y-86480000D03*
%TD*%
%TO.P,R4,1*%
%TO.N,+9V*%
X122820000Y-91500000D03*
%TO.P,R4,2*%
%TO.N,+4.5V*%
X124470000Y-91500000D03*
%TD*%
%TO.P,R20,1*%
%TO.N,Wet Out*%
X134850000Y-86480000D03*
%TO.P,R20,2*%
%TO.N,Net-(CF6-Pad2)*%
X136500000Y-86480000D03*
%TD*%
D14*
%TO.P,C3,1*%
%TO.N,+4.5V*%
X122915000Y-75190000D03*
%TO.P,C3,2*%
%TO.N,GND*%
X124815000Y-75190000D03*
%TD*%
%TO.P,C12,1*%
%TO.N,Net-(C12-Pad1)*%
X131815000Y-75190000D03*
%TO.P,C12,2*%
%TO.N,GND*%
X133715000Y-75190000D03*
%TD*%
D13*
%TO.P,CF3,1*%
%TO.N,Buffered Signal*%
X127835000Y-45240000D03*
%TO.P,CF3,2*%
%TO.N,Net-(CF3-Pad2)*%
X131435000Y-45240000D03*
%TD*%
D15*
%TO.P,R7,1*%
%TO.N,Net-(C12-Pad1)*%
X126830000Y-83970000D03*
%TO.P,R7,2*%
%TO.N,Net-(U1-LPF2-OUT)*%
X128480000Y-83970000D03*
%TD*%
%TO.P,R11,1*%
%TO.N,Net-(C14-Pad1)*%
X126830000Y-94010000D03*
%TO.P,R11,2*%
%TO.N,Net-(CF2-Pad1)*%
X128480000Y-94010000D03*
%TD*%
D14*
%TO.P,C1,1*%
%TO.N,Net-(U1-CC0)*%
X122915000Y-72180000D03*
%TO.P,C1,2*%
%TO.N,GND*%
X124815000Y-72180000D03*
%TD*%
%TO.P,C5,1*%
%TO.N,+5V*%
X122915000Y-81210000D03*
%TO.P,C5,2*%
%TO.N,GND*%
X124815000Y-81210000D03*
%TD*%
%TO.P,C7,1*%
%TO.N,Net-(U1-LPF1-IN)*%
X127365000Y-72180000D03*
%TO.P,C7,2*%
%TO.N,Net-(U1-LPF1-OUT)*%
X129265000Y-72180000D03*
%TD*%
%TO.P,C11,1*%
%TO.N,Net-(C11-Pad1)*%
X131815000Y-72180000D03*
%TO.P,C11,2*%
%TO.N,GND*%
X133715000Y-72180000D03*
%TD*%
D26*
%TO.P,J4,R*%
%TO.N,N/C*%
X104585000Y-30640000D03*
%TO.P,J4,RN*%
X104585000Y-46870000D03*
%TO.P,J4,S*%
%TO.N,GND*%
X110935000Y-30640000D03*
%TO.P,J4,SN*%
%TO.N,Net-(J4-PadSN)*%
X110935000Y-46870000D03*
%TO.P,J4,T*%
%TO.N,Guitar In*%
X98235000Y-30640000D03*
%TO.P,J4,TN*%
%TO.N,unconnected-(J4-PadTN)*%
X98235000Y-46870000D03*
%TD*%
D14*
%TO.P,C10,1*%
%TO.N,Net-(U1-OP1-IN)*%
X127365000Y-81210000D03*
%TO.P,C10,2*%
%TO.N,Net-(U1-OP1-OUT)*%
X129265000Y-81210000D03*
%TD*%
D15*
%TO.P,R1,1*%
%TO.N,Net-(R1-Pad1)*%
X122820000Y-83970000D03*
%TO.P,R1,2*%
%TO.N,Net-(U1-VCO)*%
X124470000Y-83970000D03*
%TD*%
%TO.P,R17,1*%
%TO.N,Net-(D1-A)*%
X130840000Y-94010000D03*
%TO.P,R17,2*%
%TO.N,+9V*%
X132490000Y-94010000D03*
%TD*%
D27*
%TO.P,D5,1,K*%
%TO.N,+9V*%
X135380000Y-67060000D03*
%TO.P,D5,2,A*%
%TO.N,GND*%
X138680000Y-67060000D03*
%TD*%
D15*
%TO.P,R9,1*%
%TO.N,Net-(C13-Pad1)*%
X126830000Y-88990000D03*
%TO.P,R9,2*%
%TO.N,Net-(U1-LPF1-IN)*%
X128480000Y-88990000D03*
%TD*%
D28*
%TO.P,S1,1*%
%TO.N,Wet In*%
X106140000Y-75025000D03*
%TO.P,S1,2*%
%TO.N,Guitar In*%
X106140000Y-79725000D03*
%TO.P,S1,3*%
%TO.N,Net-(S1-Pad3)*%
X106140000Y-84425000D03*
%TO.P,S1,4*%
%TO.N,Net-(D1-K)*%
X111340000Y-75025000D03*
%TO.P,S1,5*%
%TO.N,GND*%
X111340000Y-79725000D03*
%TO.P,S1,6*%
%TO.N,Wet In*%
X111340000Y-84425000D03*
%TO.P,S1,7*%
%TO.N,Wet Out*%
X116540000Y-75025000D03*
%TO.P,S1,8*%
%TO.N,Guitar Out*%
X116540000Y-79725000D03*
%TO.P,S1,9*%
%TO.N,Net-(S1-Pad3)*%
X116540000Y-84425000D03*
%TD*%
D15*
%TO.P,R2,1*%
%TO.N,Net-(C11-Pad1)*%
X122820000Y-86480000D03*
%TO.P,R2,2*%
%TO.N,Net-(U1-LPF2-OUT)*%
X124470000Y-86480000D03*
%TD*%
%TO.P,R18,1*%
%TO.N,Net-(C18-Pad2)*%
X130840000Y-96520000D03*
%TO.P,R18,2*%
%TO.N,Net-(U3B--)*%
X132490000Y-96520000D03*
%TD*%
%TO.P,R3,1*%
%TO.N,Net-(C11-Pad1)*%
X122820000Y-88990000D03*
%TO.P,R3,2*%
%TO.N,Net-(U1-LPF2-IN)*%
X124470000Y-88990000D03*
%TD*%
D29*
%TO.P,U2,1,VI*%
%TO.N,+9V*%
X76685000Y-89805000D03*
D30*
%TO.P,U2,2,GND*%
%TO.N,GND*%
X82985000Y-92085000D03*
D29*
%TO.P,U2,3,VO*%
%TO.N,+5V*%
X76685000Y-94365000D03*
%TD*%
D14*
%TO.P,C8,1*%
%TO.N,Net-(U1-OP2-OUT)*%
X127365000Y-75190000D03*
%TO.P,C8,2*%
%TO.N,Net-(U1-OP2-IN)*%
X129265000Y-75190000D03*
%TD*%
D23*
%TO.P,D1,1,K*%
%TO.N,Net-(D1-K)*%
X135785000Y-62650000D03*
D24*
%TO.P,D1,2,A*%
%TO.N,Net-(D1-A)*%
X138325000Y-62650000D03*
%TD*%
M02*
