M48
; DRILL file {KiCad 9.0.2} date 2025-07-24T19:17:49+1200
; FORMAT={-:-/ absolute / inch / decimal}
; #@! TF.CreationDate,2025-07-24T19:17:50+12:00
; #@! TF.GenerationSoftware,Kicad,Pcbnew,9.0.2
; #@! TF.FileFunction,Plated,1,2,PTH
FMAT,2
INCH
; #@! TA.AperFunction,Plated,PTH,ViaDrill
T1C0.0118
; #@! TA.AperFunction,Plated,PTH,ComponentDrill
T2C0.0197
; #@! TA.AperFunction,Plated,PTH,ComponentDrill
T3C0.0315
; #@! TA.AperFunction,Plated,PTH,ComponentDrill
T4C0.0354
; #@! TA.AperFunction,Plated,PTH,ComponentDrill
T5C0.0394
; #@! TA.AperFunction,Plated,PTH,ComponentDrill
T6C0.0472
; #@! TA.AperFunction,Plated,PTH,ComponentDrill
T7C0.0551
; #@! TA.AperFunction,Plated,PTH,ComponentDrill
T8C0.0709
; #@! TA.AperFunction,Plated,PTH,ComponentDrill
T9C0.1260
%
G90
G05
T1
X4.8839Y-3.7242
X4.8839Y-3.8226
X4.9587Y-3.5274
X4.9587Y-3.6258
X5.0276Y-4.0669
X5.0753Y-3.4513
X5.0758Y-3.5508
X5.0758Y-3.6008
X5.1476Y-4.1171
X5.1575Y-3.8287
X5.2854Y-4.0522
X5.3543Y-3.9764
X5.3543Y-4.1171
X5.3957Y-3.8189
X5.4134Y-3.2382
X5.4921Y-4.1535
X5.4921Y-4.2126
X5.5906Y-5.1673
X5.6299Y-4.0522
X5.6299Y-4.1171
X5.6427Y-2.0177
X5.6683Y-1.7717
X5.6683Y-1.8701
X5.6693Y-4.1831
X5.6752Y-1.6634
X5.7087Y-4.0472
X5.7972Y-3.5236
X5.8071Y-4.1142
X5.8858Y-3.1102
X5.9843Y-3.0118
X5.9941Y-2.3425
X6.0138Y-3.5236
X6.1024Y-4.0472
X6.2106Y-4.2224
X6.2205Y-3.2382
X6.3189Y-4.0522
X6.3287Y-3.1398
X6.3878Y-4.0551
X6.3878Y-4.1171
X6.4567Y-4.1171
X6.4604Y-3.7303
X6.4665Y-3.9173
X6.4793Y-5.3642
X6.6104Y-3.7303
X6.7904Y-3.5935
T2
X5.2008Y-1.752
X5.2008Y-5.7283
X5.2285Y-1.6852
X5.2285Y-1.8188
X5.2285Y-5.6615
X5.2285Y-5.7952
X5.2953Y-1.6575
X5.2953Y-1.8465
X5.2953Y-5.6339
X5.2953Y-5.8228
X5.3621Y-1.6852
X5.3621Y-1.8188
X5.3621Y-5.6615
X5.3621Y-5.7952
X5.3898Y-1.752
X5.3898Y-5.7283
X6.4213Y-1.752
X6.4213Y-5.7283
X6.4489Y-1.6852
X6.4489Y-1.8188
X6.4489Y-5.6615
X6.4489Y-5.7952
X6.5157Y-1.6575
X6.5157Y-1.8465
X6.5157Y-5.6339
X6.5157Y-5.8228
X6.5826Y-1.6852
X6.5826Y-1.8188
X6.5826Y-5.6615
X6.5826Y-5.7952
X6.6102Y-1.752
X6.6102Y-5.7283
T3
X5.0197Y-3.0118
X5.0197Y-3.1102
X5.3445Y-3.0118
X5.3445Y-3.1102
X5.748Y-2.7067
X5.748Y-2.8051
X5.8071Y-4.252
X5.9055Y-4.252
X6.0728Y-2.7067
X6.0728Y-2.8051
X6.6043Y-2.9626
X6.6043Y-3.061
X6.8701Y-2.9626
X6.8701Y-3.061
T4
X6.7413Y-5.315
X6.8413Y-5.315
T5
X5.1575Y-2.6791
X5.2559Y-2.6791
X5.3543Y-2.6791
X5.8071Y-3.6831
X5.9055Y-3.6831
X6.0039Y-3.6831
X6.4567Y-2.6791
X6.5551Y-2.6791
X6.6535Y-2.6791
T6
X6.2697Y-1.7126
X6.2697Y-1.9291
T7
X4.9331Y-4.3262
X4.9331Y-4.9652
X5.1831Y-4.3262
X5.1831Y-4.9652
X5.4331Y-4.3262
X5.4331Y-4.9652
X6.3789Y-4.3262
X6.3789Y-4.9652
X6.6289Y-4.3262
X6.6289Y-4.9652
X6.8789Y-4.3262
X6.8789Y-4.9652
T9
X5.2953Y-1.752
X5.2953Y-5.7283
X6.5157Y-1.752
X6.5157Y-5.7283
T5
G00X5.6614Y-5.2953
M15
G01X5.7402Y-5.2953
M16
G05
G00X5.6614Y-5.4803
M15
G01X5.7402Y-5.4803
M16
G05
G00X5.6614Y-5.6654
M15
G01X5.7402Y-5.6654
M16
G05
G00X5.8622Y-1.7933
M15
G01X5.9488Y-1.7933
M16
G05
G00X5.8543Y-2.0413
M15
G01X5.9567Y-2.0413
M16
G05
G00X5.8661Y-5.2953
M15
G01X5.9449Y-5.2953
M16
G05
G00X5.8661Y-5.4803
M15
G01X5.9449Y-5.4803
M16
G05
G00X5.8661Y-5.6654
M15
G01X5.9449Y-5.6654
M16
G05
G00X6.0945Y-1.8839
M15
G01X6.0945Y-1.9705
M16
G05
G00X6.0709Y-5.2953
M15
G01X6.1496Y-5.2953
M16
G05
G00X6.0709Y-5.4803
M15
G01X6.1496Y-5.4803
M16
G05
G00X6.0709Y-5.6654
M15
G01X6.1496Y-5.6654
M16
G05
T8
G00X5.065Y-2.3839
M15
G01X5.0728Y-2.3839
M16
G05
G00X5.439Y-2.3839
M15
G01X5.4469Y-2.3839
M16
G05
G00X5.7146Y-3.3878
M15
G01X5.7224Y-3.3878
M16
G05
G00X6.0886Y-3.3878
M15
G01X6.0965Y-3.3878
M16
G05
G00X6.3642Y-2.3839
M15
G01X6.372Y-2.3839
M16
G05
G00X6.7382Y-2.3839
M15
G01X6.7461Y-2.3839
M16
G05
M30
